<?xml version="1.0" encoding="UTF-8" standalone="no"?>
<!-- Created with Inkscape (http://www.inkscape.org/) -->

<svg
   width="72"
   height="72"
   viewBox="0 0 72 72"
   version="1.1"
   id="svg1"
   inkscape:version="1.3.2 (091e20e, 2023-11-25, custom)"
   sodipodi:docname="Coral-1.svg"
   xmlns:inkscape="http://www.inkscape.org/namespaces/inkscape"
   xmlns:sodipodi="http://sodipodi.sourceforge.net/DTD/sodipodi-0.dtd"
   xmlns="http://www.w3.org/2000/svg"
   xmlns:svg="http://www.w3.org/2000/svg">
  <sodipodi:namedview
     id="namedview1"
     pagecolor="#ffffff"
     bordercolor="#000000"
     borderopacity="0.25"
     inkscape:showpageshadow="2"
     inkscape:pageopacity="0.0"
     inkscape:pagecheckerboard="0"
     inkscape:deskcolor="#d1d1d1"
     inkscape:document-units="px"
     showguides="true"
     inkscape:zoom="4.228078"
     inkscape:cx="50.850529"
     inkscape:cy="62.557976"
     inkscape:window-width="1920"
     inkscape:window-height="1017"
     inkscape:window-x="-8"
     inkscape:window-y="-8"
     inkscape:window-maximized="1"
     inkscape:current-layer="layer2">
    <sodipodi:guide
       position="20.027076,81.867202"
       orientation="1,0"
       id="guide1"
       inkscape:locked="false" />
    <sodipodi:guide
       position="51.970053,76.64093"
       orientation="1,0"
       id="guide2"
       inkscape:locked="false" />
  </sodipodi:namedview>
  <defs
     id="defs1" />
  <g
     inkscape:label="Layer 1"
     inkscape:groupmode="layer"
     id="layer1">
    <g
       inkscape:groupmode="layer"
       id="layer2"
       inkscape:label="Layer 2"
       transform="translate(12.385927,-12.282767)">
      <rect
         style="display:inline;fill:#ffffff;fill-opacity:1;stroke:none;stroke-width:2;stroke-linecap:square;stroke-dasharray:none"
         id="rect2"
         width="72"
         height="72"
         x="-12.385927"
         y="12.282767" />
      <g
         id="g31"
         inkscape:label="Bottom Right"
         transform="matrix(0.69055902,-0.69055469,0.69055902,0.69055469,-124.87919,51.077535)">
        <path
           style="fill:none;fill-opacity:0.43;stroke:#000000;stroke-width:0.910866;stroke-linecap:round;stroke-dasharray:none;stroke-opacity:1"
           d="m 114.45282,141.90717 c -3.48286,0.009 -4.56966,-4.89841 -7.58166,-13.71661 -6.57922,1.87547 -7.000835,2.10323 -12.209498,2.44538 l -2.626585,3.50212 c -2.220567,1.49846 -2.652571,-2.38823 0,-4.37764 -9.967152,0.24473 -11.41154,-5.52813 -3.484004,-4.33516 6.380402,2.03373 11.383337,0.3349 17.790547,-0.62618 -1.83735,-3.04582 -2.55263,-6.01212 -3.8002,-9.33896 l -4.377642,3.79394 c -1.831372,0.95585 -2.107067,0.35602 -1.751056,-0.87552 0.951293,-1.89074 1.66316,-2.86756 3.21027,-4.37764 -15.409059,-0.93054 -2.140875,-2.40161 0,-2.04291 l -5.545015,-10.21448 c -2.271872,0.96347 -4.586297,1.21387 -7.004226,1.45921 0.290974,3.2074 -0.551785,2.54405 -1.807549,0.64722 -2.126448,4.68381 -4.731221,6.92524 -2.570094,-0.93907 -9.684672,-1.93692 -9.754928,-5.467376 1.167373,-2.0429 l 9.338968,-1.167371 c -2.565075,-1.394771 -4.333047,-3.252353 -6.832406,-4.784815 -17.852149,-6.86182 -11.856256,-6.30317 -6.42758,-6.013365 -0.04042,-2.151742 -0.320575,-5.557115 2.054631,-3.043131 1.580327,1.042458 1.165653,2.790722 0.115329,4.79419 2.39924,1.263584 4.659791,2.111103 6.128699,0.583692 2.001479,-1.654158 0.724422,1.281636 0.583685,2.626581 l 4.776451,3.452267 c -0.94048,-4.029007 -2.751269,-8.850191 -4.62385,-10.736602 -6.502803,-4.171357 -2.987624,-9.71568 1.767929,-1.932274 -0.08767,-4.312067 0.624861,-3.818867 0.997897,-2.755988 l 1.459215,3.217317 c 1.583294,-14.359016 2.71274,-7.07132 2.334745,-0.291846 7.754606,-4.652767 6.663016,-1.58061 5.836856,-0.875537 -1.933869,2.264769 -5.651276,2.601437 -5.87218,4.783725 l -0.04985,2.903905 c 1.781661,-1.356158 2.858517,-3.38877 4.67266,-4.292293 0.75645,-0.376742 1.51753,-0.721911 2.70858,-0.476894 1.85297,0.587245 0.38056,2.027148 -1.05313,2.740803 3.68614,4.227867 1.0502,3.530164 -1.65863,1.316921 -3.41909,4.144605 -4.6278,2.809676 -3.309968,7.174578 l 2.227775,5.110887 3.793953,7.58791 c 8.82158,-10.01182 5.04442,-2.40917 2.603,1.19091 1.87522,-0.513 8.9233,-2.38446 -0.0464,2.82296 l 3.79359,6.84569 c 1.53628,-4.96017 8.61654,-8.37616 1.68923,2.35318 l 2.46696,7.79994 c 2.79773,5.9691 4.30942,-2.84174 4.66948,-4.96132 -3.7099,-5.5738 -1.04357,-3.38523 1.16737,-1.75105 0.4979,-8.962 0.12525,-12.19383 -1.45921,-21.30453 -11.44412,2.54305 -6.47129,-1.76855 -14.3003,1.16737 -1.25981,0.39904 -2.23668,0.59318 0.29184,-1.75106 l 1.0604,-1.0822 c -2.30567,-1.85399 -6.828471,-3.622503 -4.56251,-4.754651 2.95343,-0.248494 4.18256,1.342076 6.03625,3.195731 0.97572,-2.138291 1.03588,-6.253431 2.13534,-0.861001 0.15414,1.065421 4.21275,2.948771 8.75528,1.459211 -0.63592,-2.009609 -1.04668,-4.066093 -1.45921,-6.128694 -3.2281,2.25085 -14.55678,-5.723274 -7.87975,-4.669484 2.48234,1.192497 0.023,-6.736809 3.27465,0.341697 1.05853,1.481222 2.61613,2.106874 4.6051,1.993054 l -2.3212,-3.893666 c -5.24754,-5.610459 -1.81377,-4.170395 0.87552,-2.022097 -0.95248,-3.875052 -8.68506,-11.180637 0.27831,-5.757959 2.58168,-9.947529 2.65146,-3.149105 2.91843,2.334752 -0.11067,1.57497 0.0973,3.11296 0.29185,4.669484 l 1.45921,-2.626596 c 0.77633,-4.877477 -0.35043,-12.978547 3.31624,-3.793948 3.77012,-1.833435 6.00808,-1.265613 1.93691,2.334735 -1.52901,1.088738 -2.75345,1.751201 -3.90717,3.359825 4.89177,-1.107935 0.6585,1.399711 -0.98977,2.883113 l -0.64806,2.804203 c 5.03514,-1.882999 6.31066,-5.584002 9.92266,-9.922662 0.23208,-0.757137 2.8454,-1.65911 1.19643,2.633841 l 2.01382,-0.590937 c 7.20216,-2.863207 -0.19455,1.751053 -0.29182,2.62658 l 1.75106,2.042906 c 2.45962,2.462146 -1.39896,0.903613 -2.89665,0.847469 -3.6488,0.726516 -6.65972,3.52129 -10.23629,5.687301 0.65481,2.57793 1.83962,5.624383 1.97224,9.978763 2.51886,0.2194 6.03752,-5.51118 9.99332,-11.552219 2.20804,-1.79038 -0.39412,2.530537 -0.58368,3.793969 l -1.45921,2.62657 c 2.00941,-0.98856 3.95285,-0.87551 6.12869,-0.87551 7.11353,-5.8607 6.11487,-4.542788 2.2272,1.08181 1.9268,1.59786 7.42654,6.89662 -1.76746,1.56647 -7.50687,2.74596 -10.61164,4.90485 -13.55439,8.43194 -0.30093,3.70024 0.97766,6.15628 -0.0657,9.96899 1.9747,-7.15662 13.57935,-20.68216 2.94585,-1.7876 11.66728,-0.75292 -0.46807,3.59559 -3.5021,5.54503 0.3618,2.79522 -1.00453,5.06614 -2.04291,7.58791 3.89078,-1.5245 6.7034,-4.66351 10.21449,-7.00424"
           id="path30"
           sodipodi:nodetypes="cccccscccccccccccccccccccccccccccscccccccccccccccccccccccccccccccccccccccccccccccccccccccc" />
        <path
           style="fill:none;fill-opacity:0.43;stroke:#000000;stroke-width:0.910866;stroke-linecap:round;stroke-dasharray:none;stroke-opacity:1"
           d="m 131.01807,125.57238 c 4.14492,-5.83632 6.35156,-7.39704 5.37711,-1.94066 -0.83456,1.28 -1.51618,2.25409 -1.75106,2.33473 l 1.45921,0.5837 c 4.70738,4.11099 -1.58871,1.82064 -3.79395,0.87552 -2.77076,1.61166 -2.92633,3.02593 -5.68865,4.9538 -1.23787,0.86393 -2.33639,2.75895 -5.57351,3.21781 -1.3668,4.3644 -2.79716,6.05887 -6.40717,6.33657"
           id="path31"
           sodipodi:nodetypes="cccccscc" />
      </g>
    </g>
  </g>
</svg>
