<?xml version="1.0" encoding="UTF-8" standalone="no"?>
<!-- Created with Inkscape (http://www.inkscape.org/) -->

<svg
   width="72"
   height="72"
   viewBox="0 0 72 72"
   version="1.1"
   id="svg1"
   inkscape:version="1.3.2 (091e20e, 2023-11-25, custom)"
   sodipodi:docname="Coral-1.svg"
   xmlns:inkscape="http://www.inkscape.org/namespaces/inkscape"
   xmlns:sodipodi="http://sodipodi.sourceforge.net/DTD/sodipodi-0.dtd"
   xmlns="http://www.w3.org/2000/svg"
   xmlns:svg="http://www.w3.org/2000/svg">
  <sodipodi:namedview
     id="namedview1"
     pagecolor="#ffffff"
     bordercolor="#000000"
     borderopacity="0.25"
     inkscape:showpageshadow="2"
     inkscape:pageopacity="0.0"
     inkscape:pagecheckerboard="0"
     inkscape:deskcolor="#d1d1d1"
     inkscape:document-units="px"
     showguides="true"
     inkscape:zoom="4.228078"
     inkscape:cx="50.850529"
     inkscape:cy="62.557976"
     inkscape:window-width="1920"
     inkscape:window-height="1017"
     inkscape:window-x="-8"
     inkscape:window-y="-8"
     inkscape:window-maximized="1"
     inkscape:current-layer="layer2">
    <sodipodi:guide
       position="20.027076,81.867202"
       orientation="1,0"
       id="guide1"
       inkscape:locked="false" />
    <sodipodi:guide
       position="51.970053,76.64093"
       orientation="1,0"
       id="guide2"
       inkscape:locked="false" />
  </sodipodi:namedview>
  <defs
     id="defs1" />
  <g
     inkscape:label="Layer 1"
     inkscape:groupmode="layer"
     id="layer1">
    <g
       inkscape:groupmode="layer"
       id="layer2"
       inkscape:label="Layer 2"
       transform="translate(12.385927,-12.282767)">
      <rect
         style="display:inline;fill:#ffffff;fill-opacity:1;stroke:none;stroke-width:2;stroke-linecap:square;stroke-dasharray:none"
         id="rect2"
         width="72"
         height="72"
         x="-12.385927"
         y="12.282767" />
      <g
         id="g32"
         inkscape:label="Top Left"
         transform="matrix(0.86526835,-0.86527109,0.86526835,0.86527109,-40.186347,47.055476)">
        <path
           style="fill:none;fill-opacity:0.43;stroke:#000000;stroke-width:0.377953;stroke-linecap:round;stroke-dasharray:none;stroke-opacity:1"
           d="M 33.786457,65.339901 C 30.143111,63.574655 28.170106,61.284313 26.019456,58.058337 21.972144,52.870751 19.092625,47.938526 16.893229,41.747634 16.090897,38.901549 15.560759,36.179477 15.534003,33.592282"
           id="path29"
           sodipodi:nodetypes="cccc" />
        <path
           style="fill:none;fill-opacity:0.43;stroke:#000000;stroke-width:0.910866;stroke-linecap:round;stroke-dasharray:none;stroke-opacity:1"
           d="m 46.593909,67.820586 c -1.961557,1.248007 -20.422467,2.070938 -22.8644,-9.650331 -0.564141,-0.95013 -0.899056,-2.072179 -1.977459,-2.636612 -5.715897,-3.879064 -5.914381,-12.141046 -7.085895,-18.291497 -0.411234,-3.940572 0.101934,-7.110809 0.494365,-10.38166 l 0.988729,-4.614071 c 2.349706,-4.843652 0.405126,7.436253 0.823942,11.205601 0.119514,2.18799 0.161378,4.665928 1.81267,5.602801 3.386863,2.229833 3.508536,5.930966 4.284495,9.887296 2.966189,7.95641 5.932377,7.95385 8.898566,9.063354 C 30.132214,54.131045 29.772942,50.161928 29.33231,45.975924 25.124549,35.971449 23.277059,36.199083 23.894297,24.883027 26.111039,17.130356 28.493956,-3.7501065 30.485828,6.2619538 v 4.2844952 c -1.88038,20.006548 -6.36776,12.978767 3.130977,30.650616 l 1.318306,6.426742 c 1.538024,6.976036 5.507306,11.647292 4.650398,20.419527 -4.405458,-2.438227 -5.816703,-5.749416 -7.475505,-9.772252"
           id="path23"
           sodipodi:nodetypes="cccccccccccccccccc" />
        <path
           style="fill:none;fill-opacity:0.43;stroke:#000000;stroke-width:0.910866;stroke-linecap:round;stroke-dasharray:none;stroke-opacity:1"
           d="m 39.71397,67.892763 0.127574,-3.094298 -0.127574,-2.673292 -1.483094,-5.6028 c -0.607109,-5.54295 0.634849,-10.630725 1.812671,-15.984461 L 39.71397,37.077358 c -0.735747,-3.161521 -1.286313,-5.89373 -2.789868,-8.733778 -0.550114,-7.053485 2.186551,-11.963626 5.096904,-17.137978 4.750274,-6.7175439 2.088834,4.43644 1.503571,14.048197 -0.307887,5.056429 2.682828,7.684938 3.285058,10.83483 1.173258,2.645962 -0.274733,12.367938 -2.089245,20.288643 -1.582868,6.909531 -2.465486,13.164701 -5.00642,11.515491 z"
           id="path24"
           sodipodi:nodetypes="ccccccccscsc" />
        <path
           style="fill:none;fill-opacity:0.43;stroke:#000000;stroke-width:0.910866;stroke-linecap:round;stroke-dasharray:none;stroke-opacity:1"
           d="m 39.71397,68.222339 c 2.20072,1.300538 3.006567,-3.807769 4.950833,-10.045957 0.46698,-1.498307 2.159434,-3.641135 3.123792,-4.45541 1.664665,-3.079474 4.03866,-6.202611 3.295765,-11.37039 -0.04279,-2.463118 1.961644,-2.92581 2.5852,-5.231803 0.836697,-3.09422 1.184838,-7.705136 1.864083,-10.917446 4.42847,-6.531764 1.313182,13.585855 0.164788,20.763321 l -2.342924,5.573491 c -4.800916,11.243428 -0.443844,10.380177 -6.885218,15.354618 -2.317498,1.025338 -4.5336,0.631142 -6.756319,0.329576 z"
           id="path25"
           sodipodi:nodetypes="csccsccccc" />
        <path
           style="fill:none;fill-opacity:0.43;stroke:#000000;stroke-width:0.377953;stroke-linecap:round;stroke-dasharray:none;stroke-opacity:1"
           d="m 44.096859,66.202051 c 0.530981,-1.41373 1.573858,-2.025509 2.100932,-3.344958 0.833772,-2.087227 1.077419,-4.213327 1.920633,-5.35387 l 2.900756,-5.289614 c 1.383673,-2.537494 3.305944,-5.195631 2.605006,-9.832199 -0.303797,-2.00956 1.107208,-3.738776 1.660812,-5.183479 1.334165,-2.502613 0.683013,-5.005227 1.023796,-7.50784"
           id="path26"
           sodipodi:nodetypes="csccscc" />
        <path
           style="fill:none;fill-opacity:0.43;stroke:#000000;stroke-width:0.377953;stroke-linecap:round;stroke-dasharray:none;stroke-opacity:1"
           d="m 40.858936,65.300677 c 0.820896,-5.437668 0.147239,-10.879398 0.147239,-16.343574 0.37459,-2.843383 1.83403,-4.813051 2.871168,-7.656449 0.352776,-3.485924 -0.746403,-6.770922 -1.619633,-7.50921 -3.196646,-5.164665 -2.883922,-10.67974 -1.177915,-16.122715"
           id="path27"
           sodipodi:nodetypes="ccccc" />
        <path
           style="fill:none;fill-opacity:0.43;stroke:#000000;stroke-width:0.377953;stroke-linecap:round;stroke-dasharray:none;stroke-opacity:1"
           d="M 37.987767,64.932579 C 33.822962,58.108169 32.469465,50.723907 31.435614,42.920287 29.205832,36.856431 25.541677,31.956902 25.619657,24.88346 l 2.57669,-10.748477 0.883436,-6.6993929"
           id="path28"
           sodipodi:nodetypes="ccccc" />
      </g>
    </g>
  </g>
</svg>
