<?xml version="1.0" encoding="UTF-8" standalone="no"?>
<!-- Created with Inkscape (http://www.inkscape.org/) -->

<svg
   width="72"
   height="72"
   viewBox="0 0 72 72"
   version="1.1"
   id="svg1"
   inkscape:version="1.3.2 (091e20e, 2023-11-25, custom)"
   sodipodi:docname="Tree1.svg"
   xmlns:inkscape="http://www.inkscape.org/namespaces/inkscape"
   xmlns:sodipodi="http://sodipodi.sourceforge.net/DTD/sodipodi-0.dtd"
   xmlns="http://www.w3.org/2000/svg"
   xmlns:svg="http://www.w3.org/2000/svg">
  <sodipodi:namedview
     id="namedview1"
     pagecolor="#ffffff"
     bordercolor="#000000"
     borderopacity="0.25"
     inkscape:showpageshadow="2"
     inkscape:pageopacity="0.0"
     inkscape:pagecheckerboard="0"
     inkscape:deskcolor="#d1d1d1"
     inkscape:document-units="px"
     inkscape:zoom="2.0686842"
     inkscape:cx="64.775476"
     inkscape:cy="93.054321"
     inkscape:window-width="1920"
     inkscape:window-height="1017"
     inkscape:window-x="-8"
     inkscape:window-y="-8"
     inkscape:window-maximized="1"
     inkscape:current-layer="layer1" />
  <defs
     id="defs1" />
  <rect
     style="fill:#ffffff;stroke-width:15.0512;stroke-linecap:round;stroke-linejoin:round;paint-order:fill markers stroke"
     id="rect1"
     width="72"
     height="72"
     x="0"
     y="0" />
  <g
     inkscape:label="Layer 1"
     inkscape:groupmode="layer"
     id="layer1">
    <g
       id="g10"
       transform="matrix(1.0810786,0,0,1.1001206,-3.0757001,-82.318204)"
       style="stroke-width:1.81356;stroke-dasharray:none">
      <path
         style="fill:none;stroke:#000000;stroke-width:1.81356;stroke-linecap:round;stroke-linejoin:round;stroke-dasharray:none;stroke-opacity:1"
         d="M 63.685386,139.26645 34.599008,110.25261 c -2.506535,0.28396 -7.002666,3.44178 -7.180926,0.36267 0.440521,-1.07488 2.871528,-1.52543 4.56968,-2.24857 l -0.217603,-0.87042 c -3.174546,-0.0578 -7.433866,0.6437 -7.906273,-1.30562 -1.194343,-3.14456 2.465361,-2.61579 4.569681,-3.26406 -1.019699,-2.1848 -6.178713,-5.059486 -2.901385,-6.528115 2.018632,0.334606 3.268293,2.14647 4.71475,3.481661 0.374067,0.318764 0.737159,0.516794 1.015484,-0.217604 0.704182,-1.920719 -0.489794,-5.598994 2.538712,-5.367561 2.54133,2.280937 1.474626,5.748419 1.595766,8.776689 0.978741,0.44393 2.053515,-2.35302 3.264057,-3.336593 0.519409,-0.37058 0.811772,-0.116782 0.94295,0.580273 0.03302,2.05511 -0.1506,3.93346 -0.797881,5.87531 9.654564,9.56434 19.610557,18.83745 29.449051,28.21596 1.860691,2.46592 -4.865657,5.4789 -4.569685,4.85982 z"
         id="path10" />
      <ellipse
         style="fill:none;stroke:#000000;stroke-width:1.81356;stroke-linecap:round;stroke-linejoin:round;stroke-dasharray:none;stroke-opacity:1"
         id="path11"
         ry="27.014608"
         rx="20.236464"
         cy="85.64518"
         cx="-57.186565"
         transform="rotate(-49.6)" />
    </g>
  </g>
  <path
     style="fill:#ffffff;fill-opacity:1;stroke-width:5.9;stroke-linecap:round;stroke-linejoin:round;stroke-dasharray:none;paint-order:fill markers stroke"
     d="m 45.046751,48.400332 1.978915,2.054446 3.1572,-3.398899 -1.691897,-1.676791 z"
     id="path1"
     sodipodi:nodetypes="ccccc" />
</svg>
