<?xml version="1.0" encoding="UTF-8" standalone="no"?>
<!-- Created with Inkscape (http://www.inkscape.org/) -->

<svg
   width="72"
   height="72"
   viewBox="0 0 72 72"
   version="1.1"
   id="svg1"
   inkscape:version="1.3.2 (091e20e, 2023-11-25)"
   sodipodi:docname="FlowerSheep.svg"
   xmlns:inkscape="http://www.inkscape.org/namespaces/inkscape"
   xmlns:sodipodi="http://sodipodi.sourceforge.net/DTD/sodipodi-0.dtd"
   xmlns="http://www.w3.org/2000/svg"
   xmlns:svg="http://www.w3.org/2000/svg">
  <sodipodi:namedview
     id="namedview1"
     pagecolor="#ffffff"
     bordercolor="#000000"
     borderopacity="0.25"
     inkscape:showpageshadow="2"
     inkscape:pageopacity="0.0"
     inkscape:pagecheckerboard="0"
     inkscape:deskcolor="#d1d1d1"
     inkscape:document-units="px"
     inkscape:zoom="4.4990146"
     inkscape:cx="43.009418"
     inkscape:cy="46.232346"
     inkscape:window-width="1160"
     inkscape:window-height="727"
     inkscape:window-x="0"
     inkscape:window-y="25"
     inkscape:window-maximized="0"
     inkscape:current-layer="layer1" />
  <defs
     id="defs1" />
  <g
     inkscape:label="Layer 1"
     inkscape:groupmode="layer"
     id="layer1">
    <rect
       style="fill:#f9f9f9;stroke-width:0.818202;stroke-linecap:round;stroke-linejoin:round"
       id="rect1"
       width="117.55926"
       height="117.55926"
       x="45.461418"
       y="-64.472687"
       transform="matrix(0.6124571,0,0,0.6124571,-27.843169,39.486757)" />
    <g
       id="g2"
       inkscape:label="Flower Beetle"
       transform="matrix(0.43307257,-0.43307257,0.43307257,0.43307257,-27.843169,39.486757)">
      <path
         style="fill:#000000;fill-opacity:1;stroke:#000000;stroke-width:0.119225;stroke-linecap:square;stroke-dasharray:none;stroke-opacity:1"
         d=""
         id="path77" />
      <path
         style="fill:none;fill-opacity:1;stroke:#000000;stroke-width:0.377953;stroke-linecap:square;stroke-dasharray:none;stroke-opacity:1"
         d="m 109.88608,68.994327 c 2.86897,-0.213619 0.7755,0.384513 0.54196,1.250885"
         id="path58"
         sodipodi:nodetypes="cc" />
      <path
         style="fill:none;fill-opacity:1;stroke:#000000;stroke-width:0.377953;stroke-linecap:square;stroke-dasharray:none;stroke-opacity:1"
         d="m 118.4568,55.996305 c -2.54749,-1.009393 -2.05784,-1.584908 -1.2153,-2.110011"
         id="path59"
         sodipodi:nodetypes="cc" />
      <path
         style="fill:#000000;fill-opacity:1;stroke:#000000;stroke-width:0.0632227;stroke-linecap:square;stroke-dasharray:none;stroke-opacity:1"
         d=""
         id="path63" />
      <path
         style="fill:#000000;fill-opacity:1;stroke:#000000;stroke-width:0.0632227;stroke-linecap:square;stroke-dasharray:none;stroke-opacity:1"
         d="m 90.526849,90.535731 -0.55534,-0.177752 0.110558,-1.185204 c 0.319487,-3.424975 -1.14265,-6.788977 -2.950775,-6.788977 -0.392277,0 -0.768701,0.189432 -1.349375,0.679065 -0.442931,0.373484 -0.80533,0.595886 -0.80533,0.494226 0,-0.101661 -0.184764,-0.369602 -0.410588,-0.595425 -0.847571,-0.847573 -2.47545,-0.304143 -3.830254,1.278643 -0.307251,0.358953 -0.595958,0.652642 -0.641571,0.652642 -0.04561,0 -0.169898,-0.290262 -0.276188,-0.645027 -0.106291,-0.354766 -0.379398,-0.919325 -0.606906,-1.254576 l -0.41365,-0.609548 h 0.572557 c 1.09309,0 1.761873,-0.59176 1.757601,-1.55518 -0.0051,-1.148889 -1.661411,-3.278996 -3.130018,-4.025363 l -0.74911,-0.380709 0.926336,-0.207304 c 1.104604,-0.2472 1.886224,-0.740596 2.414083,-1.523886 0.311484,-0.462211 0.377993,-0.757202 0.338534,-1.501511 -0.04809,-0.907202 -0.06634,-0.937827 -0.88549,-1.486141 -0.763804,-0.511269 -0.924768,-0.554278 -1.854908,-0.495619 -0.808348,0.05098 -1.235508,0.193488 -2.070037,0.690615 -0.98463,0.586541 -1.044668,0.602106 -0.943891,0.244704 0.370229,-1.313002 0.447762,-1.985173 0.293448,-2.54405 -0.156994,-0.568587 -0.144917,-0.597696 0.247984,-0.597696 0.883148,0 1.92288,-0.906031 2.633178,-2.294572 l 0.275295,-0.538167 0.793104,0.426234 c 1.516352,0.814926 3.192745,0.346842 4.242009,-1.184457 0.435476,-0.635537 0.649312,-0.620325 0.649507,0.0462 2.29e-4,0.779069 0.91987,2.483241 1.569543,2.908494 0.610575,0.399662 0.939477,0.917977 0.939477,1.48052 0,0.431579 -0.09096,0.414533 -0.812312,-0.152228 -1.116692,-0.877376 -1.717458,-1.092602 -2.9172,-1.045096 -1.018603,0.04033 -1.835976,1.627449 -1.446271,2.808265 0.226319,0.685753 1.264766,1.757758 1.996232,2.060741 0.276717,0.11462 0.501182,0.255724 0.498809,0.313564 -0.0024,0.05784 -0.381753,0.361229 -0.843068,0.674197 -0.461315,0.312968 -0.977798,0.764615 -1.147739,1.00366 -0.852238,1.198782 -0.857332,3.044404 -0.01074,3.890996 0.406887,0.406888 0.606669,0.474635 1.399654,0.474635 0.955664,0 1.528407,-0.176246 2.320793,-0.714162 0.455325,-0.309099 0.460011,-0.30867 0.460011,0.04197 0,1.526395 2.212446,2.603042 3.411282,1.660037 0.579835,-0.456098 1.10525,-1.499328 1.104963,-2.193939 l -2.29e-4,-0.550314 0.894059,0.05578 0.894057,0.05578 -0.886058,1.712051 c -0.999405,1.931063 -1.286287,3.367293 -0.903987,4.525674 0.568422,1.722337 3.308442,1.269458 5.522609,-0.912794 l 0.933477,-0.920022 0.578696,1.144076 c 0.866321,1.71271 1.823283,2.02619 3.60798,1.181894 1.2213,-0.577771 1.80773,-1.460636 1.70139,-2.56144 -0.0923,-0.955721 -0.53007,-1.897834 -1.15656,-2.489135 -0.26372,-0.248912 -0.47949,-0.509268 -0.47949,-0.578567 0,-0.0693 0.46551,-0.126001 1.03448,-0.126001 1.47532,0 2.35111,-0.459257 2.98569,-1.565671 0.58936,-1.027581 0.61965,-1.598468 0.13095,-2.468001 -0.45093,-0.802328 -1.44265,-1.319184 -2.53117,-1.319184 -0.43096,0 -0.78357,-0.03365 -0.78357,-0.07479 0,-0.04113 0.19165,-0.435227 0.42588,-0.875767 0.29821,-0.560848 0.41105,-1.002307 0.37638,-1.472523 -0.0455,-0.617102 -0.002,-0.696728 0.53595,-0.982216 1.06918,-0.567351 1.63458,-1.093935 2.01226,-1.874121 0.33647,-0.695043 0.35299,-0.841468 0.16575,-1.468219 -0.12511,-0.418767 -0.46881,-0.937409 -0.86253,-1.301551 l -0.65455,-0.605368 0.42039,-0.275454 c 0.23122,-0.151499 0.64637,-0.669466 0.92255,-1.151037 0.40522,-0.706571 0.50245,-1.070818 0.50372,-1.887014 l 0.002,-1.01143 1.17941,-0.202246 c 1.18053,-0.202439 2.16208,-0.609158 3.04443,-1.261507 0.59616,-0.440762 1.42741,-1.727255 1.567,-2.42518 0.12314,-0.615724 0.34627,-0.814683 0.61371,-0.547241 0.3223,0.322298 1.53723,0.22556 1.87658,-0.149422 0.41489,-0.458447 0.46962,-0.332406 0.16855,0.388161 -0.13921,0.333179 -0.25312,1.059844 -0.25312,1.614813 0,1.022801 -0.12519,1.211935 -0.50183,0.758118 -0.3004,-0.361961 -1.05269,-0.308434 -1.58849,0.113023 -0.44924,0.353371 -0.45995,0.399841 -0.36915,1.600478 l 0.0935,1.236539 -0.40027,-0.262264 c -0.45384,-0.297369 -1.12521,-0.33997 -1.57385,-0.09987 -0.87368,0.46758 -1.22118,3.631009 -0.54456,4.9573 0.4013,0.786609 0.93348,1.185739 1.82906,1.371776 l 0.63006,0.130882 0.0228,1.757334 c 0.0262,2.024184 0.42089,3.230833 1.27538,3.899574 l 0.49905,0.390561 -0.9165,0.419589 c -1.06235,0.486357 -1.69356,1.225411 -1.98852,2.328248 l -0.20726,0.774886 -0.48191,-0.665256 c -0.53149,-0.73371 -1.58164,-1.299368 -2.42291,-1.305094 -0.39868,-0.0027 -0.61406,0.109675 -0.8239,0.429928 -0.40132,0.612496 -0.47857,2.00151 -0.16195,2.911934 0.14399,0.41401 0.20742,0.771863 0.14097,0.795229 -1.04534,0.367567 -1.74247,1.401024 -1.96369,2.911052 -0.0984,0.671576 -0.0542,0.867137 0.32073,1.418863 0.23917,0.35196 0.43484,0.721282 0.43484,0.820715 0,0.09943 -0.23271,0.401877 -0.51715,0.672096 -0.60056,0.570547 -1.15561,1.575203 -1.15561,2.091668 0,0.273638 -0.0697,0.332158 -0.29274,0.245865 -1.21223,-0.468973 -1.93908,-0.29222 -2.38391,0.579708 l -0.33883,0.664176 -0.67348,-0.269473 c -0.795726,-0.318385 -1.630211,-0.226453 -2.304825,0.253916 l -0.470469,0.335003 0.0099,-1.03567 c 0.0078,-0.810305 -0.08211,-1.199473 -0.413092,-1.788418 l -0.423038,-0.752745 -0.942364,0.01858 c -1.17264,0.02312 -2.158405,0.561157 -3.099879,1.691927 -0.796147,0.956223 -1.129604,1.588208 -1.281942,2.429591 -0.06247,0.345009 -0.16662,0.619603 -0.231453,0.610211 -0.06483,-0.0094 -0.36778,-0.09706 -0.673217,-0.194827 z M 108.58233,73.659737 c 0.82824,-0.248147 0.98925,-0.450242 1.64543,-2.065289 0.29904,-0.736018 0.73114,-1.537777 0.96022,-1.781686 1.34671,-1.433891 -1.4183,-1.529858 -4.33761,-0.150549 -1.18254,0.558725 -1.46602,0.947938 -1.46602,2.012854 0,1.034894 0.25716,1.489753 1.04424,1.847013 0.82789,0.375784 1.26557,0.403759 2.15374,0.137657 z"
         id="path64" />
      <path
         style="fill:#000000;fill-opacity:1;stroke:#000000;stroke-width:0.0606647;stroke-linecap:square;stroke-dasharray:none;stroke-opacity:1"
         d="m 66.533901,71.872174 c -0.680976,-1.523356 -2.430088,-4.107228 -3.728447,-5.50784 -1.053102,-1.136039 -1.099585,-1.218461 -0.901815,-1.59905 0.114685,-0.220699 0.209583,-0.613031 0.210885,-0.871849 l 0.0024,-0.470577 0.519122,0.675438 c 0.742462,0.966029 1.589778,1.503374 2.510042,1.591799 0.979126,0.09408 1.400422,-0.128551 1.527764,-0.807343 0.231093,-1.23183 -0.676184,-2.877963 -2.19504,-3.982606 l -0.607524,-0.441844 1.08905,-0.101592 c 2.098921,-0.195797 2.343215,-0.264427 2.890937,-0.812149 0.43833,-0.43833 0.52549,-0.645588 0.52549,-1.249562 0,-0.619668 -0.07522,-0.787497 -0.521653,-1.163936 -0.286909,-0.241925 -0.766443,-0.542427 -1.06563,-0.667784 l -0.543976,-0.227921 0.463722,-0.239042 c 0.255047,-0.131473 0.690323,-0.457614 0.967281,-0.724757 0.568904,-0.548745 0.564863,-0.551813 0.924728,0.702025 0.30361,1.057833 0.603875,1.28796 1.587384,1.216591 0.617033,-0.04478 0.704084,-0.107432 0.99749,-0.717957 0.302177,-0.628774 0.340691,-0.654525 0.642035,-0.429283 0.333392,0.249198 2.132618,0.230312 2.947117,-0.03093 0.347443,-0.111441 0.367734,-0.08928 0.240763,0.262947 -0.07626,0.211554 -0.123502,1.124991 -0.104981,2.029859 0.01852,0.904868 -0.0017,1.645215 -0.04496,1.645215 -0.04325,0 -0.50766,-0.180573 -1.032019,-0.401272 -1.299048,-0.546762 -2.844196,-0.565423 -3.322647,-0.04013 -0.909131,0.998143 -0.943238,2.01125 -0.104693,3.109803 l 0.585378,0.766888 -0.545251,0.407751 c -0.299888,0.224263 -0.960496,0.805615 -1.468018,1.291893 -0.89868,0.861065 -0.927504,0.915565 -1.104287,2.087959 -0.154087,1.021876 -0.143155,1.294939 0.07233,1.806744 0.354437,0.84183 0.88471,1.027531 2.075103,0.726699 l 0.922926,-0.233237 v 1.680446 1.680447 l -0.315578,-0.401192 c -0.52535,-0.667874 -1.162552,-0.845157 -2.201795,-0.612585 -0.755572,0.16909 -0.920347,0.271663 -1.068984,0.665449 -0.09665,0.256048 -0.21406,0.463602 -0.260916,0.46123 -0.04686,-0.0024 -0.30052,-0.486008 -0.563698,-1.074743 z"
         id="path65" />
      <path
         style="fill:#000000;fill-opacity:1;stroke:#000000;stroke-width:0.0606647;stroke-linecap:square;stroke-dasharray:none;stroke-opacity:1"
         d="m 53.193038,60.346559 c -1.064527,-0.401846 -4.436797,-1.199081 -5.072065,-1.199081 -0.346588,0 -0.385745,-0.05811 -0.323756,-0.480466 0.03878,-0.264257 0.02197,-0.739228 -0.03736,-1.055492 -0.124401,-0.663114 -0.61703,-0.942158 -1.98326,-1.123395 l -0.82482,-0.109416 0.562556,-0.65722 c 0.702648,-0.820886 1.311865,-2.062038 1.450082,-2.954234 0.10167,-0.656292 0.08968,-0.682163 -0.316108,-0.682163 -0.534062,0 -0.52484,-0.117149 0.05981,-0.759758 l 0.472184,-0.518995 0.398614,0.398613 c 0.713267,0.713268 1.727406,0.404643 2.83649,-0.863207 l 0.719508,-0.822505 1.580959,5.335772 c 1.915945,6.466356 1.762659,5.901315 1.594937,5.879268 -0.07651,-0.01006 -0.579502,-0.184531 -1.117771,-0.387721 z"
         id="path66" />
      <path
         style="fill:#000000;fill-opacity:1;stroke:#000000;stroke-width:0.0606647;stroke-linecap:square;stroke-dasharray:none;stroke-opacity:1"
         d="m 57.381881,57.905901 -0.802543,-0.05863 -0.893088,-3.089808 -0.893087,-3.089808 0.90427,0.06541 c 0.78525,0.0568 0.965481,0.01276 1.369329,-0.334618 0.382914,-0.329369 0.460485,-0.51472 0.439165,-1.049358 -0.02747,-0.688877 -0.395784,-1.521112 -1.074657,-2.428278 -0.227542,-0.30406 -0.413713,-0.640284 -0.413713,-0.747165 0,-0.10688 0.324752,-0.384644 0.72167,-0.617254 1.469063,-0.860929 3.28419,-2.980004 3.705451,-4.325941 0.159936,-0.510998 0.209158,-0.568711 0.219536,-0.257407 0.0214,0.641862 0.676062,1.631932 1.428382,2.160192 0.75608,0.530901 0.402159,0.501578 4.330531,0.358783 l 0.8553,-0.03109 0.04416,1.40782 c 0.04287,1.366812 0.03432,1.4047 -0.293519,1.300748 -0.185722,-0.05889 -0.619943,-0.285199 -0.964936,-0.502911 -0.487926,-0.307913 -0.775359,-0.379147 -1.293986,-0.32069 -0.530915,0.05984 -0.762794,-0.0017 -1.138337,-0.302203 -0.566321,-0.453135 -1.581393,-0.507205 -2.142586,-0.11413 -0.354717,0.248453 -0.372574,0.337622 -0.288976,1.442979 0.170107,2.249207 1.141858,3.587442 2.838666,3.909235 0.467744,0.08871 0.873376,0.161283 0.901406,0.161283 0.02803,0 -0.125582,0.379202 -0.341358,0.842671 -0.563883,1.211177 -0.564784,2.940464 -0.0018,3.547882 l 0.393608,0.42471 H 64.46173 c -0.290943,0 -0.929225,0.137702 -1.418403,0.306004 l -0.889415,0.306003 -0.06959,-2.031473 c -0.07999,-2.335191 -0.415188,-3.37205 -1.357611,-4.199509 -0.593983,-0.521523 -0.778508,-0.563259 -1.417014,-0.3205 -0.773974,0.294265 -1.114166,1.391302 -1.120114,3.612098 -0.0028,1.059358 0.05476,2.413651 0.127998,3.009539 0.07324,0.595889 0.07324,1.070074 0,1.053744 -0.07324,-0.01633 -0.494302,-0.05608 -0.935701,-0.08832 z"
         id="path67" />
      <path
         style="fill:none;fill-opacity:1;stroke:#000000;stroke-width:0.377953;stroke-linecap:square;stroke-dasharray:none;stroke-opacity:1"
         d="m 52.316272,27.608475 c -0.779187,0.405837 -0.979678,0.767159 -0.104454,1.045734"
         id="path68"
         sodipodi:nodetypes="cc" />
      <path
         style="fill:#000000;fill-opacity:1;stroke:#000000;stroke-width:0.0443712;stroke-linecap:square;stroke-dasharray:none;stroke-opacity:1"
         d="m 78.367645,55.635534 c -0.436952,-0.698824 -0.498558,-0.749561 -0.99789,-0.821839 -0.712899,-0.103191 -0.719096,-0.109968 -0.525125,-0.574205 0.09905,-0.237065 0.167969,-0.782814 0.166458,-1.318173 -0.0029,-1.016751 -0.209224,-1.610924 -0.832991,-2.398493 -0.201699,-0.254666 -0.347149,-0.479453 -0.323223,-0.499527 0.02393,-0.02007 0.383659,-0.149614 0.799405,-0.287868 1.529422,-0.5086 3.123367,-1.691643 3.6378,-2.700013 0.134403,-0.263452 0.301393,-0.744896 0.371088,-1.069876 0.104588,-0.487674 0.171155,-0.591228 0.381139,-0.592907 0.139931,-0.0011 0.744672,-0.05368 1.343869,-0.116804 1.385316,-0.145937 1.978896,-0.428703 2.227274,-1.061013 l 0.179688,-0.457439 0.319082,0.495799 c 0.331434,0.51499 0.721141,0.907328 1.10276,1.110206 0.185956,0.09886 0.0708,0.168835 -0.704393,0.428025 -1.186465,0.396702 -2.063021,0.90138 -2.452521,1.412041 -0.253768,0.332707 -0.293951,0.47799 -0.228582,0.826438 0.109852,0.585562 0.508882,1.141951 0.993658,1.385511 0.800752,0.402311 1.915571,0.209909 3.768076,-0.650318 l 0.894142,-0.415203 0.06452,1.369319 c 0.105994,2.24958 0.621991,3.60717 1.542573,4.058512 l 0.45651,0.223818 -0.634555,0.333902 c -0.349006,0.183646 -0.751174,0.418063 -0.893707,0.520926 -0.245414,0.177113 -0.262391,0.172442 -0.320313,-0.08812 -0.59598,-2.681052 -0.959203,-3.520556 -1.803275,-4.16785 -1.801311,-1.381372 -4.253992,-0.03254 -4.453186,2.449001 -0.05561,0.69277 0.181709,2.024321 0.507185,2.845731 0.07013,0.176983 -0.01296,0.145452 -0.371116,-0.140828 -0.566203,-0.45258 -1.283058,-0.630164 -1.94417,-0.481622 -0.611448,0.137384 -0.839173,0.260204 -1.374616,0.741384 l -0.429859,0.386295 z"
         id="path69" />
      <path
         style="fill:#000000;fill-opacity:1;stroke:#000000;stroke-width:0.0443712;stroke-linecap:square;stroke-dasharray:none;stroke-opacity:1"
         d="m 95.931187,73.601498 c -0.214914,-0.359311 -0.702953,-0.987037 -1.084533,-1.394947 l -0.69378,-0.741653 0.268201,-0.175732 c 0.519347,-0.340289 0.887284,-1.051379 1.135458,-2.194428 0.287514,-1.324237 0.300326,-1.780726 0.06287,-2.239918 -0.245109,-0.473989 -0.743154,-0.70055 -1.540002,-0.70055 -0.890306,0 -1.57928,0.340884 -2.151115,1.064309 l -0.44666,0.565067 -0.05411,-0.652531 c -0.03326,-0.401116 0.01092,-0.8394 0.114665,-1.137535 0.26745,-0.768548 0.154247,-2.46414 -0.21422,-3.208677 l -0.292757,-0.591555 1.647401,-0.06683 c 0.90607,-0.03675 2.013563,-0.148548 2.461094,-0.248432 0.447532,-0.09989 0.834441,-0.160862 0.859799,-0.135504 0.02536,0.02536 -0.04399,0.220322 -0.1541,0.433256 -0.266554,0.515459 -0.361294,1.753942 -0.169577,2.216788 0.194629,0.469875 0.676505,0.802346 1.343512,0.926957 0.789503,0.147495 1.7188,-0.322467 2.824972,-1.42864 l 0.849665,-0.849664 0.075,0.976128 c 0.0853,1.110314 0.27872,1.669003 0.67335,1.945416 0.40566,0.284136 1.26085,0.244212 1.88572,-0.08803 l 0.52562,-0.279475 0.54472,0.395304 c 1.26144,0.91543 1.38281,1.943401 0.35515,3.007968 -0.43129,0.446775 -1.49203,1.143851 -1.74408,1.146138 -0.0668,6.06e-4 -0.20916,-0.147408 -0.31638,-0.32892 -0.28148,-0.476501 -1.17708,-0.914851 -2.30468,-1.128015 -1.237729,-0.233986 -2.132296,-0.225737 -2.935938,0.02707 -0.584079,0.183739 -0.648586,0.24131 -0.879884,0.78527 -0.224944,0.529017 -0.248458,0.792815 -0.238072,2.670824 0.0063,1.146107 0.0052,2.08383 -0.0025,2.08383 -0.0077,0 -0.189891,-0.293982 -0.404805,-0.653294 z"
         id="path70" />
      <path
         style="fill:#000000;fill-opacity:1;stroke:#000000;stroke-width:0.0443712;stroke-linecap:square;stroke-dasharray:none;stroke-opacity:1"
         d="M 93.50942,55.006889 C 93.356815,54.312082 92.638,53.709988 91.961105,53.709988 h -0.326076 l 0.45636,-0.376171 c 0.569079,-0.469082 1.113444,-1.619396 1.48869,-3.145795 0.150799,-0.613409 0.282425,-1.130956 0.292502,-1.150105 0.01008,-0.01915 0.238814,0.08011 0.508304,0.220578 1.023636,0.533548 2.081141,0.41348 3.3007,-0.374759 0.38007,-0.245651 0.712137,-0.40928 0.737925,-0.363619 0.02579,0.04566 0.139954,0.373582 0.253701,0.728714 0.113748,0.355131 0.287458,0.738145 0.386024,0.851142 0.522444,0.598932 2.211215,-0.19794 3.252825,-1.534897 0.22658,-0.290822 0.41196,-0.473195 0.41196,-0.405275 0,0.06792 0.18229,0.388496 0.40509,0.71239 l 0.40509,0.588898 -0.31302,0.07856 c -0.736,0.184724 -2.10649,1.463487 -2.50204,2.334569 -0.38948,0.85773 -0.22708,1.97256 0.38176,2.620641 l 0.24405,0.259784 -0.279,0.05263 c -0.63039,0.118922 -1.917347,0.297176 -1.945109,0.269414 -0.0164,-0.0164 0.02479,-0.227624 0.09155,-0.469382 0.227212,-0.822895 -0.349192,-1.760273 -1.417562,-2.305315 -1.207147,-0.615841 -1.974856,-0.157598 -3.475404,2.074455 -0.36129,0.537416 -0.674209,0.977121 -0.695375,0.977121 -0.02117,0 -0.07275,-0.156008 -0.114628,-0.346684 z"
         id="path71" />
      <path
         style="fill:#000000;fill-opacity:1;stroke:#000000;stroke-width:0.0443712;stroke-linecap:square;stroke-dasharray:none;stroke-opacity:1"
         d="m 109.48149,54.912443 c 0.0496,-0.112511 0.11388,-0.806893 0.14286,-1.543074 l 0.0527,-1.338508 -0.55216,0.07568 c -0.7152,0.09803 -1.43564,0.423025 -1.89465,0.854692 l -0.36587,0.34407 -0.0651,-1.004778 c -0.10182,-1.571683 -0.58161,-2.514689 -1.4734,-2.895939 -0.29801,-0.127404 -0.37177,-0.21531 -0.30801,-0.367087 0.29464,-0.701416 0.64116,-1.980832 0.64116,-2.367313 0,-0.438933 0.0247,-0.467837 0.64195,-0.750409 0.35307,-0.161641 0.90713,-0.541948 1.23126,-0.845127 1.42277,-1.330836 1.66364,-3.237777 0.64224,-5.084489 l -0.28344,-0.512451 0.26344,0.07043 c 0.14488,0.03874 0.68606,0.130122 1.20262,0.203078 l 0.93919,0.132648 -0.0392,0.614252 c -0.0474,0.742428 0.20198,1.091215 1.07841,1.50856 l 0.56964,0.271259 -0.45558,0.136494 c -0.96216,0.288273 -1.55592,1.324678 -1.32633,2.315114 0.0598,0.257961 0.10999,0.501465 0.11153,0.54112 0.002,0.03966 -0.23713,0.163728 -0.53037,0.275719 -0.7036,0.268708 -0.92541,0.613197 -0.82518,1.281573 0.0864,0.575988 0.7104,1.690694 1.27789,2.28269 0.5653,0.589719 1.66873,1.268173 2.63677,1.621236 l 0.86681,0.316146 -0.36918,0.288927 c -0.69517,0.544051 -1.29079,1.848225 -1.29456,2.834582 -8.8e-4,0.230416 -0.0322,0.533053 -0.0696,0.672528 -0.0644,0.240017 -0.0892,0.244729 -0.46422,0.08805 -0.51206,-0.213953 -1.1258,-0.21036 -1.65242,0.0097 -0.39099,0.163367 -0.41325,0.161382 -0.32917,-0.02935 z"
         id="path72" />
      <path
         style="fill:#000000;fill-opacity:1;stroke:#000000;stroke-width:0.0443712;stroke-linecap:square;stroke-dasharray:none;stroke-opacity:1"
         d="m 84.153665,42.441072 c -0.371276,-0.59476 -0.50372,-0.711721 -0.939191,-0.829398 -0.380318,-0.102772 -0.650657,-0.103945 -1.082183,-0.0047 -0.316372,0.07277 -0.592295,0.115228 -0.613162,0.09436 -0.02087,-0.02087 0.01956,-0.246199 0.08984,-0.500739 0.07028,-0.254538 0.10247,-0.857267 0.07153,-1.339394 -0.05488,-0.855073 -0.06836,-0.887337 -0.549118,-1.313973 -0.995135,-0.883106 -2.383289,-1.273427 -3.139011,-0.882629 l -0.351087,0.181556 0.05158,-0.622008 c 0.03655,-0.440701 -0.0094,-0.750539 -0.157664,-1.062961 -0.368411,-0.776368 -1.082925,-1.045714 -3.133661,-1.181274 -0.629551,-0.04162 -1.144639,-0.127088 -1.144639,-0.18994 0,-0.06285 0.126164,-0.282447 0.280365,-0.487989 0.5377,-0.716727 0.921127,-1.63105 0.929976,-2.217624 0.01039,-0.688878 -0.26063,-1.105851 -0.947367,-1.45754 l -0.486372,-0.249079 0.476323,-0.382784 c 0.261978,-0.210531 0.622435,-0.613177 0.801015,-0.894769 l 0.324691,-0.511985 0.294153,0.439455 c 0.522679,0.780866 1.153659,1.313485 1.774454,1.497841 0.770736,0.228884 0.930513,0.221024 1.517542,-0.07465 1.302851,-0.656222 1.961754,-1.558387 1.961754,-2.686019 0,-0.835466 -0.318792,-1.466901 -1.126041,-2.230363 -0.356522,-0.337184 -0.632027,-0.629185 -0.612233,-0.64889 0.0198,-0.0197 0.405797,-0.17489 0.857782,-0.344857 0.451986,-0.169966 1.151977,-0.490419 1.555536,-0.712117 l 0.733743,-0.403089 v 0.353746 c 0,0.47503 0.295806,1.15482 0.674597,1.550287 0.35025,0.365668 0.910675,0.555284 1.64403,0.556247 l 0.498946,6.54e-4 v 0.834196 c 0,1.188149 0.305007,2.220797 1.148707,3.889119 0.02394,0.04733 -0.18174,0.0066 -0.457059,-0.09055 -1.635497,-0.577037 -3.671305,-0.734169 -4.75474,-0.366989 -1.19047,0.403455 -2.159049,1.612133 -2.159049,2.694252 0,1.268175 0.553777,2.163796 1.500482,2.426721 0.624234,0.173368 2.448189,0.150871 3.181064,-0.03923 l 0.623753,-0.161801 -0.0683,0.425948 c -0.03757,0.234271 -0.102486,1.013313 -0.144266,1.731206 -0.0715,1.228603 -0.05871,1.342938 0.217748,1.946807 0.167633,0.36616 0.493563,0.809334 0.759294,1.032428 l 0.465583,0.390882 -0.110078,0.597283 c -0.06054,0.328507 -0.079,0.901054 -0.04101,1.272328 0.03799,0.371274 0.05667,0.672655 0.04152,0.669736 -0.01515,-0.0029 -0.222053,-0.316889 -0.459779,-0.697709 z"
         id="path73" />
      <path
         style="fill:#000000;fill-opacity:1;stroke:#000000;stroke-width:0.0443712;stroke-linecap:square;stroke-dasharray:none;stroke-opacity:1"
         d="m 90.103641,41.430416 c -0.554271,-0.452234 -1.245344,-0.830009 -1.819682,-0.994729 -0.290562,-0.08333 -0.546838,-0.164931 -0.569501,-0.181332 -0.02266,-0.0164 0.09029,-0.204982 0.251016,-0.419074 0.394904,-0.526037 0.833937,-1.425338 1.081845,-2.216016 l 0.204668,-0.65277 0.601122,0.635597 c 0.752571,0.795733 1.333716,1.095876 2.266899,1.170783 0.674218,0.05412 0.77838,0.02891 1.322001,-0.319928 1.837471,-1.179102 2.154818,-3.584912 0.677913,-5.139256 -0.198476,-0.208883 -0.338062,-0.397795 -0.310191,-0.419804 0.02787,-0.02201 0.446896,-0.226762 0.931166,-0.455007 1.146271,-0.540255 2.233539,-1.354338 2.684795,-2.010216 0.389618,-0.566291 0.618247,-1.345082 0.513013,-1.7475 -0.05485,-0.209742 -0.02851,-0.237227 0.158539,-0.165409 0.123376,0.04737 0.548178,0.199181 0.944006,0.337353 l 0.719687,0.251223 -0.547997,0.492695 c -0.301397,0.270982 -0.704441,0.775246 -0.895651,1.120585 -0.294718,0.53228 -0.346888,0.753027 -0.342614,1.449683 0.0065,1.066582 0.38559,1.785678 1.490846,2.828321 0.842179,0.794467 0.800529,0.867784 -0.246036,0.433072 -0.216407,-0.08989 -0.829754,-0.194224 -1.362993,-0.231856 -0.90522,-0.06388 -1.00938,-0.04673 -1.570384,0.258607 -0.330471,0.179865 -0.676926,0.411715 -0.7699,0.515222 -0.336511,0.374636 -0.89271,1.998191 -0.89271,2.60584 0,0.546736 -0.01868,0.585919 -0.245125,0.51405 -0.134819,-0.04279 -0.506656,-0.07577 -0.826303,-0.0733 -0.766282,0.0059 -1.506585,0.540738 -2.346104,1.69485 -0.338908,0.465906 -0.646331,0.882781 -0.683162,0.926389 -0.03683,0.04361 -0.225454,-0.05003 -0.419163,-0.208075 z"
         id="path74" />
      <path
         style="fill:#000000;fill-opacity:1;stroke:#000000;stroke-width:0.0443712;stroke-linecap:square;stroke-dasharray:none;stroke-opacity:1"
         d="m 90.129813,27.324951 c -0.03646,-0.823458 -0.146561,-1.754818 -0.244661,-2.069688 -0.161131,-0.51718 -0.160352,-0.59998 0.0081,-0.857009 l 0.186424,-0.284518 0.168953,0.34885 c 0.543361,1.121918 1.543734,1.757626 2.930962,1.862542 l 0.861172,0.06513 -0.657574,0.267259 c -0.753227,0.306134 -1.264654,0.628517 -2.23881,1.411254 -0.378675,0.304267 -0.746939,0.598249 -0.818364,0.653295 -0.09261,0.07137 -0.148881,-0.329393 -0.196161,-1.397115 z"
         id="path75" />
      <path
         style="fill:#000000;fill-opacity:1;stroke:#000000;stroke-width:0.0443712;stroke-linecap:square;stroke-dasharray:none;stroke-opacity:1"
         d="m 55.301119,41.478488 c -0.150861,-0.70344 -0.714083,-1.890485 -1.113132,-2.346035 -0.511495,-0.583915 -2.040554,-0.920488 -3.142512,-0.691723 -0.357506,0.07422 -0.934135,0.304725 -1.281399,0.512238 l -0.631389,0.377296 -0.357904,-0.470415 c -0.636349,-0.83639 -1.365487,-0.830897 -2.478481,0.01867 l -0.503578,0.38439 -0.126719,-0.495437 c -0.127608,-0.498912 -0.264994,-0.93327 -0.398069,-1.258529 -0.06182,-0.151097 0.140662,-0.176099 1.426129,-0.176099 1.320263,0 1.555673,-0.03076 1.982353,-0.258999 0.549738,-0.29407 1.066839,-0.856567 1.171768,-1.274638 0.06975,-0.277914 0.0819,-0.273144 0.695618,0.273195 1.67982,1.495393 3.629685,2.173837 5.030588,1.750365 0.623693,-0.188533 1.180793,-1.140483 1.17701,-2.01123 -0.004,-0.915234 -0.315657,-1.408312 -1.83035,-2.895606 l -1.38968,-1.364543 0.412278,-0.31446 c 0.73137,-0.557843 0.984041,-1.462438 0.572575,-2.049888 -0.261054,-0.372707 -1.051198,-0.712109 -1.665097,-0.715233 -0.278664,-0.0014 -0.615272,-0.0607 -0.748017,-0.131747 -0.234886,-0.125707 -0.232321,-0.135123 0.09577,-0.351423 0.272502,-0.179653 0.556523,-0.222403 1.48176,-0.223028 l 1.144639,-7.74e-4 v 0.683086 c 0,1.117394 0.287746,1.8687 0.981177,2.561859 0.388869,0.388716 0.77082,0.649597 1.073303,0.733088 0.560102,0.154601 1.856792,0.171234 2.348794,0.03013 l 0.351461,-0.100798 -4.1e-5,1.949831 c -4.3e-5,2.103944 0.109301,2.720533 0.579363,3.267012 0.222403,0.258559 0.371898,0.32057 0.74899,0.310682 0.459394,-0.01205 0.474259,8.2e-5 0.596847,0.486921 0.149429,0.593439 0.736064,1.160359 1.38807,1.341423 0.2439,0.06773 0.784003,0.123443 1.200228,0.123803 l 0.756772,6.55e-4 -0.361139,0.381546 c -0.463678,0.489879 -0.624112,0.809415 -0.624112,1.243041 v 0.348636 l -0.588254,-0.223518 c -0.73081,-0.277687 -1.725635,-0.293031 -2.097798,-0.03236 -0.150106,0.105139 -0.344697,0.356079 -0.432423,0.557645 l -0.159503,0.366484 -0.0046,-0.491303 c -0.0095,-1.020787 -0.481771,-1.680577 -1.202819,-1.680577 -0.723216,0 -1.27199,0.305045 -2.090615,1.162101 -0.620744,0.649887 -1.524973,1.303276 -1.803607,1.303276 -0.02951,0 -0.112423,-0.274055 -0.184258,-0.609011 z"
         id="path76" />
      <path
         style="fill:none;stroke:#000000;stroke-width:0.377953;stroke-linecap:square;stroke-dasharray:none;stroke-opacity:1"
         d="m 46.718407,33.097627 c -1.744827,0.385641 -2.592096,-0.126277 -2.255671,-1.821888 1.581366,-3.173672 4.820944,-2.942553 6.593499,-0.347026 -0.449234,-0.827968 -0.468746,-1.052337 -0.216892,-1.908644 2.983463,-1.115429 5.278296,0.812605 2.212293,2.51594 l 1.691753,1.51824 c 1.567913,1.57977 2.536847,2.477892 1.084453,4.424584 -1.896135,0.824558 -4.230806,-0.565576 -6.116337,-2.515942 -0.0014,2.511789 -2.890186,2.368913 -4.771611,1.995401 L 44.28922,36.26424 v -1.041079 c 0.538297,-1.160898 1.578127,-1.485907 2.429187,-2.125534 z"
         id="path17"
         sodipodi:nodetypes="cccccccccccc"
         inkscape:label="Flower16" />
      <path
         style="fill:none;stroke:#000000;stroke-width:0.377953;stroke-linecap:square;stroke-dasharray:none;stroke-opacity:1"
         d="m 47.282325,44.599871 c 0.04274,1.66242 -0.398785,4.810648 1.735131,2.552319 l -0.976828,1.413788 c -1.178092,2.167196 -0.453933,3.482046 1.561618,2.299049 0.518549,-0.528884 0.958597,-1.104483 1.367232,-1.717436"
         id="path20"
         sodipodi:nodetypes="ccccc"
         inkscape:label="Flower18" />
      <path
         style="fill:none;stroke:#000000;stroke-width:0.377953;stroke-linecap:square;stroke-dasharray:none;stroke-opacity:1"
         d="m 67.277828,44.196703 -1.179327,-0.05616 c -2.195517,0.387443 -2.987251,0.489101 -4.183805,-0.477347 -2.388782,-2.140872 -0.387867,-5.253273 5.363134,0.477347"
         id="path22"
         sodipodi:nodetypes="cccc" />
      <path
         style="fill:none;stroke:#000000;stroke-width:0.377953;stroke-linecap:square;stroke-dasharray:none;stroke-opacity:1"
         d="m 61.633903,36.839946 c -0.0059,2.458494 2.223815,2.099046 4.043409,1.965544 l 0.280792,-0.02808 c -1.392176,0.885929 -1.909387,1.152823 -1.909387,2.611368"
         id="path23"
         sodipodi:nodetypes="cccc" />
      <path
         style="fill:none;stroke:#000000;stroke-width:0.377953;stroke-linecap:square;stroke-dasharray:none;stroke-opacity:1"
         d="m 74.578427,28.023069 c -0.445746,1.243652 -1.22147,1.885183 -2.330576,2.52713 -2.001814,0.688602 -3.827474,1.276186 -4.885785,-0.308871 0.223946,-2.783589 3.140271,-4.166244 3.846854,-4.38036 -0.854727,-0.21338 -1.622779,-0.130491 -2.470972,0 -8.243025,-0.350777 0.263329,-10.765522 5.08234,-4.913867 l 0.421188,1.235486 c -0.49744,-5.523451 2.058359,-4.765043 3.28527,-1.123169 l 0.02808,0.786219 c 0.886336,-1.901667 2.525016,-2.599007 4.408439,-1.544356 0.536509,2.265261 0.203403,2.939491 -3.734537,4.38036 l -0.505426,0.140396 c 4.497361,2.878311 1.13555,5.2553 -0.02808,5.587766 -1.642428,0.110239 -2.312673,-1.127694 -3.116795,-2.386734 z"
         id="path25"
         sodipodi:nodetypes="cccccccccccccc" />
      <path
         style="fill:none;stroke:#000000;stroke-width:0.377953;stroke-linecap:square;stroke-dasharray:none;stroke-opacity:1"
         d="m 101.34948,36.359598 -1.592176,-1.447436 c -0.669241,-0.526529 -3.121354,-2.770933 -0.115795,-5.384463 1.707741,-0.909736 3.278331,-0.732964 4.458101,0.752666 l 0.14475,2.808027 c 0.35864,-4.303762 1.71482,-5.317601 5.06602,-3.589642 2.08647,1.796616 0.52155,3.756983 -0.81056,5.355514 l -0.26054,0.405282 c 2.58356,-1.757292 4.08561,-1.831794 4.89233,1.215847 -0.30967,3.84934 -3.17613,3.35201 -5.93448,2.547487 4.65363,5.492125 -3.86248,9.781169 -5.78975,5.037079 -0.14285,-1.477396 0.16418,-2.873087 0.43423,-4.31336 -2.397101,2.425221 -5.842156,2.502416 -6.97664,-0.781615 -0.162141,-0.990023 0.382037,-1.7126 0.694768,-2.634334 1.335038,-1.367925 2.109332,-0.887433 3.155411,-0.810564 0.84714,0.336216 1.789471,0.610525 2.634331,0.839512 z"
         id="path29"
         sodipodi:nodetypes="cccccccccccccccc" />
      <path
         style="fill:none;stroke:#000000;stroke-width:0.377953;stroke-linecap:square;stroke-dasharray:none;stroke-opacity:1"
         d="m 93.445529,55.945541 c 1.242527,-1.129581 2.247895,-4.327795 4.083094,-3.510027 2.649397,1.433104 1.338043,2.951279 -0.465616,4.441259 -0.259525,1.481701 0.600348,2.221294 1.86246,3.044412 -2.517831,1.803248 -5.349957,2.180395 -8.345269,1.96991"
         id="path31"
         sodipodi:nodetypes="ccccc" />
      <path
         style="fill:none;stroke:#000000;stroke-width:0.377953;stroke-linecap:square;stroke-dasharray:none;stroke-opacity:1"
         d="m 97.528623,65.150409 c -1.908703,-0.0528 -2.193756,-1.618276 -1.217765,-3.330944 1.935267,-1.908479 2.270165,-0.848927 6.267902,-3.080229 -0.0893,0.313807 -1.81919,5.378017 -5.050137,6.411173 z"
         id="path32"
         sodipodi:nodetypes="cccc" />
      <path
         style="fill:none;stroke:#000000;stroke-width:0.377953;stroke-linecap:square;stroke-dasharray:none;stroke-opacity:1"
         d="m 98.244954,55.766458 c 1.074594,-0.560509 2.831136,-0.819073 4.226356,-0.680516 -1.30474,-0.302493 -3.415056,-2.624401 0.53725,-5.193408 0.77916,-0.378414 3.06708,-1.230434 3.51,1.862464 0.2105,1.096204 -0.0338,2.16937 -0.17908,3.259311 0.38799,-1.570296 1.48064,-2.565957 3.04441,-2.686242 0.18032,1.189145 0.005,2.319249 -0.46565,3.402577 1.08624,-0.817372 2.12812,-1.059553 3.08023,-0.107449 0.002,0.297303 -0.17403,4.906875 -6.16045,4.906875 0.71259,2.681178 -0.77125,4.122814 -2.86533,5.265041 -1.87538,0.687298 -2.15364,-0.905077 -1.86245,-3.724927"
         id="path33"
         sodipodi:nodetypes="ccccccccccc" />
      <path
         style="fill:none;stroke:#000000;stroke-width:0.377953;stroke-linecap:square;stroke-dasharray:none;stroke-opacity:1"
         d="m 93.767879,48.495686 c 1.632846,1.601961 3.286757,0.693461 4.763608,-0.537248 l 0.573066,1.75501 c 0.02098,0.697756 1.943097,0.480658 3.581657,-2.113179 0.5727,1.043579 1.10081,2.321263 2.04155,1.432664 0.42437,-0.961463 0.74429,-1.833594 0.71633,-2.829512"
         id="path34"
         sodipodi:nodetypes="cccccc" />
      <path
         style="fill:none;stroke:#000000;stroke-width:0.377953;stroke-linecap:square;stroke-dasharray:none;stroke-opacity:1"
         d="m 96.561574,43.946977 1.575931,-0.573062 c 1.307576,-0.621835 0.407062,3.483964 0.573066,5.050141"
         id="path35"
         sodipodi:nodetypes="ccc" />
      <path
         style="fill:#000000;fill-opacity:1;stroke:#000000;stroke-width:0.0575969;stroke-linecap:square;stroke-dasharray:none;stroke-opacity:1"
         d="m 64.301891,122.12755 c -0.436929,-0.16068 -0.311093,0.14095 -4.581731,-10.98262 l -2.49613,-6.50158 -1.829147,-0.10001 c -1.006031,-0.055 -2.652062,-0.0781 -3.657848,-0.0513 l -1.828703,0.0487 -0.112372,0.83816 c -0.0618,0.46098 -0.164669,3.61549 -0.228588,7.01002 -0.109791,5.83067 -0.133065,6.19493 -0.420999,6.58903 -0.399186,0.54636 -1.669913,1.18362 -2.353897,1.18045 -0.675799,-0.003 -1.70338,-0.57029 -1.936764,-1.06897 -0.224862,-0.48048 -9.196018,-22.814965 -9.196018,-22.894304 0,-0.03261 0.565755,0.02953 1.257233,0.138082 2.881833,0.452428 5.34928,0.606472 7.85273,0.490251 12.319361,-0.571924 20.607067,-5.108422 22.940542,-12.557118 0.675033,-2.154781 0.870518,-4.505849 0.555725,-6.68365 -0.08359,-0.57829 -0.133662,-1.068264 -0.111275,-1.088832 0.02239,-0.02057 0.381707,0.263991 0.798485,0.632352 l 0.757779,0.669747 -0.339572,0.237846 c -0.536471,0.375759 -0.795007,1.038318 -0.795007,2.037394 0,1.230791 0.356402,2.069226 1.11237,2.616846 0.708442,0.513192 0.912043,0.530775 2.143874,0.185141 1.096702,-0.307719 1.907285,-1.040186 2.305745,-2.083543 l 0.269059,-0.704517 0.246606,0.490598 c 0.135635,0.269829 0.458093,0.631753 0.716573,0.804275 l 0.469966,0.313676 -0.555748,0.237338 c -0.900404,0.384526 -1.395214,1.982468 -0.900259,2.9073 0.154638,0.288945 0.137745,0.30709 -0.19049,0.204617 -0.198097,-0.06184 -0.7532,-0.148603 -1.23356,-0.192797 -0.84568,-0.0778 -0.891012,-0.06272 -1.429119,0.475383 -0.503166,0.503165 -0.547853,0.614509 -0.472402,1.177039 0.110609,0.824643 0.692619,1.928796 1.226103,2.326086 0.361596,0.269281 0.643475,0.320014 1.763142,0.317329 1.009203,-0.0024 1.431661,-0.06801 1.740234,-0.270199 l 0.407499,-0.267003 v 2.297406 c 0,2.918543 0.249994,4.154266 0.984447,4.866125 0.371796,0.360359 0.695593,0.517835 1.174091,0.571012 0.857661,0.09531 1.254032,-0.304697 1.632763,-1.64776 0.15116,-0.536046 0.337168,-0.964171 0.413352,-0.951388 0.216026,0.03625 1.571105,1.029789 1.5791,1.157795 0.0039,0.06286 -0.07858,0.114965 -0.183352,0.115783 -0.10477,8.18e-4 -0.56766,0.176423 -1.028645,0.39023 -1.085135,0.503292 -1.828702,1.217036 -1.828702,1.755357 0,0.446227 0.23062,0.595978 0.917821,0.595978 0.84772,0 0.703194,0.589953 -0.241196,0.984544 -1.11832,0.467264 -2.891495,2.516321 -3.331215,3.849501 l -0.262431,0.79566 -0.636878,-0.0812 c -0.350283,-0.0447 -1.217096,0.0229 -1.92625,0.15004 -0.709155,0.12719 -1.306109,0.21452 -1.326563,0.19406 -0.02046,-0.0204 0.05957,-0.30887 0.177843,-0.64092 0.398347,-1.11841 0.188461,-2.73566 -0.63278,-4.875785 -0.0447,-0.11647 0.203798,-0.211488 0.70982,-0.271419 1.00473,-0.118995 2.361251,-0.887919 2.693567,-1.526809 0.309013,-0.594086 0.2981,-2.062167 -0.0199,-2.677109 -0.237891,-0.460032 -1.169504,-0.929495 -1.844511,-0.929495 -0.597023,0 -1.314778,0.369613 -1.889167,0.972843 l -0.525619,0.552007 -0.195368,-0.763401 c -0.268545,-1.049335 -0.56855,-1.452776 -1.368139,-1.839851 -0.773316,-0.374355 -1.607103,-0.338995 -2.544251,0.107898 -0.638301,0.304386 -1.012874,1.081782 -1.012874,2.102143 v 0.668297 l -1.491107,-0.08216 c -1.778841,-0.09802 -2.8573,0.157061 -3.733561,0.883074 -1.172781,0.971693 -1.751782,2.893103 -1.259916,4.181034 0.396548,1.038343 0.822572,1.294883 2.150342,1.294883 1.579609,0 2.553546,-0.26239 3.279095,-0.88343 0.3369,-0.288372 0.634223,-0.499021 0.660716,-0.468105 0.02649,0.03092 0.231389,0.612385 0.455319,1.292165 0.493745,1.49884 1.01666,2.34526 2.030687,3.28698 0.789965,0.73364 1.774605,1.13874 2.335282,0.96079 0.369247,-0.1172 0.369706,-0.0512 0.0046,0.6644 -0.16097,0.31553 -0.36494,0.98141 -0.45327,1.47975 -0.188101,1.06125 -0.245651,7.86381 -0.08889,10.50675 0.173251,2.92088 -0.229619,3.79009 -2.011815,4.34055 -1.045388,0.32289 -2.580434,0.38911 -3.256502,0.14049 z"
         id="path53" />
      <path
         style="fill:#000000;fill-opacity:1;stroke:#000000;stroke-width:0.0575969;stroke-linecap:square;stroke-dasharray:none;stroke-opacity:1"
         d="m 84.023496,120.13442 c -0.468101,-0.15665 -0.532498,-0.30785 -3.176329,-7.45741 -1.484198,-4.01363 -2.731821,-7.42478 -2.772495,-7.58031 -0.06427,-0.24578 0.04377,-0.29348 0.825287,-0.36434 1.210752,-0.10979 1.847253,-0.46596 3.554905,-1.98925 l 1.447829,-1.29152 0.483817,0.43229 c 0.662514,0.59195 1.521533,0.78876 3.176044,0.72765 1.547641,-0.0572 1.69277,-0.12971 2.542164,-1.27095 l 0.453687,-0.60956 -0.0881,0.91435 c -0.04846,0.50289 -0.301742,4.48032 -0.562858,8.83872 -0.261115,4.35841 -0.506391,8.08203 -0.545058,8.27471 -0.03867,0.19268 -0.302732,0.60413 -0.586812,0.91435 l -0.516509,0.56402 -1.878891,0.0286 c -1.03339,0.0157 -2.093895,-0.0434 -2.356678,-0.13133 z"
         id="path54" />
      <path
         style="fill:#000000;fill-opacity:1;stroke:#000000;stroke-width:0.0575969;stroke-linecap:square;stroke-dasharray:none;stroke-opacity:1"
         d="m 105.37897,115.42846 c -0.41717,-0.12161 -0.81388,-0.81049 -4.53351,-7.87253 l -4.076333,-7.739265 0.639911,-0.111553 c 1.097907,-0.191394 2.273801,-0.898669 3.510232,-2.111331 l 1.1788,-1.15614 0.0911,0.546573 c 0.39901,2.393886 1.49125,3.519616 3.22527,3.324166 0.9571,-0.10788 1.39846,-0.493282 2.07544,-1.812342 0.75677,-1.474513 0.89185,-2.702439 0.43006,-3.909529 l -0.31018,-0.810792 0.63711,-0.274576 c 0.3504,-0.151017 0.64809,-0.266195 0.66152,-0.255951 0.0134,0.01024 0.21243,4.564 0.44222,10.11946 0.34732,8.39698 0.38426,10.16351 0.21896,10.47236 -0.30353,0.56716 -1.25895,1.1524 -2.39608,1.46772 -1.13043,0.31346 -1.14116,0.3142 -1.79453,0.12373 z"
         id="path55" />
      <path
         style="fill:none;stroke:#000000;stroke-width:0.377953;stroke-linecap:square;stroke-dasharray:none;stroke-opacity:1"
         d="m 65.897738,94.979881 0.0085,-1.089219 c 0.02072,-0.643658 0.172093,-1.093977 0.481665,-1.633828 1.08774,-0.731754 2.436674,-0.885444 3.376578,0.05446 l 0.272305,0.381226 c 0.376334,0.675926 0.453176,1.380102 0.490148,2.123977 1.024112,-0.85083 1.503779,-1.851672 2.88643,-1.851672 0.956365,0.285653 1.318897,0.425253 1.633828,1.307062 l 0.05446,1.14368 c -0.323825,1.133393 -0.367633,1.166384 -1.797211,1.960594 -0.702688,0.269465 -1.392706,0.345276 -2.123974,0.381227 0.500795,0.968061 0.756138,2.00499 1.034757,3.049812 0.147196,1.47711 -0.0086,2.4855 -1.089218,3.43104 -1.143528,0.82294 -1.96798,0.57865 -2.995352,-0.16334 -1.743755,-1.83069 -1.773367,-2.19708 -2.178438,-3.59442 -0.237131,-0.674223 -0.486332,-1.250525 -0.653531,-1.906138 -0.252,0.797644 -0.764384,1.086958 -1.393488,1.570878 -1.021223,0.39958 -1.84159,0.48229 -2.908926,0.44414 -0.929357,-0.0327 -1.063357,-0.29628 -1.524907,-1.034761 -0.375269,-0.862506 -0.18694,-1.587546 0.03098,-2.459226 0.350146,-0.660968 0.676229,-1.331728 1.338043,-1.71177 1.02855,-0.768835 2.111105,-0.730489 3.314618,-0.730489 0.618993,0.09256 1.160257,0.102729 1.74275,0.326765 z"
         id="path2"
         sodipodi:nodetypes="ccccccccccccccccccccccc"
         inkscape:label="Flower1" />
      <path
         style="display:inline;fill:#000000;fill-opacity:1;stroke:#000000;stroke-width:0.377953;stroke-linecap:square;stroke-dasharray:none;stroke-opacity:1"
         d="M 30.839902,63.402393 23.0049,49.177141 c -1.590915,0.202856 -3.083457,0.623909 -3.945285,-0.666808 -0.96196,-4.262944 3.870712,-7.266316 7.723867,-4.223122 0.822067,2.038801 0.225567,3.432664 -0.388971,4.834363 l 6.668087,12.613798"
         id="path51"
         sodipodi:nodetypes="cccccc" />
      <path
         style="display:inline;fill:#000000;fill-opacity:1;stroke:#000000;stroke-width:0.377953;stroke-linecap:square;stroke-dasharray:none;stroke-opacity:1"
         d="m 57.678952,62.568882 -5.1122,-17.559295 c 3.682376,-0.350703 2.839645,-4.182882 1.222483,-5.945711 -3.390633,-1.576383 -5.693994,1.227682 -6.723655,3.61188 -0.257698,2.253862 0.96333,3.11598 3.222909,3.00064 l 4.586153,15.4944"
         id="path52"
         sodipodi:nodetypes="cccccc" />
      <path
         style="fill:none;stroke:#000000;stroke-width:0.377953;stroke-linecap:square;stroke-dasharray:none;stroke-opacity:1"
         d="m 94.992025,22.351065 -1.09509,-1.010852 c -1.644997,-2.243178 -1.457685,-5.587189 2.639448,-6.093193 2.184431,0.539874 2.014655,3.711623 2.414814,5.756242 1.576393,-3.420588 4.579583,-3.393274 6.506973,-1.569615 0.8089,1.787349 -0.27382,2.768321 -1.81774,3.254368 l -2.71405,0.460899 c 3.60863,0.92652 4.32132,1.180301 4.21186,3.685192 0.16799,0.357241 -2.464,0.912368 -3.76943,-0.35939 0.0535,0.161482 0.60425,2.124693 -0.66278,2.471411 -0.53197,0.145571 -1.479138,-0.27813 -2.765705,-0.782666 -2.333659,-4.411815 -6.405465,0.760699 -8.086817,-5.44737 0.704231,-3.27016 3.416135,-1.743703 5.138517,-0.365026 z"
         id="path28"
         sodipodi:nodetypes="cccccccccsccc" />
      <path
         style="fill:none;stroke:#000000;stroke-width:0.377953;stroke-linecap:square;stroke-dasharray:none;stroke-opacity:1"
         d="m 121.6332,51.754998 1.46848,0.179083 0.75215,-0.537249 c 0.29834,1.238409 0.005,2.183128 -0.6447,3.187678 1.24281,-1.520572 2.00488,-3.605136 3.90403,-4.083093 0.65332,0.176484 1.48472,3.691404 -2.68625,4.942692 l -0.28653,0.214899 c 2.77677,1.219578 3.53311,3.173615 2.75788,6.33954 -1.90705,0.668724 -3.34009,-1.202523 -4.04728,-2.793696 -0.48859,-2.020043 1.15339,7.121082 -3.43839,2.148997"
         id="path38"
         sodipodi:nodetypes="cccccccccc" />
      <path
         style="fill:none;stroke:#000000;stroke-width:0.377953;stroke-linecap:square;stroke-dasharray:none;stroke-opacity:1"
         d="m 115.07876,61.926915 -0.32235,-2.00573 c -0.19427,-2.525499 -0.11492,-3.4131 1.11032,-4.297993 3.03831,-0.08212 7.93585,2.193723 3.79656,5.229221 -1.01874,0.654494 -2.22935,1.214127 -1.82665,2.399713 1.71081,-0.145254 2.87605,0.356743 3.72493,1.575931 0.51067,4.167725 -2.17912,3.768885 -3.68912,3.510027 l -0.25072,-0.179083 c 0.13302,1.265718 0.42264,0.488175 2.50714,3.366761 0.92825,1.231516 0.2485,2.624784 -2.43743,2.826547 -2.16423,0.162574 -5.48235,0.229576 -5.44222,-4.259211 0.0319,-0.753388 0.081,-1.505816 0.14325,-2.256446 -2.38893,0.01317 -3.34172,-1.505531 -2.86532,-4.548709 0.11382,-0.830631 1.03054,-3.165768 3.08022,-0.03582 l 0.28654,0.286533 c -0.278,-1.613839 -1.91032,-4.373546 0.53725,-4.477076 1.15504,0.539396 1.24918,1.739407 1.6476,2.865332 z"
         id="path39"
         sodipodi:nodetypes="cccccccccsccccccc" />
      <path
         style="fill:none;stroke:#000000;stroke-width:0.377953;stroke-linecap:square;stroke-dasharray:none;stroke-opacity:1"
         d="m 96.358202,99.651403 8.297158,15.738937 0.51322,0.34215 1.15476,0.0855 1.19753,-0.29941 c 1.16311,-0.36048 1.87007,-0.81751 2.52336,-1.79629 l -0.85538,-20.700118"
         id="path44"
         sodipodi:nodetypes="ccccccc" />
      <path
         style="fill:none;stroke:#000000;stroke-width:0.377953;stroke-linecap:square;stroke-dasharray:none;stroke-opacity:1"
         d="m 77.58268,104.65536 5.602718,15.14017 0.171076,0.34215 c 0.912778,0.48708 1.817899,0.44467 2.822745,0.47045 h 1.325835 c 1.138445,-0.076 1.700048,-0.76168 2.138441,-1.75353 l 1.197527,-19.11767"
         id="path45"
         sodipodi:nodetypes="ccccccc" />
      <path
         style="fill:none;stroke:#000000;stroke-width:0.377953;stroke-linecap:square;stroke-dasharray:none;stroke-opacity:1"
         d="m 75.957464,103.62891 c -1.785633,-0.23853 -3.251068,0.20216 -4.918417,0.72707"
         id="path46"
         sodipodi:nodetypes="cc" />
      <path
         style="fill:none;stroke:#000000;stroke-width:0.377953;stroke-linecap:square;stroke-dasharray:none;stroke-opacity:1"
         d="m 71.210123,104.48428 c -1.549669,1.72742 -1.436154,3.43989 -1.411371,5.64549 l -0.128307,5.13226 c 0.06096,2.50564 0.964652,5.44251 -1.111992,6.71471 -1.61096,0.58321 -3.221919,0.98195 -4.832879,0.21384 l -0.427688,-0.98368 -6.287021,-16.3377 -4.02027,-0.17107 -2.822744,-0.0428 c -0.363812,1.2053 -0.03523,2.53065 -0.213843,3.80643 l -0.213844,9.3236 c 0.05453,0.52069 -0.01808,2.10859 -2.779975,2.69444 -1.005802,-0.0403 -1.525842,-0.3839 -2.266749,-0.98368 L 35.213969,95.869571"
         id="path47"
         sodipodi:nodetypes="cccccccccccccc" />
      <path
         style="fill:#000000;fill-opacity:1;stroke:#000000;stroke-width:0.377953;stroke-linecap:square;stroke-dasharray:none;stroke-opacity:1"
         d="M 42.14003,96.666674 C 72.639434,96.403964 72.595933,75.30264 60.911498,64.870106 52.921931,58.525628 42.062052,57.429321 32.945841,61.805377 25.748734,66.644014 16.638796,80.392808 24.77323,90.154124 c 4.834647,5.231082 10.762512,5.922882 17.3668,6.51255 z"
         id="path48"
         sodipodi:nodetypes="ccccc" />
      <ellipse
         style="fill:#ffffff;fill-opacity:1;stroke:#000000;stroke-width:0.377953;stroke-linecap:square;stroke-dasharray:none;stroke-opacity:1"
         id="path49"
         cx="28.478289"
         cy="81.572929"
         rx="3.0839901"
         ry="3.0006392" />
      <path
         style="fill:none;stroke:#000000;stroke-width:0.377953;stroke-linecap:square;stroke-dasharray:none;stroke-opacity:1"
         d="m 94.1702,46.173215 c 0.701395,-0.900654 1.567217,-1.61192 2.431693,-2.344846 0.03994,-0.657301 0.01836,-1.31235 -10e-7,-1.968513 -0.64637,-1.869136 -2.118507,-2.919355 -3.531745,-2.576437 -1.396907,0.839445 -1.697728,1.749582 -2.576437,2.808026 -1.758674,-1.591421 -3.163888,-1.971384 -5.529206,-1.36059 -0.232645,0.736483 -0.148054,1.470929 -0.115792,2.229052 0.330601,1.231203 0.977644,2.209253 2.460642,2.518539 -1.574298,0.530958 -3.702021,0.906156 -4.284411,2.229052 0.354754,2.497165 2.865606,1.654694 4.487055,0.781614 l 1.215846,-0.578974 0.02895,0.376333 c -0.204519,2.042314 0.437692,7.350878 3.473847,4.631796 1.287801,-2.030075 1.377722,-4.45199 1.939559,-6.745052 z"
         id="path30"
         sodipodi:nodetypes="cccccccccccccc" />
      <path
         style="fill:none;stroke:#000000;stroke-width:0.377953;stroke-linecap:square;stroke-dasharray:none;stroke-opacity:1"
         d="m 102.93693,70.5229 c 2.89935,-1.260161 4.03923,-3.436571 1.00286,-5.157591"
         id="path40"
         sodipodi:nodetypes="cc" />
      <path
         style="fill:none;stroke:#000000;stroke-width:0.377953;stroke-linecap:square;stroke-dasharray:none;stroke-opacity:1"
         d="m 117.90827,68.588804 h 1.79083 c 1.67851,-0.54797 3.34882,-0.599949 4.90688,0.17908 1.06542,2.106643 -1.18312,3.496721 -2.7937,4.477076 1.04969,0.963688 0.8095,2.224454 0.57307,3.47421 -1.10701,1.319481 -4.02909,1.182052 -4.94269,0.859602 -0.84701,-1.556184 -1.97634,-2.614626 -3.72493,-3.044412 -2.34584,0.574854 -2.8297,2.410453 -2.86531,4.477076 -0.60872,-1.92694 -1.45622,-3.080228 -3.43839,-3.080228 -1.2008,1.515139 -0.23747,3.754428 0.17908,4.11891 -2.00952,0.220866 -2.24601,1.764491 -2.47135,3.438394 0.41675,0.296388 0.63725,0.940638 0.88493,1.374067 1.24481,-1.081693 2.3841,-3.086685 3.87868,-1.982949 0.32706,3.875765 4.20166,9.443182 2.93696,1.432664 l -0.2149,-1.68338 c 2.11935,0.918596 4.84745,4.30267 5.73066,0.214899 0.40904,-2.23297 -1.74039,-2.026659 -3.33094,-2.220629 l -0.82378,-0.143267 c 1.40337,-0.163961 3.10292,-0.764278 3.29512,-2.686245"
         id="path41"
         sodipodi:nodetypes="ccccccccccccccccccc" />
      <path
         style="fill:none;stroke:#000000;stroke-width:0.377953;stroke-linecap:square;stroke-dasharray:none;stroke-opacity:1"
         d="m 109.79418,69.009056 c -1.39133,0.147858 -2.51013,0.723528 -3.72183,1.35692 -0.68349,0.728065 -0.54,1.608512 -0.19385,2.558762 0.87898,0.592148 1.82076,1.049736 3.41168,0.116308 0.47984,-0.951467 0.84083,-1.946723 1.20185,-2.946454"
         id="path42"
         sodipodi:nodetypes="ccccc" />
      <path
         style="fill:none;stroke:#000000;stroke-width:0.377953;stroke-linecap:square;stroke-dasharray:none;stroke-opacity:1"
         d="m 104.3665,88.587468 c -0.24452,-1.627139 0.48092,-2.094495 1.55077,-3.217838 l 1.66707,-1.977226 1.82215,-0.697846 c 1.97334,2.710808 -0.0426,4.709264 -0.15508,7.288597 0.74791,-1.19544 1.60798,-1.942236 2.86892,-1.085536 0.41285,3.022606 -2.73095,3.770302 -4.96245,4.768603 1.4483,2.121645 0.63422,4.068861 -0.62033,5.931677 -1.04163,0.855061 -4.18707,1.251481 -4.18707,-4.148297 -0.46874,0.907346 -3.223703,4.265609 -5.854139,4.070757"
         id="path43"
         sodipodi:nodetypes="cccccccccc" />
      <path
         style="fill:none;stroke:#000000;stroke-width:0.377953;stroke-linecap:square;stroke-dasharray:none;stroke-opacity:1"
         d="m 79.962115,93.797156 -0.41254,1.476112 c -0.434348,1.293489 -1.723155,1.052936 -2.596133,-0.111283 -0.75251,-2.164675 -0.552032,-4.3653 -0.50872,-6.617474 l 0.0938,-0.703478 c -0.814153,1.102701 -1.52244,1.026221 -2.813914,1.125565 -1.627301,-0.07782 -2.047262,-1.052033 -2.470531,-2.532523 0.369686,-2.272017 2.729327,-1.253925 4.205778,-0.515884 -1.20245,-1.348974 -1.374539,-2.051393 -0.501561,-3.541266 2.462276,-1.393796 3.908912,-0.158074 4.769332,2.4157 l 0.281391,0.98487 c 0.744986,-1.345368 1.505973,-2.051907 2.813915,-2.850494 1.535927,-0.40368 1.998124,0.402308 2.1454,1.870398 0.21838,0.913175 -0.0046,1.928725 0.02464,2.860813 l 0.08109,0.698705 c -0.715463,-0.219421 -1.420244,-0.234493 -2.157334,-0.234493 l -1.189176,0.316701 c -2.497355,2.605087 -1.239672,1.188936 -1.765437,5.358031 z"
         id="path3"
         sodipodi:nodetypes="cccccccccccccccccc"
         inkscape:label="Flower2" />
      <ellipse
         style="fill:#ffffff;fill-opacity:1;stroke:#000000;stroke-width:0.464717;stroke-linecap:square;stroke-dasharray:none;stroke-opacity:1"
         id="path50"
         cx="57.105022"
         cy="84.480888"
         rx="2.7329831"
         ry="2.7807262" />
      <path
         style="fill:none;stroke:#000000;stroke-width:0.377953;stroke-linecap:square;stroke-dasharray:none;stroke-opacity:1"
         d="m 109.59882,29.656151 1.11031,-0.465616 0.25072,-0.214899 -0.57307,-0.573066 c -0.84722,-0.984494 -1.81934,-4.046078 1.43267,-6.411173 2.48564,0.766993 2.95369,2.953805 3.18768,5.193408 l 0.2149,1.289398 c 1.75364,-1.871712 3.02967,-0.636201 4.72779,0.573066 0.71089,1.587478 1.09076,2.980235 -1.39685,2.686245 l -1.2894,-0.214899 2.43553,0.716332 c -0.22299,1.025533 -1.10014,0.988057 -2.07736,0.787965 -0.63972,0.814762 -1.21308,1.44407 -1.89828,2.22063 l -2.04155,0.537249 -0.53725,-0.03582 -1.21776,-1.826647 0.17908,-1.934097"
         id="path36"
         sodipodi:nodetypes="ccccccccccccccccc" />
      <path
         style="fill:none;stroke:#000000;stroke-width:0.377953;stroke-linecap:square;stroke-dasharray:none;stroke-opacity:1"
         d="m 110.67332,39.756434 c -0.86801,1.931935 0.84048,1.818212 1.96991,2.650429 -1.91256,0.179792 -2.83437,1.206436 -2.07736,2.972779 -0.55814,0.669486 -2.49931,0.06234 -0.82376,2.793695 1.03181,1.594886 2.75895,2.302505 4.65615,2.829512 -2.05884,0.74381 -2.26668,2.839415 -2.22064,4.727792 1.17236,1.089149 2.21729,1.06321 3.00859,-1.181948 0.34221,-1.101635 0.60336,-2.04469 1.0745,-2.901145 0.40901,1.728097 1.37975,2.894214 3.08023,3.151862 1.48499,-0.511123 1.83349,-1.74014 1.96991,-3.259312 1.24899,-0.384299 1.29912,0.760914 3.0086,-0.716332 0.97701,-2.067391 0.11941,-3.319177 -1.03869,-5.085958 2.73107,-0.424602 3.72881,-1.854582 3.36678,-4.620342 -0.67735,-1.319502 -1.69955,-0.812846 -2.90114,-0.465616 0.41126,-2.014237 0.2033,-5.071228 -0.93122,-5.479941 -1.46033,0.595708 -1.86639,1.878255 -2.43553,3.223494 l -0.46562,1.396848 c 0.4429,-2.101277 1.20711,-4.900457 -0.42977,-6.590256 -1.58699,-0.144773 -2.20983,0.196178 -2.43553,0.931232 -1.31277,2.394429 -0.95757,5.159701 -0.32235,7.700571 l 0.28654,1.396847 c -0.89224,-0.159756 -0.99924,-0.217919 -1.64757,0.322353 -0.22838,2.992397 0.49016,2.796032 -4e-5,3.939827 -1.60067,-0.636386 -3.29213,-1.781096 -5.01433,-2.00573 l 4.7278,1.934096 c 0.61465,-0.51453 0.54398,-1.069485 0.60888,-1.826647 l 3.18768,2.54298 c 0.13481,0.562418 -0.21125,1.153771 0.10747,1.68338 1.24707,-1.403776 1.46861,0.983129 2.29226,1.611747"
         id="path37"
         sodipodi:nodetypes="ccccccccccccccccccccccccccccc" />
      <path
         style="fill:none;stroke:#000000;stroke-width:0.377953;stroke-linecap:square;stroke-dasharray:none;stroke-opacity:1"
         d="m 85.334249,88.610406 -0.308345,-3.969932 c 0.334436,-0.999755 0.864932,-1.37033 1.695893,-1.927151 l 0.905489,-0.01298 0.784689,0.636251 c 1.80594,2.294877 1.400069,4.489044 1.354717,7.278045 0.880204,0.11362 1.564385,0.491146 2.312581,0.925033 0.582288,0.804129 0.602654,1.135678 0.730793,2.088496 -0.161023,1.110646 -0.610071,1.84017 -1.270395,2.690839 -0.888536,1.056751 -1.747694,1.103584 -3.044899,1.310462 -1.130535,-0.410047 -1.427441,-0.796421 -1.863378,-1.830417 l -0.603375,-2.563487 -1.998053,1.558311 c -1.823297,0.186059 -2.460082,-0.549585 -3.771438,-1.684575 -0.05509,-1.080277 -0.151393,-2.114379 0.250313,-2.922375 0.31859,-0.640816 1.079118,-1.067915 1.510704,-1.769243 l 2.035191,-0.28448 z"
         id="path4"
         sodipodi:nodetypes="ccccccccccccccsccc"
         inkscape:label="Flower3" />
      <path
         style="fill:none;stroke:#000000;stroke-width:0.377953;stroke-linecap:square;stroke-dasharray:none;stroke-opacity:1"
         d="m 84.177958,94.815832 -0.732317,0.269801 -1.040662,0.03854 c -0.881411,0.201098 -1.652005,0.563394 -2.42821,1.002118 -1.469367,1.285696 -0.857937,1.394417 0.616688,1.464632 0.164954,0.511772 0.22368,1.015372 -0.925036,1.426092 -1.302534,0.725865 -2.025183,1.744645 -2.852183,2.929265 -0.346834,1.07019 -0.775166,1.46357 -0.346887,2.46675 3.939489,0.69835 4.5615,-0.91383 7.323174,-3.23761 h 0.269801 c 0.962903,1.32649 2.197151,1.19677 3.70013,1.27192 1.447107,-0.0575 1.518651,-0.58028 2.389667,-1.61881 0.11289,-0.65785 0.401191,-1.161613 0.308348,-1.811515 -0.25242,-0.465048 -0.511455,-0.926384 -0.77086,-1.387549 l -1.194834,0.269801 -1.15629,-0.539602 -0.462517,-0.539602 -0.462516,-0.88649 -0.269801,-1.271919 -0.192715,-0.847947 -0.115629,-0.38543 -0.539602,0.616688 -0.770861,0.616689 z"
         id="path5"
         sodipodi:nodetypes="cccccccccccccccccccccccc"
         inkscape:label="Flower4" />
      <path
         style="fill:none;fill-opacity:1;stroke:#000000;stroke-width:0.377953;stroke-linecap:square;stroke-dasharray:none;stroke-opacity:1"
         d="m 101.21414,89.746595 c 0.42796,-1.578215 0.92044,-2.337551 2.96311,-1.19094"
         id="path56"
         sodipodi:nodetypes="cc" />
      <path
         style="fill:none;fill-opacity:1;stroke:#000000;stroke-width:0.377953;stroke-linecap:square;stroke-dasharray:none;stroke-opacity:1"
         d="m 114.18584,74.515442 0.12811,-0.298916"
         id="path57" />
      <path
         style="fill:none;stroke:#000000;stroke-width:0.377953;stroke-linecap:square;stroke-dasharray:none;stroke-opacity:1"
         d="m 71.138145,55.302738 c 0.02319,1.347989 -0.485402,2.086175 -1.777443,1.575464 -0.799842,-0.883922 -0.100799,-0.580853 -1.050308,-2.585373 -0.669058,0.398249 -0.675602,0.734984 -1.131101,1.090702 -1.109053,0.770389 -2.024148,1.158997 -2.706562,-0.201986 -0.186976,-1.766015 0.150516,-2.984912 1.373476,-4.160834 -3.313576,0.571306 -4.44361,-1.540061 -4.44361,-4.685988 1.203861,-0.976482 2.063196,-0.255012 2.585373,0.56555 1.603473,-1.140836 1.626593,0.510075 3.797266,0.727134 l -0.201982,-1.413875 c 0.01051,-2.743596 -0.114316,-5.204036 4.322424,-6.261449 1.373479,-0.107721 1.917527,0.700202 2.752386,2.100615 0.357734,-0.273977 2.71459,0.894099 0.681312,-1.292687 -0.325919,-1.004075 -1.350175,-2.336779 1.817836,-1.696651 0.733087,-2.202358 2.92364,-1.23485 4.120438,-0.08079 0.329557,0.980184 0.208698,1.876567 -0.08079,2.827751 l -0.161586,0.323172 c 0.824908,-0.01946 1.199551,-0.645112 2.464184,-0.201986 0.808146,1.083692 1.603136,2.164878 0.201985,2.827752 -0.469126,0.308859 -2.589856,0.32839 -3.104201,0.374393"
         id="path14"
         sodipodi:nodetypes="cccccccccccccccccccc"
         inkscape:label="Floewr13" />
      <path
         style="fill:none;stroke:#000000;stroke-width:0.377953;stroke-linecap:square;stroke-dasharray:none;stroke-opacity:1"
         d="m 89.207704,36.418758 c -0.841518,2.19111 -1.06584,4.450008 -4.211884,4.043408 -2.387188,-1.478688 -1.382064,-3.657599 -1.151251,-5.952796 -0.788849,0.608219 -1.59931,0.590051 -2.55521,0.673902 -2.799615,0.11238 -2.78407,-1.296949 -2.89216,-2.639448 1.142844,-3.347977 4.766315,-2.462982 7.469074,-1.516278 l 0.477347,0.308871 c -1.227981,-1.807861 -3.556325,-6.152363 0.870456,-8.030659 2.556588,0.852196 2.835793,1.829829 2.639446,6.149351 2.093449,-1.588561 3.39245,-3.32605 6.261667,-2.836002 3.677728,2.423958 0.392567,5.111114 -3.032556,6.233589 2.462663,1.335347 2.26301,4.450082 -0.252713,5.672004 -1.782725,0.230951 -2.651966,-0.727654 -3.622216,-2.105942 z"
         id="path26"
         sodipodi:nodetypes="ccccccccccccc" />
      <path
         style="fill:none;stroke:#000000;stroke-width:0.377953;stroke-linecap:square;stroke-dasharray:none;stroke-opacity:1"
         d="m 84.490394,25.608255 c -1.407846,0.099 -2.134668,-0.0042 -2.611368,-1.460119 -0.319368,-1.71098 1.132661,-2.136205 2.583287,-2.386734 l -1.909387,-0.280792 -0.36503,-0.589664 c 0.01753,-1.56534 0.930901,-2.412915 1.853229,-3.594141 0.865739,-0.61003 1.712846,-1.263534 3.453745,0.168475 0.606217,0.789965 0.678963,1.414936 0.701981,2.358655 0.859675,-4.184436 3.826908,-1.556929 5.138499,1.291645 -1.15806,-0.323376 -1.754008,-0.724807 -2.836002,-0.112316 -0.744839,0.60253 -0.820952,1.932653 -0.617747,2.976399 l -0.336951,0.505426"
         id="path27"
         sodipodi:nodetypes="cccccccccccc" />
      <path
         style="fill:none;stroke:#000000;stroke-width:0.377953;stroke-linecap:square;stroke-dasharray:none;stroke-opacity:1"
         d="m 68.597552,31.280259 c 1.610652,0.142856 2.066163,-0.695815 4.464597,-0.589663 2.426996,0.785813 0.56352,3.136403 -0.421191,4.35228 l 1.712833,0.196555 c 1.717113,0.04988 3.311106,0.218149 3.116792,2.105942 -0.208759,0.398676 -0.207341,1.648532 -0.814298,1.516278 -1.261309,0.273366 -3.954867,-0.544524 -3.818775,0.926615"
         id="path24"
         sodipodi:nodetypes="ccccccc" />
      <path
         style="fill:none;stroke:#000000;stroke-width:0.377953;stroke-linecap:square;stroke-dasharray:none;stroke-opacity:1"
         d="m 54.419766,51.213202 c 3.409579,1.218405 3.623417,-1.271566 1.45426,-3.440719 -0.08853,-0.429351 -0.197119,-0.891922 0.152142,-1.179098 l 0.760709,-0.380354 c 2.216965,-1.577523 4.75865,-4.687627 2.966762,-6.313879 -2.214848,-0.280268 -1.789942,1.682336 -4.43797,2.533153"
         id="path21"
         sodipodi:nodetypes="cccccc"
         inkscape:label="Flower19" />
      <path
         style="fill:none;stroke:#000000;stroke-width:0.377953;stroke-linecap:square;stroke-dasharray:none;stroke-opacity:1"
         d="m 91.649873,90.6212 c 0.104289,-1.592122 0.885008,-2.304293 1.910393,-3.42891 1.007173,-0.871431 1.643686,-1.025852 2.890082,-0.979693 1.197772,1.163666 1.032193,2.62147 0.587813,4.065708 l 1.588296,-1.110163 c 1.132868,-0.317967 1.448893,-0.03449 2.444433,0.460273 0.24558,0.93374 0.27062,1.240331 -0.25039,1.981092 l -1.431086,1.069036 -2.351253,2.939065 -0.829344,1.689405 -0.150345,1.494584 0.342891,2.057353 c -0.398546,1.01992 -1.072095,1.33 -1.986819,1.58397 -1.542513,-0.32998 -2.479268,-0.96023 -2.715686,-2.465698 -0.321384,-0.332384 -0.621548,-0.259359 -1.028673,-0.342886 l -0.293907,-0.832735 -0.587813,-1.028674 -0.293907,-0.293906 1.028673,-0.244922 1.959378,-2.2043 0.244922,-2.008362 -0.783751,-1.469533 z"
         id="path6"
         sodipodi:nodetypes="ccccccccccccccccccccccc"
         inkscape:label="Flower5" />
      <path
         style="fill:none;stroke:#000000;stroke-width:0.377953;stroke-linecap:square;stroke-dasharray:none;stroke-opacity:1"
         d="m 35.335383,60.119228 c -1.700384,-0.778303 -2.88813,-1.573968 -2.637884,-3.558077 1.439106,-0.517636 2.934857,0.284116 4.355576,0.490766 l 2.024423,1.10423 -0.552115,-0.674807 C 36.00264,55.681792 33.629031,54.007004 34.231152,50.978648 l 1.165577,-0.674812 c 1.340298,-0.03891 2.032584,0.593471 3.067308,1.349615 1.205815,1.452109 1.904421,3.056699 2.576538,4.785 0.112688,-2.121 0.7225,-4.001077 1.472308,-5.950577 0.845294,1.011499 1.839088,1.534175 4.29423,1.901735 -0.456367,2.225496 -1.356515,3.04136 -2.760577,4.539615 1.273787,-0.317661 2.105165,-0.237222 3.251346,0.245381 0.439778,0.783264 0.378062,1.731863 10e-7,2.024423"
         id="path15"
         sodipodi:nodetypes="cccccccccccccc"
         inkscape:label="Flower14" />
      <path
         style="fill:none;stroke:#000000;stroke-width:0.377953;stroke-linecap:square;stroke-dasharray:none;stroke-opacity:1"
         d="m 54.96028,27.588586 c 2.007979,-1.469171 5.285727,0.15349 6.897146,1.127836 l -1.301348,-1.301348 c -1.601815,-2.152337 0.294672,-4.710614 0.607296,-4.988503"
         id="path19"
         sodipodi:nodetypes="cccc" />
      <path
         style="fill:none;stroke:#000000;stroke-width:0.377953;stroke-linecap:square;stroke-dasharray:none;stroke-opacity:1"
         d="m 55.090415,27.545207 c -1.113619,-0.06496 -2.226263,-0.02717 -3.340128,0 -2.429137,-2.168889 0.449529,-1.683876 2.16891,-1.778506 l 0.52054,-0.04338 -1.041079,-0.390405 c -1.988869,-0.994435 -4.641712,-5.152547 2.429186,-3.600397 l 1.474861,0.824187 c -0.0185,-2.444622 -0.329989,-6.100737 3.079858,-5.725934 1.512006,1.278268 1.046828,3.558835 1.041079,5.378907 1.986035,0.476649 2.301077,0.761707 2.689453,3.03648 l 0.130135,1.908644 v 2.168914 c -0.118133,-0.425524 0.665394,-1.524096 1.630144,-2.181084 1.530963,-1.042576 3.362351,-0.814429 1.146066,2.745001 0.552198,0.71985 1.348704,1.328472 2.038779,1.908645 v 1.388105 l -0.173513,1.821888 c -1.729408,2.908198 -3.873363,-1.336597 -4.641476,-2.559319 -2.674378,6.257264 -5.190281,6.210656 -4.294448,-1.171214 -3.14478,1.28121 -5.287699,-0.56995 -4.858367,-3.730532 z"
         id="path18"
         sodipodi:nodetypes="ccccccccccccsccccccc"
         inkscape:label="FLower17" />
      <path
         style="fill:none;stroke:#000000;stroke-width:0.377953;stroke-linecap:square;stroke-dasharray:none;stroke-opacity:1"
         d="m 97.381052,81.55908 c -0.599312,1.735933 -2.124441,2.695953 -3.673832,3.526879 -2.330768,0.423776 -3.134057,0.132542 -2.596175,-3.281953 l 0.979689,-1.959377 c 0.588351,-0.660157 0.194794,-0.707131 0.734766,-1.371564 l 0.391875,-0.832735 c -1.776276,1.064109 -3.66228,-0.576258 -4.261645,-1.175623 -0.194554,-1.117362 -0.156152,-2.074138 0.146953,-3.135003 0.718907,-1.477789 1.212421,-1.82192 2.694144,-2.2043 2.602995,-0.0214 3.608439,2.075929 4.75149,4.016729 l 0.04898,-1.371565 c 0.0019,-1.695858 -0.375948,-3.102148 0.44086,-4.653521 1.228878,-0.559144 2.466253,-0.380696 3.722823,-0.09797 1.76137,0.334933 2.28385,1.297326 2.10633,3.08602 -0.4669,1.153655 -1.13972,2.049488 -1.86141,3.037035 0.65893,-0.809296 0.98323,-1.077658 1.95938,-1.077658 1.58753,0.08914 2.23251,0.445264 2.79211,1.910393 0.10695,0.695223 -0.17618,1.11849 -0.48984,1.714455 -0.7384,0.947379 -1.18607,1.176534 -2.30227,1.273596 l -1.22461,-0.04898 c -0.66632,0.234946 -0.97596,-0.282692 -0.29391,0.83273 1.33273,0.969256 1.93696,3.13787 1.22461,3.771802 -0.35019,0.784678 -1.00432,1.077597 -1.75874,1.400417 -0.8563,0.482543 -1.430138,0.3027 -2.246241,-0.223022 L 97.870893,83.175581 C 97.492852,82.81476 97.507072,81.949754 97.381052,81.55908 Z"
         id="path7"
         sodipodi:nodetypes="cccccccccccccccccccccccccc"
         inkscape:label="Flower6" />
      <path
         style="fill:none;stroke:#000000;stroke-width:0.377953;stroke-linecap:square;stroke-dasharray:none;stroke-opacity:1"
         d="m 90.572216,77.983217 v 1.077657 l -0.587813,1.126642 c -0.272575,0.271917 -0.462576,0.58512 -0.979689,0.734767 l -1.126642,-0.04898 c -0.06664,-0.01905 -2.395779,-1.050944 -0.685782,-3.330941 -0.334654,0.392836 -2.36231,2.956452 -4.849459,1.812425 -0.83623,-1.222186 -0.758146,-2.362459 -0.04898,-3.575864 0.934135,-1.098485 1.72681,-1.261844 2.498206,-2.057346 -1.077927,-0.510992 -2.58545,-1.002853 -2.988051,-2.694144 -0.09151,-1.922501 1.607032,-3.424239 4.506572,-0.685783 0.547182,0.38161 1.197903,-0.325051 0.636799,-1.32258 0.563535,0.155855 1.463539,-0.257493 2.039179,-0.161553 1.033852,-0.467996 1.927643,-0.952657 2.173482,-2.042746 0.02514,0.588254 0.06124,1.175836 0.09797,1.76344 1.015369,-1.489524 1.567918,-2.364918 3.379925,-2.2043 0.9239,0.31891 0.99215,0.958688 0.88172,1.665471 l -0.293906,1.420548 c -0.01343,0.713109 -0.588156,1.325325 -1.224612,1.861409 L 93.1684,71.076417 c -3.187006,-0.756441 -4.297129,2.346663 -4.555552,4.996412 0.52498,0.758125 1.26101,1.30746 1.959368,1.910388 z"
         id="path8"
         sodipodi:nodetypes="cccccccccccccccccccccc"
         inkscape:label="Flower7" />
      <path
         style="fill:none;stroke:#000000;stroke-width:0.377953;stroke-linecap:square;stroke-dasharray:none;stroke-opacity:1"
         d="m 70.39063,77.885248 c -1.800309,-1.462752 -0.65818,-0.266305 -2.400237,-2.008362 -1.066491,-1.07692 -0.958188,-2.28668 -0.195938,-3.624848 2.029725,-0.641314 2.429951,-0.343568 3.918759,2.498204 0.222393,-0.807772 -0.08714,-1.239224 -0.489844,-1.910393 l 0.04898,-1.322579 v -2.792113 c 0.371638,-1.805355 2.332513,-1.110748 3.330942,-0.342891 1.360756,1.609651 0.34862,3.314706 -0.244922,4.996412 2.782954,-1.913283 4.350996,-2.971483 6.41696,-0.685782 0.17029,2.9733 -2.387257,3.472069 -4.849459,3.42891 l 2.008362,0.979689 c 1.937671,0.88791 4.886894,5.083017 1.028673,5.094381 l -1.077657,-0.587814 c -2.199369,-0.09184 -2.79798,-0.109316 -3.42891,-2.302268 l -0.342892,0.832736 c -0.749448,2.103915 -1.656245,2.467059 -3.575864,2.743128 -1.443192,-0.68492 -1.686648,-1.485485 -1.763439,-2.988048 0.04125,-0.868487 0.283757,-1.656467 1.616482,-2.008362 z"
         id="path9"
         sodipodi:nodetypes="ccccccccccccccccccc"
         inkscape:label="Flower8" />
      <path
         style="fill:none;stroke:#000000;stroke-width:0.377953;stroke-linecap:square;stroke-dasharray:none;stroke-opacity:1"
         d="m 89.250553,61.203697 c 1.224222,0.574656 1.947504,1.310837 2.148519,2.671129 0.179829,1.397218 -0.01226,2.227016 -0.696817,3.367946 -0.595333,1.188183 -1.476205,1.778998 -2.787265,1.683972 -2.670489,-0.405715 -3.36329,-2.524972 -3.542151,-4.99385 l -1.103293,1.509769 c -1.345486,1.564818 -2.570465,1.894343 -4.587374,0.348408 -0.508878,-1.967521 0.654985,-3.03867 2.090449,-4.180898 l 1.393633,-0.754884 c -1.058351,0.3333 -2.054329,0.254304 -3.135674,0.174204 -1.147919,-0.965383 -1.103292,-1.966317 -0.812952,-3.426013 0.792601,-1.214995 3.204332,-4.181711 5.458394,-0.116136 l -0.929088,-3.193742 c -0.328183,-2.094819 0.42212,-3.575095 2.380787,-4.064761 1.879057,0.0632 2.606091,1.492727 3.019537,3.077605 l 0.464544,2.264653 c 1.297458,-1.365995 4.658528,-2.873669 4.761578,0.174204 -0.48398,3.475591 -2.082768,2.754254 -4.122827,5.458394 z"
         id="path10"
         sodipodi:nodetypes="cccccccccccccccccc"
         inkscape:label="Flower9" />
      <path
         style="fill:none;stroke:#000000;stroke-width:0.377953;stroke-linecap:square;stroke-dasharray:none;stroke-opacity:1"
         d="m 76.55445,68.449373 c -1.912725,0.965034 -2.104334,-0.462575 -3.040332,-1.032397 -1.458837,-0.631571 -2.206093,0.657319 -2.845333,1.80011 -2.867363,1.265169 -2.912959,-0.897259 -2.322721,-3.077605 0.88567,-1.118432 1.990231,-1.911023 3.135673,-2.729197 l -0.522612,-0.58068 c -1.23878,-1.122649 -1.238789,-2.245297 0,-3.367946 2.835074,-0.351689 2.371415,0.641742 4.238966,0.812953 v -1.393633 c -0.504371,-1.956184 0.146779,-3.150562 1.335566,-3.948625 l 1.161361,0.174204 0.812952,1.219428 0.05807,0.348408 c -1.561503,2.807913 -0.202629,4.231799 2.554994,4.645442 l -1.323641,0.953997 -1.347489,1.949404 c 0.434701,1.651744 -0.434739,2.596699 -1.451698,3.948626 -1.517329,1.270685 -2.643193,0.388317 -3.54215,-1.742041 l 0.232272,-1.4517 0.812953,-1.103293 1.219428,-0.522612 -1.567837,0.232272 H 72.87537 L 71.655941,63.46835 71.249465,63.352214"
         id="path11"
         sodipodi:nodetypes="ccccccccccccccccccccccccc"
         inkscape:label="Flower10" />
      <path
         style="fill:none;stroke:#000000;stroke-width:0.377953;stroke-linecap:square;stroke-dasharray:none;stroke-opacity:1"
         d="m 56.919989,58.071248 c 1.07299,0.01873 1.390058,0.129169 2.047849,0.89659 L 58.681817,57.442396 C 57.066313,47.9512 61.92338,49.123389 61.92338,55.106564 v 2.240492 c 0.264842,-0.159576 3.98362,-2.213488 6.197105,0.429031 0.365064,2.537657 -2.353924,2.241469 -4.099623,2.335831 L 62.11406,59.921237 c 1.85197,0.742554 4.855676,2.523534 4.242634,5.291375 -1.838274,1.058916 -3.559182,-1.10291 -4.528654,-2.764863 l -0.19068,-0.14301 c 0.05715,0.171393 0.639962,2.008255 -0.33369,2.860203 l -2.853024,-2.220246 0.612532,-1.641027 c -0.28955,0.599478 -0.210058,0.666605 -0.797324,0.876343 -1.43488,-1.555369 -1.381142,-2.798421 -1.345865,-4.108764 z"
         id="path12"
         sodipodi:nodetypes="cccccccccccccccc"
         inkscape:label="Flower11" />
      <path
         style="fill:none;stroke:#000000;stroke-width:0.377961;stroke-linecap:square;stroke-dasharray:none;stroke-opacity:1"
         d="m 71.698441,46.771142 c -1.881314,-0.0019 -3.40994,0.629227 -4.933528,1.622871 -0.561641,0.693418 -0.551776,1.230329 -0.551776,2.077275 1.624767,2.412941 3.839437,0.850728 5.420389,-0.649148 l -0.584229,1.785158 c -0.240166,2.548001 0.176135,4.147771 1.493042,4.446666 1.441944,0.01286 2.299524,-0.230432 3.375571,-1.071095 0.887038,-0.497752 0.926486,-1.457826 0.876351,-2.466764 -0.09513,-1.125662 -0.819911,-1.786907 -1.428127,-2.629051 l 1.752701,-0.551776 c 2.136849,-1.108626 3.687412,-2.324006 3.310659,-4.673868 -3.021169,-2.280958 -5.142122,0.863737 -5.485304,1.395669 l -0.389489,-2.888711 c -0.0963,-6.242279 -7.733948,-0.971862 -6.004623,0.227202 0.394718,0.512525 0.842181,0.972011 1.298297,1.428127 l 1.00618,1.071095 z"
         id="path13"
         sodipodi:nodetypes="ccccccccccccccccc"
         inkscape:label="Flower12" />
      <path
         style="fill:none;stroke:#000000;stroke-width:0.377953;stroke-linecap:square;stroke-dasharray:none;stroke-opacity:1"
         d="m 45.702883,44.905383 c 0.903608,0.973504 1.14382,2.200912 1.533653,3.435384 0.0092,1.81121 -0.144201,2.792265 -1.779038,3.619423 L 43.18769,50.917305 c -1.377095,-0.80301 -1.463918,-1.725964 -1.840384,-3.189999 -2.984999,2.81719 -9.448421,-0.186915 -3.203608,-3.345541 0.148253,-0.32718 0.663896,-0.437468 -1.336007,-0.764648 -2.072426,-0.979203 -4.922509,-1.801877 -4.232881,-4.600961 1.31993,-2.981425 5.14832,-1.876873 7.422885,-0.429423 0.714959,0.701782 0.810242,1.389027 0.981538,2.331154 -0.120643,-2.114605 -0.346017,-3.217037 0.9741,-4.770115 2.820064,-0.41041 3.236179,1.5608 3.688211,3.604538 1.196715,-0.9676 2.346674,-2.280821 3.318472,-0.09958"
         id="path16"
         sodipodi:nodetypes="ccccccccccccc"
         inkscape:label="Flower15" />
    </g>
  </g>
</svg>
