<?xml version="1.0" encoding="UTF-8" standalone="no"?>
<!-- Created with Inkscape (http://www.inkscape.org/) -->

<svg
   width="72"
   height="72"
   viewBox="0 0 72 72"
   version="1.1"
   id="svg1"
   inkscape:version="1.3.2 (091e20e, 2023-11-25)"
   sodipodi:docname="HoneyBear.svg"
   xmlns:inkscape="http://www.inkscape.org/namespaces/inkscape"
   xmlns:sodipodi="http://sodipodi.sourceforge.net/DTD/sodipodi-0.dtd"
   xmlns="http://www.w3.org/2000/svg"
   xmlns:svg="http://www.w3.org/2000/svg">
  <sodipodi:namedview
     id="namedview1"
     pagecolor="#ffffff"
     bordercolor="#000000"
     borderopacity="0.25"
     inkscape:showpageshadow="2"
     inkscape:pageopacity="0.0"
     inkscape:pagecheckerboard="0"
     inkscape:deskcolor="#d1d1d1"
     inkscape:document-units="px"
     inkscape:zoom="5.2366841"
     inkscape:cx="23.392665"
     inkscape:cy="44.302844"
     inkscape:window-width="1160"
     inkscape:window-height="727"
     inkscape:window-x="0"
     inkscape:window-y="25"
     inkscape:window-maximized="0"
     inkscape:current-layer="layer1" />
  <defs
     id="defs1" />
  <g
     inkscape:label="Layer 1"
     inkscape:groupmode="layer"
     id="layer1">
    <rect
       style="fill:#f9f9f9;stroke-width:0.49567;stroke-linecap:round;stroke-linejoin:round"
       id="rect1"
       width="72"
       height="72"
       x="0"
       y="0" />
    <g
       id="g60"
       inkscape:label="Honey Bear"
       transform="matrix(0.68377658,-0.68377658,0.68377658,0.68377658,-137.12056,121.01277)">
      <path
         style="fill:none;stroke:#000000;stroke-width:0.377961;stroke-linecap:square;stroke-dasharray:none;stroke-opacity:1"
         d="m 171.11544,51.766916 -0.64641,0.369377 c -4.76445,0.697238 -7.84279,-0.861432 -8.35715,-5.263619 -0.65274,-8.206008 1.55247,-11.780751 8.49567,-14.036316 2.80993,-0.412871 3.22882,0.188631 5.17127,1.9854 1.94024,2.102752 2.85625,4.22267 2.63181,6.971986"
         id="path61"
         sodipodi:nodetypes="cccccc" />
      <path
         style="fill:none;stroke:#000000;stroke-width:0.377961;stroke-linecap:square;stroke-dasharray:none;stroke-opacity:1"
         d="m 174.61891,45.864547 c 1.01422,-1.469347 2.3124,-2.552692 3.8078,-3.919018 1.44167,-1.381559 3.10213,-1.864728 4.94971,-1.971023"
         id="path62"
         sodipodi:nodetypes="ccc" />
      <path
         style="fill:none;stroke:#000000;stroke-width:0.377961;stroke-linecap:square;stroke-dasharray:none;stroke-opacity:1"
         d="m 183.35814,39.468649 c 0.79892,1.811377 0.54675,4.307547 1.89333,5.788792 0.60209,0.341533 1.20419,0.485561 1.80628,-0.435247 0.56161,-1.21031 0.52024,-2.772173 1.98037,-3.220832 1.67013,1.215927 0.73573,5.622587 1.08817,8.422039 1.85294,4.232274 5.04878,0.592646 4.98359,0.06529 0.14762,-2.077744 0.46036,-4.393035 0.50054,-6.615761 -0.18996,-1.902298 0.53205,-4.625796 -1.30575,-5.31002 -3.79,-2.577375 -8.60054,-2.341539 -10.94653,1.305742 z"
         id="path78"
         sodipodi:nodetypes="cccccccccc"
         inkscape:label="path78" />
      <path
         style="display:inline;fill:none;stroke:#000000;stroke-width:0.498898;stroke-linecap:square;stroke-dasharray:none;stroke-opacity:1"
         d="m 220.30571,73.85821 c 8.37103,0.134054 19.53368,-0.780233 25.15401,-5.777217"
         id="path94"
         sodipodi:nodetypes="cc"
         transform="matrix(0.75759183,0,0,0.75759183,18.74754,13.767285)" />
      <path
         style="display:inline;fill:none;stroke:#000000;stroke-width:0.498898;stroke-linecap:square;stroke-dasharray:none;stroke-opacity:1"
         d="m 206.76426,67.750519 c 3.41844,0.52109 7.5062,0.794093 10.94666,0.513239"
         id="path95"
         sodipodi:nodetypes="cc"
         transform="matrix(0.75759183,0,0,0.75759183,18.74754,13.767285)" />
      <path
         style="display:inline;fill:none;stroke:#000000;stroke-width:0.498898;stroke-linecap:square;stroke-dasharray:none;stroke-opacity:1"
         d="m 208.8866,72.472171 c -2.23628,-0.237313 -4.08876,-0.489657 -5.8752,-1.788888"
         id="path96"
         sodipodi:nodetypes="cc"
         transform="matrix(0.75759183,0,0,0.75759183,18.74754,13.767285)" />
      <path
         style="display:inline;fill:none;stroke:#000000;stroke-width:0.498898;stroke-linecap:square;stroke-dasharray:none;stroke-opacity:1"
         d="m 245.17543,94.548276 c -0.60049,-2.677553 -1.68689,-12.265103 10.39781,-12.869337"
         id="path89"
         sodipodi:nodetypes="cc"
         transform="matrix(0.75759183,0,0,0.75759183,18.74754,13.767285)" />
      <path
         style="display:inline;fill:none;stroke:#000000;stroke-width:0.498898;stroke-linecap:square;stroke-dasharray:none;stroke-opacity:1"
         d="m 223.17852,102.78213 2.25823,15.87219 c 3.36751,2.78253 7.5095,0.56293 11.09764,-0.83878 l 2.64536,-13.29134"
         id="path90"
         sodipodi:nodetypes="cccc"
         transform="matrix(0.75759183,0,0,0.75759183,18.74754,13.767285)" />
      <path
         style="display:inline;fill:none;stroke:#000000;stroke-width:0.498898;stroke-linecap:square;stroke-dasharray:none;stroke-opacity:1"
         d="m 244.17668,63.489538 c 0.69103,1.114287 1.19776,2.215344 1.3202,3.480523 0.17361,1.104861 0.18634,2.280171 -0.30005,3.240486 l -7.56113,9.061362 c -1.05196,5.887821 5.23565,12.076778 8.40126,16.502479 0.42376,4.236522 -3.10896,6.432992 -5.88088,8.941342 -8.93618,-4.22498 -26.28616,-1.89367 -30.96465,0 -1.01634,-1.53506 -1.34442,-3.16845 -3.36051,-4.56069 -2.00091,0.50772 -2.57158,1.87357 -3.84058,2.82043 -8.73698,-9.036488 -4.99395,-23.614288 0.87226,-32.380011 -0.3595,-0.173245 -0.91675,0.165245 -1.41234,-1.225038 l 0.12002,-2.700405"
         id="path86"
         sodipodi:nodetypes="cccccccccccc"
         transform="matrix(0.75759183,0,0,0.75759183,18.74754,13.767285)" />
      <path
         style="display:inline;fill:none;stroke:#000000;stroke-width:0.498898;stroke-linecap:square;stroke-dasharray:none;stroke-opacity:1"
         d="m 242.33358,73.826069 0.53852,0.685388 c -0.55618,4.397916 -0.82043,6.266375 1.32182,6.902836 3.92376,-0.163822 1.2531,-4.533172 3.03529,-6.31536 0.59843,2.044513 1.3684,2.373614 2.20303,2.056163 0.42862,-0.644907 0.88424,-1.320781 0.44065,-2.007207 l -4.40607,-5.434147"
         id="path87"
         sodipodi:nodetypes="ccccccc"
         transform="matrix(0.75759183,0,0,0.75759183,18.74754,13.767285)" />
      <path
         style="fill:none;stroke:#000000;stroke-width:0.377961;stroke-linecap:square;stroke-dasharray:none;stroke-opacity:1"
         d="m 163.37072,38.021459 c -0.002,2.090518 -0.0154,4.002168 0.0443,6.091533 -0.0847,1.193045 0.42705,1.823741 1.6534,2.30779 1.12168,-0.200646 1.23588,-0.507684 1.61889,-1.34334 0.31142,-1.313481 0.8123,-2.584218 1.51557,-4.09891 0.69722,-1.096787 1.57072,-0.95523 2.17,0.06888 0.34965,1.373954 0.42228,2.39315 1.75669,2.51446 3.17812,-1.096548 3.09817,-6.048064 3.34113,-8.817827"
         id="path79"
         sodipodi:nodetypes="cccccccc" />
      <path
         style="display:inline;fill:none;stroke:#000000;stroke-width:0.498898;stroke-linecap:square;stroke-dasharray:none;stroke-opacity:1"
         d="m 233.38736,34.612839 1.03892,-3.542193 c 1.58944,-8.058682 10.96774,-8.171162 17.33996,-5.762104 3.42229,2.51332 4.70708,5.846475 6.16667,9.544111 0.86794,4.964043 -1.38463,8.692625 -4.5966,12.044239 0.12569,2.084139 -0.31644,4.084801 -0.93095,6.051212 -0.74707,1.490672 -1.86606,1.562108 -2.90924,0.930956 -1.41318,-1.359477 -0.8723,-3.156147 -0.8723,-4.97139 l -2.5024,-0.0325"
         id="path80"
         transform="matrix(0.75759183,0,0,0.75759183,18.74754,13.767285)"
         sodipodi:nodetypes="ccccccccc" />
      <path
         style="fill:none;stroke:#000000;stroke-width:0.377961;stroke-linecap:square;stroke-dasharray:none;stroke-opacity:1"
         d="m 205.16664,50.836127 c -0.0566,1.624026 0.95445,1.747357 1.14287,2.931718 0.0911,5.028078 -2.35117,8.483244 -6.11188,11.279661 -4.80792,2.881632 -15.31044,3.932203 -19.6773,-2.732959 l -0.24844,-0.397521 c -1.26689,2.97142 -4.0078,3.180169 -6.75787,3.180169 -6.1741,-2.230419 -4.37002,-8.715607 -2.41039,-13.222783"
         id="path82"
         sodipodi:nodetypes="ccccccc" />
      <path
         style="fill:none;stroke:#000000;stroke-width:0.377961;stroke-linecap:square;stroke-dasharray:none;stroke-opacity:1"
         d="m 207.12845,50.794872 c 0.21274,-2.075688 0.54353,-4.268307 0.19987,-6.330451 -0.63413,-0.100792 -0.82711,0.132497 -1.04397,0.710784 -0.41589,1.272948 -1.0163,1.625336 -1.86582,0.777428 -0.78015,-0.94406 -0.69976,-1.94482 -0.75519,-2.998635 l 0.0222,-1.199454 c 0.0243,-1.416502 0.36495,-2.888728 -0.15548,-4.220301 -0.49971,-0.581839 -0.9249,-0.721636 -1.62148,-0.399819 -0.84642,1.058938 -0.18803,2.148681 -1.55485,3.909331 -0.92868,0.597007 -1.42129,0.639469 -2.22121,-0.355388 -0.76804,-1.774276 -0.68118,-3.755544 -0.86631,-5.641876"
         id="path81"
         sodipodi:nodetypes="ccccccccccc" />
      <path
         style="fill:none;stroke:#000000;stroke-width:0.377961;stroke-linecap:square;stroke-dasharray:none;stroke-opacity:1"
         d="m 173.48537,64.866749 c -7.18191,-22.092774 30.01875,-14.830159 16.45579,2.26255"
         id="path83"
         sodipodi:nodetypes="cc" />
      <ellipse
         style="fill:#000000;fill-opacity:1;stroke:#000000;stroke-width:0.377961;stroke-linecap:square;stroke-dasharray:none;stroke-opacity:1"
         id="path84"
         cx="196.85062"
         cy="56.87759"
         rx="2.0953302"
         ry="2.0061672" />
      <ellipse
         style="fill:#000000;fill-opacity:1;stroke:#000000;stroke-width:0.377961;stroke-linecap:square;stroke-dasharray:none;stroke-opacity:1"
         id="path85"
         cx="170.05713"
         cy="56.476357"
         rx="1.9615859"
         ry="2.0507488" />
      <path
         style="display:inline;fill:none;stroke:#000000;stroke-width:0.498898;stroke-linecap:square;stroke-dasharray:none;stroke-opacity:1"
         d="m 250.18672,75.346369 7.40398,8.323427 c 0.94644,2.003606 0.95614,4.218061 1.06463,6.387746 -1.15047,6.545017 -9.09413,8.084036 -12.58193,5.565082"
         id="path88"
         sodipodi:nodetypes="cccc"
         transform="matrix(0.75759183,0,0,0.75759183,18.74754,13.767285)" />
      <path
         style="fill:none;stroke:#000000;stroke-width:0.377961;stroke-linecap:square;stroke-dasharray:none;stroke-opacity:1"
         d="m 172.52611,91.243141 3.51941,12.855609 c 1.90757,1.91524 6.89575,-0.1605 8.3586,-0.83097 l 0.78209,-11.438074"
         id="path91"
         sodipodi:nodetypes="cccc"
         inkscape:label="path91" />
      <path
         style="fill:none;stroke:#000000;stroke-width:0.377961;stroke-linecap:square;stroke-dasharray:none;stroke-opacity:1"
         d="m 171.98843,67.340494 -9.33622,13.100018 c -0.33577,5.37022 1.73755,7.778963 6.45221,7.967548"
         id="path92"
         sodipodi:nodetypes="ccc" />
      <path
         style="fill:none;stroke:#000000;stroke-width:0.377961;stroke-linecap:square;stroke-dasharray:none;stroke-opacity:1"
         d="m 163.99968,78.631928 c 1.41788,-1.133257 2.43729,-0.710233 3.78501,0.244403"
         id="path93"
         sodipodi:nodetypes="cc" />
      <ellipse
         style="fill:#000000;fill-opacity:1;stroke:#000000;stroke-width:0.377961;stroke-linecap:square;stroke-dasharray:none;stroke-opacity:1"
         id="path97"
         cx="180.30907"
         cy="60.327141"
         rx="2.5435116"
         ry="1.3591284" />
      <path
         style="fill:#000000;fill-opacity:1;stroke:#000000;stroke-width:0.0304714;stroke-linecap:square;stroke-dasharray:none;stroke-opacity:1"
         d="m 192.6991,42.587743 c -0.298,-0.147271 -0.58936,-0.356422 -0.83374,-0.598487 -0.31975,-0.316725 -0.39531,-0.4352 -0.50778,-0.796106 -0.12873,-0.413104 -0.13306,-0.53736 -0.16835,-4.832751 l -0.0362,-4.408744 0.22385,-0.375779 c 0.38998,-0.654664 0.90011,-1.292123 1.56397,-1.954344 1.59955,-1.595606 3.82666,-2.87415 6.78217,-3.893526 1.67659,-0.578269 3.37885,-0.597047 4.48918,-0.04952 0.52266,0.257732 0.90644,0.540513 1.74247,1.283912 l 0.64307,0.571818 -0.13629,1.853429 c -0.16155,2.196958 -0.27157,3.12987 -0.51168,4.3386 -0.51921,2.613837 -1.50855,4.283615 -2.99678,5.057876 -0.42464,0.220925 -0.53004,0.252167 -0.73834,0.218859 -0.5247,-0.0839 -0.98358,-0.458483 -1.22203,-0.99753 -0.0647,-0.146151 -0.22146,-0.670015 -0.34848,-1.164144 -0.12701,-0.494129 -0.27967,-0.992659 -0.33923,-1.107844 -0.14846,-0.287076 -0.68255,-0.806536 -0.9789,-0.952073 -0.33223,-0.163163 -0.95039,-0.163163 -1.28262,0 -0.35313,0.17342 -0.84563,0.689787 -1.05585,1.107015 -0.60315,1.197046 -1.40358,3.266437 -1.78375,4.611612 -0.29119,1.030361 -0.59764,1.64956 -0.93862,1.896564 -0.19703,0.142726 -0.90666,0.42038 -1.0686,0.418102 -0.0216,-3.05e-4 -0.24551,-0.102428 -0.49745,-0.226939 z"
         id="path98"
         transform="matrix(0.75759183,0,0,0.75759183,18.74754,13.767285)" />
      <path
         style="fill:#000000;fill-opacity:1;stroke:#000000;stroke-width:0.0304714;stroke-linecap:square;stroke-dasharray:none;stroke-opacity:1"
         d="m 228.87337,50.203495 c -0.83661,-0.169005 -1.64135,-0.928054 -2.23194,-2.105228 -0.22255,-0.443597 -0.24407,-0.846341 -0.25617,-4.794412 -0.0111,-3.628366 -0.0241,-3.851476 -0.28204,-4.855651 -0.17759,-0.691338 -0.43551,-1.193381 -0.83451,-1.62434 -0.32147,-0.347235 -0.35953,-0.370366 -0.5567,-0.33837 -0.64144,0.104091 -1.42843,0.794364 -1.80197,1.580525 -0.11584,0.243794 -0.36326,0.924246 -0.54982,1.512116 -0.44477,1.401543 -0.74367,1.860965 -1.30873,2.011568 -0.43359,0.115563 -1.03196,-0.133317 -1.33339,-0.554603 -0.58189,-0.81327 -0.88722,-1.738782 -1.36468,-4.136538 -0.19819,-0.995287 -0.44541,-2.068856 -0.54939,-2.385708 l -0.18904,-0.576094 0.15502,-0.217911 c 0.97226,-1.366698 2.38288,-2.433358 3.94814,-2.985422 1.08421,-0.3824 1.65858,-0.469758 3.07711,-0.468008 0.97813,0.0012 1.41312,0.02739 1.83232,0.110317 1.6119,0.31885 3.15888,0.932031 4.48918,1.779397 0.21836,0.139084 0.52599,0.314956 0.68363,0.390827 0.40562,0.195216 0.76521,0.56866 0.96904,1.006366 0.31984,0.686846 0.35928,1.148278 0.36485,4.268993 0.005,2.997527 -0.016,3.420139 -0.36343,7.175569 -0.0988,1.067589 -0.19849,2.174691 -0.22163,2.460228 -0.055,0.678978 -0.16823,0.890871 -0.81584,1.526934 -0.96233,0.945156 -2.00887,1.391382 -2.86001,1.219445 z"
         id="path99"
         transform="matrix(0.75759183,0,0,0.75759183,18.74754,13.767285)" />
      <path
         style="fill:#000000;fill-opacity:1;stroke:#000000;stroke-width:0.0304714;stroke-linecap:square;stroke-dasharray:none;stroke-opacity:1"
         d="m 250.33992,53.928565 c -0.73107,-0.180586 -1.18153,-0.70474 -1.4288,-1.662544 -0.14202,-0.550109 -0.077,-2.475803 0.15615,-4.625673 0.10019,-0.923795 0.21487,-2.110619 0.25485,-2.637386 0.084,-1.106688 0.0456,-3.417192 -0.0699,-4.210903 l -0.0767,-0.526781 -0.3411,-0.03543 c -0.59732,-0.06204 -1.02605,0.114109 -1.27809,0.525118 -0.0666,0.108575 -0.22358,0.458515 -0.34887,0.777644 -0.27559,0.701896 -0.52002,1.074196 -0.78971,1.202801 -0.24615,0.117383 -0.40214,0.08309 -0.78971,-0.173627 -0.49614,-0.328629 -0.93566,-1.109882 -1.1116,-1.975873 -0.12575,-0.618993 -0.17594,-3.077597 -0.0879,-4.305955 0.24146,-3.368718 0.1109,-4.665817 -0.53664,-5.331733 -0.15663,-0.161068 -0.42977,-0.363902 -0.60699,-0.450743 -0.28254,-0.138449 -0.37656,-0.154146 -0.76347,-0.127469 -0.65919,0.04545 -0.9158,0.17368 -1.17522,0.587278 -0.26384,0.42064 -0.40908,0.874697 -0.57919,1.810718 -0.218,1.1995 -0.48756,1.906917 -1.0323,2.70909 -0.19182,0.282464 -0.31617,0.390463 -0.63719,0.553404 -0.7552,0.383317 -1.16825,0.304628 -1.78829,-0.340676 -0.28287,-0.294401 -0.34151,-0.404317 -0.53831,-1.008993 -0.39698,-1.219734 -0.55245,-2.342943 -0.7741,-5.592507 l -0.0719,-1.053356 0.17383,-0.259808 c 0.2913,-0.435377 1.43238,-1.529601 1.95027,-1.870174 1.705,-1.121253 3.79518,-1.660104 6.44366,-1.661186 2.17645,-8.9e-4 4.18417,0.33082 6.34953,1.049055 0.86157,0.285777 1.09347,0.437329 2.03143,1.327618 1.73127,1.643272 2.9025,3.594114 4.37543,7.287851 0.4893,1.227063 0.56506,1.633147 0.56772,3.043286 0.002,0.974489 -0.0177,1.180141 -0.20296,2.137904 -0.44622,2.306703 -1.82826,4.745422 -4.03525,7.120536 l -0.51545,0.554719 -0.006,0.941677 c -0.004,0.612293 -0.0508,1.249708 -0.13485,1.822313 -0.14849,1.012263 -0.60278,2.863724 -0.81802,3.333878 -0.36809,0.804011 -1.08122,1.234757 -1.7647,1.065926 z"
         id="path100"
         transform="matrix(0.75759183,0,0,0.75759183,18.74754,13.767285)" />
      <path
         style="fill:#000000;fill-opacity:1;stroke:#000000;stroke-width:0.122154;stroke-linecap:square;stroke-dasharray:none;stroke-opacity:1"
         d="m 243.48233,80.43578 c -0.60036,-0.600359 -0.6073,-0.654183 -0.49306,-3.824765 l 0.11587,-3.215837 1.14963,-1.433324 c 0.6323,-0.788329 1.24452,-1.37468 1.3605,-1.303003 0.11597,0.07168 1.09305,1.219674 2.17128,2.551104 1.82568,2.254402 1.94082,2.463793 1.6753,3.04656 -0.15682,0.344177 -0.43017,0.625777 -0.60745,0.625777 -0.39455,0 -0.97649,-0.863922 -1.20339,-1.786498 -0.16037,-0.652041 -0.19028,-0.664881 -0.62733,-0.269355 -0.61406,0.55571 -0.94835,1.854467 -0.95001,3.690806 -0.001,1.341553 -0.0743,1.569893 -0.64651,2.019997 -0.83766,0.658907 -1.20355,0.639818 -1.94483,-0.101462 z"
         id="path102"
         transform="matrix(0.75759183,0,0,0.75759183,18.74754,13.767285)" />
      <path
         style="fill:#808080;fill-opacity:1;stroke:#000000;stroke-width:0.302502;stroke-linecap:square;stroke-dasharray:none;stroke-opacity:1"
         d="m 207.59082,101.4289 -1.89989,-2.2922 -1.8236,1.33352 c -1.70703,1.24827 -1.88129,1.26765 -2.72613,0.30317 -2.1102,-2.409021 -3.088,-5.402188 -3.35294,-10.263721 -0.31174,-5.720519 0.36727,-9.039083 3.04758,-14.894524 1.44415,-3.154902 2.1098,-4.027683 2.84472,-3.729885 2.04582,0.828997 5.70516,1.080495 5.26084,0.361566 -0.23748,-0.384245 -0.95212,-0.698627 -1.5881,-0.698627 -2.04917,0 -5.44186,-1.973408 -5.44186,-3.165338 0,-0.889953 0.22425,-1.001701 1.08535,-0.540856 0.59693,0.319472 4.21224,0.737156 8.03401,0.928187 3.95909,0.197896 8.12259,0.76653 9.6772,1.321675 2.0594,0.7354 4.14116,0.902853 8.48877,0.682823 6.56233,-0.332115 10.17304,-1.618024 13.0203,-4.637006 1.60016,-1.696677 1.85115,-1.789772 2.23116,-0.827558 0.79393,2.010324 0.5219,2.54393 -2.07175,4.063911 -3.438,2.014801 -9.09263,3.297611 -16.66617,3.780886 -3.41824,0.218122 -6.21499,0.665357 -6.21499,0.993856 0,0.76163 10.32565,0.06087 15.8612,-1.076428 2.22065,-0.456243 4.90633,-1.278794 5.96817,-1.827892 1.06184,-0.549098 2.0718,-0.857172 2.24436,-0.684611 0.17257,0.172562 -1.21706,2.118182 -3.08805,4.3236 -2.76933,3.264335 -3.4018,4.418768 -3.4018,6.209271 0,2.780438 1.59378,6.037473 5.47366,11.185906 3.5783,4.748252 3.5732,5.778102 -0.0461,9.312285 -2.30962,2.25529 -2.41393,2.29019 -4.65298,1.55693 -4.97292,-1.62859 -17.34277,-1.52266 -26.54402,0.2273 -1.56236,0.29714 -2.08709,0.0225 -3.7189,-1.94624 z"
         id="path103"
         transform="matrix(0.75759183,0,0,0.75759183,18.74754,13.767285)" />
    </g>
  </g>
</svg>
