<?xml version="1.0" encoding="UTF-8" standalone="no"?>
<!-- Created with Inkscape (http://www.inkscape.org/) -->

<svg
   width="72"
   height="72"
   viewBox="0 0 72 72"
   version="1.1"
   id="svg1"
   inkscape:version="1.3.2 (091e20e, 2023-11-25)"
   sodipodi:docname="OrangeMantis.svg"
   xmlns:inkscape="http://www.inkscape.org/namespaces/inkscape"
   xmlns:sodipodi="http://sodipodi.sourceforge.net/DTD/sodipodi-0.dtd"
   xmlns="http://www.w3.org/2000/svg"
   xmlns:svg="http://www.w3.org/2000/svg">
  <sodipodi:namedview
     id="namedview1"
     pagecolor="#ffffff"
     bordercolor="#000000"
     borderopacity="0.25"
     inkscape:showpageshadow="2"
     inkscape:pageopacity="0.0"
     inkscape:pagecheckerboard="0"
     inkscape:deskcolor="#d1d1d1"
     inkscape:document-units="px"
     inkscape:zoom="5.3593454"
     inkscape:cx="26.962248"
     inkscape:cy="41.422969"
     inkscape:window-width="1160"
     inkscape:window-height="727"
     inkscape:window-x="0"
     inkscape:window-y="25"
     inkscape:window-maximized="0"
     inkscape:current-layer="layer1" />
  <defs
     id="defs1">
    <inkscape:path-effect
       effect="simplify"
       id="path-effect121"
       is_visible="true"
       lpeversion="1.3"
       threshold="10.8696"
       steps="1"
       smooth_angles="360"
       helper_size="0"
       simplify_individual_paths="false"
       simplify_just_coalesce="false" />
    <inkscape:path-effect
       effect="spiro"
       id="path-effect122"
       is_visible="true"
       lpeversion="1" />
  </defs>
  <g
     inkscape:label="Layer 1"
     inkscape:groupmode="layer"
     id="layer1">
    <rect
       style="fill:#f9f9f9;stroke-width:0.499384;stroke-linecap:round;stroke-linejoin:round"
       id="rect1"
       width="72"
       height="72"
       x="0"
       y="0" />
    <g
       id="g2"
       inkscape:label="Orange Mantis"
       transform="matrix(0.31256448,-0.31256448,0.31256448,0.31256448,-94.778146,31.100818)">
      <path
         style="display:inline;fill:none;stroke:#000009;stroke-width:0.498898;stroke-linecap:round;stroke-opacity:1"
         d="m 186.33239,203.45563 c 2.7103,-1.81091 5.39574,-5.02471 7.3221,-7.64578"
         id="path122"
         sodipodi:nodetypes="cc" />
      <path
         style="display:inline;fill:none;fill-opacity:1;stroke:#000009;stroke-width:0.498898;stroke-linecap:round;stroke-opacity:1"
         d="m 231.7231,264.18599 c 1.10492,-0.98839 2.09068,-0.62072 3.37473,-0.20144"
         id="path235"
         sodipodi:nodetypes="cc" />
      <path
         style="display:inline;fill:none;fill-opacity:1;stroke:#000009;stroke-width:0.498898;stroke-linecap:round;stroke-opacity:1"
         d="m 220.28931,271.69099 c 3.08267,-0.45565 4.99713,0.96402 4.45767,4.33174"
         id="path236"
         sodipodi:nodetypes="cc"
         inkscape:label="path236" />
      <path
         style="display:inline;fill:none;fill-opacity:1;stroke:#000009;stroke-width:0.498898;stroke-linecap:round;stroke-opacity:1"
         d="m 251.57229,233.05139 c -2.39905,2.27592 -1.41523,6.66693 -1.29049,7.17836"
         id="path234"
         sodipodi:nodetypes="cc" />
      <path
         style="display:inline;fill:none;fill-opacity:1;stroke:#000009;stroke-width:0.498898;stroke-linecap:round;stroke-opacity:1"
         d="m 220.5644,251.72512 c 2.4557,2.02862 3.59231,3.0898 4.85247,4.80001"
         id="path230"
         sodipodi:nodetypes="cc" />
      <path
         style="display:inline;fill:none;fill-opacity:1;stroke:#000009;stroke-width:0.498898;stroke-linecap:round;stroke-opacity:1"
         d="m 222.63653,246.16445 c 2.22286,-0.59415 4.65329,0.37015 7.29182,7.39674"
         id="path231"
         sodipodi:nodetypes="cc" />
      <path
         style="display:inline;fill:none;fill-opacity:1;stroke:#000009;stroke-width:0.498898;stroke-linecap:round;stroke-opacity:1"
         d="m 203.66775,225.85266 c -4.82583,0.0786 -9.69202,2.58778 -13.6987,5.12859 0.2191,-4.00716 -0.88358,-8.21598 -1.75244,-12.09246"
         id="path199"
         sodipodi:nodetypes="ccc" />
      <path
         style="display:inline;fill:none;fill-opacity:1;stroke:#000009;stroke-width:0.498898;stroke-linecap:round;stroke-opacity:1"
         d="m 161.03573,257.04071 -0.20212,-2.02115 c -2.03264,-23.17255 17.97596,-37.22997 27.73815,-33.97589"
         id="path200"
         sodipodi:nodetypes="ccc" />
      <path
         style="fill:none;stroke:#000009;stroke-width:0.498898;stroke-linecap:square;stroke-opacity:1"
         d="m 177.21613,175.77285 c -5.37388,-3.31832 -3.61296,-13.51752 -11.06424,-20.60289 -7.28212,1.12433 -6.0471,-8.23058 -5.68107,-12.05729 4.38143,-4.64822 11.20173,4.41723 8.36729,9.21011 6.28664,5.39742 4.7051,15.51506 9.66065,22.37382 4.91406,-6.62491 13.97069,-4.38731 13.73847,-1.36878 -0.41931,1.75506 -0.21241,-22.09715 7.53105,-25.52251 -0.20336,-7.8005 6.08228,-11.48585 11.80879,-10.67568 1.10777,3.88588 -1.83184,12.67229 -8.97429,12.41257 -6.43365,4.14445 -9.02131,17.21071 -7.62874,24.56271 0.13654,0.0992 1.13297,0.48735 1.26423,0.58937 8.25141,6.41309 6.20494,18.31664 10.34578,28.39178 1.62957,4.36699 6.57584,16.53534 8.9224,20.73445 -0.89087,-12.05159 9.22038,-23.20216 14.90447,-27.27416 6.52565,-4.48953 14.51077,-5.25155 22.15393,-6.08346 5.82657,13.72215 3.79383,28.56798 -2.17991,41.77307 0.48012,0.0731 0.85211,0.3817 1.04902,0.7687 1.00839,-0.10758 1.63866,-0.84041 2.39827,0.29591 5.83925,11.46506 11.57929,23.48533 12.72457,26.46303 l 2.83894,3.80216 c -0.12622,1.38625 -2.89746,0.81863 -4.66398,-0.10139 -7.17492,-12.18976 -8.66508,-14.23869 -13.73848,-23.11714 -0.76482,-0.53703 -0.97497,0.58995 -1.36877,1.16599 l -4.20773,8.92241 c -1.0199,0.54386 -4.93056,1.34217 -8.51684,-0.15209 -1.7844,2.17873 -4.16907,2.90341 -6.79319,3.54868 4.12998,7.52348 5.78265,11.35359 6.59041,14.14404 -2.6442,3.66338 -7.67492,5.30433 -11.50787,7.50293 -2.56227,3.43229 -4.3541,10.39884 -7.75641,10.44327 -0.89331,-0.16477 -2.18136,0.16551 -1.1153,-1.62226 1.92678,-5.90837 2.06659,-9.67119 2.73755,-11.60926 3.30734,-3.18965 11.81783,-6.25178 12.57248,-8.36475 l -6.13416,-7.70572 c -2.95354,-0.28558 -3.10325,1.22067 -8.46614,-1.01391 -3.5311,0.92374 -6.98446,-0.0705 -10.44327,-0.70973 -0.17463,3.48279 2.28188,7.32705 0.70973,10.64605 -4.50437,2.53279 -12.02392,4.02203 -12.47109,4.10633 -1.11598,3.19569 -1.53394,7.30998 -4.56259,9.02379 -1.43817,-1.83545 -0.53639,-6.69711 -0.65653,-9.03988 -0.54558,1.81616 -1.63718,4.85722 -3.09494,6.6065 -17.1446,-20.85318 -3.24235,-38.63186 3.14312,-45.01758 -11.03394,1.04471 -25.057,24.77559 -28.74433,26.20956 -11.02092,-22.8969 18.75263,-44.87835 27.32486,-38.52855 -0.84473,-5.12588 -0.67158,-10.40465 -1.87573,-15.46212 -1.83507,1.3152 -3.8538,2.74283 -6.08346,1.87574 -0.90246,-0.82107 -0.93471,-1.437 -1.01391,-2.58546 l -1.31808,-2.332 c -4.97622,-8.23194 -7.50034,-16.65781 -0.72496,-24.62636 z"
         id="path60"
         sodipodi:nodetypes="ccccccccccsccccccccccccccccccccccccccccccccccccc" />
      <path
         style="fill:none;stroke:#000009;stroke-width:0.498898;stroke-linecap:square;stroke-opacity:1"
         d="m 176.14662,177.9503 c -1.11128,22.22655 18.28498,8.51226 16.0214,-5.06957 l 2.77116,1.20314"
         id="path101"
         sodipodi:nodetypes="ccc" />
      <ellipse
         style="fill:none;fill-opacity:1;stroke:#000009;stroke-width:0.498898;stroke-linecap:round;stroke-opacity:1"
         id="path237"
         cx="-23.402489"
         cy="271.58618"
         rx="4.651762"
         ry="2.8744378"
         transform="rotate(-50)" />
      <ellipse
         style="fill:none;fill-opacity:1;stroke:#000009;stroke-width:0.498898;stroke-linecap:round;stroke-opacity:1"
         id="path238"
         cx="132.76369"
         cy="221.82607"
         rx="3.0060914"
         ry="4.8150001"
         transform="rotate(-10.6)" />
      <path
         style="fill:none;stroke:#000009;stroke-width:0.498898;stroke-linecap:round;stroke-opacity:1"
         d="m 193.46394,195.81174 c 2.42302,8.74064 2.32712,22.26371 6.6773,30.44899"
         id="path123"
         sodipodi:nodetypes="cc" />
      <path
         style="fill:none;stroke:#000009;stroke-width:0.498898;stroke-linecap:round;stroke-opacity:1"
         d="m 203.68116,225.81712 c -0.88851,-4.79801 -2.53205,-15.86861 0.65856,-18.38754 5.02405,1.88404 8.6195,23.76411 2.68473,23.04769 l -8.20601,16.91855 c -3.42486,8.62457 -7.60509,16.94997 -10.47402,25.77751 -0.32217,0.51799 -0.0418,0.70191 -0.51504,0.0702 -7.68192,-11.28279 -8.5772,-42.99924 19.65092,-44.99512 l 1.92487,-1.11439 c -1.59314,-1.58307 -3.66727,-0.84272 -5.72401,-1.31696 z"
         id="path125"
         sodipodi:nodetypes="cccccccccc" />
      <path
         style="fill:none;stroke:#000009;stroke-width:0.576958;stroke-linecap:round;stroke-opacity:1"
         d="m 207.16027,230.26549 0.74168,-2.14611"
         id="path150" />
      <path
         style="fill:#000000;fill-opacity:1;stroke:#000009;stroke-width:0.498898;stroke-linecap:round;stroke-opacity:1"
         d="m 207.43159,230.22044 0.56697,-2.11245 1.55462,-0.85961 0.0274,0.63099 -0.63099,1.41744 -0.81388,0.7956 z"
         id="path178" />
      <path
         style="fill:#000000;fill-opacity:1;stroke:#000009;stroke-width:0.24311;stroke-linecap:round;stroke-opacity:1"
         d="m 203.55769,225.8499 c 0.0479,0.29339 0.24795,-0.22447 0.198,-0.002 z"
         id="path195"
         sodipodi:nodetypes="ccc" />
      <path
         style="fill:none;fill-opacity:1;stroke:#000009;stroke-width:0.498898;stroke-linecap:round;stroke-opacity:1"
         d="m 190.58532,267.12314 c 3.12465,-2.21129 4.08981,-2.49111 10.47793,-4.67544 -1.58876,-3.87956 -2.46363,-8.35806 -3.26226,-12.45545"
         id="path198"
         sodipodi:nodetypes="ccc" />
      <path
         style="fill:none;fill-opacity:1;stroke:#000009;stroke-width:0.498898;stroke-linecap:round;stroke-opacity:1"
         d="m 182.77638,220.92839 0.28261,9.3967"
         id="path202" />
      <path
         style="fill:none;fill-opacity:1;stroke:#000009;stroke-width:0.498898;stroke-linecap:round;stroke-opacity:1"
         d="m 170.1297,228.48814 6.92388,7.77171"
         id="path203" />
      <path
         style="fill:none;fill-opacity:1;stroke:#000009;stroke-width:0.498898;stroke-linecap:round;stroke-opacity:1"
         d="m 162.02041,242.68917 10.65276,-0.0707"
         id="path204"
         sodipodi:nodetypes="cc" />
      <path
         style="fill:none;fill-opacity:1;stroke:#000009;stroke-width:0.498898;stroke-linecap:round;stroke-opacity:1"
         d="m 198.88501,230.11314 c 1.32985,2.8362 2.30546,5.74873 3.10868,8.76083"
         id="path205"
         sodipodi:nodetypes="cc" />
      <path
         style="fill:none;fill-opacity:1;stroke:#000009;stroke-width:0.498898;stroke-linecap:round;stroke-opacity:1"
         d="m 187.10744,240.28139 8.88084,7.70667"
         id="path207"
         sodipodi:nodetypes="cc" />
      <path
         style="fill:none;fill-opacity:1;stroke:#000009;stroke-width:0.498898;stroke-linecap:round;stroke-opacity:1"
         d="m 183.76551,260.49344 c 2.6573,0.14604 4.74569,-0.78212 7.13584,-1.7663"
         id="path218"
         sodipodi:nodetypes="cc" />
      <path
         style="fill:none;fill-opacity:1;stroke:#000009;stroke-width:0.498898;stroke-linecap:round;stroke-opacity:1"
         d="m 204.87341,235.2069 c 11.68609,7.82602 13.36675,16.92235 12.2922,20.14599"
         id="path221"
         sodipodi:nodetypes="cc" />
      <path
         style="fill:none;fill-opacity:1;stroke:#000009;stroke-width:0.498898;stroke-linecap:round;stroke-opacity:1"
         d="m 198.00355,249.82504 c 4.58849,3.80748 5.38518,4.28236 8.8343,5.12133"
         id="path222"
         sodipodi:nodetypes="cc" />
      <path
         style="fill:none;fill-opacity:1;stroke:#000009;stroke-width:0.498898;stroke-linecap:round;stroke-opacity:1"
         d="m 215.44126,223.65787 0.57613,1.15046 c 11.7585,11.75856 6.51993,26.36596 1.35858,30.76829"
         id="path229"
         sodipodi:nodetypes="ccc" />
      <path
         style="fill:none;stroke:#000009;stroke-width:0.498898;stroke-linecap:square;stroke-opacity:1"
         d="m 177.37938,175.59202 c 0.16344,-0.10195 0.32193,-0.21184 0.47471,-0.32916 0.0922,-0.0708 0.18229,-0.14428 0.27211,-0.21807 0.1147,-0.0943 0.22897,-0.18903 0.3428,-0.28433"
         id="path121"
         inkscape:path-effect="#path-effect121;#path-effect122"
         inkscape:original-d="m 177.37938,175.59202 c 0.14911,-0.23887 0.40139,-0.22307 0.58333,-0.42108 0.15465,-0.1683 0.39474,-0.19388 0.50629,-0.41048"
         sodipodi:nodetypes="csc" />
      <path
         style="fill:none;fill-opacity:1;stroke:#000009;stroke-width:0.498898;stroke-linecap:round;stroke-opacity:1"
         d="m 236.76964,250.20447 c -9.24546,-7.26429 -1.41411,-9.10744 0.57655,-8.86148 2.31763,0.96671 2.52012,2.46753 5.01926,3.06733 5.40268,-8.70239 6.20512,-11.90398 7.43548,-12.24824 l 0.56838,0.0644"
         id="path232"
         sodipodi:nodetypes="ccccc" />
      <path
         style="fill:none;fill-opacity:1;stroke:#000009;stroke-width:0.498898;stroke-linecap:round;stroke-opacity:1"
         d="m 242.2928,244.53483 c -3.36829,2.90683 -2.0811,5.37924 -0.80463,6.60019"
         id="path233"
         sodipodi:nodetypes="cc" />
      <path
         style="fill:#000000;fill-opacity:1;stroke:none;stroke-width:0.130253;stroke-linecap:round;stroke-opacity:1"
         d="m 190.23822,195.59463 c -1.01171,-1.11793 -0.25029,-3.64309 1.60353,-5.31791 1.41569,-1.27899 2.7344,-1.69981 3.58341,-1.14351 1.37199,0.89896 1.05413,3.09255 -0.72833,5.02629 -1.74484,1.89293 -3.52559,2.46611 -4.45861,1.43513 z"
         id="path239" />
      <path
         style="fill:#000000;fill-opacity:1;stroke:none;stroke-width:0.130253;stroke-linecap:round;stroke-opacity:1"
         d="m 170.41895,197.28282 c -1.04406,-0.9676 -1.56904,-2.23845 -1.68565,-4.08055 -0.12874,-2.03365 0.43018,-3.37926 1.56751,-3.77379 1.04074,-0.36102 1.97854,0.28544 2.88367,1.98781 0.65426,1.23054 0.72959,1.61024 0.64846,3.26859 -0.0757,1.5479 -0.20184,1.99346 -0.72049,2.54555 -0.7921,0.84315 -1.81871,0.86312 -2.6935,0.0524 z"
         id="path240" />
      <path
         style="fill:#000000;fill-opacity:1;stroke:none;stroke-width:0.130253;stroke-linecap:round;stroke-opacity:1"
         d="m 185.98472,274.8673 c -1.1032,-1.21833 -3.33296,-4.80034 -4.42333,-7.1059 -2.31061,-4.88573 -3.29003,-10.10012 -2.76475,-14.71947 0.80259,-7.05817 4.21893,-14.05435 9.80761,-20.08461 2.28669,-2.46737 7.53506,-5.28368 11.63145,-6.24153 1.96034,-0.45837 5.82787,-0.50005 7.38922,-0.0796 l 1.08474,0.29209 -0.6181,0.46624 c -0.36533,0.27557 -1.32113,0.53537 -2.33729,0.6353 -2.30622,0.22679 -5.64666,1.07237 -7.88852,1.99684 -2.75291,1.13521 -4.82697,2.49613 -7.06994,4.63906 -4.49647,4.2959 -7.09052,10.20391 -7.8,17.76468 -0.6459,6.88328 1.00364,15.43523 3.84556,19.93713 0.67569,1.07037 0.6839,1.73941 0.0323,2.63033 -0.32732,0.4475 -0.37134,0.44104 -0.88891,-0.13054 z"
         id="path243" />
      <path
         style="fill:#000000;fill-opacity:1;stroke:none;stroke-width:0.0772773;stroke-linecap:round;stroke-opacity:1"
         d="m 159.88176,253.83585 c -1.48648,-4.84108 -1.39689,-9.5207 0.27852,-14.54696 0.59323,-1.77972 1.84957,-4.42294 2.92621,-6.15648 6.01372,-9.68296 17.70603,-16.83921 23.7923,-14.56204 0.92402,0.34572 1.07694,0.52284 1.2506,1.44854 0.10316,0.54988 0.0873,0.59287 -0.17987,0.48804 -0.58276,-0.22864 -3.12774,-0.28497 -4.41248,-0.0976 -2.68639,0.39167 -5.79612,1.6431 -8.50454,3.42243 -7.91321,5.19868 -13.12749,13.76027 -14.42923,23.69211 -0.10608,0.80933 -0.18927,2.91785 -0.18487,4.6856 0.004,1.76775 -0.005,3.21409 -0.0206,3.21409 -0.0157,0 -0.24794,-0.71446 -0.51607,-1.58768 z"
         id="path245" />
      <path
         style="fill:#000000;fill-opacity:1;stroke:none;stroke-width:0.0772773;stroke-linecap:round;stroke-opacity:1"
         d="m 238.87378,250.53874 c -1.52558,-0.3311 -2.23828,-0.76333 -3.78266,-2.29409 -2.22764,-2.20797 -2.86735,-3.80427 -2.0076,-5.00961 0.44698,-0.62666 1.73901,-1.26247 3.00327,-1.47791 0.88135,-0.15019 1.04482,-0.13484 1.60115,0.15031 0.34077,0.17467 1.10078,0.71227 1.68891,1.19467 0.58812,0.48239 1.34037,1.01536 1.67165,1.18437 l 0.60234,0.30729 -0.5399,0.63074 c -1.30585,1.52559 -1.62895,3.39685 -0.83256,4.82175 l 0.40822,0.73039 -0.41506,-0.0123 c -0.22828,-0.007 -0.85727,-0.10829 -1.39776,-0.2256 z"
         id="path246" />
      <path
         style="fill:#000000;fill-opacity:1;stroke:none;stroke-width:0.0772773;stroke-linecap:round;stroke-opacity:1"
         d="m 241.22885,250.27218 c -0.57988,-0.87876 -0.67533,-1.16035 -0.67533,-1.99222 0,-1.02243 0.39552,-1.86093 1.34547,-2.85235 0.82268,-0.85859 2.72768,-3.98368 5.02439,-8.24234 0.86168,-1.59777 1.82317,-3.28841 2.13664,-3.75697 0.50559,-0.75575 0.62641,-0.8493 1.07011,-0.82863 0.89025,0.0415 0.99477,0.28059 0.48461,1.10871 -0.63998,1.03887 -0.92552,2.31831 -0.90403,4.05083 0.0101,0.81273 0.0657,1.6868 0.12367,1.94238 0.0865,0.38147 -0.0832,0.84583 -0.9477,2.59307 -0.57918,1.17062 -1.05305,2.16147 -1.05305,2.2019 0,0.0404 -0.62297,1.35886 -1.38438,2.92984 l -1.38438,2.85633 -1.08581,0.24696 c -0.5972,0.13583 -1.38572,0.24649 -1.75227,0.2459 -0.57966,-9.2e-4 -0.70962,-0.0665 -0.99794,-0.50341 z"
         id="path247" />
      <path
         style="fill:#000000;fill-opacity:1;stroke:none;stroke-width:0.0772773;stroke-linecap:round;stroke-opacity:1"
         d="m 266.74604,263.8523 c -1.29906,-0.34931 -1.59587,-0.54578 -2.20528,-1.45971 -0.53808,-0.80695 -10.57029,-17.57606 -12.44545,-20.80289 -0.55619,-0.9571 -1.01611,-1.57018 -1.24248,-1.65625 -0.30857,-0.11732 -0.37513,-0.28341 -0.47051,-1.17407 -0.29657,-2.76933 0.55187,-5.20569 1.95972,-5.6275 0.48478,-0.14524 0.67587,-0.14585 0.84833,-0.003 0.6026,0.50011 9.35461,18.30413 12.25379,24.92761 0.64457,1.47257 1.15973,2.35269 2.15141,3.67557 0.71716,0.95665 1.30392,1.83724 1.30392,1.95686 0,0.43586 -0.88874,0.50318 -2.15345,0.1631 z"
         id="path248" />
      <path
         style="fill:#000000;fill-opacity:1;stroke:none;stroke-width:0.0772773;stroke-linecap:round;stroke-opacity:1"
         d="m 230.85546,262.81424 c -4.72985,-6.06183 -6.8721,-8.59734 -8.35972,-9.89434 l -1.58699,-1.38364 0.51325,-1.11556 c 0.28228,-0.61356 0.71184,-1.75445 0.95458,-2.53532 0.40455,-1.30139 0.4786,-1.42732 0.88828,-1.51055 0.58656,-0.11917 1.54065,0.14674 2.27851,0.63503 1.07371,0.71055 2.34443,2.61081 3.40355,5.08975 0.33741,0.78973 1.31843,2.74939 2.18005,4.35482 0.86161,1.60542 2.00847,3.8465 2.54856,4.98018 0.87043,1.82708 0.94295,2.04847 0.63844,1.94891 -0.57487,-0.18795 -1.732,-0.11119 -2.23354,0.14816 l -0.47394,0.24509 z"
         id="path249" />
      <path
         style="fill:#000000;fill-opacity:1;stroke:none;stroke-width:0.0772773;stroke-linecap:round;stroke-opacity:1"
         d="m 225.13143,274.36576 c -0.12757,-0.87454 -0.51345,-1.69236 -1.02266,-2.16734 -0.44737,-0.41731 -1.37934,-0.8206 -1.89632,-0.8206 -0.21069,0 -0.41709,-0.055 -0.45868,-0.12233 -0.10002,-0.16184 0.57841,-0.57542 4.59435,-2.80073 3.54667,-1.96528 5.07818,-3.01116 5.44332,-3.71726 0.38912,-0.75246 1.3626,-0.98211 2.59632,-0.61248 0.66931,0.20054 0.71316,0.27439 1.52221,2.56406 l 0.45042,1.27475 -0.99748,0.99748 c -1.35589,1.35589 -3.25601,2.59283 -6.45159,4.19986 -1.47713,0.74283 -2.90753,1.48469 -3.17868,1.64857 l -0.49299,0.29797 z"
         id="path250" />
      <path
         style="fill:#000000;fill-opacity:1;stroke:none;stroke-width:0.0772773;stroke-linecap:round;stroke-opacity:1"
         d="m 216.77698,285.49224 c -0.55644,-0.11899 -0.55896,-0.15237 -0.10078,-1.3355 0.51445,-1.3284 1.33517,-4.6164 1.88374,-7.54674 0.63196,-3.37575 0.71091,-3.63096 1.28487,-4.15326 0.43874,-0.39926 0.60948,-0.45077 1.5075,-0.45479 2.00668,-0.009 3.08444,0.99875 3.08947,2.88876 0.002,0.9182 -0.0646,1.08504 -1.64903,4.10474 -2.44181,4.65371 -3.2377,5.78404 -4.46681,6.34382 -0.65355,0.29765 -0.80323,0.31243 -1.54896,0.15297 z"
         id="path251" />
      <path
         style="fill:#000000;fill-opacity:1;stroke:none;stroke-width:0.0772773;stroke-linecap:round;stroke-opacity:1"
         d="m 190.10028,277.64121 c -0.24174,-0.53553 -0.27142,-1.05041 -0.24405,-4.23337 0.0303,-3.5205 0.0432,-3.65665 0.45344,-4.78148 0.35826,-0.98231 0.52962,-1.23719 1.13055,-1.68159 1.24858,-0.92336 4.34516,-2.34251 7.26072,-3.32758 2.3495,-0.79381 2.81704,-1.00045 2.73044,-1.20675 -0.48796,-1.16249 -1.25665,-3.51688 -1.69545,-5.19298 -0.65293,-2.49397 -1.50191,-6.45956 -1.4039,-6.55757 0.0398,-0.0398 0.58158,0.34158 1.20403,0.84743 2.52779,2.0543 4.45779,3.13702 6.28202,3.52419 0.48641,0.10324 0.50342,0.13295 0.50342,0.87962 0,0.42503 0.2478,1.90068 0.55067,3.27923 0.59696,2.71714 0.71025,4.26846 0.39405,5.39588 -0.20094,0.71646 -0.21164,0.72527 -1.74809,1.4384 -2.39194,1.11019 -6.95016,2.51519 -10.61632,3.27231 -0.28705,0.0593 -0.42494,0.33609 -0.8254,1.65688 -1.38714,4.57509 -1.74367,5.36924 -2.9391,6.54669 l -0.76183,0.75038 z"
         id="path252" />
      <path
         style="fill:#000000;fill-opacity:1;stroke:none;stroke-width:0.0772773;stroke-linecap:round;stroke-opacity:1"
         d="m 209.10962,226.46731 c -0.63471,-0.45489 -1.47307,-0.65316 -3.26054,-0.77111 -0.9305,-0.0614 -1.7379,-0.15774 -1.79424,-0.21408 -0.29811,-0.2981 -1.07036,-6.23215 -1.23367,-9.47962 -0.1702,-3.38443 0.34722,-6.6429 1.22801,-7.7335 l 0.36617,-0.45339 0.47911,0.34116 c 1.8196,1.29567 3.90551,6.80865 4.59789,12.15202 0.2379,1.83599 0.30644,5.69158 0.1098,6.17645 -0.0976,0.24067 -0.13352,0.23936 -0.49253,-0.0179 z"
         id="path253" />
      <path
         style="fill:#808080;fill-opacity:1;stroke:none;stroke-width:0.0894273;stroke-linecap:round;stroke-opacity:1"
         d="m 210.20582,255.24038 c -5.50446,-0.96914 -7.02863,-1.62828 -10.6405,-4.60159 l -1.28412,-1.05709 0.58471,-1.33253 c 0.81591,-1.8594 5.83694,-12.23491 6.0065,-12.41187 0.21724,-0.22674 2.94867,1.91521 5.09354,3.99428 3.80485,3.68814 6.14979,7.61267 6.93043,11.5989 0.21273,1.08628 0.18677,3.51092 -0.04,3.7377 -0.51818,0.51818 -3.90849,0.55498 -6.65055,0.0722 z"
         id="path254" />
      <path
         style="fill:#808080;fill-opacity:1;stroke:none;stroke-width:0.0397887;stroke-linecap:round;stroke-opacity:1"
         d="m 190.26423,229.1519 c -0.0918,-2.2222 -0.41565,-4.323 -1.22022,-7.91648 -0.71014,-3.17179 -0.80775,-3.88818 -1.26087,-9.25423 -0.35529,-4.20747 -0.57367,-5.91939 -1.04752,-8.21173 -0.0362,-0.175 0.0467,-0.26583 0.67806,-0.74276 1.43646,-1.08518 3.37829,-3.09079 5.18362,-5.35386 l 0.79269,-0.99368 0.20315,0.86631 c 0.49508,2.11135 0.92542,4.71785 1.76496,10.69017 0.87047,6.19231 1.4767,9.44893 2.30843,12.40071 0.52165,1.85131 1.22729,3.77863 1.79575,4.90473 0.25061,0.49645 0.25411,0.63889 0.0157,0.63922 -0.26114,3.5e-4 -2.7549,0.8882 -3.83111,1.36398 -1.42461,0.6298 -4.05042,2.03126 -5.16379,2.75603 -0.16626,0.10824 -0.16714,0.10363 -0.21889,-1.14841 z"
         id="path255" />
      <path
         style="fill:#000000;fill-opacity:1;stroke:#000000;stroke-width:0.0863542;stroke-linecap:round;stroke-opacity:1"
         d="m 183.52811,188.26297 c -4.02754,-4.16359 -7.85281,-9.86997 -9.16637,-13.67404 -0.50422,-1.4602 -0.69722,-3.3885 -0.4341,-4.33715 0.18268,-0.65863 0.16845,-0.69535 -0.60076,-1.5509 -1.35134,-1.50302 -2.31394,-3.85346 -2.31394,-5.65008 0,-1.04495 0.41748,-2.62994 1.00074,-3.79935 0.45594,-0.91414 2.1672,-2.95116 2.4792,-2.95116 0.35313,0 1.59335,1.33766 2.30602,2.4872 1.13896,1.83714 1.5384,3.15469 1.55489,5.12876 0.0119,1.42635 -0.0457,1.77056 -0.43489,2.59635 -0.24674,0.52359 -0.72369,1.27906 -1.05989,1.67881 -0.93895,1.11642 -1.0369,2.72813 -0.35556,5.8506 0.94136,4.31417 4.77781,10.39847 8.60289,13.64352 0.62479,0.53005 1.06297,1.00885 0.97373,1.064 -0.0892,0.0552 -0.4679,0.20812 -0.84147,0.33992 l -0.67921,0.23964 z"
         id="path287"
         transform="matrix(0.8142131,0.8142131,-0.8142131,0.8142131,196.41119,-131.81796)" />
      <path
         style="fill:#000000;fill-opacity:1;stroke:#000000;stroke-width:0.0863542;stroke-linecap:round;stroke-opacity:1"
         d="m 173.41842,200.03115 c -0.62857,-0.2239 -2.57583,-1.15038 -4.32725,-2.05883 -4.79803,-2.48872 -7.65985,-3.41915 -10.51656,-3.41914 -1.09873,1e-5 -1.16981,0.0258 -1.61719,0.58648 -0.66756,0.83665 -1.87165,1.38172 -2.81693,1.27517 -1.59836,-0.18016 -3.44016,-1.48045 -5.66279,-3.99785 -1.41131,-1.59848 -1.59956,-2.07655 -1.15695,-2.93806 0.68705,-1.33729 2.05498,-1.93849 4.1111,-1.8068 2.45838,0.15746 4.56306,1.34708 5.43694,3.07313 l 0.48197,0.95194 1.22544,0.0402 c 2.61097,0.0856 4.97889,1.02967 9.6673,3.85447 3.69347,2.22534 7.16303,3.80788 8.3484,3.80788 0.25689,0 0.31708,0.10443 0.27432,0.476 -0.0529,0.45962 -0.0935,0.47748 -1.17985,0.51927 -0.82685,0.0318 -1.42804,-0.0646 -2.26795,-0.36382 z"
         id="path288"
         transform="matrix(0.8142131,0.8142131,-0.8142131,0.8142131,196.41119,-131.81796)" />
      <path
         style="fill:#000000;fill-opacity:1;stroke:#000000;stroke-width:0.0863542;stroke-linecap:round;stroke-opacity:1"
         d="m 184.06618,207.04616 c -1.51447,-0.52353 -3.06308,-1.63007 -5.33691,-3.81343 l -1.1978,-1.15014 -0.0548,-2.57916 c -0.0839,-3.94694 0.4363,-5.61218 2.38827,-7.64495 1.09298,-1.13823 2.27192,-1.878 3.2951,-2.06766 0.53465,-0.0991 0.75701,-0.0351 1.38868,0.39946 2.16295,1.48815 4.06042,4.54081 4.83124,7.77254 0.47671,1.99863 0.40068,4.99601 -0.16376,6.45649 -0.96171,2.48836 -2.81542,3.43388 -5.14999,2.62685 z"
         id="path289"
         transform="matrix(0.8142131,0.8142131,-0.8142131,0.8142131,196.41119,-131.81796)" />
    </g>
  </g>
</svg>
