<?xml version="1.0" encoding="UTF-8" standalone="no"?>
<!-- Created with Inkscape (http://www.inkscape.org/) -->

<svg
   width="72"
   height="72"
   viewBox="0 0 72 72"
   version="1.1"
   id="svg1"
   inkscape:version="1.3.2 (091e20e, 2023-11-25)"
   sodipodi:docname="PlatypusWolf.svg"
   xmlns:inkscape="http://www.inkscape.org/namespaces/inkscape"
   xmlns:sodipodi="http://sodipodi.sourceforge.net/DTD/sodipodi-0.dtd"
   xmlns="http://www.w3.org/2000/svg"
   xmlns:svg="http://www.w3.org/2000/svg">
  <sodipodi:namedview
     id="namedview1"
     pagecolor="#ffffff"
     bordercolor="#000000"
     borderopacity="0.25"
     inkscape:showpageshadow="2"
     inkscape:pageopacity="0.0"
     inkscape:pagecheckerboard="0"
     inkscape:deskcolor="#d1d1d1"
     inkscape:document-units="px"
     inkscape:zoom="5.674996"
     inkscape:cx="38.50223"
     inkscape:cy="33.127777"
     inkscape:window-width="1160"
     inkscape:window-height="727"
     inkscape:window-x="0"
     inkscape:window-y="25"
     inkscape:window-maximized="0"
     inkscape:current-layer="layer1" />
  <defs
     id="defs1" />
  <g
     inkscape:label="Layer 1"
     inkscape:groupmode="layer"
     id="layer1">
    <rect
       style="fill:#f9f9f9;stroke-width:0.504579;stroke-linecap:round;stroke-linejoin:round"
       id="rect1"
       width="72"
       height="72"
       x="0"
       y="0" />
    <g
       id="g349"
       inkscape:label="Platypus Wolf"
       transform="matrix(0.31390048,-0.35369546,0.31390048,0.35369546,-232.08287,181.37513)">
      <path
         style="fill:none;fill-opacity:1;stroke:#000000;stroke-width:0.5;stroke-linecap:round;stroke-dasharray:none;stroke-opacity:1"
         d="m 590.45104,182.57889 c -3.56757,0.86365 -4.98191,-5.69358 -4.43512,-6.96947 1.35978,0.16529 2.10335,1.30317 2.95675,2.27036 -5.67862,-9.48281 -3.19587,-23.07008 -2.32316,-24.81553 0.42239,-0.49541 0.84479,-0.52331 1.26718,0.1056 4.05628,7.09915 12.24936,14.47311 12.24936,23.23156 5.25029,-2.85591 10.89038,-2.26412 16.26209,-0.4224 -2.21894,-1.7135 -3.67815,-4.29618 -3.43194,-7.12786 2.00868,0.17553 3.12415,1.6687 4.32952,3.11514 -4.66331,-6.58204 -6.69131,-16.59685 -5.0687,-24.70992 0.42239,-0.62786 0.84478,-0.69953 1.26717,-0.0528 5.14095,9.15351 15.24964,16.23132 17.15967,26.92748 0.30039,1.85286 -0.82258,2.64137 -2.16475,3.69593 1.59691,2.90769 1.70196,4.71351 0.79198,13.35814 1.25823,-1.50213 2.74926,-1.79202 4.59351,-1.68957 1.17737,0.17553 -0.1395,5.27581 -3.74873,6.86387 5.80712,6.16227 3.82727,7.0175 -2.11196,5.1743 5.36946,11.71406 16.69789,-4.42862 37.38169,1.16158 -13.21624,-9.44885 6.58258,-18.50388 7.65585,-18.63804 -1.25791,1.78997 -1.24037,3.78767 -1.21438,5.86069 15.02908,-23.16001 30.14161,-1.03474 35.05853,7.60305 5.34928,9.24549 2.79856,17.21085 -7.07507,33.10496 -3.64179,4.89941 -9.50189,22.36347 1.21438,14.83652 2.19141,-1.3951 2.41334,-3.48592 3.12246,-5.87993 -9.46311,-0.80078 4.82234,-12.9114 10.94222,3.00029 1.58497,5.9285 -2.9304,8.87225 -4.67688,13.4131 -3.04902,9.34782 -16.78438,13.9935 -32.44454,3.98255 -0.69976,-0.34713 -1.04104,-0.99228 -1.2023,-1.67115 l -0.0624,-1.78194 -1.41191,-0.26473 c -2.92994,6.30128 -6.33525,12.35008 -5.91235,19.32544 v 2.82381 c -1.47916,-1.3664 -1.96464,-3.41856 -3.26503,-4.85342 -5.318,-0.54031 -8.64006,3.6218 -12.31716,3.87799 2.03402,-2.93804 3.64349,-2.36311 4.28696,-4.93692 -2.5702,-1.40767 -5.78893,-0.7059 -8.64792,-0.7059 1.13617,-2.87643 9.0413,-3.57222 11.11875,-3.70625 1.3541,-0.32867 1.8415,-1.06409 2.64732,-2.11786 2.86037,-4.55227 5.27813,-9.30214 8.2067,-15.35446 -1.32115,-2.91924 -0.85312,-5.59327 -4.41221,-8.73616 -0.76712,0.4754 -1.58657,1.70947 -2.11781,-1.23542 -0.99465,-0.69539 -1.49963,-0.24756 -2.02962,0.0882 1.26212,2.03913 2.754,3.88738 4.41221,5.64762 l -2.82381,-0.0883 c 0.50748,1.52075 0.67182,3.09727 0.88244,4.67694 -1.41899,-0.16171 -2.77612,-0.59239 -4.14747,-0.97069 -4.50144,5.03619 -7.8652,13.22478 -8.82441,15.70744 -0.1783,1.24152 -0.44909,2.22032 -0.37145,3.46355 l -3.15837,-2.66935 c -2.29254,-0.27793 -5.40712,2.18721 -7.67723,3.17674 -3.84664,0.976 2.17163,-3.40937 3.26498,-5.11815 -2.32167,-0.13316 -4.67679,0.15239 -6.97128,-0.26479 -1.99035,-1.26032 6.58172,-3.14031 8.03021,-3.618 4.52874,-4.82651 7.87976,-10.31588 11.20699,-15.97217 -0.2899,-0.25144 -6.50131,-5.65129 -6.7065,-6.88304 -4.15795,1.39533 -9.29882,1.4281 -12.97188,3.97099 1.05241,3.02045 2.97001,-0.53458 4.50045,-1.14718 1.25782,-0.0449 0.33386,3.69673 -2.2061,5.55938 0.92346,1.30936 2.47083,4.22095 2.47083,6.79479 -1.55624,-0.21951 -2.8292,-1.15252 -4.14747,-1.94137 0.0524,2.09998 -0.47377,4.0238 -1.32362,5.91235 l -0.97068,-3.52976 c -1.54566,6.5077 -2.70923,6.48542 -7.23601,18.70773 -1.30271,1.99109 -3.26468,2.6033 -5.47113,1.94137 -1.8317,0.83922 -3.67258,1.7978 -5.29465,-0.0882 -2.55828,0.38658 -3.83264,-0.64358 -3.26503,-3.70625 0.45741,-3.52596 3.6576,-3.92106 6.26533,-5.11816 3.26689,-10.98855 3.13525,-6.40695 6.53006,-18.53124 0.085,-1.41637 -0.44281,-2.65222 -0.8824,-3.97098 -2.9788,0.37957 -5.16613,-1.03875 -7.67723,-2.2943 0.69277,1.10906 2.20706,2.64213 -0.26473,2.11786 1.59724,2.54733 0.65278,4.78278 -2.2061,3.35331 1.20836,1.87968 2.51619,3.09604 1.14716,6.79479 -1.72325,-0.45243 -2.30593,-2.01648 -3.17679,-3.44152 -3.55017,6.08705 -6.41581,12.52899 -9.44211,18.88423 l -1.4119,4.76518 c -1.09557,0.90567 -2.95361,0.75437 -3.88274,-0.7942 -1.50379,2.17213 -2.8322,1.93297 -4.85342,-0.0882 -1.06051,0.62028 -2.08615,1.83336 -3.35328,-1.05892 -0.28874,-3.57344 1.89044,-5.16469 4.94167,-6.53006 3.29685,-4.86491 5.11998,-10.47721 7.32426,-15.88393 l 2.91205,-6.53006 c -1.8743,-6.05546 -2.42817,-8.75696 -2.55913,-10.58928 -2.00917,1.07202 -1.25082,-1.10479 -0.88244,-2.82381 0.29875,-1.38366 -0.46305,-3.08554 -0.7942,-4.50044 -2.89594,-1.93066 -3.00025,-2.86183 -3.00025,-8.38319 0.41514,-0.59403 2.13107,0.0871 3.70625,1.76488 -1.0656,-1.74201 -1.90015,-3.63089 -3.08854,-5.29464 -9.41788,2.42013 -16.41075,-2.06649 -12.61885,-6.44177 0.20992,-0.66135 0.68252,-1.4375 -1.5701,-2.06646 -3.31224,-1.77816 -0.85321,-3.69533 1.69145,-4.82766 -2.58675,-2.42567 -4.13974,-4.51547 -2.32745,-7.04844 1.23845,0.74486 2.60585,1.26291 3.70625,2.2061 -0.61872,-4.02198 -0.52475,-8.01691 2.12801,-11.38157 z"
         id="path350"
         sodipodi:nodetypes="cccccccccccccccccccccccccccccccccccccccccccccccccccccccccccccccccccccccccccccccccccccccccccccc" />
      <path
         style="display:inline;fill:none;fill-opacity:1;stroke:#000000;stroke-width:0.5;stroke-linecap:round;stroke-dasharray:none;stroke-opacity:1"
         d="m 666.65457,203.2753 -1.33591,-1.86969 c -2.51329,-3.53221 -1.74696,-4.81388 1.37718,-9.83701 0.87753,3.94885 0.47809,8.06382 2.30467,11.12987 1.25832,-1.83238 2.71404,-6.55989 3.76617,-5.36819 0.0789,3.53547 -0.62969,6.94621 -0.67141,10.42722"
         id="path378"
         sodipodi:nodetypes="cccccc" />
      <path
         style="display:inline;fill:none;fill-opacity:1;stroke:#000000;stroke-width:0.5;stroke-linecap:round;stroke-dasharray:none;stroke-opacity:1"
         d="m 618.39341,240.43544 -1.45233,-1.88107 c 0.36254,1.05583 0.28531,1.89718 0.0819,2.94815 -3.63265,-0.59816 -5.40494,-5.27408 -5.40494,-6.46955 -0.73577,-0.59757 -1.15899,-1.31593 -1.59692,-2.12921 -0.24158,1.3553 0.0254,2.66751 0.20474,4.01275 -2.93001,-0.74314 -2.75637,-4.50625 -3.46133,-6.72714 l -0.28663,-0.81893 c -0.8764,0.60193 -2.09668,1.4812 -2.87936,1.93401"
         id="path361"
         sodipodi:nodetypes="ccccccccc" />
      <path
         style="display:inline;fill:none;fill-opacity:1;stroke:#000000;stroke-width:0.5;stroke-linecap:round;stroke-dasharray:none;stroke-opacity:1"
         d="m 629.43067,190.97721 c -0.60395,1.70852 -2.03396,3.41703 -1.60173,5.12555 0.74866,0.48408 1.59233,0.35056 2.42789,0.26976"
         id="path356"
         sodipodi:nodetypes="ccc" />
      <path
         style="display:inline;fill:none;fill-opacity:1;stroke:#000000;stroke-width:0.5;stroke-linecap:round;stroke-dasharray:none;stroke-opacity:1"
         d="m 627.95262,201.35385 c -0.47274,-1.16712 -1.07044,-2.17848 -0.44924,-3.49875 1.25366,-0.28236 2.69141,-0.14513 4.33311,0.50704"
         id="path357"
         sodipodi:nodetypes="ccc" />
      <path
         style="display:inline;fill:none;fill-opacity:1;stroke:#000000;stroke-width:0.5;stroke-linecap:round;stroke-dasharray:none;stroke-opacity:1"
         d="m 595.58113,195.12329 5.88991,-7.11371 c 5.31301,7.28076 2.70244,7.98659 8.37963,11.77138 l -2.52719,1.06408"
         id="path355"
         sodipodi:nodetypes="cccc" />
      <path
         style="fill:none;fill-opacity:1;stroke:#000000;stroke-width:0.5;stroke-linecap:round;stroke-dasharray:none;stroke-opacity:1"
         d="m 590.84585,182.11127 c -0.0519,-0.0708 -1.77127,-1.8208 -1.77127,-3.47585 2.33274,2.07355 3.84608,2.8492 6.75689,3.37845 -0.57634,-2.65121 -3.76223,-5.65231 -3.88518,-12.54249 2.21593,2.74569 4.84649,4.9554 7.68597,7.01028 l 0.25338,0.0774"
         id="path351"
         sodipodi:nodetypes="cccccc" />
      <path
         style="fill:none;fill-opacity:1;stroke:#000000;stroke-width:0.5;stroke-linecap:round;stroke-dasharray:none;stroke-opacity:1"
         d="m 616.43012,175.98221 c 5.40731,0.94258 2.25527,-1.81804 1.71447,-3.38688 5.44505,3.36312 1.23872,1.0779 6.65479,4.50809 -0.15553,-0.2333 -4.24764,-6.39792 -5.90344,-11.8069 l 0.21467,-0.322 c 3.16678,3.00147 5.84239,5.43745 9.06984,8.05015 0.6619,0.8811 1.3238,0.0364 1.9857,0.0537"
         id="path352"
         sodipodi:nodetypes="ccccccc" />
      <path
         style="fill:none;fill-opacity:1;stroke:#000000;stroke-width:0.5;stroke-linecap:round;stroke-dasharray:none;stroke-opacity:1"
         d="m 586.88265,205.64041 c 3.03513,-3.52443 4.71027,-8.4263 8.97608,-10.59811 6.23304,-1.44741 10.3092,4.25104 11.38959,5.98905 1.31693,-0.3836 9.57745,1.43747 4.98513,5.08897 l -12.66854,5.9855"
         id="path353"
         sodipodi:nodetypes="ccccc" />
      <path
         style="fill:none;fill-opacity:1;stroke:#000000;stroke-width:0.5;stroke-linecap:round;stroke-dasharray:none;stroke-opacity:1"
         d="m 611.59929,206.51806 c 3.33056,0.95996 7.15196,1.47554 11.2623,-2.43817 -1.187,4.16216 4.78311,0.51735 5.80178,-1.15238"
         id="path354"
         sodipodi:nodetypes="ccc" />
      <path
         style="fill:none;fill-opacity:1;stroke:#000000;stroke-width:0.5;stroke-linecap:round;stroke-dasharray:none;stroke-opacity:1"
         d="m 602.70013,228.18462 c 1.57106,-2.9487 2.4404,-1.85338 2.40189,-3.83409 -0.50925,-0.75914 -1.55769,-0.231 -3.21404,-0.26885"
         id="path362"
         sodipodi:nodetypes="ccc" />
      <path
         style="fill:none;fill-opacity:1;stroke:#000000;stroke-width:0.5;stroke-linecap:round;stroke-dasharray:none;stroke-opacity:1"
         d="m 588.28784,193.87755 c 0.34768,1.32848 1.18115,3.0461 0.93864,4.4041 -0.98219,0.70636 -1.75458,0.41572 -2.21899,0.48626"
         id="path358"
         sodipodi:nodetypes="ccc" />
      <path
         style="fill:none;fill-opacity:1;stroke:#000000;stroke-width:0.5;stroke-linecap:round;stroke-dasharray:none;stroke-opacity:1"
         d="m 611.69179,206.66489 c -2.21341,2.90253 -0.61043,7.92159 0.29159,8.42272 0.55213,-0.7632 0.76799,-1.35625 0.76799,-2.25276 1.07073,4.18163 -1.51633,10.8195 4.35192,12.23659 -0.0795,-0.80653 -0.16966,-1.60877 -0.30719,-2.40636 1.22433,1.37144 2.50743,2.53302 4.35193,1.68957 -0.14201,5.39995 4.19803,13.50427 4.8311,18.24487"
         id="path359"
         sodipodi:nodetypes="ccccccc" />
      <path
         style="fill:none;fill-opacity:1;stroke:#000000;stroke-width:0.5;stroke-linecap:round;stroke-dasharray:none;stroke-opacity:1"
         d="m 617.9238,223.73174 c -2.97129,-2.73359 -0.6899,-4.1351 3.19383,-6.38766"
         id="path360"
         sodipodi:nodetypes="cc" />
      <path
         style="fill:none;fill-opacity:1;stroke:#000000;stroke-width:0.5;stroke-linecap:round;stroke-dasharray:none;stroke-opacity:1"
         d="m 594.25468,271.99236 c -0.36494,-1.09434 -0.13673,-1.85422 0.16324,-2.912"
         id="path363"
         sodipodi:nodetypes="cc" />
      <path
         style="fill:none;fill-opacity:1;stroke:#000000;stroke-width:0.5;stroke-linecap:round;stroke-dasharray:none;stroke-opacity:1"
         d="m 599.10443,272.07199 c -0.29266,-0.99788 -0.35201,-2.05231 0.27007,-3.03293"
         id="path364"
         sodipodi:nodetypes="cc" />
      <path
         style="fill:none;fill-opacity:1;stroke:#000000;stroke-width:0.5;stroke-linecap:round;stroke-dasharray:none;stroke-opacity:1"
         d="m 595.17387,264.79597 c 3.50407,-0.46209 7.07521,0.54278 9.09612,3.47965"
         id="path365"
         sodipodi:nodetypes="cc" />
      <path
         style="fill:none;fill-opacity:1;stroke:#000000;stroke-width:0.5;stroke-linecap:round;stroke-dasharray:none;stroke-opacity:1"
         d="m 617.26056,273.85864 c -0.30777,-0.77152 -0.29824,-1.97472 0.75866,-3.03162"
         id="path366"
         sodipodi:nodetypes="cc" />
      <path
         style="fill:none;fill-opacity:1;stroke:#000000;stroke-width:0.5;stroke-linecap:round;stroke-dasharray:none;stroke-opacity:1"
         d="m 622.63519,274.01645 c -0.61437,-1.87102 -0.68209,-1.61683 0.001,-3.01416"
         id="path367"
         sodipodi:nodetypes="cc" />
      <path
         style="fill:none;fill-opacity:1;stroke:#000000;stroke-width:0.5;stroke-linecap:round;stroke-dasharray:none;stroke-opacity:1"
         d="m 620.48974,265.18465 c 3.52848,0.17832 6.07638,1.97967 8.43379,4.36741"
         id="path368"
         sodipodi:nodetypes="cc" />
      <path
         style="fill:none;fill-opacity:1;stroke:#000000;stroke-width:0.5;stroke-linecap:round;stroke-dasharray:none;stroke-opacity:1"
         d="m 636.989,241.67608 c -1.50679,-5.3269 -4.75819,-10.38113 -4.64507,-16.04101"
         id="path369"
         sodipodi:nodetypes="cc" />
      <path
         style="fill:none;fill-opacity:1;stroke:#000000;stroke-width:0.5;stroke-linecap:round;stroke-dasharray:none;stroke-opacity:1"
         d="m 632.57985,228.20819 c 2.16743,1.54996 4.41278,2.44568 7.05216,2.44568 -1.14556,-0.80034 -1.84663,-1.80548 -2.35459,-3.07539 2.98361,1.8659 6.5437,1.97017 7.30404,1.97017 l -1.00911,-3.02733 c 1.77956,0.82332 3.45627,0.66132 5.28582,0.19221"
         id="path370"
         sodipodi:nodetypes="cccccc" />
      <path
         style="fill:none;fill-opacity:1;stroke:#000000;stroke-width:0.5;stroke-linecap:round;stroke-dasharray:none;stroke-opacity:1"
         d="m 650.29932,237.72077 c 2.39955,-0.41468 5.25362,-0.53953 6.61411,-1.31562 -1.91775,-3.33179 -7.94991,-5.1283 -7.94991,-9.83278 0.34339,-3.33876 1.37666,-6.55376 2.09208,-9.83278"
         id="path371"
         sodipodi:nodetypes="cccc" />
      <path
         style="fill:none;fill-opacity:1;stroke:#000000;stroke-width:0.5;stroke-linecap:round;stroke-dasharray:none;stroke-opacity:1"
         d="m 656.99309,236.55586 c 2.09141,2.15455 0.61256,1.43311 5.89169,4.20834"
         id="path374"
         sodipodi:nodetypes="cc" />
      <path
         style="fill:none;fill-opacity:1;stroke:#000000;stroke-width:0.5;stroke-linecap:round;stroke-dasharray:none;stroke-opacity:1"
         d="m 671.48867,250.53912 c 0.37354,-0.99242 1.22481,-1.45406 2.02947,-1.70756 1.34006,1.58003 1.23692,5.46739 1.71231,7.58899"
         id="path375"
         sodipodi:nodetypes="ccc" />
      <path
         style="fill:none;fill-opacity:1;stroke:#000000;stroke-width:0.5;stroke-linecap:round;stroke-dasharray:none;stroke-opacity:1"
         d="m 676.87074,256.55748 c 0.628,0.0885 0.83096,-0.18181 1.23614,-0.35325 0.46136,-1.0066 -0.19154,-2.10991 -0.41612,-3.16251 0.98308,0.22359 1.618,-0.28008 2.33027,-0.91546 -0.60814,-1.81284 -2.39006,-3.39075 -3.57859,-5.07664 -1.43107,-1.75503 -1.87068,-3.92897 -2.03899,-6.11695 0.60085,-1.37665 1.59924,-0.2216 2.33027,-0.91546 -3.57078,-2.3457 -2.30117,-2.8587 -0.0416,-5.11826 -9.96937,1.18769 5.31221,-12.30337 6.48376,-17.86827 0.25117,-3.75221 0.6702,-7.27335 -1.62744,-10.11338 -9.40794,-1.23572 -4.98656,8.53516 -4.76607,10.9271 0.35879,5.46494 -1.36523,9.16865 -3.13318,14.21993"
         id="path376"
         sodipodi:nodetypes="cccccccccccc" />
      <path
         style="fill:none;fill-opacity:1;stroke:#000000;stroke-width:0.5;stroke-linecap:round;stroke-dasharray:none;stroke-opacity:1"
         d="m 664.96479,202.47544 c 4.90569,2.10856 8.15725,6.05852 10.72991,10.69474"
         id="path377"
         sodipodi:nodetypes="cc" />
      <path
         style="fill:#000000;fill-opacity:1;stroke:#000000;stroke-width:0.5;stroke-linecap:round;stroke-dasharray:none;stroke-opacity:1"
         d="m 637.32032,205.45939 c 3.91565,-0.0367 7.40487,2.41122 10.99636,3.84782 -0.95657,-2.1372 -1.86007,-4.51212 -3.88243,-5.79907"
         id="path379"
         sodipodi:nodetypes="ccc" />
      <path
         style="fill:#000000;fill-opacity:1;stroke:#000000;stroke-width:0.5;stroke-linecap:round;stroke-dasharray:none;stroke-opacity:1"
         d="m 650.49912,202.06439 c 1.19199,0.84767 6.75859,3.69909 10.54604,6.01421 -0.28273,-3.29837 -1.31205,-4.48516 -3.27664,-6.56532"
         id="path380"
         sodipodi:nodetypes="ccc" />
      <ellipse
         style="fill:#000000;fill-opacity:1;stroke:#000000;stroke-width:0.498898;stroke-linecap:square;stroke-opacity:1"
         id="path1"
         cx="614.31195"
         cy="194.40869"
         rx="2.9851623"
         ry="3.0138657" />
      <ellipse
         style="fill:#000000;fill-opacity:1;stroke:#000000;stroke-width:0.498898;stroke-linecap:square;stroke-opacity:1"
         id="path241"
         cx="590.77509"
         cy="192.28464"
         rx="2.6407204"
         ry="2.7842379" />
      <path
         style="fill:#808080;fill-opacity:1;stroke:#000000;stroke-width:0.0978618;stroke-linecap:square;stroke-opacity:1"
         d="m 691.65059,264.99705 c -4.17125,-0.65232 -9.19567,-2.61537 -13.01913,-5.08659 -1.18345,-0.7649 -1.28103,-0.90655 -1.50796,-2.18925 -0.12122,-0.68517 -0.0975,-0.72402 0.57809,-0.94699 0.48518,-0.16012 0.74236,-0.38332 0.82609,-0.71692 0.11787,-0.46965 -0.007,-1.7033 -0.23111,-2.28802 -0.0741,-0.19322 0.0605,-0.33002 0.41156,-0.41813 0.28698,-0.072 0.78229,-0.32356 1.10069,-0.55897 0.4624,-0.34187 0.55474,-0.52765 0.45877,-0.92307 -0.16402,-0.67586 -0.87404,-1.74074 -2.55348,-3.8297 -1.60113,-1.99157 -2.12285,-2.92339 -2.5457,-4.54682 -0.31034,-1.19149 -0.39319,-2.79514 -0.14618,-2.8295 0.0809,-0.0113 0.483,-0.0414 0.89353,-0.0669 0.41054,-0.0255 0.88053,-0.18052 1.04443,-0.34442 0.26657,-0.26657 0.19265,-0.37534 -0.70074,-1.03115 -0.97124,-0.71296 -1.38434,-1.21481 -1.38434,-1.68176 0,-0.12547 0.57376,-0.82244 1.27502,-1.54881 0.70126,-0.72638 1.27501,-1.36064 1.27501,-1.40947 0,-0.0488 -0.59582,-0.0603 -1.32405,-0.0255 -1.59629,0.0763 -2.2771,-0.21175 -2.36838,-1.00206 -0.0956,-0.82811 1.06268,-3.06122 2.91492,-5.61963 0.89823,-1.24069 2.46086,-3.40331 3.47251,-4.80583 1.01164,-1.40252 2.20899,-3.29288 2.66076,-4.2008 l 0.82141,-1.65077 -10e-4,-3.54737 c -10e-4,-3.23302 -0.0409,-3.6457 -0.44776,-4.65706 -0.24553,-0.61034 -0.6449,-1.40477 -0.88751,-1.76541 -0.43074,-0.64032 -0.47773,-0.65715 -2.00331,-0.71733 -0.85922,-0.0339 -1.88926,0.0347 -2.28897,0.15234 -1.59469,0.46952 -2.68484,2.01006 -2.71197,3.83241 l -0.0146,0.98078 -0.33299,-0.48439 c -0.18314,-0.26642 -0.7964,-1.13241 -1.3628,-1.92444 -1.20101,-1.67943 -1.20905,-1.75066 -0.73559,-6.51627 0.38411,-3.86624 0.37917,-5.37385 -0.0187,-5.70406 -0.6212,-0.51555 -1.2699,0.15861 -2.56893,2.66971 l -1.21455,2.3478 -0.30082,-0.71771 c -0.43407,-1.03559 -0.65241,-2.13311 -0.9929,-4.9908 -0.38273,-3.21226 -0.71661,-5.17102 -0.90085,-5.28488 -0.0793,-0.049 -0.65562,0.76798 -1.28071,1.81553 -2.26973,3.80367 -2.51588,5.14457 -1.36437,7.4325 0.37157,0.73827 0.62825,1.38885 0.5704,1.44575 -0.19783,0.19458 -2.3604,-2.29169 -2.82916,-3.25262 -0.32423,-0.66467 -0.49117,-1.40094 -0.54347,-2.3969 -0.0703,-1.33874 -0.0253,-1.53903 0.65445,-2.91448 1.26353,-2.55657 4.29785,-5.20958 8.61758,-7.53465 1.03019,-0.55449 1.51475,-0.73226 1.43591,-0.52679 -0.3292,0.85786 -0.55681,2.77988 -0.50207,4.23956 l 0.0613,1.63391 1.204,-1.73199 c 3.38479,-4.86907 6.94903,-7.80927 10.66344,-8.79645 1.55387,-0.41298 3.94752,-0.36835 5.65736,0.10547 3.81,1.05581 7.91685,4.15946 11.80054,8.91798 1.63723,2.00604 4.96957,7.00238 6.01978,9.02576 2.89826,5.58391 3.04713,10.13511 0.55209,16.87792 -1.26935,3.43037 -4.57997,9.7105 -7.75093,14.70321 -3.05289,4.80682 -5.09794,10.47891 -5.09794,14.13949 0,2.66932 0.49879,3.41649 2.28076,3.41649 1.91506,0 4.91849,-1.7874 6.03326,-3.59051 0.31805,-0.51442 0.81349,-1.74861 1.10099,-2.74264 l 0.52272,-1.80733 -0.40823,-0.13106 c -0.22453,-0.0721 -0.7285,-0.1844 -1.11994,-0.2496 -1.01924,-0.16977 -1.8135,-0.95534 -1.65648,-1.63833 0.33482,-1.45633 2.88004,-2.7214 5.1144,-2.54204 3.05911,0.24555 5.68944,2.46399 7.60971,6.41807 0.78495,1.61632 0.81306,1.7411 0.81891,3.63533 0.007,2.40671 -0.29104,3.20251 -2.53819,6.76739 -0.85009,1.34857 -1.96337,3.39999 -2.47396,4.55871 -0.51058,1.15873 -1.24316,2.53565 -1.62794,3.05983 -1.85264,2.52379 -4.71432,4.36678 -8.28646,5.33668 -1.76937,0.48041 -6.40513,0.68641 -8.40584,0.37353 z"
         id="path242" />
      <path
         style="fill:#808080;fill-opacity:1;stroke:#000000;stroke-width:0.0978618;stroke-linecap:square;stroke-opacity:1"
         d="m 624.07068,242.31344 c -0.9708,-0.1625 -2.47966,-0.71804 -3.96481,-1.45977 -1.12798,-0.56335 -1.67691,-0.97943 -2.15772,-1.63551 -0.92765,-1.26583 -1.2508,-1.11666 -1.16415,0.53734 0.038,0.7262 -0.006,1.31954 -0.0981,1.31852 -0.092,-10e-4 -0.61971,-0.26134 -1.17271,-0.57852 -1.48197,-0.84999 -2.6866,-2.51392 -3.33848,-4.6114 -0.2001,-0.64381 -0.57149,-1.3941 -0.82533,-1.66732 -0.25384,-0.27322 -0.62773,-0.82179 -0.83086,-1.21905 -0.20314,-0.39725 -0.45058,-0.77248 -0.54987,-0.83384 -0.27631,-0.17077 -0.46794,1.7087 -0.31401,3.07969 l 0.13727,1.22262 -0.71543,-0.68429 c -0.75611,-0.72319 -1.02412,-1.44531 -1.84901,-4.9819 -0.22361,-0.95869 -0.45156,-1.78806 -0.50655,-1.84306 -0.055,-0.055 -0.92271,0.44251 -1.92825,1.10556 -1.00554,0.66305 -1.93422,1.20555 -2.06372,1.20555 -0.29766,0 -0.28858,-0.40608 0.0398,-1.7788 0.33563,-1.40314 0.52891,-1.74898 1.70047,-3.04266 0.7655,-0.84529 0.96663,-1.20836 0.96663,-1.74495 0,-0.89812 -0.45449,-1.12331 -2.12909,-1.05494 -1.08881,0.0444 -1.42549,-0.0194 -1.9018,-0.3605 -1.64859,-1.18069 -2.05652,-2.14665 -2.19735,-5.20327 -0.0794,-1.72272 -0.0467,-2.31121 0.12828,-2.31121 0.40964,0 1.46443,0.61875 2.24003,1.31402 0.5986,0.5366 0.80566,0.62567 1.0272,0.44181 0.2919,-0.24226 -0.0639,-1.00475 -1.88227,-4.03316 l -0.71959,-1.19846 5.29103,-2.48845 c 2.91007,-1.36865 5.33329,-2.44618 5.38495,-2.39453 0.0517,0.0517 -0.0158,0.42643 -0.14993,0.83282 -0.61632,1.86745 0.007,5.92227 1.06253,6.91406 l 0.47301,0.44437 0.2917,-0.41646 c 0.26489,-0.37818 0.30067,-0.13156 0.38921,2.68283 0.1146,3.6424 0.40951,4.82877 1.48453,5.97198 0.43171,0.45909 1.19349,0.95801 1.89807,1.24311 l 1.17693,0.47625 0.0603,-0.77582 c 0.0332,-0.4267 0.10782,-0.77582 0.16588,-0.77582 0.058,0 0.3732,0.19058 0.70032,0.42352 0.33312,0.2372 1.01334,0.46373 1.54621,0.51493 0.92204,0.0886 0.95465,0.11339 1.05534,0.80246 0.33894,2.31946 1.11084,5.16385 2.48192,9.14576 0.85442,2.48137 1.68796,5.04121 1.85232,5.68852 0.16436,0.64732 0.34427,1.33141 0.3998,1.52021 0.10445,0.35512 -0.28832,0.40971 -1.49472,0.20776 z"
         id="path244" />
      <path
         style="fill:#808080;fill-opacity:1;stroke:#000000;stroke-width:0.0978618;stroke-linecap:square;stroke-opacity:1"
         d="m 636.99539,240.49915 c -0.12295,-0.38406 -0.86769,-2.37543 -1.65496,-4.42527 -1.44334,-3.75803 -2.39723,-6.68211 -2.23331,-6.84603 0.0489,-0.0489 0.68207,0.19922 1.40711,0.55131 1.42409,0.69155 2.63409,0.99921 4.70951,1.19748 1.41864,0.13553 1.64771,-0.0201 0.78462,-0.53307 -0.68556,-0.40747 -1.72381,-1.48924 -1.57355,-1.63951 0.0628,-0.0628 0.54188,0.032 1.06456,0.21077 1.7349,0.59328 5.56001,1.15244 5.56001,0.81277 0,-0.0371 -0.17654,-0.5805 -0.39231,-1.20765 -0.21577,-0.62715 -0.39218,-1.19266 -0.39202,-1.25668 1.6e-4,-0.064 0.97375,-0.11641 2.16354,-0.11641 h 2.16324 l 0.2069,0.78462 c 0.44967,1.70535 1.52499,2.94522 4.9796,5.74165 1.83718,1.48715 2.6087,2.30747 2.38274,2.53343 -0.15003,0.15002 -1.47677,0.42057 -3.69092,0.75263 -1.11456,0.16716 -3.35053,0.61984 -4.96882,1.00596 -1.61828,0.38613 -4.00158,0.95477 -5.29621,1.26366 -1.29463,0.30889 -2.94839,0.8557 -3.67502,1.21513 l -1.32115,0.65351 z"
         id="path256" />
      <path
         style="fill:#808080;fill-opacity:1;stroke:#000000;stroke-width:0.0978618;stroke-linecap:square;stroke-opacity:1"
         d="m 593.47032,181.01144 c -0.59337,-0.22688 -1.43193,-0.63238 -1.86348,-0.9011 -1.19845,-0.74628 -2.72747,-2.07221 -2.4834,-2.15357 0.13223,-0.0441 -0.0785,-0.66176 -0.53841,-1.57801 -2.17107,-4.32548 -3.18867,-10.37339 -2.75838,-16.39383 0.21997,-3.07758 0.81214,-6.31653 1.23153,-6.73592 0.23458,-0.23458 0.40925,-0.057 1.21374,1.23372 0.51686,0.82926 2.03196,3.00369 3.36689,4.83208 4.6168,6.32336 6.24103,9.042 7.30293,12.22371 0.57406,1.72002 1.00846,4.41351 0.71181,4.41351 -0.54239,0 -5.20114,-4.10038 -6.69132,-5.88933 -0.62694,-0.75264 -1.20208,-1.36844 -1.27808,-1.36844 -0.076,0 -0.0995,0.55169 -0.0521,1.22597 0.25195,3.58987 0.92416,5.98117 2.64578,9.41193 0.52686,1.04993 0.95794,1.9547 0.95794,2.0106 0,0.20486 -0.7132,0.071 -1.76541,-0.33132 z"
         id="path339" />
      <path
         style="fill:#808080;fill-opacity:1;stroke:#000000;stroke-width:0.0978618;stroke-linecap:square;stroke-opacity:1"
         d="m 622.19346,174.90016 c -0.8253,-0.70611 -4.10141,-2.87022 -4.34895,-2.8728 -0.24008,-0.002 -2.49683,-4.08408 -3.14439,-5.68697 -1.63527,-4.0478 -2.39268,-7.64399 -2.54075,-12.06361 -0.12273,-3.66305 0.22942,-7.15969 0.72106,-7.15969 0.0797,0 0.5938,0.72823 1.14253,1.61828 1.22019,1.97919 3.13503,4.48589 7.05721,9.23856 3.21604,3.897 5.44988,6.96538 6.62107,9.09463 0.80267,1.45926 1.93733,4.16069 2.1453,5.1076 0.12141,0.55278 0.0833,0.61181 -0.47411,0.73424 -0.55505,0.12191 -0.79162,-0.0234 -2.80683,-1.72436 -1.21038,-1.02162 -3.36339,-2.92704 -4.78448,-4.23427 -1.42108,-1.30724 -2.67725,-2.37679 -2.79149,-2.37679 -0.45146,0 -0.41389,0.95046 0.0933,2.36125 0.54367,1.51214 2.52702,5.60198 3.59515,7.41355 0.33437,0.56708 0.60793,1.0713 0.60793,1.1205 0,0.23448 -0.39009,0.0309 -1.09259,-0.57012 z"
         id="path348" />
      <path
         style="fill:#808080;fill-opacity:1;stroke:#000000;stroke-width:0.0978618;stroke-linecap:square;stroke-opacity:1"
         d="m 615.48131,174.49401 c -1.23797,-1.3234 -1.84661,-2.5629 -2.10519,-4.28725 -0.10976,-0.73193 -0.0808,-0.92403 0.13953,-0.92403 0.51326,0 2.01523,1.1007 2.7809,2.03794 0.43585,0.53352 0.86976,0.88603 1.01978,0.82846 0.15177,-0.0582 0.31598,0.0804 0.39214,0.33114 0.0721,0.23724 0.43792,0.94198 0.81302,1.56609 0.88371,1.47034 0.78589,1.70952 -0.69916,1.70952 h -1.1606 z"
         id="path349" />
      <path
         style="fill:#808080;fill-opacity:1;stroke:#000000;stroke-width:0.0978618;stroke-linecap:square;stroke-opacity:1"
         d="m 588.3135,181.59152 c -0.37024,-0.35063 -0.86238,-1.00987 -1.09366,-1.46499 -0.4351,-0.85623 -0.99931,-2.95613 -1.00439,-3.73818 -0.003,-0.43024 0.0178,-0.43568 0.56994,-0.15016 0.85339,0.4413 1.97683,1.90489 1.9791,2.57831 0.002,0.57096 0.68752,2.14847 1.29129,2.97118 0.31971,0.43564 0.31489,0.44135 -0.37261,0.44135 -0.51694,0 -0.87005,-0.16435 -1.36967,-0.63751 z"
         id="path372" />
      <path
         style="fill:#808080;fill-opacity:1;stroke:#000000;stroke-width:0.0978618;stroke-linecap:square;stroke-opacity:1"
         d="m 585.90169,197.18973 c -0.61604,-0.72614 -1.23946,-1.60601 -1.38538,-1.95526 -0.32802,-0.78507 -0.33169,-1.9743 -0.008,-2.55711 l 0.24354,-0.43834 1.61516,0.91222 1.61517,0.91222 0.39219,1.26976 c 0.2157,0.69837 0.44478,1.59867 0.50906,2.00066 0.11008,0.68837 0.0797,0.74384 -0.5217,0.9535 -1.0702,0.37307 -1.2991,0.27094 -2.46015,-1.09765 z"
         id="path373" />
      <path
         style="fill:#808080;fill-opacity:1;stroke:#000000;stroke-width:0.0978618;stroke-linecap:square;stroke-opacity:1"
         d="m 628.53323,196.0209 c -0.61249,-0.16006 -0.41991,-1.35648 0.53394,-3.31723 0.82415,-1.69415 0.93918,-1.83409 1.90199,-2.31388 0.67634,-0.33703 1.34519,-0.51067 1.96706,-0.51067 h 0.94226 l -0.002,0.73558 c -10e-4,0.40458 -0.2224,1.20922 -0.49188,1.7881 -1.20253,2.5832 -3.17697,4.05569 -4.85146,3.6181 z"
         id="path381" />
      <path
         style="fill:#808080;fill-opacity:1;stroke:#000000;stroke-width:0.0978618;stroke-linecap:square;stroke-opacity:1"
         d="m 629.7763,201.63843 c -0.79974,-0.20942 -1.47116,-0.40317 -1.49204,-0.43055 -0.25649,-0.33642 -0.6992,-1.98881 -0.64951,-2.42423 0.0594,-0.52091 0.13785,-0.57335 0.94752,-0.63382 0.48549,-0.0362 1.34302,0.0356 1.90562,0.15964 1.12874,0.2489 1.75857,0.834 2.46667,2.29149 0.33401,0.68749 0.35933,0.88048 0.1488,1.13415 -0.34092,0.41079 -1.51997,0.37653 -3.32706,-0.0967 z"
         id="path382" />
      <path
         style="fill:#808080;fill-opacity:1;stroke:#000000;stroke-width:0.0978618;stroke-linecap:square;stroke-opacity:1"
         d="m 606.41663,199.26662 c -1.16324,-1.56708 -2.91147,-3.01612 -4.62405,-3.83268 -1.51312,-0.72146 -3.53033,-1.1389 -4.56622,-0.94492 -0.61445,0.11506 -0.64013,0.0991 -0.39232,-0.24381 0.46419,-0.64232 4.52953,-5.54303 4.59817,-5.54303 0.23844,0 1.9606,2.91763 3.24883,5.50407 1.5218,3.05539 1.94534,3.62112 3.77613,5.04373 0.31316,0.24334 0.53384,0.46589 0.49039,0.49455 -0.13434,0.0886 -1.56093,0.72749 -1.60585,0.71913 -0.0233,-0.004 -0.4396,-0.543 -0.92508,-1.19704 z"
         id="path383" />
      <path
         style="fill:#808080;fill-opacity:1;stroke:#000000;stroke-width:0.131724;stroke-linecap:square;stroke-opacity:1"
         d=""
         id="path384" />
      <path
         style="fill:#808080;fill-opacity:1;stroke:#000000;stroke-width:0.131724;stroke-linecap:square;stroke-opacity:1"
         d="m 595.91778,272.78574 c -1.33542,-0.81648 -1.53873,-1.22223 -1.34484,-2.68386 0.14119,-1.06437 0.0999,-1.31841 -0.21407,-1.31841 -0.26485,0 -0.4416,0.40018 -0.55394,1.25415 -0.0907,0.68978 -0.18814,1.43237 -0.21646,1.65019 -0.0871,0.67018 -1.39098,0.63973 -1.86965,-0.0437 -1.10666,-1.57997 -0.14493,-4.18594 2.09322,-5.672 1.42663,-0.94722 1.47531,-0.95852 3.52465,-0.81806 1.19731,0.0821 2.5736,0.36165 3.24732,0.65966 1.46833,0.64952 3.12268,2.08271 3.12268,2.70524 0,0.77388 -1.09094,4.07713 -1.41581,4.28692 -1.50986,0.97502 -3.62192,-1.15487 -2.84219,-2.86618 0.39474,-0.86635 0.37517,-1.15625 -0.078,-1.15625 -0.48716,0 -1.04212,1.68769 -0.83124,2.52789 0.1211,0.4825 -0.006,0.82151 -0.49096,1.30614 -0.78146,0.78146 -1.0881,0.80567 -2.13068,0.16824 z"
         id="path385" />
      <path
         style="fill:#808080;fill-opacity:1;stroke:#000000;stroke-width:0.131724;stroke-linecap:square;stroke-opacity:1"
         d="m 618.01039,273.98107 c -0.72435,-0.77103 -0.72799,-1.49833 -0.0121,-2.40849 0.38964,-0.49535 0.47768,-0.79887 0.28704,-0.98952 -0.15125,-0.15125 -0.38972,-0.2041 -0.52994,-0.11744 -0.41908,0.259 -1.11123,1.91166 -1.11123,2.65329 0,0.62008 -0.0747,0.67336 -0.72609,0.51776 -0.39934,-0.0954 -0.86696,-0.28409 -1.03915,-0.41932 -0.97356,-0.76459 -0.51639,-3.82316 0.77051,-5.1548 0.45541,-0.47125 1.71236,-1.22265 2.80877,-1.67909 1.607,-0.66899 2.20694,-0.79565 3.15393,-0.66585 1.5657,0.2146 4.11196,1.50669 5.70011,2.89249 l 1.29499,1.12998 -0.47653,1.24779 c -0.74828,1.95934 -2.68943,3.22096 -4.44074,2.88618 -0.77616,-0.14837 -1.27774,-1.22889 -0.95358,-2.05422 0.31952,-0.8135 0.27988,-1.18814 -0.1257,-1.18814 -0.55335,0 -0.95972,1.42152 -0.6826,2.3878 0.21988,0.76668 0.17768,0.84222 -0.66791,1.19553 -1.36077,0.56856 -2.57825,0.48092 -3.24983,-0.23395 z"
         id="path386" />
      <path
         style="fill:#999999;fill-opacity:1;stroke:#000000;stroke-width:0.131724;stroke-linecap:square;stroke-opacity:1"
         d="m 691.94394,264.8 c -4.34552,-0.55405 -12.53745,-3.93181 -14.11057,-5.81817 -0.66565,-0.7982 -0.57897,-1.67837 0.21663,-2.19967 0.59621,-0.39065 0.67034,-0.602 0.60998,-1.73912 -0.0643,-1.21162 -0.0107,-1.33351 0.83767,-1.90523 0.4985,-0.33595 0.94088,-0.78998 0.98305,-1.00896 0.0778,-0.40376 -0.96313,-2.06262 -3.36841,-5.36821 -0.73016,-1.00345 -1.44514,-2.31041 -1.58884,-2.90434 -0.1437,-0.59393 -0.36018,-1.37934 -0.48105,-1.74536 -0.31218,-0.9453 -0.11091,-1.31474 0.71627,-1.31474 0.3958,0 0.95026,-0.17176 1.23215,-0.38169 0.49049,-0.36528 0.45578,-0.43202 -0.80764,-1.55296 l -1.32015,-1.17129 1.45217,-1.54939 1.45217,-1.5494 -1.60347,-0.15356 c -1.84841,-0.17702 -2.22498,-0.35022 -2.22498,-1.02335 0,-0.8243 1.50873,-3.41007 4.13797,-7.09199 5.70839,-7.99384 5.55083,-7.64247 5.61271,-12.51655 0.0437,-3.43904 -0.0145,-4.03182 -0.50424,-5.13895 -0.89401,-2.02107 -1.15066,-2.19489 -3.24076,-2.19489 -2.8915,0 -4.30895,0.99881 -4.81602,3.39363 l -0.18746,0.88535 -0.90922,-1.28139 c -0.50007,-0.70477 -1.0072,-1.31586 -1.12696,-1.358 -0.11976,-0.0421 -0.14829,-1.28968 -0.0634,-2.77232 0.0849,-1.48265 0.15861,-4.00267 0.16381,-5.60006 0.009,-2.73273 -0.0226,-2.90893 -0.53317,-2.98197 -0.69532,-0.0995 -1.14823,0.42174 -2.43712,2.80471 l -1.04659,1.935 -0.29617,-0.84959 c -0.16289,-0.46727 -0.54993,-2.72279 -0.86008,-5.01227 -0.31015,-2.28947 -0.66982,-4.32248 -0.79927,-4.5178 -0.33554,-0.50631 -1.30078,0.72001 -2.62993,3.3413 -0.95621,1.8858 -1.05837,2.26793 -0.95288,3.56442 0.065,0.79869 0.21311,1.6898 0.32916,1.98023 0.19246,0.48167 0.15228,0.47463 -0.45737,-0.0801 -1.15193,-1.04818 -1.89153,-2.85222 -1.80348,-4.39912 0.13104,-2.30226 2.71126,-5.61315 6.21574,-7.97595 1.37884,-0.92965 3.62889,-2.19855 3.89852,-2.19855 0.0501,0 -0.0178,0.88522 -0.15082,1.96715 -0.13832,1.12466 -0.14448,2.37918 -0.0144,2.92921 l 0.22752,0.96207 1.35683,-1.9391 c 2.99647,-4.28234 6.89363,-7.63326 9.92433,-8.53328 6.59494,-1.95849 13.77338,2.53661 20.86083,13.06294 4.20447,6.24451 5.37548,9.46167 5.14158,14.12566 -0.23724,4.73024 -2.77663,10.98576 -7.98505,19.6703 -3.84866,6.41729 -5.20022,9.37737 -6.06326,13.27935 -0.57688,2.60822 -0.46486,5.45452 0.24559,6.23955 1.19447,1.31987 5.07226,0.13792 7.23096,-2.20399 0.7932,-0.86052 1.23807,-1.70754 1.75305,-3.33775 0.72219,-2.28613 0.66473,-2.61018 -0.46458,-2.61979 -0.85844,-0.007 -2.03312,-0.78359 -2.03312,-1.34358 0,-0.58209 1.08233,-1.71777 1.87765,-1.97019 0.27424,-0.087 0.49862,-0.26533 0.49862,-0.39621 0,-0.13087 0.17253,-0.17174 0.38341,-0.0908 0.21087,0.0809 0.52377,0.0604 0.69533,-0.0457 0.42158,-0.26054 2.08963,-0.34864 2.08963,-0.11036 0,0.10469 0.32674,0.25684 0.72609,0.33811 2.03946,0.41504 4.79376,3.24291 6.1028,6.26581 0.3433,0.79275 0.7198,1.63222 0.83667,1.8655 0.59612,1.18985 -0.31433,4.27769 -2.19764,7.45339 -0.78922,1.33082 -2.11087,3.74843 -2.93699,5.37248 -1.22257,2.40341 -1.81702,3.24746 -3.19491,4.53641 -1.84027,1.72149 -4.17141,2.97831 -6.62658,3.57268 -1.98533,0.48064 -5.82903,0.67369 -7.97231,0.40043 z"
         id="path388" />
      <path
         style="fill:#000000;fill-opacity:1;stroke:#000000;stroke-width:0.0506962;stroke-linecap:square;stroke-opacity:1"
         d="m 670.84858,206.11194 c -0.97223,-0.96599 -2.58261,-2.24024 -3.44387,-2.72503 -0.39868,-0.22442 -0.66594,-0.51984 -1.35994,-1.50325 -1.11729,-1.58325 -1.47993,-2.21394 -1.72819,-3.00564 -0.34233,-1.09165 -0.25016,-1.80069 0.4246,-3.26643 0.56189,-1.22055 1.73969,-3.17492 1.82105,-3.02175 0.0367,0.0691 0.14156,0.74301 0.23297,1.49751 0.0914,0.7545 0.2569,2.11536 0.36773,3.02414 0.22669,1.85863 0.41488,2.8523 0.71932,3.79808 0.2224,0.69089 0.99875,2.32325 1.10494,2.32325 0.10348,0 0.73693,-1.14646 1.68439,-3.04849 0.9047,-1.81618 1.37605,-2.58416 1.65073,-2.68956 0.13586,-0.0521 0.14745,0.14063 0.0959,1.59457 -0.0323,0.90964 -0.15458,2.61416 -0.27179,3.78783 -0.11721,1.17367 -0.24622,2.59122 -0.2867,3.15011 l -0.0736,1.01616 z"
         id="path391" />
      <path
         style="fill:none;fill-opacity:1;stroke:#000000;stroke-width:0.498898;stroke-linecap:square;stroke-opacity:1"
         d="m 585.77001,203.59484 c 2.42331,-0.66926 5.52032,-4.18838 0.40947,-4.31038"
         id="path392"
         sodipodi:nodetypes="cc" />
      <path
         style="fill:#808080;fill-opacity:1;stroke:#000000;stroke-width:0.0163921;stroke-linecap:square;stroke-opacity:1"
         d="m 585.27092,203.32635 c -0.54579,-0.28838 -1.04352,-0.73357 -1.23322,-1.10306 -0.0897,-0.17475 -0.10481,-0.239 -0.10569,-0.45026 -8.6e-4,-0.2079 0.0147,-0.27982 0.0997,-0.46 0.25227,-0.53495 0.94543,-1.16233 1.83202,-1.65814 l 0.2173,-0.12152 0.48487,0.0372 c 1.18562,0.091 1.8666,0.36517 2.06032,0.82963 0.0679,0.16292 0.0642,0.30441 -0.0148,0.56021 -0.27421,0.88782 -1.70058,2.03934 -2.95753,2.38766 l -0.22424,0.0621 z"
         id="path393" />
    </g>
  </g>
</svg>
