<?xml version="1.0" encoding="UTF-8" standalone="no"?>
<!-- Created with Inkscape (http://www.inkscape.org/) -->

<svg
   width="72"
   height="72"
   viewBox="0 0 72 72"
   version="1.1"
   id="svg1"
   inkscape:version="1.3.2 (091e20e, 2023-11-25, custom)"
   sodipodi:docname="Gem3.svg"
   xmlns:inkscape="http://www.inkscape.org/namespaces/inkscape"
   xmlns:sodipodi="http://sodipodi.sourceforge.net/DTD/sodipodi-0.dtd"
   xmlns="http://www.w3.org/2000/svg"
   xmlns:svg="http://www.w3.org/2000/svg">
  <sodipodi:namedview
     id="namedview1"
     pagecolor="#ffffff"
     bordercolor="#000000"
     borderopacity="0.25"
     inkscape:showpageshadow="2"
     inkscape:pageopacity="0.0"
     inkscape:pagecheckerboard="0"
     inkscape:deskcolor="#d1d1d1"
     inkscape:document-units="px"
     showguides="true"
     inkscape:zoom="4.1965401"
     inkscape:cx="49.56464"
     inkscape:cy="48.373182"
     inkscape:window-width="1440"
     inkscape:window-height="872"
     inkscape:window-x="0"
     inkscape:window-y="28"
     inkscape:window-maximized="0"
     inkscape:current-layer="layer1">
    <sodipodi:guide
       position="20.034993,32.751639"
       orientation="1,0"
       id="guide1"
       inkscape:locked="false" />
    <sodipodi:guide
       position="51.992514,34.473893"
       orientation="1,0"
       id="guide2"
       inkscape:locked="false" />
    <sodipodi:guide
       position="41.73002,52.010805"
       orientation="0,-1"
       id="guide3"
       inkscape:locked="false" />
    <sodipodi:guide
       position="38.741945,20.007486"
       orientation="0,-1"
       id="guide4"
       inkscape:locked="false" />
  </sodipodi:namedview>
  <defs
     id="defs1" />
  <g
     inkscape:label="Layer 1"
     inkscape:groupmode="layer"
     id="layer1">
    <rect
       style="fill:#ffffff;fill-opacity:1;stroke:none;stroke-width:1.92905;stroke-linecap:square;stroke-opacity:0.58;paint-order:fill markers stroke"
       id="rect7"
       width="72"
       height="72"
       x="0"
       y="0"
       sodipodi:insensitive="true" />
    <path
       style="fill:none;stroke:#000000;stroke-width:0.869291;stroke-linecap:square;stroke-opacity:0.58;paint-order:fill markers stroke"
       d="m 31.944491,25.641171 -5.065943,-0.132747 c -3.259903,-0.02383 -8.027535,1.042291 -8.937154,3.36174 C 14.989936,39.48126 13.389971,41.24 21.855647,48.260316 23.624152,49.731433 35.467439,44.914819 34.997415,42.198315 L 35.395938,32.9943 c -0.0768,-3.592807 0.03797,-6.722561 -3.451447,-7.353129 z"
       id="path4"
       sodipodi:nodetypes="ccccccc" />
    <path
       style="fill:none;stroke:#000000;stroke-width:0.869291;stroke-linecap:square;stroke-dasharray:none;stroke-opacity:0.58;paint-order:fill markers stroke"
       d="m 29.605065,54.601113 c -1.532933,3.619056 1.840637,6.517228 0,11.656087 -4.087157,6.387984 -13.376097,7.080957 -12.261471,-2.649111 l 0.551077,-8.079787 c 0.507915,-8.012985 13.474523,-6.585461 11.710394,-0.927189 z"
       id="path7"
       sodipodi:nodetypes="ccccc" />
    <path
       style="fill:none;stroke:#000000;stroke-width:0.869291;stroke-linecap:square;stroke-dasharray:none;stroke-opacity:0.58;paint-order:fill markers stroke"
       d="m 47.004039,51.78462 -5.397034,0.400317 c -4.114262,-0.081 -4.881234,-0.937363 -4.639145,-3.469415 l 1.278727,-13.744225 c 0.72538,-1.657599 17.030783,-0.733907 17.433104,2.073749 -0.04582,2.917867 -0.427357,6.270084 -0.427358,9.268547 0.28089,7.571558 -4.613657,5.454594 -8.248295,5.471002 z"
       id="path6"
       sodipodi:nodetypes="cccccccc" />
    <path
       style="fill:none;stroke:#000000;stroke-width:0.869291;stroke-linecap:square;stroke-dasharray:none;stroke-opacity:0.58;paint-order:fill markers stroke"
       d="M 36.360999,69.222506 C 28.66308,66.341503 31.95073,53.59968 39.671658,54.661475 c 14.79076,-0.244719 15.687776,5.762544 12.597443,9.833697 -6.048139,9.213714 -10.653516,7.034297 -15.908102,4.727334 z"
       id="path5"
       sodipodi:nodetypes="cccc" />
    <path
       style="fill:none;stroke:#000000;stroke-width:0.869291;stroke-linecap:square;stroke-dasharray:none;stroke-opacity:0.58;paint-order:fill markers stroke"
       d="m 57.032529,28.340781 c 0.766154,-0.709374 2.090847,-7.933382 -0.750709,-10.02076 -1.629257,-1.152257 -2.941754,-2.952502 -5.254953,-2.705605 -2.569236,-0.305413 -14.120986,3.34965 -13.083761,7.014532 -0.208351,7.947036 -1.607789,8.196299 10.080931,9.720138 3.818348,0.07589 6.188824,-1.900571 9.008492,-4.008305 z"
       id="path5-8"
       sodipodi:nodetypes="cccccc" />
    <path
       style="fill:none;stroke:#000000;stroke-width:0.869291;stroke-linecap:square;stroke-dasharray:none;stroke-opacity:0.58;paint-order:fill markers stroke"
       d="m 12.173291,21.818593 c 5.893938,-8.131955 11.604965,-8.821941 21.345143,-10.673014 7.929823,0.690633 6.229886,8.866771 -0.191726,8.185242 -2.307018,-0.416962 -21.983769,12.167168 -21.153417,2.487772 z"
       id="path7-1"
       sodipodi:nodetypes="cccc" />
    <path
       style="fill:none;stroke:#000000;stroke-width:0.869291;stroke-linecap:square;stroke-dasharray:none;stroke-opacity:0.58;paint-order:fill markers stroke"
       d="m 69.573799,15.584529 c -4.247328,-0.130611 -9.656915,-0.576289 -9.999583,8.33459 0.595928,14.547995 -6.866735,27.488772 2.844948,27.50452 3.834227,0.22518 8.395486,-6.359698 8.351878,-10.257643 -0.857679,-4.208734 2.0059,-23.030481 -1.197243,-25.581467 z"
       id="path3"
       sodipodi:nodetypes="ccccc" />
    <g
       id="g2"
       inkscape:label="Gem"
       transform="rotate(-45,35.756078,36.676467)">
      <path
         style="fill:#ff1e5a;fill-opacity:1;stroke:#c61c47;stroke-width:2;stroke-linecap:square;stroke-opacity:1;paint-order:fill markers stroke"
         d="m 24.227342,46.469772 0.0421,-19.719875 12.113671,-15.588991 11.44659,15.634862 0.02199,19.786265 -11.555078,14.852376 z"
         id="path1"
         sodipodi:nodetypes="ccccccc" />
      <path
         style="fill:#ff1e5a;fill-opacity:1;stroke:#fffff9;stroke-width:2;stroke-linecap:square;stroke-opacity:1;paint-order:fill markers stroke"
         d="m 37.257809,19.056173 6.152666,7.86174"
         id="path3-6"
         sodipodi:nodetypes="cc" />
    </g>
  </g>
</svg>
