<?xml version="1.0" encoding="UTF-8" standalone="no"?>
<!-- Created with Inkscape (http://www.inkscape.org/) -->

<svg
   width="72"
   height="72"
   viewBox="0 0 72 72"
   version="1.1"
   id="svg1"
   inkscape:version="1.3.2 (091e20e, 2023-11-25)"
   sodipodi:docname="Path1.svg"
   xmlns:inkscape="http://www.inkscape.org/namespaces/inkscape"
   xmlns:sodipodi="http://sodipodi.sourceforge.net/DTD/sodipodi-0.dtd"
   xmlns="http://www.w3.org/2000/svg"
   xmlns:svg="http://www.w3.org/2000/svg">
  <sodipodi:namedview
     id="namedview1"
     pagecolor="#ffffff"
     bordercolor="#000000"
     borderopacity="0.25"
     inkscape:showpageshadow="2"
     inkscape:pageopacity="0.0"
     inkscape:pagecheckerboard="0"
     inkscape:deskcolor="#d1d1d1"
     inkscape:document-units="px"
     showguides="true"
     inkscape:zoom="3.9568385"
     inkscape:cx="46.375408"
     inkscape:cy="30.453606"
     inkscape:window-width="1440"
     inkscape:window-height="872"
     inkscape:window-x="0"
     inkscape:window-y="28"
     inkscape:window-maximized="0"
     inkscape:current-layer="layer1">
    <sodipodi:guide
       position="12.889078,52.034565"
       orientation="0,-1"
       id="guide1"
       inkscape:locked="false" />
    <sodipodi:guide
       position="7.1402881,20.018702"
       orientation="0,-1"
       id="guide2"
       inkscape:locked="false" />
  </sodipodi:namedview>
  <defs
     id="defs1" />
  <g
     inkscape:label="Layer 1"
     inkscape:groupmode="layer"
     id="layer1">
    <rect
       style="fill:#ffffff;fill-opacity:1;stroke:none;stroke-width:1.92905;stroke-linecap:square;stroke-opacity:0.58;paint-order:fill markers stroke"
       id="rect7"
       width="72"
       height="72"
       x="0"
       y="0" />
    <path
       style="fill:none;stroke:#000000;stroke-width:0.869291;stroke-linecap:square;stroke-opacity:0.58;paint-order:fill markers stroke"
       d="m 28.408064,18.584715 c -1.367659,-6.561881 5.834681,-4.961858 11.549074,-4.778927 5.335853,0.437413 7.595417,4.976546 11.018081,7.964878 6.146349,5.609071 -4.813851,9.885126 -14.204032,15.266016 -3.015543,1.867209 -9.004088,-1.626067 -8.230375,-5.309919 0.573331,-4.472967 0.577739,-8.737029 -0.132748,-13.142048 z"
       id="path2"
       sodipodi:nodetypes="cccccc" />
    <path
       style="fill:none;stroke:#000000;stroke-width:0.869291;stroke-linecap:square;stroke-opacity:0.58;paint-order:fill markers stroke"
       d="m 7.566634,20.841431 c -3.3459606,0.119589 -6.27484,-0.633244 -6.5566405,3.318699 0.193563,6.063064 0.2386118,13.830434 6.6893885,12.876552 10.453329,-3.20086 18.813791,5.237875 19.646699,-8.495869 -0.09736,-5.490712 -5.156183,-10.914122 -7.964878,-10.221594 -4.455695,0.972162 -7.396078,2.220795 -11.814569,2.522212 z"
       id="path3"
       sodipodi:nodetypes="cccccc" />
    <path
       style="fill:none;stroke:#000000;stroke-width:0.869291;stroke-linecap:square;stroke-opacity:0.58;paint-order:fill markers stroke"
       d="m 1.1427415,42.081105 -0.132748,5.065944 C 0.98616767,50.406952 2.052285,55.174584 4.3717342,56.084203 14.98283,59.035661 16.74157,60.635625 23.761886,52.16995 25.233003,50.401445 19.97374,37.761389 17.257236,38.231414 l -8.7613662,0.398244 c -3.5928064,0.0768 -6.7225606,-0.03797 -7.3531283,3.451447 z"
       id="path4"
       sodipodi:nodetypes="ccccccc" />
    <path
       style="fill:none;stroke:#000000;stroke-width:0.869291;stroke-linecap:square;stroke-opacity:0.58;paint-order:fill markers stroke"
       d="M 48.054764,53.895674 C 52.402617,60.574788 36.97469,61.860867 34.647219,59.072845 20.858033,44.899334 21.05842,36.843413 27.213333,37.965918 c 12.878261,1.417518 16.54162,8.248366 20.841431,15.929756 z"
       id="path5"
       sodipodi:nodetypes="cccc" />
    <path
       style="fill:none;stroke:#000000;stroke-width:0.869291;stroke-linecap:square;stroke-opacity:0.58;paint-order:fill markers stroke"
       d="m 70.48917,25.753105 0.398244,7.035643 c -0.08058,5.363404 -0.932509,6.363238 -3.451447,6.047649 L 53.762926,37.16943 c -4.634136,-0.809986 -3.2013,-4.53399 -2.389463,-6.106406 2.002203,-3.515221 6.893249,-7.360406 4.449984,-9.862806 -5.97352,-6.118101 -2.577719,-6.568217 0.0025,-6.756804 2.902754,0.05973 6.237611,0.557106 9.220544,0.557106 7.532344,-0.366171 5.426344,6.014424 5.442667,10.752585 z"
       id="path6"
       sodipodi:nodetypes="cccccscccc" />
    <path
       style="fill:none;stroke:#000000;stroke-width:0.869291;stroke-linecap:square;stroke-opacity:0.58;paint-order:fill markers stroke"
       d="m 68.763446,41.284617 c 3.154903,0.147175 3.051755,8.94675 0.956082,10.774106 -0.09062,0.104219 -12.586116,7.951096 -22.195756,-2.410984 l -4.362785,-5.661497 c -6.041375,-6.964004 3.592026,-13.545116 6.884996,-6.816812 1.909407,3.764484 11.680505,4.12978 18.717463,4.115187 z"
       id="path7"
       sodipodi:nodetypes="cccccc" />
  </g>
</svg>
