<?xml version="1.0" encoding="UTF-8" standalone="no"?>
<!-- Created with Inkscape (http://www.inkscape.org/) -->

<svg
   width="72"
   height="72"
   viewBox="0 0 72 72"
   version="1.1"
   id="svg1"
   inkscape:version="1.3.2 (091e20e, 2023-11-25)"
   sodipodi:docname="Path5.svg"
   xmlns:inkscape="http://www.inkscape.org/namespaces/inkscape"
   xmlns:sodipodi="http://sodipodi.sourceforge.net/DTD/sodipodi-0.dtd"
   xmlns="http://www.w3.org/2000/svg"
   xmlns:svg="http://www.w3.org/2000/svg">
  <sodipodi:namedview
     id="namedview1"
     pagecolor="#ffffff"
     bordercolor="#000000"
     borderopacity="0.25"
     inkscape:showpageshadow="2"
     inkscape:pageopacity="0.0"
     inkscape:pagecheckerboard="0"
     inkscape:deskcolor="#d1d1d1"
     inkscape:document-units="px"
     showguides="true"
     inkscape:zoom="3.862952"
     inkscape:cx="8.9309937"
     inkscape:cy="19.803508"
     inkscape:window-width="1440"
     inkscape:window-height="872"
     inkscape:window-x="0"
     inkscape:window-y="28"
     inkscape:window-maximized="0"
     inkscape:current-layer="layer1">
    <sodipodi:guide
       position="20.034993,32.751639"
       orientation="1,0"
       id="guide1"
       inkscape:locked="false" />
    <sodipodi:guide
       position="51.992514,34.473893"
       orientation="1,0"
       id="guide2"
       inkscape:locked="false" />
    <sodipodi:guide
       position="41.73002,52.010805"
       orientation="0,-1"
       id="guide3"
       inkscape:locked="false" />
    <sodipodi:guide
       position="38.741945,20.007486"
       orientation="0,-1"
       id="guide4"
       inkscape:locked="false" />
  </sodipodi:namedview>
  <defs
     id="defs1" />
  <g
     inkscape:label="Layer 1"
     inkscape:groupmode="layer"
     id="layer1">
    <rect
       style="fill:#ffffff;fill-opacity:1;stroke:none;stroke-width:1.92905;stroke-linecap:square;stroke-opacity:0.58;paint-order:fill markers stroke"
       id="rect7"
       width="72"
       height="72"
       x="0"
       y="0"
       sodipodi:insensitive="true" />
    <path
       style="fill:none;stroke:#000000;stroke-width:0.869291;stroke-linecap:square;stroke-opacity:0.58;paint-order:fill markers stroke"
       d="m 25.041432,40.242486 -0.132747,5.065944 c -0.02383,3.259903 1.042291,8.027535 3.36174,8.937154 10.611096,2.951458 12.369836,4.551422 19.390152,-3.914253 1.471117,-1.768505 -3.417636,-13.034685 -6.13414,-12.56466 l -9.131876,-0.975632 c -3.592807,0.0768 -6.722561,-0.03797 -7.353129,3.451447 z"
       id="path4"
       sodipodi:nodetypes="ccccccc" />
    <path
       style="fill:none;stroke:#000000;stroke-width:0.79041;stroke-linecap:square;stroke-opacity:0.58;paint-order:fill markers stroke"
       d="m 54.380479,41.596695 c 3.773157,1.261255 6.794735,-1.514424 12.15241,0 6.659989,3.362798 7.382469,11.005477 -2.761911,10.088394 l -8.42383,-0.453412 C 46.992964,50.813779 48.481273,40.145219 54.380479,41.596695 Z"
       id="path7"
       sodipodi:nodetypes="ccccc" />
    <path
       style="fill:none;stroke:#000000;stroke-width:0.783014;stroke-linecap:square;stroke-dasharray:none;stroke-opacity:0.58;paint-order:fill markers stroke"
       d="m 51.289436,27.61624 0.402234,4.35802 c -0.08139,3.3222 -0.941852,3.941518 -3.486028,3.746036 -5.336366,0.06757 -12.679075,0.87252 -13.372706,-2.937878 0.03317,-0.09231 -0.272963,-0.883554 0.583131,-2.346737 0.927117,-1.584569 0.736268,-4.303658 0.460733,-6.337378 -0.263205,-1.942711 -0.558557,-3.514781 0.602485,-3.487514 2.931838,0.037 6.300107,0.345084 9.312927,0.345084 7.607813,-0.226814 5.480712,3.725455 5.497199,6.660367 z"
       id="path6"
       sodipodi:nodetypes="ccccsscccc" />
    <path
       style="fill:none;stroke:#000000;stroke-width:0.869291;stroke-linecap:square;stroke-dasharray:none;stroke-opacity:0.58;paint-order:fill markers stroke"
       d="M 68.229405,37.760465 C 66.709295,42.585388 53.442698,36.679246 53.668374,34.449805 53.254653,22.293571 59.249702,20.634589 63.985312,20.221422 74.87116,19.517581 70.664125,32.250364 68.229405,37.760465 Z"
       id="path5"
       sodipodi:nodetypes="cccc" />
    <path
       style="fill:none;stroke:#000000;stroke-width:0.86929134;stroke-linecap:square;stroke-dasharray:none;stroke-opacity:0.58;paint-order:fill markers stroke"
       d="M 20.459307,49.871083 C 18.473251,54.665209 1.1401622,48.796766 1.4350127,46.581555 0.89447747,34.502913 8.9638978,30.993912 14.282945,34.06452 c 12.037912,6.009535 9.190457,10.585516 6.176362,15.806563 z"
       id="path5-4"
       sodipodi:nodetypes="cccc" />
    <path
       style="fill:none;stroke:#000000;stroke-width:0.86929134;stroke-linecap:square;stroke-dasharray:none;stroke-opacity:0.58;paint-order:fill markers stroke"
       d="m 20.702946,57.202441 c -2.650623,0.95922 1.559613,8.70122 3.365649,12.918089 0.869657,1.60841 5.794677,1.689391 10.818153,0.150211 1.443315,-0.341663 -2.796017,-5.475422 -2.404034,-7.059886 0.682966,-6.755062 4.746728,-6.138659 -11.779768,-6.008414 z"
       id="path2"
       sodipodi:nodetypes="ccccc" />
    <path
       style="fill:none;stroke:#000000;stroke-width:0.869291;stroke-linecap:square;stroke-dasharray:none;stroke-opacity:0.58;paint-order:fill markers stroke"
       d="m 29.419964,19.622171 c -0.726166,-0.64758 -7.759386,0.69303 -10.257985,0.634524 -43.120742,-0.927745 3.829129,15.642605 4.410932,15.500481 8.135171,0.176106 8.390334,1.358956 9.950248,-8.520733 0.07774,-3.227432 -0.652802,-6.265207 -4.103195,-7.614272 z"
       id="path5-8"
       sodipodi:nodetypes="ccccc" />
    <path
       style="fill:none;stroke:#000000;stroke-width:0.86929134;stroke-linecap:square;stroke-dasharray:none;stroke-opacity:0.58;paint-order:fill markers stroke"
       d="m 45.312818,71.027416 c 5.993308,2.552206 8.785422,-5.555443 7.050391,-13.98917 -0.698862,-2.79603 -4.622672,-3.118501 -6.393686,-1.685183 -2.863963,2.209381 -7.285692,5.062075 -7.6179,5.830025 -2.898562,5.213544 4.380191,9.200061 6.961195,9.844328 z"
       id="path3"
       sodipodi:nodetypes="ccccc" />
  </g>
</svg>
