<?xml version="1.0" encoding="UTF-8" standalone="no"?>
<!-- Created with Inkscape (http://www.inkscape.org/) -->

<svg
   width="72"
   height="72"
   viewBox="0 0 72 72"
   version="1.1"
   id="svg1"
   inkscape:version="1.3.2 (091e20e, 2023-11-25)"
   sodipodi:docname="Path2.svg"
   xmlns:inkscape="http://www.inkscape.org/namespaces/inkscape"
   xmlns:sodipodi="http://sodipodi.sourceforge.net/DTD/sodipodi-0.dtd"
   xmlns="http://www.w3.org/2000/svg"
   xmlns:svg="http://www.w3.org/2000/svg">
  <sodipodi:namedview
     id="namedview1"
     pagecolor="#ffffff"
     bordercolor="#000000"
     borderopacity="0.25"
     inkscape:showpageshadow="2"
     inkscape:pageopacity="0.0"
     inkscape:pagecheckerboard="0"
     inkscape:deskcolor="#d1d1d1"
     inkscape:document-units="px"
     showguides="true"
     inkscape:zoom="5.8287584"
     inkscape:cx="11.237385"
     inkscape:cy="48.123456"
     inkscape:window-width="1440"
     inkscape:window-height="872"
     inkscape:window-x="0"
     inkscape:window-y="28"
     inkscape:window-maximized="0"
     inkscape:current-layer="layer1">
    <sodipodi:guide
       position="19.97115,79.502116"
       orientation="1,0"
       id="guide1"
       inkscape:locked="false" />
    <sodipodi:guide
       position="51.998897,80.284079"
       orientation="1,0"
       id="guide2"
       inkscape:locked="false" />
  </sodipodi:namedview>
  <defs
     id="defs1" />
  <g
     inkscape:label="Layer 1"
     inkscape:groupmode="layer"
     id="layer1">
    <rect
       style="fill:#ffffff;fill-opacity:1;stroke:none;stroke-width:1.92905;stroke-linecap:square;stroke-opacity:0.58;paint-order:fill markers stroke"
       id="rect7"
       width="72"
       height="72"
       x="0"
       y="0"
       sodipodi:insensitive="true" />
    <path
       style="fill:none;stroke:#000000;stroke-width:0.869291;stroke-linecap:square;stroke-opacity:0.58;paint-order:fill markers stroke"
       d="m 34.345412,5.0161107 -0.132747,5.0659443 c -0.02383,3.259903 1.042291,8.027535 3.36174,8.937154 10.611096,2.951458 12.369836,4.551422 19.390152,-3.914253 1.471117,-1.768505 -3.788146,-14.40856128 -6.50465,-13.9385363 l -8.761366,0.398244 c -3.592807,0.0768 -6.722561,-0.03797 -7.353129,3.451447 z"
       id="path4"
       sodipodi:nodetypes="ccccccc" />
    <path
       style="fill:none;stroke:#000000;stroke-width:0.869291;stroke-linecap:square;stroke-opacity:0.58;paint-order:fill markers stroke"
       d="m 31.372834,2.2016024 c -0.0014,-0.9426993 -8.315951,-1.21554461 -13.347215,0.2752003 -3.034284,1.7573852 1.785357,15.9415003 3.852805,23.6672253 0.995535,2.946765 6.63342,3.095129 12.384013,0.2752 1.652225,-0.625961 -0.836666,-8.708109 -2.752003,-12.934413 -1.215773,-3.6370404 0.06024,-7.5242444 -0.1376,-11.2832126 z"
       id="path2"
       sodipodi:nodetypes="cccccc" />
    <path
       style="fill:none;stroke:#000000;stroke-width:0.869291;stroke-linecap:square;stroke-opacity:0.58;paint-order:fill markers stroke"
       d="m 40.041643,24.080026 c 4.907339,-1.296153 14.704339,0.430695 14.998416,3.577604 l 1.100801,9.35681 c -0.0252,2.48319 0.595698,5.325319 -2.339202,6.192006 -3.106896,0.98269 -6.077425,-0.127438 -8.80641,-0.1376 -2.28872,0.04349 -8.393609,-4.291836 -8.393609,-12.246413 0.440946,-3.157657 0.797984,-5.087852 3.440004,-6.742407 z"
       id="path3"
       sodipodi:nodetypes="ccccccc" />
    <path
       style="fill:none;stroke:#000000;stroke-width:0.869291;stroke-linecap:square;stroke-opacity:0.58;paint-order:fill markers stroke"
       d="M 31.782138,31.717708 C 30.808061,30.734685 20.888407,29.035029 18.022123,32.68091 l -3.715204,6.742407 c -1.52,3.234416 -4.3906402,17.611092 9.63201,16.787218 10.767337,-1.586126 10.903377,-2.424228 13.347215,-12.934414 0.104203,-4.899159 -2.60977,-7.940617 -5.504006,-11.558413 z"
       id="path5"
       sodipodi:nodetypes="cccccc" />
    <path
       style="fill:none;stroke:#000000;stroke-width:0.869291;stroke-linecap:square;stroke-opacity:0.58;paint-order:fill markers stroke"
       d="m 41.142444,45.958449 c -1.938166,-0.646027 -11.497821,18.782579 1.823083,24.074228 3.412004,1.951875 6.599354,0.825177 11.639522,0.807256 2.095191,-0.04403 1.827902,-3.797283 1.673412,-6.580664 C 55.475855,51.538141 57.86302,44.208182 41.142444,45.958449 Z"
       id="path6"
       sodipodi:nodetypes="ccccc" />
    <path
       style="fill:none;stroke:#000000;stroke-width:0.869291;stroke-linecap:square;stroke-opacity:0.58;paint-order:fill markers stroke"
       d="m 17.475219,58.892863 c 3.759621,1.531051 6.770359,-1.838376 12.108813,0 6.636096,4.082138 7.355984,13.359672 -2.752003,12.246414 L 18.43842,70.588876 C 10.114208,70.081585 11.597177,57.1309 17.475219,58.892863 Z"
       id="path7"
       sodipodi:nodetypes="ccccc" />
  </g>
</svg>
