<?xml version="1.0" encoding="UTF-8" standalone="no"?>
<!-- Created with Inkscape (http://www.inkscape.org/) -->

<svg
   width="72"
   height="72"
   viewBox="0 0 72 72"
   version="1.1"
   id="svg1"
   inkscape:version="1.3.2 (091e20e, 2023-11-25, custom)"
   sodipodi:docname="Coral-1.svg"
   xmlns:inkscape="http://www.inkscape.org/namespaces/inkscape"
   xmlns:sodipodi="http://sodipodi.sourceforge.net/DTD/sodipodi-0.dtd"
   xmlns="http://www.w3.org/2000/svg"
   xmlns:svg="http://www.w3.org/2000/svg">
  <sodipodi:namedview
     id="namedview1"
     pagecolor="#ffffff"
     bordercolor="#000000"
     borderopacity="0.25"
     inkscape:showpageshadow="2"
     inkscape:pageopacity="0.0"
     inkscape:pagecheckerboard="0"
     inkscape:deskcolor="#d1d1d1"
     inkscape:document-units="px"
     showguides="true"
     inkscape:zoom="4.228078"
     inkscape:cx="50.850529"
     inkscape:cy="62.557976"
     inkscape:window-width="1920"
     inkscape:window-height="1017"
     inkscape:window-x="-8"
     inkscape:window-y="-8"
     inkscape:window-maximized="1"
     inkscape:current-layer="layer2">
    <sodipodi:guide
       position="20.027076,81.867202"
       orientation="1,0"
       id="guide1"
       inkscape:locked="false" />
    <sodipodi:guide
       position="51.970053,76.64093"
       orientation="1,0"
       id="guide2"
       inkscape:locked="false" />
  </sodipodi:namedview>
  <defs
     id="defs1" />
  <g
     inkscape:label="Layer 1"
     inkscape:groupmode="layer"
     id="layer1">
    <g
       inkscape:groupmode="layer"
       id="layer2"
       inkscape:label="Layer 2"
       transform="translate(12.385927,-12.282767)">
      <rect
         style="display:inline;fill:#ffffff;fill-opacity:1;stroke:none;stroke-width:2;stroke-linecap:square;stroke-dasharray:none"
         id="rect2"
         width="72"
         height="72"
         x="-12.385927"
         y="12.282767" />
      <g
         id="g33"
         inkscape:label="Bottom Left"
         transform="matrix(0.88469545,-0.88469502,0.88469545,0.88469502,-108.51582,-14.010324)"
         style="stroke-width:0.697369;stroke-dasharray:none">
        <path
           style="fill:none;fill-opacity:0.43;stroke:#000000;stroke-width:0.697369;stroke-linecap:round;stroke-dasharray:none;stroke-opacity:1"
           d="m 33.280054,141.32729 c 2.766237,-2.604 4.949595,-5.63771 7.547637,-8.18707 1.818844,-1.78477 4.032887,-3.02501 5.973124,-5.02517 1.659402,-1.71066 3.591764,-4.26207 5.378094,-5.98779"
           id="path22"
           sodipodi:nodetypes="cssc" />
        <path
           style="fill:none;fill-opacity:0.43;stroke:#000000;stroke-width:0.697369;stroke-linecap:square;stroke-dasharray:none;stroke-opacity:1"
           d="m 32.451816,141.26085 c -3.916447,-1.41686 -6.084187,-3.93619 -7.9828,-7.46219 -0.58893,-1.62616 0.578549,-0.68643 1.656547,-0.68643 -1.582798,-1.83788 -3.075774,-3.17983 -4.606712,-5.2139 -1.69599,-2.01887 -0.344266,-1.80274 1.041235,-1.56185 h 0.694156 c -2.300713,-1.63354 -4.427313,-4.02191 -5.206173,-5.72679 -1.098947,-2.1164 1.312109,-1.38831 2.603087,-1.38831 -3.403253,-3.74358 -3.990287,-4.88912 -2.429548,-4.68556 l 0.867695,0.17354 c 0.02078,-1.83179 -1.109423,-2.8127 -1.90893,-4.16494 -0.608131,-1.20925 -2.335729,-2.75495 0,-2.42955 l 1.214774,0.34708 c -1.164038,-2.3138 -6.274019,-9.94905 -1.041235,-9.197572 0.576934,-1.735578 1.051056,-6.075736 1.908931,-0.694157 l 0.173539,1.735389 1.388313,-1.56185 c 4.515778,-2.67664 -0.462771,5.09048 -0.694157,7.63572 v 1.56185 c 0.614116,-0.91085 0.75751,-1.589 1.90893,-2.08247 2.888852,-1.90214 -0.501887,7.36453 -0.694156,7.80926 l 1.388313,-0.86769 c 1.29708,-0.85903 1.725844,-0.65678 1.214774,0.69416 l -1.214774,2.95016 c -0.252168,1.15444 -0.347078,2.2973 -0.347078,3.47078 0.496437,-0.72237 0.529747,-1.98505 1.561852,-2.08247 1.634954,-0.52989 0.105882,4.58847 0.694156,6.94157 l 1.041235,-1.38831 c 1.646721,-2.54923 2.50124,1.62342 2.374049,7.66508 0.862836,-1.20597 0.405019,-0.74831 1.23938,-1.22806 1.96612,-0.63306 1.079996,3.74303 1.847146,5.50754 0.718401,1.85396 0.632573,3.90534 1.307451,5.92997 z"
           id="path17"
           sodipodi:nodetypes="cccccccccccccccccccccccccccccccc" />
        <path
           style="fill:none;fill-opacity:0.43;stroke:#000000;stroke-width:0.697369;stroke-linecap:square;stroke-dasharray:none;stroke-opacity:1"
           d="m 33.095069,140.5357 -0.841311,-2.59729 c -0.603031,-1.98521 -2.9055,-11.9434 0.149555,-9.17263 0.636675,0.66158 0.4571,1.16044 0.89732,2.0439 1.282782,-6.2629 -4.200407,-4.84564 -3.140629,-10.56847 0.234731,-0.53935 1.378044,-0.73034 3.312027,2.40575 l -1.317977,-3.95113 -1.99405,-4.88543 c -0.287628,-2.96488 1.624897,-3.2022 2.841521,0.49851 0.888179,-3.45145 -0.442379,-17.503536 3.772671,-5.05994 l 0.414833,-9.945331 c 0.862378,-1.504717 1.956266,2.124841 2.691968,4.515801 l 4.037951,-10.497951 0.997025,-1.59524 c 1.020614,-1.491952 1.555806,-1.250254 1.794645,0.04985 l -0.04373,2.21685 -0.09088,2.495262 c 1.330379,-0.895749 5.797455,-10.416887 6.366022,-7.104972 v 0.697917 0.79762 c 2.465236,-1.220822 6.431676,-4.914216 5.383935,-0.348959 -0.524557,0.927263 -1.267703,1.355332 -2.143604,1.894348 3.974455,1.753106 -0.292932,1.942363 -2.143602,2.492562 -1.539062,0.329097 -3.234834,1.643173 -4.704215,2.202937 l 1.741621,0.291194 1.516907,-0.0016 c 1.558633,0.110707 1.846513,0.514664 0.498513,1.296132 -2.910411,1.97354 -9.387575,5.30749 -12.266619,7.26524 l 5.436998,-2.42962 c 7.621044,0.0138 -4.605913,4.36938 -7.029027,6.58036 10.789329,-1.38423 4.464633,0.30053 -0.815257,3.39564 -1.026598,0.64749 -2.182102,1.25761 -2.823884,2.23755 2.854432,-0.72529 6.743851,-2.12429 3.688994,0.99703 -1.221468,1.5949 -1.924697,2.15202 -2.741819,4.33706 l -0.294608,1.565 2.737319,-1.66471 c 3.578971,-1.40763 -1.048492,4.94018 -2.691967,7.17858 -0.32892,1.04165 -0.889189,2.04677 -1.246282,2.94123 l 1.096728,-0.64807 c 0.441899,-0.0916 1.114887,-0.83803 1.246281,-0.0499 -0.09128,3.41367 -2.993959,6.85403 -4.293367,10.12489 z"
           id="path18"
           sodipodi:nodetypes="cccccccccccccccccccccccccccccccccccccccccc" />
        <path
           style="fill:none;fill-opacity:0.43;stroke:#000000;stroke-width:0.697369;stroke-linecap:square;stroke-dasharray:none;stroke-opacity:1"
           d="m 33.318602,140.55801 c 2.268729,-2.83409 6.686332,-17.70834 8.833304,-10.38301 0.589781,-1.36648 2.339672,-10.62674 4.494137,-6.66372 0.258284,0.60348 0.516567,1.24393 0.774851,2.47953 2.839669,-8.47408 3.026652,-11.61228 4.649107,-8.83331 l 0.619881,2.78947 c 1.518969,-2.06426 3.679883,-7.13765 4.029227,-3.71929 0,2.11608 -0.463035,3.04251 -2.302356,4.55053 l 1.837445,-0.21136 c 8.177616,-0.2454 -4.215411,5.16642 -7.283602,6.50875 l 2.014614,0.30994 c 6.132199,2.35233 -5.278762,2.54777 -6.508751,3.71928 15.075509,-1.18856 -5.554863,9.49288 -10.228036,10.38301 -1.954372,0.57101 -1.08573,-0.37032 -0.929821,-0.92982 z"
           id="path19"
           sodipodi:nodetypes="cccccccccccccc" />
        <path
           style="fill:none;fill-opacity:0.43;stroke:#000000;stroke-width:0.697369;stroke-linecap:round;stroke-dasharray:none;stroke-opacity:1"
           d="m 31.958552,140.65499 c -1.858766,-2.33958 -3.184813,-5.03548 -4.609985,-7.6483 l -3.437251,-7.77117 c -3.048818,-5.41459 -3.527112,-11.40894 -4.690244,-17.41845 -0.177709,-1.79335 -0.71471,-3.6534 -0.988694,-5.44675"
           id="path20"
           sodipodi:nodetypes="ccccc" />
        <path
           style="fill:none;fill-opacity:0.43;stroke:#000000;stroke-width:0.697369;stroke-linecap:round;stroke-dasharray:none;stroke-opacity:1"
           d="m 32.978877,139.21905 c 1.072268,-5.8379 2.183534,-12.00103 1.58118,-18.67297 -1.489176,-6.43575 3.783199,-11.57209 7.152952,-17.31768 3.212555,-4.130074 6.575697,-7.08647 9.863546,-10.240012"
           id="path21"
           sodipodi:nodetypes="cccc" />
      </g>
    </g>
  </g>
</svg>
