<?xml version="1.0" encoding="UTF-8" standalone="no"?>
<!-- Created with Inkscape (http://www.inkscape.org/) -->

<svg
   width="72"
   height="72"
   viewBox="0 0 72 72"
   version="1.1"
   id="svg1"
   inkscape:version="1.3.2 (091e20e, 2023-11-25, custom)"
   sodipodi:docname="GemSpecialPath4.svg"
   xmlns:inkscape="http://www.inkscape.org/namespaces/inkscape"
   xmlns:sodipodi="http://sodipodi.sourceforge.net/DTD/sodipodi-0.dtd"
   xmlns="http://www.w3.org/2000/svg"
   xmlns:svg="http://www.w3.org/2000/svg">
  <sodipodi:namedview
     id="namedview1"
     pagecolor="#ffffff"
     bordercolor="#000000"
     borderopacity="0.25"
     inkscape:showpageshadow="2"
     inkscape:pageopacity="0.0"
     inkscape:pagecheckerboard="0"
     inkscape:deskcolor="#d1d1d1"
     inkscape:document-units="px"
     showguides="true"
     inkscape:zoom="8.4561559"
     inkscape:cx="36.186655"
     inkscape:cy="33.880643"
     inkscape:window-width="1920"
     inkscape:window-height="1017"
     inkscape:window-x="-8"
     inkscape:window-y="-8"
     inkscape:window-maximized="1"
     inkscape:current-layer="layer2">
    <sodipodi:guide
       position="20.027076,81.867202"
       orientation="1,0"
       id="guide1"
       inkscape:locked="false" />
    <sodipodi:guide
       position="51.970053,76.64093"
       orientation="1,0"
       id="guide2"
       inkscape:locked="false" />
    <sodipodi:guide
       position="-15.19603,51.955431"
       orientation="0,-1"
       id="guide3"
       inkscape:locked="false" />
    <sodipodi:guide
       position="-5.7698047,19.988138"
       orientation="0,-1"
       id="guide4"
       inkscape:locked="false" />
  </sodipodi:namedview>
  <defs
     id="defs1" />
  <g
     inkscape:label="Layer 1"
     inkscape:groupmode="layer"
     id="layer1">
    <g
       inkscape:groupmode="layer"
       id="layer2"
       inkscape:label="Layer 2"
       transform="translate(12.385927,-12.282767)">
      <rect
         style="display:inline;fill:#ffffff;fill-opacity:1;stroke:none;stroke-width:2;stroke-linecap:square;stroke-dasharray:none"
         id="rect2"
         width="72"
         height="72"
         x="-84.39782"
         y="-12.270878"
         transform="rotate(-90)" />
      <path
         style="fill:none;fill-rule:evenodd;stroke:#000000;stroke-width:0.9;stroke-linecap:square;stroke-miterlimit:26.8;stroke-opacity:0.577528"
         d="m 6.870945,63.599008 c 0.06499,-1.631021 0.281705,-3.210979 1.855783,-4.577597 2.483438,-2.231717 5.335076,-2.502378 8.165444,-0.494876 1.357222,1.447072 2.543391,3.065197 2.598095,5.814786 0.05508,2.003892 -0.398854,3.63581 -2.474377,4.082722 -4.864203,0.829674 -8.485849,-0.05513 -10.144945,-4.825035 z"
         id="path1"
         sodipodi:nodetypes="cccccc" />
      <path
         style="fill:none;fill-rule:evenodd;stroke:#000000;stroke-width:0.9;stroke-linecap:square;stroke-miterlimit:26.8;stroke-opacity:0.577528"
         d="m 26.846035,26.687989 c 0.06499,-1.631021 0.281705,-3.210979 1.855783,-4.577597 2.483438,-2.231717 5.335076,-2.502378 8.165444,-0.494876 1.357222,1.447072 2.543391,3.065197 2.598095,5.814786 0.05508,2.003893 -0.398854,3.635811 -2.474377,4.082722 -4.864203,0.829674 -8.485849,-0.05513 -10.144945,-4.825035 z"
         id="path1-55"
         sodipodi:nodetypes="cccccc" />
      <path
         style="fill:none;fill-rule:evenodd;stroke:#000000;stroke-width:0.9;stroke-linecap:square;stroke-miterlimit:26.8;stroke-opacity:0.577528"
         d="m 2.406141,45.515816 c 1.107861,1.19879 2.072359,2.46882 1.926547,4.548268 -0.176577,3.334193 -2.000665,5.542767 -5.421308,6.126076 -6.210095,6.60831 -7.64673,-6.043492 -7.089014,-6.908102 2.851131,-4.027391 6.03685,-5.963985 10.583775,-3.766242 z"
         id="path1-5"
         sodipodi:nodetypes="ccccc" />
      <path
         style="fill:none;fill-rule:evenodd;stroke:#000000;stroke-width:0.9;stroke-linecap:round;stroke-miterlimit:26.8;stroke-dasharray:none;stroke-opacity:0.577528"
         d="m 54.391678,55.606673 c -0.570506,-1.077167 -0.81361,-2.209887 0.02664,-3.526428 0.901619,-1.269986 2.001659,-1.466918 3.140466,-1.454202 0.91719,0.174543 2.289984,-0.349333 0.960585,3.269121 -0.441853,1.077442 -0.644129,2.322423 -1.764799,2.925162 -0.813525,-0.01744 -1.620036,-0.139718 -2.362896,-1.213653 z"
         id="path3-2"
         sodipodi:nodetypes="cccccc" />
      <path
         style="fill:none;fill-rule:evenodd;stroke:#000000;stroke-width:0.9;stroke-linecap:round;stroke-miterlimit:26.8;stroke-dasharray:none;stroke-opacity:0.577528"
         d="m 4.961973,60.891559 c 1.155764,-2.05954 3.855927,-4.781024 -1.49669,-4.051014 -1.787658,1.528263 -0.08424,5.861623 1.49669,4.051014 z"
         id="path6"
         sodipodi:nodetypes="ccc" />
      <path
         style="fill:none;fill-rule:evenodd;stroke:#000000;stroke-width:0.9;stroke-linecap:round;stroke-miterlimit:26.8;stroke-dasharray:none;stroke-opacity:0.577528"
         d="m 10.946512,32.22018 c 1.155764,-2.05954 3.855927,-4.781024 -1.49669,-4.051014 -1.787658,1.528263 -0.08424,5.861623 1.49669,4.051014 z"
         id="path6-3"
         sodipodi:nodetypes="ccc" />
      <path
         style="fill:none;fill-rule:evenodd;stroke:#000000;stroke-width:0.9;stroke-linecap:round;stroke-miterlimit:26.8;stroke-dasharray:none;stroke-opacity:0.577528"
         d="m 56.15971,32.856179 c -0.529559,2.301535 -2.354864,5.672828 2.576084,3.466207 1.285413,-1.969524 -1.568492,-5.6485 -2.576084,-3.466207 z"
         id="path6-5"
         sodipodi:nodetypes="ccc" />
      <path
         style="fill:none;fill-rule:evenodd;stroke:#000000;stroke-width:0.9;stroke-linecap:round;stroke-miterlimit:26.8;stroke-dasharray:none;stroke-opacity:0.577528"
         d="m -2.609012,70.374386 c 0.839065,0.02306 3.467327,-0.662234 2.551701,-1.902177 -1.082142,-1.325205 -0.847816,-2.751554 -0.247437,-4.082722 2.189034,-2.384517 2.484975,-4.315317 -0.309298,-5.505488 -1.409076,-0.151268 -2.084318,0.431299 -2.907393,0.866032 -0.526124,0.563856 -0.465728,1.303668 -0.618594,1.979501 0.930155,5.326714 -0.578865,8.036545 1.53102,8.629389"
         id="path8"
         sodipodi:nodetypes="ccccccc" />
      <path
         style="fill:none;fill-rule:evenodd;stroke:#000000;stroke-width:0.9;stroke-linecap:round;stroke-miterlimit:26.8;stroke-dasharray:none;stroke-opacity:0.577528"
         d="m 22.713088,17.056275 c 0.185099,0.818719 1.498908,3.195964 2.473988,2.002209 1.016527,-1.37618 2.45653,-1.501767 3.894806,-1.249132 2.851691,1.531552 4.795718,1.340952 5.25811,-1.660825 -0.201795,-1.402731 -0.933218,-1.912983 -1.557946,-2.603027 -0.676426,-0.370388 -1.37834,-0.128963 -2.070986,-0.109996 -4.931391,2.21821 -7.930177,1.42599 -7.982987,3.616947"
         id="path8-1"
         sodipodi:nodetypes="ccccccc" />
      <path
         style="fill:none;fill-rule:evenodd;stroke:#000000;stroke-width:0.9;stroke-linecap:round;stroke-miterlimit:26.8;stroke-dasharray:none;stroke-opacity:0.577528"
         d="m 43.173057,55.781968 c -0.330374,0.771631 -0.660938,3.467574 0.829027,3.072812 1.630546,-0.518187 2.870414,0.224852 3.887009,1.273182 1.411014,2.913217 3.097209,3.899278 5.232604,1.73952 0.659456,-1.254392 0.366435,-2.096695 0.265293,-3.022014 C 53.056463,58.148696 52.346385,57.932455 51.774315,57.541489 46.47933,56.445034 44.51548,54.04428 43.187437,55.787661"
         id="path8-7"
         sodipodi:nodetypes="ccccccc" />
      <path
         style="fill:none;fill-rule:evenodd;stroke:#000000;stroke-width:0.9;stroke-linecap:round;stroke-miterlimit:26.8;stroke-dasharray:none;stroke-opacity:0.577528"
         d="m 12.995028,55.433564 c 2.498835,0.262322 2.737202,-0.954935 2.041361,-2.783674 l -1.05161,-3.464128 c -0.396921,-1.984561 -6.082159,0.08595 -7.918007,3.340409 -0.825021,1.319744 -0.242935,2.367288 0.680454,2.907393 2.003214,0.991841 4.053173,-0.334206 6.247802,0 z"
         id="path9"
         sodipodi:nodetypes="cccccc" />
      <path
         style="fill:none;fill-rule:evenodd;stroke:#000000;stroke-width:0.9;stroke-linecap:round;stroke-miterlimit:26.8;stroke-dasharray:none;stroke-opacity:0.577528"
         d="m 8.7976,20.861336 c 6.146609,11.262544 8.241539,0.644329 5.950254,-7.408359 -1.00348,-1.189711 -2.178992,-0.956591 -2.976047,-0.243103 C 8.18182,14.055299 5.325777,17.21112 8.7976,20.861336 Z"
         id="path9-8"
         sodipodi:nodetypes="cccc" />
      <path
         style="fill:none;fill-rule:evenodd;stroke:#000000;stroke-width:0.9;stroke-linecap:round;stroke-miterlimit:26.8;stroke-dasharray:none;stroke-opacity:0.577528"
         d="m 37.575453,59.561188 c 8.837512,-9.301831 -1.911882,-8.042564 -8.875201,-3.394129 -0.825021,1.319744 -0.242935,2.367288 0.680454,2.907393 1.90474,3.158278 5.783869,4.910004 8.194747,0.486736 z"
         id="path9-8-6"
         sodipodi:nodetypes="cccc" />
      <path
         style="fill:none;fill-rule:evenodd;stroke:#000000;stroke-width:0.9;stroke-linecap:round;stroke-miterlimit:26.8;stroke-dasharray:none;stroke-opacity:0.577528"
         d="m 49.659051,31.512746 c 2.237182,0.255084 2.941277,1.866302 3.031112,3.897144 -0.441801,0.856674 -1.32968,1.133445 -2.350658,1.237189 -1.040357,-0.03733 -1.946729,-0.184274 -2.350658,-0.742314 -0.702122,-1.856436 -0.01656,-3.393059 1.670204,-4.392019 z"
         id="path10-0"
         sodipodi:nodetypes="ccccc" />
      <path
         style="fill:none;fill-rule:evenodd;stroke:#000000;stroke-width:0.9;stroke-linecap:round;stroke-miterlimit:26.8;stroke-dasharray:none;stroke-opacity:0.577528"
         d="m 21.40791,63.475289 c 0.625281,1.912789 2.264348,0.902739 3.525987,1.05161 1.313838,-0.01794 1.676336,-0.113091 2.041361,-0.989751 0.973157,-3.433639 0.152161,-5.613754 -2.76802,-7.090675 -1.806315,-0.197905 -1.542152,2.016168 -3.330441,1.934473 -1.606435,-0.121809 -0.0545,3.024108 0.531113,5.094343 z"
         id="path11"
         sodipodi:nodetypes="cccccc" />
      <path
         style="fill:none;fill-rule:evenodd;stroke:#000000;stroke-width:0.9;stroke-linecap:round;stroke-miterlimit:26.8;stroke-dasharray:none;stroke-opacity:0.577528"
         d="m 19.304689,56.547034 c -1.255075,-0.158356 -2.257848,-0.608851 -2.412517,-2.041361 0.162171,-1.07223 -0.422277,-2.14446 1.979501,-3.21669 2.309982,-0.683793 3.662574,-0.900583 6.014087,-0.461748 2.211628,0.637435 -2.565748,5.160554 -5.271774,5.657939 z"
         id="path12"
         sodipodi:nodetypes="cccccc" />
      <path
         style="fill:none;fill-rule:evenodd;stroke:#000000;stroke-width:0.9;stroke-linecap:round;stroke-miterlimit:26.8;stroke-dasharray:none;stroke-opacity:0.577528"
         d="m 17.943782,48.196011 c -0.29783,-1.98766 -1.249141,-3.249231 -3.031112,-3.587846 -6.420301,1.464296 -1.86179,2.236234 0.371157,3.15483 1.019395,0.900978 2.39742,3.846144 2.659955,0.433016 z"
         id="path13"
         sodipodi:nodetypes="cccc" />
      <path
         style="fill:none;fill-rule:evenodd;stroke:#000000;stroke-width:0.9;stroke-linecap:round;stroke-miterlimit:26.8;stroke-dasharray:none;stroke-opacity:0.577528"
         d="m 41.26275,21.155375 c -0.29783,-1.98766 -1.249141,-3.249231 -3.031112,-3.587846 -6.420301,1.464296 -1.86179,2.236234 0.371157,3.15483 1.019395,0.900978 2.39742,3.846144 2.659955,0.433016 z"
         id="path13-6"
         sodipodi:nodetypes="cccc" />
      <path
         style="fill:none;fill-rule:evenodd;stroke:#000000;stroke-width:0.9;stroke-linecap:round;stroke-miterlimit:26.8;stroke-dasharray:none;stroke-opacity:0.577528"
         d="m 5.536948,45.849639 c -0.985104,-0.972277 -2.1201,-1.734705 -2.841138,-3.076674 -1.733485,-4.85616 0.462952,-8.753212 2.133774,-8.062308 5.954096,2.172411 9.823246,4.58048 6.062223,9.897508 -0.492608,0.735404 -1.061207,1.356821 -1.670204,1.917642 -1.515329,1.292195 -2.557929,0.08568 -3.684655,-0.676168 z"
         id="path14"
         sodipodi:nodetypes="cccccc" />
      <path
         style="fill:none;fill-rule:evenodd;stroke:#000000;stroke-width:0.9;stroke-linecap:round;stroke-miterlimit:26.8;stroke-dasharray:none;stroke-opacity:0.577528"
         d="m -6.604357,42.308889 c -0.320719,-2.714879 -3.146449,-2.412482 -4.013229,0.02658 0.004,1.71229 -0.117924,2.55418 1.356391,3.577275 0.432914,0.0251 0.560823,0.487338 1.350542,0.0011 1.328487,-1.016595 1.402551,-2.293105 1.306296,-3.604906 z"
         id="path15"
         sodipodi:nodetypes="ccccc" />
      <path
         style="fill:none;fill-rule:evenodd;stroke:#000000;stroke-width:0.85;stroke-linecap:round;stroke-miterlimit:26.8;stroke-dasharray:none;stroke-opacity:0.577528"
         d="m 21.157474,16.63586 c -0.300995,-4.721625 -2.95295,-4.195707 -3.766426,0.04623 0.0038,2.977956 -0.110672,4.442143 1.272977,6.221474 0.406291,0.04365 0.526334,0.847562 1.267487,0.0019 1.246789,-1.768028 1.316298,-3.98809 1.225962,-6.26953 z"
         id="path15-9"
         sodipodi:nodetypes="ccccc" />
      <path
         style="fill:none;fill-rule:evenodd;stroke:#000000;stroke-width:0.9;stroke-linecap:round;stroke-miterlimit:26.8;stroke-dasharray:none;stroke-opacity:0.577528"
         d="m 55.582497,66.138971 c 1.640575,2.186765 3.932403,0.506372 3.457267,-2.038142 -0.86326,-1.478762 -1.180549,-2.268049 -2.969252,-2.412517 -0.386984,0.195671 -0.729702,-0.13984 -1.168469,0.677234 -0.638403,1.546215 -0.06148,2.687322 0.680454,3.773425 z"
         id="path15-4"
         sodipodi:nodetypes="ccccc" />
      <path
         style="fill:none;fill-rule:evenodd;stroke:#000000;stroke-width:0.9;stroke-linecap:round;stroke-miterlimit:26.8;stroke-dasharray:none;stroke-opacity:0.577528"
         d="m 21.218149,47.762669 c 4.569509,-0.992475 5.928116,0.506176 8.351022,2.845534 3.396134,0.290343 7.10441,0.962195 6.185943,-4.020863 l -2.381588,-6.093153 c -6.158012,-3.792684 -7.762248,-4.549852 -13.083268,-1.1444 -3.355137,3.099035 0.09467,9.023757 0.927891,8.412882 z"
         id="path16"
         sodipodi:nodetypes="cccccc" />
      <path
         style="fill:none;fill-rule:evenodd;stroke:#000000;stroke-width:0.9;stroke-linecap:round;stroke-miterlimit:26.8;stroke-dasharray:none;stroke-opacity:0.577528"
         d="m 22.391443,35.653558 c 2.92637,-0.658932 -7.945782,-5.44035 -8.474741,-5.010614 -2.465057,6.633336 -0.139297,6.710817 0.185578,9.526352 1.30745,5.498215 4.680744,-3.063018 8.289163,-4.515738 z"
         id="path17"
         sodipodi:nodetypes="cccc" />
      <path
         style="fill:none;fill-rule:evenodd;stroke:#000000;stroke-width:0.9;stroke-linecap:round;stroke-miterlimit:26.8;stroke-dasharray:none;stroke-opacity:0.577528"
         d="m 37.645099,48.434657 c -0.635155,-2.16352 0.372397,-2.970021 1.608345,-3.587847 1.685231,0.233759 3.515942,0.363603 3.525987,1.793924 0.09112,0.992632 -0.03234,1.913736 -0.680454,2.659955 -0.348521,0.470098 -0.573548,1.03001 -1.793923,0.866032 -0.99915,-0.262359 -2.056807,-0.360898 -2.659955,-1.732064 z"
         id="path18"
         sodipodi:nodetypes="cccccc" />
      <path
         style="fill:none;fill-rule:evenodd;stroke:#000000;stroke-width:0.9;stroke-linecap:round;stroke-miterlimit:26.8;stroke-dasharray:none;stroke-opacity:0.577528"
         d="m 38.535001,63.748867 c -0.635155,-2.16352 0.372397,-2.970021 1.608345,-3.587847 1.685231,0.233759 3.515942,0.363603 3.525987,1.793924 0.09112,0.992632 -0.03234,1.913736 -0.680454,2.659955 -0.348521,0.470098 -0.573548,1.03001 -1.793923,0.866032 -0.99915,-0.262359 -2.056807,-0.360898 -2.659955,-1.732064 z"
         id="path18-6"
         sodipodi:nodetypes="cccccc" />
      <path
         style="fill:none;fill-rule:evenodd;stroke:#000000;stroke-width:0.9;stroke-linecap:round;stroke-miterlimit:26.8;stroke-dasharray:none;stroke-opacity:0.577528"
         d="m 15.945941,28.421021 c -0.635155,-2.16352 0.372397,-2.970021 1.608345,-3.587847 1.685231,0.233759 3.515942,0.363603 3.525987,1.793924 0.09112,0.992632 -0.03234,1.913736 -0.680454,2.659955 -0.348521,0.470098 -0.573548,1.03001 -1.793923,0.866032 -0.99915,-0.262359 -2.056807,-0.360898 -2.659955,-1.732064 z"
         id="path18-6-2"
         sodipodi:nodetypes="cccccc" />
      <path
         style="fill:none;fill-rule:evenodd;stroke:#000000;stroke-width:0.532437;stroke-linecap:round;stroke-miterlimit:26.8;stroke-dasharray:none;stroke-opacity:0.577528"
         d="m -3.422929,41.632902 c -0.375514,-1.280757 0.220167,-1.758189 0.950878,-2.123929 0.996335,0.138381 2.078679,0.215246 2.084618,1.061965 0.05387,0.587617 -0.01912,1.132891 -0.402295,1.574637 -0.206051,0.278288 -0.33909,0.609743 -1.060595,0.512672 -0.590713,-0.155311 -1.216016,-0.213644 -1.572606,-1.025345 z"
         id="path18-7-1"
         sodipodi:nodetypes="cccccc" />
      <path
         style="fill:none;fill-rule:evenodd;stroke:#000000;stroke-width:0.532437;stroke-linecap:round;stroke-miterlimit:26.8;stroke-dasharray:none;stroke-opacity:0.577528"
         d="m 39.380623,34.586042 c -0.375514,-1.280757 0.220167,-1.758189 0.950878,-2.123929 0.996335,0.138381 2.078679,0.215246 2.084618,1.061965 0.05387,0.587617 -0.01912,1.132891 -0.402295,1.574637 -0.206051,0.278288 -0.33909,0.609743 -1.060595,0.512672 -0.590713,-0.155311 -1.216016,-0.213644 -1.572606,-1.025345 z"
         id="path18-7-1-1"
         sodipodi:nodetypes="cccccc" />
      <path
         style="fill:none;fill-rule:evenodd;stroke:#000000;stroke-width:0.532437;stroke-linecap:round;stroke-miterlimit:26.8;stroke-dasharray:none;stroke-opacity:0.577528"
         d="m 36.260376,15.361993 c -0.375514,-1.280757 0.220167,-1.758189 0.950878,-2.123929 0.996335,0.138381 2.078679,0.215246 2.084618,1.061965 0.05387,0.587617 -0.01912,1.132891 -0.402295,1.574637 -0.206051,0.278288 -0.33909,0.609743 -1.060595,0.512672 -0.590713,-0.155311 -1.216016,-0.213644 -1.572606,-1.025345 z"
         id="path18-7-1-1-0"
         sodipodi:nodetypes="cccccc" />
      <path
         style="fill:none;fill-rule:evenodd;stroke:#000000;stroke-width:0.9;stroke-linecap:round;stroke-miterlimit:26.8;stroke-dasharray:none;stroke-opacity:0.577528"
         d="m 30.716267,36.885888 0.680454,-1.979502 c 0.02863,-0.787207 0.93194,-1.789563 -0.618595,-2.041361 -0.556243,-0.389752 -0.926054,-0.989241 -2.10322,-0.680454 -0.762177,0.742313 -0.322471,1.484627 -0.247438,2.22694 0.372586,1.15891 0.792667,2.277885 2.288799,2.474377 z"
         id="path21"
         sodipodi:nodetypes="cccccc" />
      <path
         style="fill:none;fill-rule:evenodd;stroke:#000000;stroke-width:0.9;stroke-linecap:round;stroke-miterlimit:26.8;stroke-dasharray:none;stroke-opacity:0.577528"
         d="m 50.533744,40.635689 c -2.179073,4.750622 -0.423169,6.521369 0.09445,9.229848 -0.348056,3.343811 1.050502,2.99512 2.25564,0.959079 2.044163,-3.55702 10.376251,-6.795882 3.289681,-10.785186 -1.984211,-0.416861 -4.354393,-3.112111 -5.639766,0.596259 z"
         id="path23-3"
         sodipodi:nodetypes="ccccc" />
      <path
         style="fill:none;fill-rule:evenodd;stroke:#000000;stroke-width:0.9;stroke-linecap:round;stroke-miterlimit:26.8;stroke-dasharray:none;stroke-opacity:0.577528"
         d="m 35.044563,37.259255 1.17902,2.172781 c 0.810968,7.917349 13.944689,-0.601106 1.491302,-2.353756 l -1.40273,-1.160246 c -2.855698,-2.146124 -2.164412,-0.528479 -1.267592,1.341221 z"
         id="path24"
         sodipodi:nodetypes="ccccc" />
      <path
         style="fill:none;fill-rule:evenodd;stroke:#000000;stroke-width:0.9;stroke-linecap:round;stroke-miterlimit:26.8;stroke-dasharray:none;stroke-opacity:0.577528"
         d="m -11.229908,63.542159 c 1.356409,0.788411 2.88678,0.698436 4.492567,0.227666 0.441489,-1.878375 -0.109673,-3.211076 -0.730038,-4.956759 -2.539946,-1.414331 -4.674457,-1.885623 -3.762529,4.729093 z"
         id="path26"
         sodipodi:nodetypes="cccc" />
      <path
         style="fill:none;fill-rule:evenodd;stroke:#000000;stroke-width:0.9;stroke-linecap:round;stroke-miterlimit:26.8;stroke-dasharray:none;stroke-opacity:0.577528"
         d="m -5.692223,32.527358 3.766042,-0.266398 c 1.670297,-0.112876 2.82112,0.373466 2.214056,2.887553 l -2.331216,2.192992 c -1.334061,0.869969 -2.652176,0.658049 -3.96319,-0.03566 -8.530382,0.07681 -2.748705,-2.61367 0.314308,-4.778489 z"
         id="path31-3-0"
         sodipodi:nodetypes="cccccc" />
      <path
         style="fill:none;fill-rule:evenodd;stroke:#000000;stroke-width:0.9;stroke-linecap:round;stroke-miterlimit:26.8;stroke-dasharray:none;stroke-opacity:0.577528"
         d="m 48.04491,51.879059 c -2.360394,-1.591555 -1.884126,-4.111069 -3.411815,-6.211253 0.681153,-8.570099 1.08524,-9.563239 3.149368,-6.82363 -1.411905,2.995284 0.863348,13.631526 0.262447,13.034883 z"
         id="path34"
         sodipodi:nodetypes="cccc" />
      <path
         style="fill:none;fill-rule:evenodd;stroke:#000000;stroke-width:0.9;stroke-linecap:round;stroke-miterlimit:26.8;stroke-dasharray:none;stroke-opacity:0.577528"
         d="m 26.025979,35.204364 c -2.360394,-1.591555 -1.884126,-4.111069 -3.411815,-6.211253 0.681153,-8.570099 1.08524,-9.563239 3.149368,-6.82363 -1.411905,2.995284 0.863348,13.631526 0.262447,13.034883 z"
         id="path34-3"
         sodipodi:nodetypes="cccc" />
      <path
         style="fill:#ff1e5a;fill-opacity:1;stroke:#c61c47;stroke-width:2.00001;stroke-linecap:square;stroke-opacity:1;paint-order:fill markers stroke"
         d="M 22.143244,64.036182 8.2287682,50.062362 5.7713132,30.47363 l 19.1497358,2.961554 14.00674,13.975447 2.331573,18.672882 z"
         id="path1-0"
         sodipodi:nodetypes="ccccccc" />
      <path
         style="fill:#ff1e5a;fill-opacity:1;stroke:#fffff9;stroke-width:2.00001;stroke-linecap:square;stroke-opacity:1;paint-order:fill markers stroke"
         d="m 11.972697,35.437921 9.909815,1.208498"
         id="path3-2-4"
         sodipodi:nodetypes="cc" />
    </g>
  </g>
</svg>
