<?xml version="1.0" encoding="UTF-8" standalone="no"?>
<!-- Created with Inkscape (http://www.inkscape.org/) -->

<svg
   width="72"
   height="72"
   viewBox="0 0 72 72"
   version="1.1"
   id="svg1"
   inkscape:version="1.3.2 (091e20e, 2023-11-25, custom)"
   sodipodi:docname="GemSpecialPath3.svg"
   xmlns:inkscape="http://www.inkscape.org/namespaces/inkscape"
   xmlns:sodipodi="http://sodipodi.sourceforge.net/DTD/sodipodi-0.dtd"
   xmlns="http://www.w3.org/2000/svg"
   xmlns:svg="http://www.w3.org/2000/svg">
  <sodipodi:namedview
     id="namedview1"
     pagecolor="#ffffff"
     bordercolor="#000000"
     borderopacity="0.25"
     inkscape:showpageshadow="2"
     inkscape:pageopacity="0.0"
     inkscape:pagecheckerboard="0"
     inkscape:deskcolor="#d1d1d1"
     inkscape:document-units="px"
     showguides="true"
     inkscape:zoom="8.4561559"
     inkscape:cx="36.186655"
     inkscape:cy="33.880643"
     inkscape:window-width="1920"
     inkscape:window-height="1017"
     inkscape:window-x="-8"
     inkscape:window-y="-8"
     inkscape:window-maximized="1"
     inkscape:current-layer="layer2">
    <sodipodi:guide
       position="20.027076,81.867202"
       orientation="1,0"
       id="guide1"
       inkscape:locked="false" />
    <sodipodi:guide
       position="51.970053,76.64093"
       orientation="1,0"
       id="guide2"
       inkscape:locked="false" />
    <sodipodi:guide
       position="-15.19603,51.955431"
       orientation="0,-1"
       id="guide3"
       inkscape:locked="false" />
    <sodipodi:guide
       position="-5.7698047,19.988138"
       orientation="0,-1"
       id="guide4"
       inkscape:locked="false" />
  </sodipodi:namedview>
  <defs
     id="defs1" />
  <g
     inkscape:label="Layer 1"
     inkscape:groupmode="layer"
     id="layer1">
    <g
       inkscape:groupmode="layer"
       id="layer2"
       inkscape:label="Layer 2"
       transform="translate(12.385927,-12.282767)">
      <rect
         style="display:inline;fill:#ffffff;fill-opacity:1;stroke:none;stroke-width:2;stroke-linecap:square;stroke-dasharray:none"
         id="rect2"
         width="72"
         height="72"
         x="-59.84417"
         y="-84.282768"
         transform="scale(-1)" />
      <path
         style="fill:none;fill-rule:evenodd;stroke:#000000;stroke-width:0.9;stroke-linecap:square;stroke-miterlimit:26.8;stroke-opacity:0.577528"
         d="m 39.045361,65.140945 c -1.631021,-0.06499 -3.210979,-0.281705 -4.577597,-1.855783 -2.231717,-2.483438 -2.502378,-5.335076 -0.494876,-8.165444 1.447072,-1.357222 3.065197,-2.543391 5.814786,-2.598095 2.003892,-0.05508 3.63581,0.398854 4.082722,2.474377 0.829674,4.864203 -0.05513,8.485849 -4.825035,10.144945 z"
         id="path1"
         sodipodi:nodetypes="cccccc" />
      <path
         style="fill:none;fill-rule:evenodd;stroke:#000000;stroke-width:0.9;stroke-linecap:square;stroke-miterlimit:26.8;stroke-opacity:0.577528"
         d="m 2.1343422,45.165855 c -1.63102103,-0.06499 -3.210979,-0.281705 -4.577597,-1.855783 -2.231717,-2.483438 -2.502378,-5.335076 -0.494876,-8.165444 1.447072,-1.357222 3.06519697,-2.543391 5.814786,-2.598095 2.003893,-0.05508 3.635811,0.398854 4.082722,2.474377 0.829674,4.864203 -0.05513,8.485849 -4.825035,10.144945 z"
         id="path1-55"
         sodipodi:nodetypes="cccccc" />
      <path
         style="fill:none;fill-rule:evenodd;stroke:#000000;stroke-width:0.9;stroke-linecap:square;stroke-miterlimit:26.8;stroke-opacity:0.577528"
         d="m 20.962169,69.605749 c 1.19879,-1.107861 2.46882,-2.072359 4.548268,-1.926547 3.334193,0.176577 5.542767,2.000665 6.126076,5.421308 6.60831,6.210095 -6.043492,7.64673 -6.908102,7.089014 -4.027391,-2.851131 -5.963985,-6.03685 -3.766242,-10.583775 z"
         id="path1-5"
         sodipodi:nodetypes="ccccc" />
      <path
         style="fill:none;fill-rule:evenodd;stroke:#000000;stroke-width:0.9;stroke-linecap:round;stroke-miterlimit:26.8;stroke-dasharray:none;stroke-opacity:0.577528"
         d="m 31.053026,17.620212 c -1.077167,0.570506 -2.209887,0.81361 -3.526428,-0.02664 -1.269986,-0.901619 -1.466918,-2.001659 -1.454202,-3.140466 0.174543,-0.91719 -0.349333,-2.289984 3.269121,-0.960585 1.077442,0.441853 2.322423,0.644129 2.925162,1.764799 -0.01744,0.813525 -0.139718,1.620036 -1.213653,2.362896 z"
         id="path3-2"
         sodipodi:nodetypes="cccccc" />
      <path
         style="fill:none;fill-rule:evenodd;stroke:#000000;stroke-width:0.9;stroke-linecap:round;stroke-miterlimit:26.8;stroke-dasharray:none;stroke-opacity:0.577528"
         d="m 36.337912,67.049917 c -2.05954,-1.155764 -4.781024,-3.855927 -4.051014,1.49669 1.528263,1.787658 5.861623,0.08424 4.051014,-1.49669 z"
         id="path6"
         sodipodi:nodetypes="ccc" />
      <path
         style="fill:none;fill-rule:evenodd;stroke:#000000;stroke-width:0.9;stroke-linecap:round;stroke-miterlimit:26.8;stroke-dasharray:none;stroke-opacity:0.577528"
         d="m 7.6665332,61.065378 c -2.05954,-1.155764 -4.781024,-3.855927 -4.051014,1.49669 1.528263,1.787658 5.861623,0.08424 4.051014,-1.49669 z"
         id="path6-3"
         sodipodi:nodetypes="ccc" />
      <path
         style="fill:none;fill-rule:evenodd;stroke:#000000;stroke-width:0.9;stroke-linecap:round;stroke-miterlimit:26.8;stroke-dasharray:none;stroke-opacity:0.577528"
         d="M 8.3025322,15.85218 C 10.604067,16.381739 13.97536,18.207044 11.768739,13.276096 9.7992152,11.990683 6.1202392,14.844588 8.3025322,15.85218 Z"
         id="path6-5"
         sodipodi:nodetypes="ccc" />
      <path
         style="fill:none;fill-rule:evenodd;stroke:#000000;stroke-width:0.9;stroke-linecap:round;stroke-miterlimit:26.8;stroke-dasharray:none;stroke-opacity:0.577528"
         d="m 45.820739,74.620902 c 0.02306,-0.839065 -0.662234,-3.467327 -1.902177,-2.551701 -1.325205,1.082142 -2.751554,0.847816 -4.082722,0.247437 -2.384517,-2.189034 -4.315317,-2.484975 -5.505488,0.309298 -0.151268,1.409076 0.431299,2.084318 0.866032,2.907393 0.563856,0.526124 1.303668,0.465728 1.979501,0.618594 5.326714,-0.930155 8.036545,0.578865 8.629389,-1.53102"
         id="path8"
         sodipodi:nodetypes="ccccccc" />
      <path
         style="fill:none;fill-rule:evenodd;stroke:#000000;stroke-width:0.9;stroke-linecap:round;stroke-miterlimit:26.8;stroke-dasharray:none;stroke-opacity:0.577528"
         d="m -7.4973718,49.298802 c 0.818719,-0.185099 3.195964,-1.498908 2.002209,-2.473988 -1.37618,-1.016527 -1.501767,-2.45653 -1.249132,-3.894806 1.531552,-2.851691 1.340952,-4.795718 -1.660825,-5.25811 -1.402731,0.201795 -1.9129832,0.933218 -2.6030272,1.557946 -0.370388,0.676426 -0.128963,1.37834 -0.109996,2.070986 2.2182102,4.931391 1.4259902,7.930177 3.6169472,7.982987"
         id="path8-1"
         sodipodi:nodetypes="ccccccc" />
      <path
         style="fill:none;fill-rule:evenodd;stroke:#000000;stroke-width:0.9;stroke-linecap:round;stroke-miterlimit:26.8;stroke-dasharray:none;stroke-opacity:0.577528"
         d="m 31.228321,28.838833 c 0.771631,0.330374 3.467574,0.660938 3.072812,-0.829027 -0.518187,-1.630546 0.224852,-2.870414 1.273182,-3.887009 2.913217,-1.411014 3.899278,-3.097209 1.73952,-5.232604 -1.254392,-0.659456 -2.096695,-0.366435 -3.022014,-0.265293 -0.696772,0.330527 -0.913013,1.040605 -1.303979,1.612675 -1.096455,5.294985 -3.497209,7.258835 -1.753828,8.586878"
         id="path8-7"
         sodipodi:nodetypes="ccccccc" />
      <path
         style="fill:none;fill-rule:evenodd;stroke:#000000;stroke-width:0.9;stroke-linecap:round;stroke-miterlimit:26.8;stroke-dasharray:none;stroke-opacity:0.577528"
         d="m 30.879917,59.016862 c 0.262322,-2.498835 -0.954935,-2.737202 -2.783674,-2.041361 l -3.464128,1.05161 c -1.984561,0.396921 0.08595,6.082159 3.340409,7.918007 1.319744,0.825021 2.367288,0.242935 2.907393,-0.680454 0.991841,-2.003214 -0.334206,-4.053173 0,-6.247802 z"
         id="path9"
         sodipodi:nodetypes="cccccc" />
      <path
         style="fill:none;fill-rule:evenodd;stroke:#000000;stroke-width:0.9;stroke-linecap:round;stroke-miterlimit:26.8;stroke-dasharray:none;stroke-opacity:0.577528"
         d="m -3.6923108,63.21429 c 11.262544,-6.146609 0.644329,-8.241539 -7.4083592,-5.950254 -1.189711,1.00348 -0.956591,2.178992 -0.243103,2.976047 0.845425,3.589987 4.0012462,6.44603 7.6514622,2.974207 z"
         id="path9-8"
         sodipodi:nodetypes="cccc" />
      <path
         style="fill:none;fill-rule:evenodd;stroke:#000000;stroke-width:0.9;stroke-linecap:round;stroke-miterlimit:26.8;stroke-dasharray:none;stroke-opacity:0.577528"
         d="m 35.007541,34.436437 c -9.301831,-8.837512 -8.042564,1.911882 -3.394129,8.875201 1.319744,0.825021 2.367288,0.242935 2.907393,-0.680454 3.158278,-1.90474 4.910004,-5.783869 0.486736,-8.194747 z"
         id="path9-8-6"
         sodipodi:nodetypes="cccc" />
      <path
         style="fill:none;fill-rule:evenodd;stroke:#000000;stroke-width:0.9;stroke-linecap:round;stroke-miterlimit:26.8;stroke-dasharray:none;stroke-opacity:0.577528"
         d="m 6.9590992,22.352839 c 0.255084,-2.237182 1.866302,-2.941277 3.8971438,-3.031112 0.856674,0.441801 1.133445,1.32968 1.237189,2.350658 -0.03733,1.040357 -0.184274,1.946729 -0.742314,2.350658 -1.8564358,0.702122 -3.3930588,0.01656 -4.3920188,-1.670204 z"
         id="path10-0"
         sodipodi:nodetypes="ccccc" />
      <path
         style="fill:none;fill-rule:evenodd;stroke:#000000;stroke-width:0.9;stroke-linecap:round;stroke-miterlimit:26.8;stroke-dasharray:none;stroke-opacity:0.577528"
         d="m 38.921642,50.60398 c 1.912789,-0.625281 0.902739,-2.264348 1.05161,-3.525987 -0.01794,-1.313838 -0.113091,-1.676336 -0.989751,-2.041361 -3.433639,-0.973157 -5.613754,-0.152161 -7.090675,2.76802 -0.197905,1.806315 2.016168,1.542152 1.934473,3.330441 -0.121809,1.606435 3.024108,0.0545 5.094343,-0.531113 z"
         id="path11"
         sodipodi:nodetypes="cccccc" />
      <path
         style="fill:none;fill-rule:evenodd;stroke:#000000;stroke-width:0.9;stroke-linecap:round;stroke-miterlimit:26.8;stroke-dasharray:none;stroke-opacity:0.577528"
         d="m 31.993387,52.707201 c -0.158356,1.255075 -0.608851,2.257848 -2.041361,2.412517 -1.07223,-0.162171 -2.14446,0.422277 -3.21669,-1.979501 -0.683793,-2.309982 -0.900583,-3.662574 -0.461748,-6.014087 0.637435,-2.211628 5.160554,2.565748 5.657939,5.271774 z"
         id="path12"
         sodipodi:nodetypes="cccccc" />
      <path
         style="fill:none;fill-rule:evenodd;stroke:#000000;stroke-width:0.9;stroke-linecap:round;stroke-miterlimit:26.8;stroke-dasharray:none;stroke-opacity:0.577528"
         d="m 23.642364,54.068108 c -1.98766,0.29783 -3.249231,1.249141 -3.587846,3.031112 1.464296,6.420301 2.236234,1.86179 3.15483,-0.371157 0.900978,-1.019395 3.846144,-2.39742 0.433016,-2.659955 z"
         id="path13"
         sodipodi:nodetypes="cccc" />
      <path
         style="fill:none;fill-rule:evenodd;stroke:#000000;stroke-width:0.9;stroke-linecap:round;stroke-miterlimit:26.8;stroke-dasharray:none;stroke-opacity:0.577528"
         d="m -3.3982718,30.74914 c -1.98766,0.29783 -3.249231,1.249141 -3.587846,3.031112 1.464296,6.420301 2.236234,1.86179 3.15483,-0.371157 0.900978,-1.019395 3.84614397,-2.39742 0.433016,-2.659955 z"
         id="path13-6"
         sodipodi:nodetypes="cccc" />
      <path
         style="fill:none;fill-rule:evenodd;stroke:#000000;stroke-width:0.9;stroke-linecap:round;stroke-miterlimit:26.8;stroke-dasharray:none;stroke-opacity:0.577528"
         d="m 21.295992,66.474942 c -0.972277,0.985104 -1.734705,2.1201 -3.076674,2.841138 -4.85616,1.733485 -8.7532118,-0.462952 -8.062308,-2.133774 2.172411,-5.954096 4.58048,-9.823246 9.897508,-6.062223 0.735404,0.492608 1.356821,1.061207 1.917642,1.670204 1.292195,1.515329 0.08568,2.557929 -0.676168,3.684655 z"
         id="path14"
         sodipodi:nodetypes="cccccc" />
      <path
         style="fill:none;fill-rule:evenodd;stroke:#000000;stroke-width:0.9;stroke-linecap:round;stroke-miterlimit:26.8;stroke-dasharray:none;stroke-opacity:0.577528"
         d="m 17.755242,78.616247 c -2.714879,0.320719 -2.412482,3.146449 0.02658,4.013229 1.71229,-0.004 2.55418,0.117924 3.577275,-1.356391 0.0251,-0.432914 0.487338,-0.560823 0.0011,-1.350542 -1.016595,-1.328487 -2.293105,-1.402551 -3.604906,-1.306296 z"
         id="path15"
         sodipodi:nodetypes="ccccc" />
      <path
         style="fill:none;fill-rule:evenodd;stroke:#000000;stroke-width:0.85;stroke-linecap:round;stroke-miterlimit:26.8;stroke-dasharray:none;stroke-opacity:0.577528"
         d="m -7.9177868,50.854416 c -4.7216252,0.300995 -4.1957072,2.95295 0.04623,3.766426 2.977956,-0.0038 4.442143,0.110672 6.221474,-1.272977 0.04365,-0.406291 0.84756197,-0.526334 0.0019,-1.267487 -1.768028,-1.246789 -3.98809,-1.316298 -6.26953,-1.225962 z"
         id="path15-9"
         sodipodi:nodetypes="ccccc" />
      <path
         style="fill:none;fill-rule:evenodd;stroke:#000000;stroke-width:0.9;stroke-linecap:round;stroke-miterlimit:26.8;stroke-dasharray:none;stroke-opacity:0.577528"
         d="m 41.585324,16.429393 c 2.186765,-1.640575 0.506372,-3.932403 -2.038142,-3.457267 -1.478762,0.86326 -2.268049,1.180549 -2.412517,2.969252 0.195671,0.386984 -0.13984,0.729702 0.677234,1.168469 1.546215,0.638403 2.687322,0.06148 3.773425,-0.680454 z"
         id="path15-4"
         sodipodi:nodetypes="ccccc" />
      <path
         style="fill:none;fill-rule:evenodd;stroke:#000000;stroke-width:0.9;stroke-linecap:round;stroke-miterlimit:26.8;stroke-dasharray:none;stroke-opacity:0.577528"
         d="m 23.209022,50.793741 c -0.992475,-4.569509 0.506176,-5.928116 2.845534,-8.351022 0.290343,-3.396134 0.962195,-7.10441 -4.020863,-6.185943 l -6.093153,2.381588 c -3.792684,6.158012 -4.549852,7.762248 -1.1444,13.083268 3.099035,3.355137 9.023757,-0.09467 8.412882,-0.927891 z"
         id="path16"
         sodipodi:nodetypes="cccccc" />
      <path
         style="fill:none;fill-rule:evenodd;stroke:#000000;stroke-width:0.9;stroke-linecap:round;stroke-miterlimit:26.8;stroke-dasharray:none;stroke-opacity:0.577528"
         d="m 11.099911,49.620447 c -0.658932,-2.92637 -5.4403498,7.945782 -5.0106138,8.474741 6.6333358,2.465057 6.7108168,0.139297 9.5263518,-0.185578 5.498215,-1.30745 -3.063018,-4.680744 -4.515738,-8.289163 z"
         id="path17"
         sodipodi:nodetypes="cccc" />
      <path
         style="fill:none;fill-rule:evenodd;stroke:#000000;stroke-width:0.9;stroke-linecap:round;stroke-miterlimit:26.8;stroke-dasharray:none;stroke-opacity:0.577528"
         d="m 23.88101,34.366791 c -2.16352,0.635155 -2.970021,-0.372397 -3.587847,-1.608345 0.233759,-1.685231 0.363603,-3.515942 1.793924,-3.525987 0.992632,-0.09112 1.913736,0.03234 2.659955,0.680454 0.470098,0.348521 1.03001,0.573548 0.866032,1.793923 -0.262359,0.99915 -0.360898,2.056807 -1.732064,2.659955 z"
         id="path18"
         sodipodi:nodetypes="cccccc" />
      <path
         style="fill:none;fill-rule:evenodd;stroke:#000000;stroke-width:0.9;stroke-linecap:round;stroke-miterlimit:26.8;stroke-dasharray:none;stroke-opacity:0.577528"
         d="m 39.19522,33.476889 c -2.16352,0.635155 -2.970021,-0.372397 -3.587847,-1.608345 0.233759,-1.685231 0.363603,-3.515942 1.793924,-3.525987 0.992632,-0.09112 1.913736,0.03234 2.659955,0.680454 0.470098,0.348521 1.03001,0.573548 0.866032,1.793923 -0.262359,0.99915 -0.360898,2.056807 -1.732064,2.659955 z"
         id="path18-6"
         sodipodi:nodetypes="cccccc" />
      <path
         style="fill:none;fill-rule:evenodd;stroke:#000000;stroke-width:0.9;stroke-linecap:round;stroke-miterlimit:26.8;stroke-dasharray:none;stroke-opacity:0.577528"
         d="m 3.8673742,56.065949 c -2.16352,0.635155 -2.97002103,-0.372397 -3.58784703,-1.608345 0.233759,-1.685231 0.363603,-3.515942 1.79392403,-3.525987 0.992632,-0.09112 1.913736,0.03234 2.659955,0.680454 0.470098,0.348521 1.03001,0.573548 0.866032,1.793923 -0.262359,0.99915 -0.360898,2.056807 -1.732064,2.659955 z"
         id="path18-6-2"
         sodipodi:nodetypes="cccccc" />
      <path
         style="fill:none;fill-rule:evenodd;stroke:#000000;stroke-width:0.532437;stroke-linecap:round;stroke-miterlimit:26.8;stroke-dasharray:none;stroke-opacity:0.577528"
         d="m 17.079255,75.434819 c -1.280757,0.375514 -1.758189,-0.220167 -2.123929,-0.950878 0.138381,-0.996335 0.215246,-2.078679 1.061965,-2.084618 0.587617,-0.05387 1.132891,0.01912 1.574637,0.402295 0.278288,0.206051 0.609743,0.33909 0.512672,1.060595 -0.155311,0.590713 -0.213644,1.216016 -1.025345,1.572606 z"
         id="path18-7-1"
         sodipodi:nodetypes="cccccc" />
      <path
         style="fill:none;fill-rule:evenodd;stroke:#000000;stroke-width:0.532437;stroke-linecap:round;stroke-miterlimit:26.8;stroke-dasharray:none;stroke-opacity:0.577528"
         d="M 10.032395,32.631267 C 8.7516382,33.006781 8.2742062,32.4111 7.9084662,31.680389 c 0.138381,-0.996335 0.215246,-2.078679 1.061965,-2.084618 0.587617,-0.05387 1.1328908,0.01912 1.5746368,0.402295 0.278288,0.206051 0.609743,0.33909 0.512672,1.060595 -0.155311,0.590713 -0.213644,1.216016 -1.025345,1.572606 z"
         id="path18-7-1-1"
         sodipodi:nodetypes="cccccc" />
      <path
         style="fill:none;fill-rule:evenodd;stroke:#000000;stroke-width:0.532437;stroke-linecap:round;stroke-miterlimit:26.8;stroke-dasharray:none;stroke-opacity:0.577528"
         d="m -9.1916538,35.751514 c -1.2807572,0.375514 -1.7581892,-0.220167 -2.1239292,-0.950878 0.138381,-0.996335 0.215246,-2.078679 1.061965,-2.084618 0.5876172,-0.05387 1.1328912,0.01912 1.5746372,0.402295 0.278288,0.206051 0.609743,0.33909 0.512672,1.060595 -0.155311,0.590713 -0.213644,1.216016 -1.025345,1.572606 z"
         id="path18-7-1-1-0"
         sodipodi:nodetypes="cccccc" />
      <path
         style="fill:none;fill-rule:evenodd;stroke:#000000;stroke-width:0.9;stroke-linecap:round;stroke-miterlimit:26.8;stroke-dasharray:none;stroke-opacity:0.577528"
         d="m 12.332241,41.295623 -1.979502,-0.680454 c -0.7872068,-0.02863 -1.7895628,-0.93194 -2.0413608,0.618595 -0.389752,0.556243 -0.989241,0.926054 -0.680454,2.10322 0.742313,0.762177 1.484627,0.322471 2.22694,0.247438 1.1589098,-0.372586 2.2778848,-0.792667 2.4743768,-2.288799 z"
         id="path21"
         sodipodi:nodetypes="cccccc" />
      <path
         style="fill:none;fill-rule:evenodd;stroke:#000000;stroke-width:0.9;stroke-linecap:round;stroke-miterlimit:26.8;stroke-dasharray:none;stroke-opacity:0.577528"
         d="m 16.082042,21.478146 c 4.750622,2.179073 6.521369,0.423169 9.229848,-0.09445 3.343811,0.348056 2.99512,-1.050502 0.959079,-2.25564 -3.55702,-2.044163 -6.795882,-10.3762512 -10.785186,-3.289681 -0.416861,1.984211 -3.112111,4.354393 0.596259,5.639766 z"
         id="path23-3"
         sodipodi:nodetypes="ccccc" />
      <path
         style="fill:none;fill-rule:evenodd;stroke:#000000;stroke-width:0.9;stroke-linecap:round;stroke-miterlimit:26.8;stroke-dasharray:none;stroke-opacity:0.577528"
         d="m 12.705608,36.967327 2.172781,-1.17902 c 7.917349,-0.810968 -0.601106,-13.944689 -2.353756,-1.491302 l -1.160246,1.40273 c -2.1461238,2.855698 -0.528479,2.164412 1.341221,1.267592 z"
         id="path24"
         sodipodi:nodetypes="ccccc" />
      <path
         style="fill:none;fill-rule:evenodd;stroke:#000000;stroke-width:0.9;stroke-linecap:round;stroke-miterlimit:26.8;stroke-dasharray:none;stroke-opacity:0.577528"
         d="m 38.988512,83.241798 c 0.788411,-1.356409 0.698436,-2.88678 0.227666,-4.492567 -1.878375,-0.441489 -3.211076,0.109673 -4.956759,0.730038 -1.414331,2.539946 -1.885623,4.674457 4.729093,3.762529 z"
         id="path26"
         sodipodi:nodetypes="cccc" />
      <path
         style="fill:none;fill-rule:evenodd;stroke:#000000;stroke-width:0.9;stroke-linecap:round;stroke-miterlimit:26.8;stroke-dasharray:none;stroke-opacity:0.577528"
         d="m 7.9737112,77.704113 -0.266398,-3.766042 c -0.112876,-1.670297 0.373466,-2.82112 2.8875528,-2.214056 l 2.192992,2.331216 c 0.869969,1.334061 0.658049,2.652176 -0.03566,3.96319 0.07681,8.530382 -2.61367,2.748705 -4.7784888,-0.314308 z"
         id="path31-3-0"
         sodipodi:nodetypes="cccccc" />
      <path
         style="fill:none;fill-rule:evenodd;stroke:#000000;stroke-width:0.9;stroke-linecap:round;stroke-miterlimit:26.8;stroke-dasharray:none;stroke-opacity:0.577528"
         d="m 27.325412,23.96698 c -1.591555,2.360394 -4.111069,1.884126 -6.211253,3.411815 -8.570099,-0.681153 -9.563239,-1.08524 -6.82363,-3.149368 2.995284,1.411905 13.631526,-0.863348 13.034883,-0.262447 z"
         id="path34"
         sodipodi:nodetypes="cccc" />
      <path
         style="fill:none;fill-rule:evenodd;stroke:#000000;stroke-width:0.9;stroke-linecap:round;stroke-miterlimit:26.8;stroke-dasharray:none;stroke-opacity:0.577528"
         d="m 10.650717,45.985911 c -1.5915548,2.360394 -4.1110688,1.884126 -6.2112528,3.411815 -8.570099,-0.681153 -9.563239,-1.08524 -6.82363,-3.149368 C 0.61111817,47.660263 11.24736,45.38501 10.650717,45.985911 Z"
         id="path34-3"
         sodipodi:nodetypes="cccc" />
      <path
         style="fill:#ff1e5a;fill-opacity:1;stroke:#c61c47;stroke-width:2.00001;stroke-linecap:square;stroke-opacity:1;paint-order:fill markers stroke"
         d="M 22.143244,64.036182 8.2287682,50.062362 5.7713132,30.47363 l 19.1497358,2.961554 14.00674,13.975447 2.331573,18.672882 z"
         id="path1-0"
         sodipodi:nodetypes="ccccccc" />
      <path
         style="fill:#ff1e5a;fill-opacity:1;stroke:#fffff9;stroke-width:2.00001;stroke-linecap:square;stroke-opacity:1;paint-order:fill markers stroke"
         d="m 11.972697,35.437921 9.909815,1.208498"
         id="path3-2-4"
         sodipodi:nodetypes="cc" />
    </g>
  </g>
</svg>
