<?xml version="1.0" encoding="UTF-8" standalone="no"?>
<!-- Created with Inkscape (http://www.inkscape.org/) -->

<svg
   width="72"
   height="72"
   viewBox="0 0 72 72"
   version="1.1"
   id="svg1"
   inkscape:version="1.3.2 (091e20e, 2023-11-25, custom)"
   sodipodi:docname="Gem1.svg"
   xmlns:inkscape="http://www.inkscape.org/namespaces/inkscape"
   xmlns:sodipodi="http://sodipodi.sourceforge.net/DTD/sodipodi-0.dtd"
   xmlns="http://www.w3.org/2000/svg"
   xmlns:svg="http://www.w3.org/2000/svg">
  <sodipodi:namedview
     id="namedview1"
     pagecolor="#ffffff"
     bordercolor="#000000"
     borderopacity="0.25"
     inkscape:showpageshadow="2"
     inkscape:pageopacity="0.0"
     inkscape:pagecheckerboard="0"
     inkscape:deskcolor="#d1d1d1"
     inkscape:document-units="px"
     inkscape:zoom="5.8511224"
     inkscape:cx="26.490644"
     inkscape:cy="35.121467"
     inkscape:window-width="1920"
     inkscape:window-height="1017"
     inkscape:window-x="-8"
     inkscape:window-y="-8"
     inkscape:window-maximized="1"
     inkscape:current-layer="layer3"
     showguides="true">
    <sodipodi:guide
       position="-12.598588,20.0346"
       orientation="0,-1"
       id="guide2"
       inkscape:locked="false" />
    <sodipodi:guide
       position="36.37578,49.642793"
       orientation="1,0"
       id="guide3"
       inkscape:locked="false" />
    <sodipodi:guide
       position="-9.4867068,51.938939"
       orientation="0,-1"
       id="guide4"
       inkscape:locked="false" />
  </sodipodi:namedview>
  <defs
     id="defs1" />
  <g
     inkscape:groupmode="layer"
     id="layer3"
     inkscape:label="Layer 2"
     transform="rotate(90,35.999998,35.999999)">
    <rect
       style="display:inline;fill:#ffffff;fill-opacity:1;stroke:none;stroke-width:2;stroke-linecap:square;stroke-dasharray:none"
       id="rect2"
       width="72"
       height="72"
       x="-36.55949"
       y="-87.092979"
       transform="rotate(90,-25.826235,10.733254)"
       sodipodi:insensitive="true" />
    <path
       style="fill:none;fill-rule:evenodd;stroke:#000000;stroke-width:0.9;stroke-linecap:square;stroke-miterlimit:26.8;stroke-opacity:0.577528"
       d="m 53.082708,22.826139 c -0.06499,1.631021 -0.281705,3.210979 -1.855783,4.577597 -2.483438,2.231717 -5.335076,2.502378 -8.165444,0.494876 -1.357222,-1.447072 -2.543391,-3.065197 -2.598095,-5.814786 -0.05508,-2.003893 0.398854,-3.635811 2.474377,-4.082722 4.864203,-0.829674 8.485849,0.05513 10.144945,4.825035 z"
       id="path1-6"
       sodipodi:nodetypes="cccccc" />
    <path
       style="fill:none;fill-rule:evenodd;stroke:#000000;stroke-width:0.9;stroke-linecap:square;stroke-miterlimit:26.8;stroke-opacity:0.577528"
       d="m 57.547512,40.909331 c -1.107861,-1.19879 -2.072359,-2.46882 -1.926547,-4.548268 0.176577,-3.334193 2.000665,-5.542767 5.421308,-6.126076 6.210095,-6.60831 7.64673,6.043492 7.089014,6.908102 -2.851131,4.027391 -6.03685,5.963985 -10.583775,3.766242 z"
       id="path1-5"
       sodipodi:nodetypes="ccccc" />
    <path
       style="fill:none;fill-rule:evenodd;stroke:#000000;stroke-width:0.9;stroke-linecap:round;stroke-miterlimit:26.8;stroke-dasharray:none;stroke-opacity:0.577528"
       d="m 5.561975,30.818474 c 0.570506,1.077167 0.81361,2.209887 -0.02664,3.526428 -0.901619,1.269986 -2.001659,1.466918 -3.140466,1.454202 -0.91719,-0.174543 -2.28998397,0.349333 -0.960585,-3.269121 0.441853,-1.077442 0.644129,-2.322423 1.764799,-2.925162 0.813525,0.01744 1.620036,0.139718 2.362896,1.213653 z"
       id="path3-2"
       sodipodi:nodetypes="cccccc" />
    <path
       style="fill:none;fill-rule:evenodd;stroke:#000000;stroke-width:0.9;stroke-linecap:round;stroke-miterlimit:26.8;stroke-dasharray:none;stroke-opacity:0.577528"
       d="m 54.99168,25.533588 c -1.155764,2.05954 -3.855927,4.781024 1.49669,4.051014 1.787658,-1.528263 0.08424,-5.861623 -1.49669,-4.051014 z"
       id="path6"
       sodipodi:nodetypes="ccc" />
    <path
       style="fill:none;fill-rule:evenodd;stroke:#000000;stroke-width:0.9;stroke-linecap:round;stroke-miterlimit:26.8;stroke-dasharray:none;stroke-opacity:0.577528"
       d="m 3.793943,53.568971 c 0.529559,-2.30154 2.354864,-5.67283 -2.576084,-3.46621 -1.28541297,1.96952 1.568492,5.6485 2.576084,3.46621 z"
       id="path6-5"
       sodipodi:nodetypes="ccc" />
    <path
       style="fill:none;fill-rule:evenodd;stroke:#000000;stroke-width:0.9;stroke-linecap:round;stroke-miterlimit:26.8;stroke-dasharray:none;stroke-opacity:0.577528"
       d="m 62.562665,16.05076 c -0.839065,-0.02306 -3.467327,0.662235 -2.551701,1.902178 1.082142,1.325205 0.847816,2.751554 0.247437,4.082722 -2.189034,2.384517 -2.484975,4.315317 0.309298,5.505488 1.409076,0.151268 2.084318,-0.431299 2.907393,-0.866032 0.526124,-0.563856 0.465728,-1.303668 0.618594,-1.979501 -0.930155,-5.326715 0.578865,-8.036546 -1.53102,-8.62939"
       id="path8"
       sodipodi:nodetypes="ccccccc" />
    <path
       style="fill:none;fill-rule:evenodd;stroke:#000000;stroke-width:0.9;stroke-linecap:round;stroke-miterlimit:26.8;stroke-dasharray:none;stroke-opacity:0.577528"
       d="M 16.780596,30.643179 C 17.11097,29.871548 17.441534,27.175605 15.951569,27.570367 14.321023,28.088554 13.081155,27.345515 12.06456,26.297185 10.653546,23.383968 8.967351,22.397906 6.831956,24.557665 6.1725,25.812057 6.465521,26.65436 6.566663,27.579679 c 0.330527,0.696772 1.040605,0.913013 1.612675,1.303979 5.294985,1.096455 7.258835,3.497209 8.586878,1.753828"
       id="path8-7"
       sodipodi:nodetypes="ccccccc" />
    <path
       style="fill:none;fill-rule:evenodd;stroke:#000000;stroke-width:0.9;stroke-linecap:round;stroke-miterlimit:26.8;stroke-dasharray:none;stroke-opacity:0.577528"
       d="m 46.958625,30.991583 c -2.498835,-0.262322 -2.737202,0.954935 -2.041361,2.783674 l 1.05161,3.464128 c 0.396921,1.984561 6.082159,-0.08595 7.918007,-3.340409 0.825021,-1.319744 0.242935,-2.367288 -0.680454,-2.907393 -2.003214,-0.991841 -4.053173,0.334206 -6.247802,0 z"
       id="path9"
       sodipodi:nodetypes="cccccc" />
    <path
       style="fill:none;fill-rule:evenodd;stroke:#000000;stroke-width:0.9;stroke-linecap:round;stroke-miterlimit:26.8;stroke-dasharray:none;stroke-opacity:0.577528"
       d="m 22.40705,27.260821 c -8.837512,9.301831 1.911882,8.042564 8.875201,3.394129 0.825021,-1.319744 0.242935,-2.367288 -0.680454,-2.907393 -1.90474,-3.158278 -5.783869,-4.910004 -8.194747,-0.486736 z"
       id="path9-8"
       sodipodi:nodetypes="cccc" />
    <path
       style="fill:none;fill-rule:evenodd;stroke:#000000;stroke-width:0.9;stroke-linecap:round;stroke-miterlimit:26.8;stroke-dasharray:none;stroke-opacity:0.577528"
       d="m 10.294602,54.912401 c -2.237182,-0.25508 -2.941277,-1.8663 -3.031112,-3.89714 0.441801,-0.85668 1.32968,-1.13345 2.350658,-1.23719 1.040357,0.0373 1.946729,0.18427 2.350658,0.74231 0.702122,1.85644 0.01656,3.39306 -1.670204,4.39202 z"
       id="path10-0"
       sodipodi:nodetypes="ccccc" />
    <path
       style="fill:none;fill-rule:evenodd;stroke:#000000;stroke-width:0.9;stroke-linecap:round;stroke-miterlimit:26.8;stroke-dasharray:none;stroke-opacity:0.577528"
       d="m 38.545743,22.949858 c -0.625281,-1.91279 -2.264348,-0.90274 -3.525987,-1.051611 -1.313838,0.01793 -1.676336,0.113092 -2.041361,0.989751 -0.973157,3.43364 -0.152161,5.613755 2.76802,7.090676 1.806315,0.197905 1.542152,-2.016168 3.330441,-1.934473 1.606435,0.121809 0.0545,-3.024108 -0.531113,-5.094343 z"
       id="path11"
       sodipodi:nodetypes="cccccc" />
    <path
       style="fill:none;fill-rule:evenodd;stroke:#000000;stroke-width:0.9;stroke-linecap:round;stroke-miterlimit:26.8;stroke-dasharray:none;stroke-opacity:0.577528"
       d="m 40.648964,29.878113 c 1.255075,0.158356 2.257848,0.608851 2.412517,2.041361 -0.162171,1.07223 0.422277,2.14446 -1.979501,3.21669 -2.309982,0.683793 -3.662574,0.900583 -6.014087,0.461748 -2.211628,-0.637435 2.565748,-5.160554 5.271774,-5.657939 z"
       id="path12"
       sodipodi:nodetypes="cccccc" />
    <path
       style="fill:none;fill-rule:evenodd;stroke:#000000;stroke-width:0.9;stroke-linecap:round;stroke-miterlimit:26.8;stroke-dasharray:none;stroke-opacity:0.577528"
       d="m 42.009871,38.229136 c 0.29783,1.98766 1.249141,3.249231 3.031112,3.587846 6.420301,-1.464296 1.86179,-2.236234 -0.371157,-3.15483 -1.019395,-0.900978 -2.39742,-3.846144 -2.659955,-0.433016 z"
       id="path13"
       sodipodi:nodetypes="cccc" />
    <path
       style="fill:none;fill-rule:evenodd;stroke:#000000;stroke-width:0.9;stroke-linecap:round;stroke-miterlimit:26.8;stroke-dasharray:none;stroke-opacity:0.577528"
       d="m 54.416705,40.575508 c 0.985104,0.972277 2.1201,1.734705 2.841138,3.076674 1.733485,4.856159 -0.462952,8.753209 -2.133774,8.062309 -5.954096,-2.17241 -9.823246,-4.58048 -6.062223,-9.897509 0.492608,-0.735404 1.061207,-1.356821 1.670204,-1.917642 1.515329,-1.292195 2.557929,-0.08568 3.684655,0.676168 z"
       id="path14"
       sodipodi:nodetypes="cccccc" />
    <path
       style="fill:none;fill-rule:evenodd;stroke:#000000;stroke-width:0.9;stroke-linecap:round;stroke-miterlimit:26.8;stroke-dasharray:none;stroke-opacity:0.577528"
       d="m 66.55801,44.116258 c 0.320719,2.714883 3.146449,2.412482 4.013229,-0.02658 -0.004,-1.71229 0.117924,-2.55418 -1.356391,-3.577275 -0.432914,-0.0251 -0.560823,-0.487338 -1.350542,-0.0011 -1.328487,1.016595 -1.402551,2.293105 -1.306296,3.604906 z"
       id="path15"
       sodipodi:nodetypes="ccccc" />
    <path
       style="fill:none;fill-rule:evenodd;stroke:#000000;stroke-width:0.9;stroke-linecap:round;stroke-miterlimit:26.8;stroke-dasharray:none;stroke-opacity:0.577528"
       d="M 4.371156,20.286176 C 2.730581,18.099411 0.43875303,19.779804 0.91388901,22.324318 1.777149,23.80308 2.094438,24.592367 3.883141,24.736835 4.270125,24.541164 4.612843,24.876675 5.05161,24.059601 5.690013,22.513386 5.11309,21.372279 4.371156,20.286176 Z"
       id="path15-4"
       sodipodi:nodetypes="ccccc" />
    <path
       style="fill:none;fill-rule:evenodd;stroke:#000000;stroke-width:0.9;stroke-linecap:round;stroke-miterlimit:26.8;stroke-dasharray:none;stroke-opacity:0.577528"
       d="m 38.735504,38.662478 c -4.569509,0.992475 -5.928116,-0.506176 -8.351022,-2.845534 -3.396134,-0.290343 -7.10441,-0.962195 -6.185943,4.020863 l 2.381588,6.093153 c 6.158012,3.792681 7.762248,4.549851 13.083268,1.144401 3.355137,-3.099036 -0.09467,-9.023758 -0.927891,-8.412883 z"
       id="path16"
       sodipodi:nodetypes="cccccc" />
    <path
       style="fill:none;fill-rule:evenodd;stroke:#000000;stroke-width:0.9;stroke-linecap:round;stroke-miterlimit:26.8;stroke-dasharray:none;stroke-opacity:0.577528"
       d="m 37.56221,50.771591 c -2.92637,0.65893 7.945782,5.44035 8.474741,5.01061 2.465057,-6.63333 0.139297,-6.71082 -0.185578,-9.52635 -1.30745,-5.498215 -4.680744,3.06302 -8.289163,4.51574 z"
       id="path17"
       sodipodi:nodetypes="cccc" />
    <path
       style="fill:none;fill-rule:evenodd;stroke:#000000;stroke-width:0.9;stroke-linecap:round;stroke-miterlimit:26.8;stroke-dasharray:none;stroke-opacity:0.577528"
       d="m 22.308554,37.99049 c 0.635155,2.16352 -0.372397,2.970021 -1.608345,3.587847 -1.685231,-0.233759 -3.515942,-0.363603 -3.525987,-1.793924 -0.09112,-0.992632 0.03234,-1.913736 0.680454,-2.659955 0.348521,-0.470098 0.573548,-1.03001 1.793923,-0.866032 0.99915,0.262359 2.056807,0.360898 2.659955,1.732064 z"
       id="path18"
       sodipodi:nodetypes="cccccc" />
    <path
       style="fill:none;fill-rule:evenodd;stroke:#000000;stroke-width:0.9;stroke-linecap:round;stroke-miterlimit:26.8;stroke-dasharray:none;stroke-opacity:0.577528"
       d="m 21.418652,22.67628 c 0.635155,2.16352 -0.372397,2.970021 -1.608345,3.587847 -1.685231,-0.233759 -3.515942,-0.363603 -3.525987,-1.793924 -0.09112,-0.992632 0.03234,-1.913736 0.680454,-2.659955 0.348521,-0.470098 0.573548,-1.03001 1.793923,-0.866032 0.99915,0.262359 2.056807,0.360898 2.659955,1.732064 z"
       id="path18-6"
       sodipodi:nodetypes="cccccc" />
    <path
       style="fill:none;fill-rule:evenodd;stroke:#000000;stroke-width:0.532437;stroke-linecap:round;stroke-miterlimit:26.8;stroke-dasharray:none;stroke-opacity:0.577528"
       d="m 63.376582,44.792245 c 0.375514,1.280757 -0.220167,1.758189 -0.950878,2.123926 -0.996335,-0.13838 -2.078679,-0.21524 -2.084618,-1.061962 -0.05387,-0.587617 0.01912,-1.132891 0.402295,-1.574637 0.206051,-0.278288 0.33909,-0.609743 1.060595,-0.512672 0.590713,0.155311 1.216016,0.213644 1.572606,1.025345 z"
       id="path18-7-1"
       sodipodi:nodetypes="cccccc" />
    <path
       style="fill:none;fill-rule:evenodd;stroke:#000000;stroke-width:0.9;stroke-linecap:round;stroke-miterlimit:26.8;stroke-dasharray:none;stroke-opacity:0.577528"
       d="m 29.237386,49.539261 -0.680454,1.9795 c -0.02863,0.78721 -0.93194,1.78956 0.618595,2.04136 0.556243,0.38975 0.926054,0.98924 2.10322,0.68045 0.762177,-0.74231 0.322471,-1.48462 0.247438,-2.22693 -0.372586,-1.15892 -0.792667,-2.27789 -2.288799,-2.47438 z"
       id="path21"
       sodipodi:nodetypes="cccccc" />
    <path
       style="fill:none;fill-rule:evenodd;stroke:#000000;stroke-width:0.9;stroke-linecap:round;stroke-miterlimit:26.8;stroke-dasharray:none;stroke-opacity:0.577528"
       d="m 9.419909,45.789458 c 2.179073,-4.750622 0.423169,-6.521369 -0.09445,-9.229848 0.348056,-3.343811 -1.050502,-2.99512 -2.25564,-0.959079 -2.044163,3.55702 -10.376251,6.795882 -3.289681,10.785186 1.984211,0.416864 4.354393,3.112114 5.639766,-0.596259 z"
       id="path23-3"
       sodipodi:nodetypes="ccccc" />
    <path
       style="fill:none;fill-rule:evenodd;stroke:#000000;stroke-width:0.9;stroke-linecap:round;stroke-miterlimit:26.8;stroke-dasharray:none;stroke-opacity:0.577528"
       d="m 25.499622,47.511531 -2.103221,-1.299043 c -4.639903,-6.466327 -11.800306,7.454423 -0.123718,2.783673 l 1.793923,0.3093 c 3.544743,0.44232 2.140703,-0.61755 0.433016,-1.79393 z"
       id="path24"
       sodipodi:nodetypes="ccccc" />
    <path
       style="fill:none;fill-rule:evenodd;stroke:#000000;stroke-width:0.9;stroke-linecap:round;stroke-miterlimit:26.8;stroke-dasharray:none;stroke-opacity:0.577528"
       d="m 71.183561,22.882987 c -1.356409,-0.78841 -2.88678,-0.698436 -4.492567,-0.227665 -0.441489,1.878375 0.109673,3.211076 0.730038,4.956759 2.539946,1.414331 4.674457,1.885623 3.762529,-4.729094 z"
       id="path26"
       sodipodi:nodetypes="cccc" />
    <path
       style="fill:none;fill-rule:evenodd;stroke:#000000;stroke-width:0.9;stroke-linecap:round;stroke-miterlimit:26.8;stroke-dasharray:none;stroke-opacity:0.577528"
       d="m 65.645876,53.897791 -3.766042,0.2664 c -1.670297,0.11287 -2.82112,-0.37347 -2.214056,-2.88756 l 2.331216,-2.19299 c 1.334061,-0.86997 2.652176,-0.65805 3.96319,0.0357 8.530382,-0.0768 2.748705,2.61367 -0.314308,4.77849 z"
       id="path31-3-0"
       sodipodi:nodetypes="cccccc" />
    <path
       style="fill:none;fill-rule:evenodd;stroke:#000000;stroke-width:0.9;stroke-linecap:round;stroke-miterlimit:26.8;stroke-dasharray:none;stroke-opacity:0.577528"
       d="m 11.908743,34.546088 c 2.360394,1.591555 1.884126,4.111069 3.411815,6.211253 -0.681153,8.5701 -1.08524,9.56324 -3.149368,6.82363 1.411905,-2.995284 -0.863348,-13.631526 -0.262447,-13.034883 z"
       id="path34"
       sodipodi:nodetypes="cccc" />
  </g>
  <g
     inkscape:label="Layer 1"
     inkscape:groupmode="layer"
     id="layer1"
     transform="rotate(-45,36.584717,36.498584)"
     sodipodi:insensitive="true">
    <path
       style="fill:#ff1e5a;fill-opacity:1;stroke:#c61c47;stroke-width:2;stroke-linecap:square;stroke-opacity:1;paint-order:fill markers stroke"
       d="m 24.227342,46.469772 0.0421,-19.719875 12.113671,-15.588991 11.44659,15.634862 0.02199,19.786265 -11.555078,14.852376 z"
       id="path1"
       sodipodi:nodetypes="ccccccc" />
    <path
       style="fill:#ff1e5a;fill-opacity:1;stroke:#fffff9;stroke-width:2;stroke-linecap:square;stroke-opacity:1;paint-order:fill markers stroke"
       d="m 37.257809,19.056173 6.152666,7.86174"
       id="path3"
       sodipodi:nodetypes="cc" />
  </g>
</svg>
