<?xml version="1.0" encoding="UTF-8" standalone="no"?>
<!-- Created with Inkscape (http://www.inkscape.org/) -->

<svg
   width="72"
   height="72"
   viewBox="0 0 72 72"
   version="1.1"
   id="svg1"
   inkscape:version="1.3.2 (091e20e, 2023-11-25, custom)"
   sodipodi:docname="GemSpecialPath1.svg"
   xmlns:inkscape="http://www.inkscape.org/namespaces/inkscape"
   xmlns:sodipodi="http://sodipodi.sourceforge.net/DTD/sodipodi-0.dtd"
   xmlns="http://www.w3.org/2000/svg"
   xmlns:svg="http://www.w3.org/2000/svg">
  <sodipodi:namedview
     id="namedview1"
     pagecolor="#ffffff"
     bordercolor="#000000"
     borderopacity="0.25"
     inkscape:showpageshadow="2"
     inkscape:pageopacity="0.0"
     inkscape:pagecheckerboard="0"
     inkscape:deskcolor="#d1d1d1"
     inkscape:document-units="px"
     showguides="true"
     inkscape:zoom="8.4561559"
     inkscape:cx="36.186655"
     inkscape:cy="33.9989"
     inkscape:window-width="1920"
     inkscape:window-height="1017"
     inkscape:window-x="-8"
     inkscape:window-y="-8"
     inkscape:window-maximized="1"
     inkscape:current-layer="layer2">
    <sodipodi:guide
       position="20.027076,81.867202"
       orientation="1,0"
       id="guide1"
       inkscape:locked="false" />
    <sodipodi:guide
       position="51.970053,76.64093"
       orientation="1,0"
       id="guide2"
       inkscape:locked="false" />
    <sodipodi:guide
       position="-15.19603,51.955431"
       orientation="0,-1"
       id="guide3"
       inkscape:locked="false" />
    <sodipodi:guide
       position="-5.7698047,19.988138"
       orientation="0,-1"
       id="guide4"
       inkscape:locked="false" />
  </sodipodi:namedview>
  <defs
     id="defs1" />
  <g
     inkscape:label="Layer 1"
     inkscape:groupmode="layer"
     id="layer1">
    <g
       inkscape:groupmode="layer"
       id="layer2"
       inkscape:label="Layer 2"
       transform="translate(12.385927,-12.282767)">
      <rect
         style="display:inline;fill:#ffffff;fill-opacity:1;stroke:none;stroke-width:2;stroke-linecap:square;stroke-dasharray:none"
         id="rect2"
         width="72"
         height="72"
         x="-12.385927"
         y="12.282767" />
      <path
         style="fill:none;fill-rule:evenodd;stroke:#000000;stroke-width:0.9;stroke-linecap:square;stroke-miterlimit:26.8;stroke-opacity:0.577528"
         d="m 8.4128818,31.424588 c 1.6310212,0.06499 3.2109792,0.281705 4.5775972,1.855783 2.231717,2.483438 2.502378,5.335076 0.494876,8.165444 -1.447072,1.357222 -3.065197,2.543391 -5.8147863,2.598095 C 5.6666762,44.098992 4.0347583,43.645056 3.5878466,41.569533 2.7581728,36.70533 3.6429818,33.083684 8.4128818,31.424588 Z"
         id="path1"
         sodipodi:nodetypes="cccccc" />
      <path
         style="fill:none;fill-rule:evenodd;stroke:#000000;stroke-width:0.9;stroke-linecap:square;stroke-miterlimit:26.8;stroke-opacity:0.577528"
         d="m 45.323901,51.399678 c 1.631021,0.06499 3.210979,0.281705 4.577597,1.855783 2.231717,2.483438 2.502378,5.335076 0.494876,8.165444 -1.447072,1.357222 -3.065197,2.543391 -5.814786,2.598095 -2.003893,0.05508 -3.635811,-0.398854 -4.082722,-2.474377 -0.829674,-4.864203 0.05513,-8.485849 4.825035,-10.144945 z"
         id="path1-55"
         sodipodi:nodetypes="cccccc" />
      <path
         style="fill:none;fill-rule:evenodd;stroke:#000000;stroke-width:0.9;stroke-linecap:square;stroke-miterlimit:26.8;stroke-opacity:0.577528"
         d="m 26.496074,26.959784 c -1.19879,1.107861 -2.46882,2.072359 -4.548268,1.926547 -3.334193,-0.176577 -5.542767,-2.000665 -6.126076,-5.421308 -6.6083099,-6.210095 6.043492,-7.64673 6.908102,-7.089014 4.027391,2.851131 5.963985,6.03685 3.766242,10.583775 z"
         id="path1-5"
         sodipodi:nodetypes="ccccc" />
      <path
         style="fill:none;fill-rule:evenodd;stroke:#000000;stroke-width:0.9;stroke-linecap:round;stroke-miterlimit:26.8;stroke-dasharray:none;stroke-opacity:0.577528"
         d="m 16.405217,78.945321 c 1.077167,-0.570506 2.209887,-0.81361 3.526428,0.02664 1.269986,0.901619 1.466918,2.001659 1.454202,3.140466 -0.174543,0.91719 0.349333,2.289984 -3.269121,0.960585 -1.077442,-0.441853 -2.322423,-0.644129 -2.925162,-1.764799 0.01744,-0.813525 0.139718,-1.620036 1.213653,-2.362896 z"
         id="path3-2"
         sodipodi:nodetypes="cccccc" />
      <path
         style="fill:none;fill-rule:evenodd;stroke:#000000;stroke-width:0.9;stroke-linecap:round;stroke-miterlimit:26.8;stroke-dasharray:none;stroke-opacity:0.577528"
         d="m 11.120331,29.515616 c 2.05954,1.155764 4.781024,3.855927 4.051014,-1.49669 -1.528263,-1.787658 -5.8616231,-0.08424 -4.051014,1.49669 z"
         id="path6"
         sodipodi:nodetypes="ccc" />
      <path
         style="fill:none;fill-rule:evenodd;stroke:#000000;stroke-width:0.9;stroke-linecap:round;stroke-miterlimit:26.8;stroke-dasharray:none;stroke-opacity:0.577528"
         d="m 39.79171,35.500155 c 2.05954,1.155764 4.781024,3.855927 4.051014,-1.49669 -1.528263,-1.787658 -5.861623,-0.08424 -4.051014,1.49669 z"
         id="path6-3"
         sodipodi:nodetypes="ccc" />
      <path
         style="fill:none;fill-rule:evenodd;stroke:#000000;stroke-width:0.9;stroke-linecap:round;stroke-miterlimit:26.8;stroke-dasharray:none;stroke-opacity:0.577528"
         d="m 39.155711,80.713353 c -2.301535,-0.529559 -5.672828,-2.354864 -3.466207,2.576084 1.969524,1.285413 5.6485,-1.568492 3.466207,-2.576084 z"
         id="path6-5"
         sodipodi:nodetypes="ccc" />
      <path
         style="fill:none;fill-rule:evenodd;stroke:#000000;stroke-width:0.9;stroke-linecap:round;stroke-miterlimit:26.8;stroke-dasharray:none;stroke-opacity:0.577528"
         d="m 1.6375034,21.944631 c -0.023057,0.839065 0.6622344,3.467327 1.9021773,2.551701 C 4.8648858,23.41419 6.2912347,23.648516 7.6224028,24.248895 10.00692,26.437929 11.93772,26.73387 13.127891,23.939597 13.279159,22.530521 12.696592,21.855279 12.261859,21.032204 11.698003,20.50608 10.958191,20.566476 10.282358,20.41361 4.9556432,21.343765 2.2458123,19.834745 1.6529683,21.94463"
         id="path8"
         sodipodi:nodetypes="ccccccc" />
      <path
         style="fill:none;fill-rule:evenodd;stroke:#000000;stroke-width:0.9;stroke-linecap:round;stroke-miterlimit:26.8;stroke-dasharray:none;stroke-opacity:0.577528"
         d="m 54.955615,47.266731 c -0.818719,0.185099 -3.195964,1.498908 -2.002209,2.473988 1.37618,1.016527 1.501767,2.45653 1.249132,3.894806 -1.531552,2.851691 -1.340952,4.795718 1.660825,5.25811 1.402731,-0.201795 1.912983,-0.933218 2.603027,-1.557946 0.370388,-0.676426 0.128963,-1.37834 0.109996,-2.070986 -2.21821,-4.931391 -1.42599,-7.930177 -3.616947,-7.982987"
         id="path8-1"
         sodipodi:nodetypes="ccccccc" />
      <path
         style="fill:none;fill-rule:evenodd;stroke:#000000;stroke-width:0.9;stroke-linecap:round;stroke-miterlimit:26.8;stroke-dasharray:none;stroke-opacity:0.577528"
         d="m 16.229922,67.7267 c -0.771631,-0.330374 -3.467574,-0.660938 -3.072812,0.829027 0.518187,1.630546 -0.224852,2.870414 -1.273182,3.887009 -2.913217,1.411014 -3.8992785,3.097209 -1.73952,5.232604 1.254392,0.659456 2.096695,0.366435 3.022014,0.265293 0.696772,-0.330527 0.913013,-1.040605 1.303979,-1.612675 1.096455,-5.294985 3.497209,-7.258835 1.753828,-8.586878"
         id="path8-7"
         sodipodi:nodetypes="ccccccc" />
      <path
         style="fill:none;fill-rule:evenodd;stroke:#000000;stroke-width:0.9;stroke-linecap:round;stroke-miterlimit:26.8;stroke-dasharray:none;stroke-opacity:0.577528"
         d="m 16.578326,37.548671 c -0.262322,2.498835 0.954935,2.737202 2.783674,2.041361 l 3.464128,-1.05161 c 1.984561,-0.396921 -0.08595,-6.082159 -3.340409,-7.918007 -1.319744,-0.825021 -2.367288,-0.242935 -2.907393,0.680454 -0.991841,2.003214 0.334206,4.053173 0,6.247802 z"
         id="path9"
         sodipodi:nodetypes="cccccc" />
      <path
         style="fill:none;fill-rule:evenodd;stroke:#000000;stroke-width:0.9;stroke-linecap:round;stroke-miterlimit:26.8;stroke-dasharray:none;stroke-opacity:0.577528"
         d="m 51.150554,33.351243 c -11.262544,6.146609 -0.644329,8.241539 7.408359,5.950254 1.189711,-1.00348 0.956591,-2.178992 0.243103,-2.976047 -0.845425,-3.589987 -4.001246,-6.44603 -7.651462,-2.974207 z"
         id="path9-8"
         sodipodi:nodetypes="cccc" />
      <path
         style="fill:none;fill-rule:evenodd;stroke:#000000;stroke-width:0.9;stroke-linecap:round;stroke-miterlimit:26.8;stroke-dasharray:none;stroke-opacity:0.577528"
         d="m 12.450702,62.129096 c 9.301831,8.837512 8.042564,-1.911882 3.394129,-8.875201 -1.319744,-0.825021 -2.367288,-0.242935 -2.907393,0.680454 -3.1582783,1.90474 -4.9100047,5.783869 -0.486736,8.194747 z"
         id="path9-8-6"
         sodipodi:nodetypes="cccc" />
      <path
         style="fill:none;fill-rule:evenodd;stroke:#000000;stroke-width:0.9;stroke-linecap:round;stroke-miterlimit:26.8;stroke-dasharray:none;stroke-opacity:0.577528"
         d="m 40.499144,74.212694 c -0.255084,2.237182 -1.866302,2.941277 -3.897144,3.031112 -0.856674,-0.441801 -1.133445,-1.32968 -1.237189,-2.350658 0.03733,-1.040357 0.184274,-1.946729 0.742314,-2.350658 1.856436,-0.702122 3.393059,-0.01656 4.392019,1.670204 z"
         id="path10-0"
         sodipodi:nodetypes="ccccc" />
      <path
         style="fill:none;fill-rule:evenodd;stroke:#000000;stroke-width:0.9;stroke-linecap:round;stroke-miterlimit:26.8;stroke-dasharray:none;stroke-opacity:0.577528"
         d="m 8.5366006,45.961553 c -1.9127894,0.625281 -0.9027394,2.264348 -1.0516102,3.525987 0.017935,1.313838 0.1130914,1.676336 0.9897508,2.041361 3.4336398,0.973157 5.6137548,0.152161 7.0906758,-2.76802 0.197905,-1.806315 -2.016168,-1.542152 -1.934473,-3.330441 0.121809,-1.606435 -3.024108,-0.0545 -5.0943434,0.531113 z"
         id="path11"
         sodipodi:nodetypes="cccccc" />
      <path
         style="fill:none;fill-rule:evenodd;stroke:#000000;stroke-width:0.9;stroke-linecap:round;stroke-miterlimit:26.8;stroke-dasharray:none;stroke-opacity:0.577528"
         d="m 15.464856,43.858332 c 0.158356,-1.255075 0.608851,-2.257848 2.041361,-2.412517 1.07223,0.162171 2.14446,-0.422277 3.21669,1.979501 0.683793,2.309982 0.900583,3.662574 0.461748,6.014087 -0.637435,2.211628 -5.160554,-2.565748 -5.657939,-5.271774 z"
         id="path12"
         sodipodi:nodetypes="cccccc" />
      <path
         style="fill:none;fill-rule:evenodd;stroke:#000000;stroke-width:0.9;stroke-linecap:round;stroke-miterlimit:26.8;stroke-dasharray:none;stroke-opacity:0.577528"
         d="m 23.815879,42.497425 c 1.98766,-0.29783 3.249231,-1.249141 3.587846,-3.031112 -1.464296,-6.420301 -2.236234,-1.86179 -3.15483,0.371157 -0.900978,1.019395 -3.846144,2.39742 -0.433016,2.659955 z"
         id="path13"
         sodipodi:nodetypes="cccc" />
      <path
         style="fill:none;fill-rule:evenodd;stroke:#000000;stroke-width:0.9;stroke-linecap:round;stroke-miterlimit:26.8;stroke-dasharray:none;stroke-opacity:0.577528"
         d="m 50.856515,65.816393 c 1.98766,-0.29783 3.249231,-1.249141 3.587846,-3.031112 -1.464296,-6.420301 -2.236234,-1.86179 -3.15483,0.371157 -0.900978,1.019395 -3.846144,2.39742 -0.433016,2.659955 z"
         id="path13-6"
         sodipodi:nodetypes="cccc" />
      <path
         style="fill:none;fill-rule:evenodd;stroke:#000000;stroke-width:0.9;stroke-linecap:round;stroke-miterlimit:26.8;stroke-dasharray:none;stroke-opacity:0.577528"
         d="m 26.162251,30.090591 c 0.972277,-0.985104 1.734705,-2.1201 3.076674,-2.841138 4.85616,-1.733485 8.753212,0.462952 8.062308,2.133774 -2.172411,5.954096 -4.58048,9.823246 -9.897508,6.062223 -0.735404,-0.492608 -1.356821,-1.061207 -1.917642,-1.670204 -1.292195,-1.515329 -0.08568,-2.557929 0.676168,-3.684655 z"
         id="path14"
         sodipodi:nodetypes="cccccc" />
      <path
         style="fill:none;fill-rule:evenodd;stroke:#000000;stroke-width:0.9;stroke-linecap:round;stroke-miterlimit:26.8;stroke-dasharray:none;stroke-opacity:0.577528"
         d="m 29.703001,17.949286 c 2.714879,-0.320719 2.412482,-3.146449 -0.02658,-4.013229 -1.71229,0.004 -2.55418,-0.117924 -3.577275,1.356391 -0.0251,0.432914 -0.487338,0.560823 -0.0011,1.350542 1.016595,1.328487 2.293105,1.402551 3.604906,1.306296 z"
         id="path15"
         sodipodi:nodetypes="ccccc" />
      <path
         style="fill:none;fill-rule:evenodd;stroke:#000000;stroke-width:0.85;stroke-linecap:round;stroke-miterlimit:26.8;stroke-dasharray:none;stroke-opacity:0.577528"
         d="m 55.37603,45.711117 c 4.721625,-0.300995 4.195707,-2.95295 -0.04623,-3.766426 -2.977956,0.0038 -4.442143,-0.110672 -6.221474,1.272977 -0.04365,0.406291 -0.847562,0.526334 -0.0019,1.267487 1.768028,1.246789 3.98809,1.316298 6.26953,1.225962 z"
         id="path15-9"
         sodipodi:nodetypes="ccccc" />
      <path
         style="fill:none;fill-rule:evenodd;stroke:#000000;stroke-width:0.9;stroke-linecap:round;stroke-miterlimit:26.8;stroke-dasharray:none;stroke-opacity:0.577528"
         d="m 5.8729186,80.13614 c -2.186765,1.640575 -0.506372,3.932403 2.038142,3.457267 1.478762,-0.86326 2.2680494,-1.180549 2.4125174,-2.969252 -0.195671,-0.386984 0.13984,-0.729702 -0.6772344,-1.168469 -1.546215,-0.638403 -2.687322,-0.06148 -3.773425,0.680454 z"
         id="path15-4"
         sodipodi:nodetypes="ccccc" />
      <path
         style="fill:none;fill-rule:evenodd;stroke:#000000;stroke-width:0.9;stroke-linecap:round;stroke-miterlimit:26.8;stroke-dasharray:none;stroke-opacity:0.577528"
         d="m 24.249221,45.771792 c 0.992475,4.569509 -0.506176,5.928116 -2.845534,8.351022 -0.290343,3.396134 -0.962195,7.10441 4.020863,6.185943 l 6.093153,-2.381588 c 3.792684,-6.158012 4.549852,-7.762248 1.1444,-13.083268 -3.099035,-3.355137 -9.023757,0.09467 -8.412882,0.927891 z"
         id="path16"
         sodipodi:nodetypes="cccccc" />
      <path
         style="fill:none;fill-rule:evenodd;stroke:#000000;stroke-width:0.9;stroke-linecap:round;stroke-miterlimit:26.8;stroke-dasharray:none;stroke-opacity:0.577528"
         d="m 36.358332,46.945086 c 0.658932,2.92637 5.44035,-7.945782 5.010614,-8.474741 -6.633336,-2.465057 -6.710817,-0.139297 -9.526352,0.185578 -5.498215,1.30745 3.063018,4.680744 4.515738,8.289163 z"
         id="path17"
         sodipodi:nodetypes="cccc" />
      <path
         style="fill:none;fill-rule:evenodd;stroke:#000000;stroke-width:0.9;stroke-linecap:round;stroke-miterlimit:26.8;stroke-dasharray:none;stroke-opacity:0.577528"
         d="m 23.577233,62.198742 c 2.16352,-0.635155 2.970021,0.372397 3.587847,1.608345 -0.233759,1.685231 -0.363603,3.515942 -1.793924,3.525987 -0.992632,0.09112 -1.913736,-0.03234 -2.659955,-0.680454 -0.470098,-0.348521 -1.03001,-0.573548 -0.866032,-1.793923 0.262359,-0.99915 0.360898,-2.056807 1.732064,-2.659955 z"
         id="path18"
         sodipodi:nodetypes="cccccc" />
      <path
         style="fill:none;fill-rule:evenodd;stroke:#000000;stroke-width:0.9;stroke-linecap:round;stroke-miterlimit:26.8;stroke-dasharray:none;stroke-opacity:0.577528"
         d="m 8.2630228,63.088644 c 2.1635202,-0.635155 2.9700212,0.372397 3.5878472,1.608345 -0.233759,1.685231 -0.363603,3.515942 -1.793924,3.525987 -0.9926322,0.09112 -1.9137362,-0.03234 -2.6599552,-0.680454 -0.470098,-0.348521 -1.03001,-0.573548 -0.866032,-1.793923 0.262359,-0.99915 0.360898,-2.056807 1.732064,-2.659955 z"
         id="path18-6"
         sodipodi:nodetypes="cccccc" />
      <path
         style="fill:none;fill-rule:evenodd;stroke:#000000;stroke-width:0.9;stroke-linecap:round;stroke-miterlimit:26.8;stroke-dasharray:none;stroke-opacity:0.577528"
         d="m 43.590869,40.499584 c 2.16352,-0.635155 2.970021,0.372397 3.587847,1.608345 -0.233759,1.685231 -0.363603,3.515942 -1.793924,3.525987 -0.992632,0.09112 -1.913736,-0.03234 -2.659955,-0.680454 -0.470098,-0.348521 -1.03001,-0.573548 -0.866032,-1.793923 0.262359,-0.99915 0.360898,-2.056807 1.732064,-2.659955 z"
         id="path18-6-2"
         sodipodi:nodetypes="cccccc" />
      <path
         style="fill:none;fill-rule:evenodd;stroke:#000000;stroke-width:0.532437;stroke-linecap:round;stroke-miterlimit:26.8;stroke-dasharray:none;stroke-opacity:0.577528"
         d="m 30.378988,21.130714 c 1.280757,-0.375514 1.758189,0.220167 2.123929,0.950878 -0.138381,0.996335 -0.215246,2.078679 -1.061965,2.084618 -0.587617,0.05387 -1.132891,-0.01912 -1.574637,-0.402295 -0.278288,-0.206051 -0.609743,-0.33909 -0.512672,-1.060595 0.155311,-0.590713 0.213644,-1.216016 1.025345,-1.572606 z"
         id="path18-7-1"
         sodipodi:nodetypes="cccccc" />
      <path
         style="fill:none;fill-rule:evenodd;stroke:#000000;stroke-width:0.532437;stroke-linecap:round;stroke-miterlimit:26.8;stroke-dasharray:none;stroke-opacity:0.577528"
         d="m 37.425848,63.934266 c 1.280757,-0.375514 1.758189,0.220167 2.123929,0.950878 -0.138381,0.996335 -0.215246,2.078679 -1.061965,2.084618 -0.587617,0.05387 -1.132891,-0.01912 -1.574637,-0.402295 -0.278288,-0.206051 -0.609743,-0.33909 -0.512672,-1.060595 0.155311,-0.590713 0.213644,-1.216016 1.025345,-1.572606 z"
         id="path18-7-1-1"
         sodipodi:nodetypes="cccccc" />
      <path
         style="fill:none;fill-rule:evenodd;stroke:#000000;stroke-width:0.532437;stroke-linecap:round;stroke-miterlimit:26.8;stroke-dasharray:none;stroke-opacity:0.577528"
         d="m 56.649897,60.814019 c 1.280757,-0.375514 1.758189,0.220167 2.123929,0.950878 -0.138381,0.996335 -0.215246,2.078679 -1.061965,2.084618 -0.587617,0.05387 -1.132891,-0.01912 -1.574637,-0.402295 -0.278288,-0.206051 -0.609743,-0.33909 -0.512672,-1.060595 0.155311,-0.590713 0.213644,-1.216016 1.025345,-1.572606 z"
         id="path18-7-1-1-0"
         sodipodi:nodetypes="cccccc" />
      <path
         style="fill:none;fill-rule:evenodd;stroke:#000000;stroke-width:0.9;stroke-linecap:round;stroke-miterlimit:26.8;stroke-dasharray:none;stroke-opacity:0.577528"
         d="m 35.126002,55.26991 1.979502,0.680454 c 0.787207,0.02863 1.789563,0.93194 2.041361,-0.618595 0.389752,-0.556243 0.989241,-0.926054 0.680454,-2.10322 -0.742313,-0.762177 -1.484627,-0.322471 -2.22694,-0.247438 -1.15891,0.372586 -2.277885,0.792667 -2.474377,2.288799 z"
         id="path21"
         sodipodi:nodetypes="cccccc" />
      <path
         style="fill:none;fill-rule:evenodd;stroke:#000000;stroke-width:0.9;stroke-linecap:round;stroke-miterlimit:26.8;stroke-dasharray:none;stroke-opacity:0.577528"
         d="m 31.376201,75.087387 c -4.750622,-2.179073 -6.521369,-0.423169 -9.229848,0.09445 -3.343811,-0.348056 -2.99512,1.050502 -0.959079,2.25564 3.55702,2.044163 6.795882,10.376251 10.785186,3.289681 0.416861,-1.984211 3.112111,-4.354393 -0.596259,-5.639766 z"
         id="path23-3"
         sodipodi:nodetypes="ccccc" />
      <path
         style="fill:none;fill-rule:evenodd;stroke:#000000;stroke-width:0.9;stroke-linecap:round;stroke-miterlimit:26.8;stroke-dasharray:none;stroke-opacity:0.577528"
         d="m 34.752635,59.598206 -2.172781,1.17902 c -7.917349,0.810968 0.601106,13.944689 2.353756,1.491302 l 1.160246,-1.40273 C 38.23998,58.0101 36.622335,58.701386 34.752635,59.598206 Z"
         id="path24"
         sodipodi:nodetypes="ccccc" />
      <path
         style="fill:none;fill-rule:evenodd;stroke:#000000;stroke-width:0.9;stroke-linecap:round;stroke-miterlimit:26.8;stroke-dasharray:none;stroke-opacity:0.577528"
         d="m 8.4697303,13.323735 c -0.7884106,1.356409 -0.6984359,2.88678 -0.2276655,4.492567 1.8783752,0.441489 3.2110762,-0.109673 4.9567592,-0.730038 1.414331,-2.539946 1.885623,-4.674457 -4.7290937,-3.762529 z"
         id="path26"
         sodipodi:nodetypes="cccc" />
      <path
         style="fill:none;fill-rule:evenodd;stroke:#000000;stroke-width:0.9;stroke-linecap:round;stroke-miterlimit:26.8;stroke-dasharray:none;stroke-opacity:0.577528"
         d="m 39.484532,18.86142 0.266398,3.766042 c 0.112876,1.670297 -0.373466,2.82112 -2.887553,2.214056 l -2.192992,-2.331216 c -0.869969,-1.334061 -0.658049,-2.652176 0.03566,-3.96319 -0.07681,-8.530382 2.61367,-2.748705 4.778489,0.314308 z"
         id="path31-3-0"
         sodipodi:nodetypes="cccccc" />
      <path
         style="fill:none;fill-rule:evenodd;stroke:#000000;stroke-width:0.9;stroke-linecap:round;stroke-miterlimit:26.8;stroke-dasharray:none;stroke-opacity:0.577528"
         d="m 20.132831,72.598553 c 1.591555,-2.360394 4.111069,-1.884126 6.211253,-3.411815 8.570099,0.681153 9.563239,1.08524 6.82363,3.149368 -2.995284,-1.411905 -13.631526,0.863348 -13.034883,0.262447 z"
         id="path34"
         sodipodi:nodetypes="cccc" />
      <path
         style="fill:none;fill-rule:evenodd;stroke:#000000;stroke-width:0.9;stroke-linecap:round;stroke-miterlimit:26.8;stroke-dasharray:none;stroke-opacity:0.577528"
         d="m 36.807526,50.579622 c 1.591555,-2.360394 4.111069,-1.884126 6.211253,-3.411815 8.570099,0.681153 9.563239,1.08524 6.82363,3.149368 -2.995284,-1.411905 -13.631526,0.863348 -13.034883,0.262447 z"
         id="path34-3"
         sodipodi:nodetypes="cccc" />
      <path
         style="fill:#ff1e5a;fill-opacity:1;stroke:#c61c47;stroke-width:2.00001;stroke-linecap:square;stroke-opacity:1;paint-order:fill markers stroke"
         d="M 22.143244,64.036182 8.2287682,50.062362 5.7713132,30.47363 l 19.1497358,2.961554 14.00674,13.975447 2.331573,18.672882 z"
         id="path1-0"
         sodipodi:nodetypes="ccccccc" />
      <path
         style="fill:#ff1e5a;fill-opacity:1;stroke:#fffff9;stroke-width:2.00001;stroke-linecap:square;stroke-opacity:1;paint-order:fill markers stroke"
         d="m 11.972697,35.437921 9.909815,1.208498"
         id="path3-2-4"
         sodipodi:nodetypes="cc" />
    </g>
  </g>
</svg>
