<?xml version="1.0" encoding="UTF-8" standalone="no"?>
<!-- Created with Inkscape (http://www.inkscape.org/) -->

<svg
   width="72"
   height="72"
   viewBox="0 0 72 72"
   version="1.1"
   id="svg1"
   inkscape:version="1.4.2 (ebf0e940, 2025-05-08)"
   sodipodi:docname="ScareCrow-Small.svg"
   xmlns:inkscape="http://www.inkscape.org/namespaces/inkscape"
   xmlns:sodipodi="http://sodipodi.sourceforge.net/DTD/sodipodi-0.dtd"
   xmlns="http://www.w3.org/2000/svg"
   xmlns:svg="http://www.w3.org/2000/svg">
  <sodipodi:namedview
     id="namedview1"
     pagecolor="#ffffff"
     bordercolor="#000000"
     borderopacity="0.25"
     inkscape:showpageshadow="2"
     inkscape:pageopacity="0.0"
     inkscape:pagecheckerboard="0"
     inkscape:deskcolor="#d1d1d1"
     inkscape:document-units="px"
     inkscape:zoom="3.5349773"
     inkscape:cx="25.176965"
     inkscape:cy="40.735764"
     inkscape:window-width="1160"
     inkscape:window-height="727"
     inkscape:window-x="0"
     inkscape:window-y="25"
     inkscape:window-maximized="0"
     inkscape:current-layer="layer1" />
  <defs
     id="defs1" />
  <g
     inkscape:label="Layer 1"
     inkscape:groupmode="layer"
     id="layer1">
    <rect
       style="fill:#f9f9f9;stroke-width:0.496015;stroke-linecap:round;stroke-linejoin:round"
       id="rect1"
       width="72"
       height="72"
       x="0"
       y="0" />
    <g
       id="g179"
       inkscape:label="Scare Crow"
       transform="matrix(0.2197061,-0.21970751,0.2197061,0.21970751,-9.5311031,-7.3552376)">
      <path
         style="display:inline;fill:none;fill-opacity:1;stroke:#000000;stroke-width:0.498898;stroke-linecap:square;stroke-dasharray:none;stroke-opacity:1"
         d="m 63.612553,212.29252 c 4.399254,6.81578 8.340775,-0.58958 10.749548,-5.13147 0,-1.10552 -0.03525,-1.19204 -1.548289,-2.83116 l -0.353894,-0.30966"
         id="path193"
         sodipodi:nodetypes="cccc" />
      <path
         style="fill:none;fill-opacity:1;stroke:#000000;stroke-width:0.498898;stroke-linecap:square;stroke-dasharray:none;stroke-opacity:1"
         d="m 32.849709,182.58371 c 1.945505,-0.35383 3.409459,2.38466 4.963041,3.59586 0.455379,-1.53889 -0.425167,-2.98809 -0.674225,-4.51356 0.858276,0.34007 1.754775,0.45832 2.659441,0.59931 -0.124744,-1.3732 -0.988137,-2.28002 -1.404634,-3.72696"
         id="path180"
         sodipodi:nodetypes="ccccc" />
      <path
         style="display:inline;fill:none;fill-opacity:1;stroke:#000000;stroke-width:0.498898;stroke-linecap:square;stroke-dasharray:none;stroke-opacity:1"
         d="m 87.100052,236.18021 c 1.531349,-2.72179 3.229591,-5.57395 3.533977,-8.8461"
         id="path187"
         sodipodi:nodetypes="cc" />
      <path
         style="display:inline;fill:none;fill-opacity:1;stroke:#000000;stroke-width:0.498898;stroke-linecap:square;stroke-dasharray:none;stroke-opacity:1"
         d="m 83.505573,161.29306 c 1.392825,2.27749 1.490083,4.90223 1.240716,7.49824 3.729631,-1.06786 3.340006,-0.0589 3.344538,0.32367 v 1.56438 0.53944 c 5.37885,-1.76697 11.766799,-1.76269 12.946603,1.18677 1.73829,-0.79013 2.82646,-0.90745 10.36926,0.8754"
         id="path188"
         sodipodi:nodetypes="ccccccc" />
      <path
         style="fill:none;fill-opacity:1;stroke:#000000;stroke-width:0.498898;stroke-linecap:square;stroke-dasharray:none;stroke-opacity:1"
         d="m 56.614349,190.14837 0.530058,-3.38422"
         id="path181"
         sodipodi:nodetypes="cc" />
      <path
         style="fill:none;fill-opacity:1;stroke:#000000;stroke-width:0.498898;stroke-linecap:square;stroke-dasharray:none;stroke-opacity:1"
         d="m 56.332754,189.69356 c -2.414964,-1.7489 -5.38569,-2.14718 -8.230175,-2.75671 l -0.998808,-0.15981 c -1.172303,7.85442 -0.627308,3.00844 -1.518188,9.86822 l -0.0799,0.55933 c 6.93723,1.09201 3.918551,1.16344 9.932151,1.69131"
         id="path182"
         sodipodi:nodetypes="cccccc"
         inkscape:label="path182" />
      <path
         style="fill:none;fill-opacity:1;stroke:#000000;stroke-width:0.498898;stroke-linecap:square;stroke-dasharray:none;stroke-opacity:1"
         d="m 27.064698,190.6786 c 9.799882,4.56693 11.666346,5.91192 18.115638,10.65762 4.537154,3.67269 12.477456,1.94498 17.89784,1.57573 0.691878,-0.0471 1.496991,-0.0596 1.70506,-0.3931 0.105365,-0.48129 -0.437389,-0.81855 -0.750405,-1.20687"
         id="path183"
         sodipodi:nodetypes="ccscc" />
      <path
         style="fill:none;fill-opacity:1;stroke:#000000;stroke-width:0.498898;stroke-linecap:square;stroke-dasharray:none;stroke-opacity:1"
         d="m 53.935566,203.84699 v 0.73619 c 1.114303,1.97137 3.421206,3.04361 5.308313,4.18466 2.266367,0.94769 2.313489,-3.60716 3.797189,-5.69574"
         id="path184"
         sodipodi:nodetypes="cccc" />
      <path
         style="fill:none;fill-opacity:1;stroke:#000000;stroke-width:0.498898;stroke-linecap:square;stroke-dasharray:none;stroke-opacity:1"
         d="m 25.250347,203.75125 c 3.672012,-3.38955 5.771197,-2.07517 7.192357,-0.46864 1.974668,3.19269 3.900045,6.72436 4.12729,10.43601 -1.210259,0.47727 -2.659255,1.15424 -3.741659,1.87585"
         id="path185"
         sodipodi:nodetypes="cccc" />
      <ellipse
         style="display:inline;fill:#000000;fill-opacity:1;stroke:#000000;stroke-width:0.498898;stroke-linecap:square;stroke-dasharray:none;stroke-opacity:1"
         id="path194"
         cx="40.817425"
         cy="203.72145"
         rx="2.4225347"
         ry="2.2397017" />
      <path
         style="fill:none;fill-opacity:1;stroke:#000000;stroke-width:0.498898;stroke-linecap:square;stroke-dasharray:none;stroke-opacity:1"
         d="m 36.221881,213.86659 c 3.591999,-1.52492 7.435283,-2.09244 11.094044,-3.35972"
         id="path186"
         sodipodi:nodetypes="cc"
         inkscape:label="path186" />
      <path
         style="fill:none;fill-opacity:1;stroke:#000000;stroke-width:0.498898;stroke-linecap:square;stroke-dasharray:none;stroke-opacity:1"
         d="m 20.98585,212.19787 4.19717,-8.39434 c -0.586459,-2.29505 1.280294,-5.71538 2.118176,-7.76353 -5.480186,-1.61262 -11.417797,-6.30097 -10.416721,-9.50439 0.595493,-0.50316 1.598674,0.005 2.524405,0.23966 l 3.837482,1.61009 3.725615,2.27616 0.68806,-2.47701 1.100897,-1.65135 2.821048,-2.88985 1.376122,-1.16971 -0.756867,-0.13761 -1.92657,-0.20642 c -5.346369,-0.21384 -2.19335,-0.27522 -4.816423,-0.27522 1.425189,-2.21634 4.777263,-1.51582 7.087023,-1.37612 l 1.513733,0.48164 c -0.824884,-2.6353 -2.030713,-0.53954 -4.885229,-6.60538 l -0.206419,-1.44493 0.137613,-0.82567 c 1.134335,1.31344 3.931938,5.17049 6.880605,8.11911 0.162408,-2.5613 -0.570228,-5.58786 1.032091,-7.77508 -0.122612,1.07906 0.144308,2.05844 0.38842,3.09627 0.285302,1.05225 0.543842,1.93139 0.918895,2.88986 10.91879,-6.55133 8.023106,-1.68351 11.765835,-5.22926 l 1.651345,-0.82568 c 0.337113,-1.89141 0.69504,-3.59132 1.582543,-5.29806 3.718042,-0.56428 4.19717,5.50465 4.19717,8.66957 l -0.344031,11.21539 c 1.481175,-1.02059 2.605305,-2.57025 4.524717,-2.65205 -0.821851,2.02378 -2.61071,3.16487 -4.11188,4.64742 l 2.000346,0.99573 c -0.964199,0.0236 -2.081066,0.57824 -3.01205,0.32433 -0.169082,2.86471 -0.647938,5.54345 -0.914866,8.3816 v 0.27522 c 0.681877,0.0738 6.483676,1.01863 8.394339,2.40821 0.923186,-2.27071 2.333706,-4.275 3.64672,-6.33015 -1.1345,-9.08055 -3.103347,-18.12771 2.064182,-26.14631 1.031331,-0.42446 1.375703,0.0201 1.995376,0.82568 3.549599,-6.87736 8.41479,-8.7379 10.252102,-9.0824 0.836075,-0.0591 1.136673,0.35588 1.720151,0.89448 3.971957,-2.65841 36.725035,-14.6781 32.407655,-2.88986 -1.62457,3.12416 -1.93833,3.41838 -3.23389,4.5412 1.96342,1.19838 2.25235,1.93121 0.13762,3.50911 v 0 c 1.41613,2.18858 1.58935,3.70968 -1.78896,6.60538 6.7311,1.7356 17.62833,2.09802 21.26107,7.77509 -0.0221,3.98802 -4.401,6.22565 -5.02284,6.53657 2.58955,1.52875 0.88582,2.76702 -0.89448,3.78433 3.64249,5.6728 -5.24292,7.20043 -12.24747,7.84389 l -2.20179,-0.13761 c 12.49721,0.38164 5.24053,6.65129 1.92657,7.43106 3.99451,2.76294 -5.88166,4.76079 -8.39434,5.22926 3.27102,5.11049 -11.344744,2.53354 -12.041053,2.40821 l -1.100897,-0.20642 c 2.585932,1.1894 8.68792,2.90627 4.334777,5.77971 l 1.169703,0.0688 c 3.41395,-3.86913 10.13919,-5.66617 12.57297,-5.52302 l -1.3576,0.91301 c -7.30242,3.88427 -1.50444,0.71782 -8.87598,4.40359 7.10475,0.16342 14.17064,-0.42864 21.19227,-1.44493 5.62803,-0.64752 8.2774,0.40073 4.88523,5.91732 6.5028,0 0.97806,7.54528 0.75686,7.84389 -4.30271,5.88494 -10.14481,10.20566 -17.33912,11.21539 6.66197,12.25113 -17.431482,-3.52603 -20.917039,-7.77509 0.932532,4.19643 6.531317,11.18345 6.330153,12.59151 -3.552742,-0.92876 -5.38594,-5.60677 -7.018218,-8.53195 0.03775,4.44218 0.619259,3.42767 0.619259,8.18792 -2.490304,-3.26191 -1.890809,-7.55138 -1.78895,-11.4218 -0.829116,1.27141 -6.171387,9.0405 -13.279569,9.63284 0.874862,1.34342 -0.781488,2.21223 -1.420701,3.27176 11.70835,2.60001 0.647585,1.37619 0.04895,1.90938 1.945477,2.67504 3.909565,4.86297 4.04495,6.08137 -0.06714,3.33972 1.222084,6.39432 2.319534,9.48713 2.905215,1.77888 11.883037,4.88269 8.714447,5.33637 -3.25644,-0.36141 -4.837797,-2.42394 -7.490503,-2.20314 0.114234,1.77879 4.347314,8.19853 -0.133608,4.46313 -1.177775,-1.35525 -1.604033,-3.26721 -3.342377,-3.87564 -1.958301,1.07707 -6.3546,5.23371 -5.874904,3.2312 0.385256,-2.60857 3.769774,-4.6394 5.581159,-6.41344 -1.11025,-2.93005 -1.902935,-5.82966 -2.545792,-8.76339 l -6.854055,-7.39259 c -3.355285,0.50618 -5.353243,-1.77604 -7.538666,-3.8985 l -1.609928,0.22999 c 0.253839,1.41905 -0.282545,2.12935 -1.379941,2.9132 1.613914,2.13107 2.420823,4.44068 4.222514,6.41698 -2.64976,2.67622 -4.509829,5.89575 -6.215758,9.22232 0.07625,2.45684 -0.8111,4.83618 -1.379938,7.20634 -0.582062,1.26844 -0.895739,0.65818 -1.145464,-0.39974 l 0.113535,-4.08727 c -2.825692,0.81175 -3.620219,3.02688 -5.960597,3.51959 -0.602838,0.11835 -0.40886,-0.20597 -0.454141,-0.39737 0.250548,-2.04786 2.374495,-2.99539 3.916964,-4.14403 0.572783,-0.35813 0.622453,-0.58174 -1.135352,-0.34058 l -4.200802,0.56768 c -0.907297,-0.0429 -1.191849,-0.83847 0.510908,-1.11737 l 7.266253,-1.38041 4.768478,-9.30988 -2.781612,-3.80343 c 0.0505,0.62952 -0.132975,0.97126 -0.454143,1.47596 -0.526719,-0.51787 -0.567676,-0.84084 -0.567676,-1.53273 -1.016558,0.51037 -1.928219,1.0463 -3.06545,0.96502 -0.13616,-1.37764 0.872781,-1.83041 1.930098,-2.38424 -1.575174,-1.39363 -3.089522,-2.85006 -4.598172,-4.31434 -4.906659,-5.59842 -4.804286,-1.86431 -10.729076,-9.76402 -0.575358,-1.52497 -1.497839,-2.85107 -1.305655,-4.48464 -0.698338,0.5965 -1.17681,0.55424 -2.043634,0.51087 -5.353859,-3.09469 -0.398234,-16.15034 -0.05677,-17.03027 -5.710672,0.63736 -7.053032,3.14159 -11.637358,2.72484 -2.136827,-1.40874 -1.104087,-4.1481 -0.358786,-6.07346 z"
         id="path179"
         sodipodi:nodetypes="cccccccccccccccccccccccccccccccccccccccccccccccccccccccccccccccccccccccccccccccccccccccccccccccccccccccccccccc" />
      <path
         style="display:inline;fill:none;fill-opacity:1;stroke:#000000;stroke-width:0.498898;stroke-linecap:square;stroke-dasharray:none;stroke-opacity:1"
         d="m 59.696288,208.937 c 2.019231,0.73095 4.434139,0.34613 6.54885,0.23483"
         id="path190"
         sodipodi:nodetypes="cc" />
      <path
         style="display:inline;fill:none;fill-opacity:1;stroke:#000000;stroke-width:0.498898;stroke-linecap:square;stroke-dasharray:none;stroke-opacity:1"
         d="m 57.243791,228.97517 c 4.617694,5.12427 13.705452,6.72046 6.180808,-2.47233 3.84898,1.40994 2.472536,-1.18867 0.950893,-3.89866 3.769378,1.63816 7.255479,2.736 7.036613,-3.23304 0.826219,-0.0531 3.004447,1.68314 1.52143,-1.42634 6.214684,1.17624 4.474688,-2.18308 2.282144,-5.80044 1.271025,0.67788 12.584259,6.41572 4.4692,-8.65313 2.893955,-0.45511 6.147896,-1.88551 4.088841,-5.32501 3.401493,0.47814 3.168486,-1.44808 1.71161,-4.18393 l 3.137948,-1.99687 c 6.825831,-4.13546 4.367205,-7.49347 2.94777,-8.55805 6.030764,-1.91886 9.417132,-6.97885 9.417132,-11.03365"
         id="path191"
         sodipodi:nodetypes="cccccccccccc" />
      <path
         style="fill:none;fill-opacity:1;stroke:#000000;stroke-width:0.498898;stroke-linecap:square;stroke-dasharray:none;stroke-opacity:1"
         d="m 84.682338,168.86829 c -1.496525,0.9375 -3.068114,2.41722 -3.627819,4.03112 -1.101259,-1.13044 -1.914618,-1.36346 -3.421779,-1.03199 -3.962604,7.90557 -3.545432,17.4237 -3.403675,26.07069 0.02737,1.23148 0.06241,2.46191 0.0362,3.69335 -2.90474,3.26657 -6.771068,6.45995 -9.993764,9.64978 -2.329162,2.95681 -7.854818,2.3792 -9.921348,6.31852 -0.411787,-0.59837 -0.735672,-1.31394 -1.83024,-1.00194 -1.199137,1.61228 -0.558194,3.30455 0.953944,5.03471"
         id="path189"
         sodipodi:nodetypes="ccccccccc"
         inkscape:label="path189" />
      <path
         style="fill:#000000;fill-opacity:1;stroke:#000000;stroke-width:0.068291;stroke-linecap:square;stroke-dasharray:none;stroke-opacity:1"
         d="m 54.82195,198.51534 c -1.363315,-0.10504 -2.982693,-0.36246 -4.517164,-0.71806 -0.941076,-0.21808 -2.29554,-0.49659 -3.009921,-0.61891 -0.71438,-0.12232 -1.324406,-0.24793 -1.355614,-0.27913 -0.11645,-0.11645 1.315058,-9.4761 1.47877,-9.66866 0.09283,-0.10919 3.251965,0.52897 4.870927,0.98395 1.269916,0.35689 2.314802,0.79777 3.301293,1.39296 l 0.699849,0.42225 -0.0573,0.63266 c -0.09085,1.00301 -0.884355,7.88738 -0.909262,7.88868 -0.01236,6.4e-4 -0.238072,-0.0154 -0.501573,-0.0357 z"
         id="path196" />
      <path
         style="fill:#000000;fill-opacity:1;stroke:#000000;stroke-width:0.068291;stroke-linecap:square;stroke-dasharray:none;stroke-opacity:1"
         d="m 21.66189,217.96239 c -0.837153,-0.13702 -1.41209,-1.53269 -1.190994,-2.89116 0.22026,-1.35332 0.525929,-2.08541 2.754557,-6.59725 2.095867,-4.24306 2.23051,-4.47548 2.912529,-5.02765 1.478645,-1.19711 2.836943,-1.69429 3.869342,-1.4163 0.925051,0.24909 1.810063,0.94756 2.445745,1.93022 1.875299,2.89892 3.404591,6.53988 3.683064,8.7687 l 0.09516,0.76166 -1.005178,0.44885 c -0.552846,0.24687 -1.343963,0.64505 -1.758036,0.88485 -0.507569,0.29394 -1.108849,0.49466 -1.845478,0.61607 -1.347566,0.22211 -2.372312,0.53244 -4.631258,1.40252 -2.473503,0.95271 -4.170523,1.30918 -5.329456,1.11949 z"
         id="path197" />
      <path
         style="fill:#000000;fill-opacity:1;stroke:#000000;stroke-width:0.0246462;stroke-linecap:square;stroke-dasharray:none;stroke-opacity:1"
         d=""
         id="path201" />
      <path
         style="fill:#000000;fill-opacity:1;stroke:#000000;stroke-width:0.0384735;stroke-linecap:square;stroke-dasharray:none;stroke-opacity:1"
         d="m 36.244965,184.20585 c -1.526325,-1.55487 -1.816882,-1.7439 -3.047153,-1.98239 -0.882886,-0.17114 -2.495172,-0.35101 -3.739138,-0.41714 -1.658192,-0.0882 -3.354587,-0.22403 -3.354587,-0.26871 0,-0.0977 0.801539,-0.56289 1.214728,-0.70505 0.633394,-0.21792 1.822294,-0.29867 3.195679,-0.21704 1.559478,0.0927 2.020079,0.16712 3.031378,0.48993 0.466558,0.14892 0.871929,0.27141 0.900826,0.27219 0.103302,0.003 -0.343318,-1.16914 -0.581211,-1.5251 -0.146761,-0.2196 -0.531807,-0.57898 -0.975309,-0.91031 -1.25706,-0.93911 -1.990463,-1.866 -2.953374,-3.73253 -0.436459,-0.84604 -0.508416,-1.04757 -0.588225,-1.64747 -0.05001,-0.37593 -0.07624,-0.6982 -0.05828,-0.71616 0.01796,-0.018 0.699461,0.80439 1.514446,1.82745 1.745295,2.19088 3.036374,3.70815 4.196625,4.93185 0.462474,0.48777 0.906593,0.95625 0.98693,1.04108 0.126179,0.13323 0.156176,0.13848 0.220319,0.0386 0.04405,-0.0686 0.07201,-1.15072 0.06873,-2.66054 -0.0056,-2.59633 0.04765,-3.3037 0.306104,-4.06407 l 0.131735,-0.38755 0.128665,0.72203 c 0.305364,1.71363 1.135738,4.24822 1.969514,6.01164 0.397539,0.8408 0.661113,1.53178 0.605503,1.58739 -0.05673,0.0567 -1.472842,-0.26744 -2.051561,-0.46964 l -0.564965,-0.19738 0.04749,0.40383 c 0.02612,0.22211 0.184398,0.88967 0.351727,1.48347 0.416297,1.47732 0.578213,2.43107 0.412223,2.42818 -0.03181,-5.6e-4 -0.647782,-0.60199 -1.368826,-1.33652 z"
         id="path206" />
      <path
         style="fill:#000000;fill-opacity:1;stroke:#000000;stroke-width:0.0530003;stroke-linecap:square;stroke-dasharray:none;stroke-opacity:1"
         d="m 109.63438,172.56293 c -3.1653,-0.73109 -4.46733,-0.93141 -6.05539,-0.93163 -1.11561,-1.6e-4 -1.59577,0.0425 -1.92141,0.17053 l -0.43413,0.17074 -0.44387,-0.51531 c -0.30377,-0.35266 -0.68647,-0.63373 -1.21251,-0.89055 -1.226342,-0.59871 -1.82319,-0.7154 -3.955691,-0.77339 -2.181782,-0.0593 -3.625258,0.0945 -5.747044,0.6124 -0.70685,0.17254 -1.312021,0.31371 -1.344825,0.31371 -0.0328,0 -0.07595,-0.50627 -0.09587,-1.12504 -0.03323,-1.0318 -0.05701,-1.14185 -0.287026,-1.32793 -0.371197,-0.30031 -1.776086,-0.26838 -2.883131,0.0655 -0.137004,0.0413 -0.154397,-0.13874 -0.124021,-1.28387 0.05119,-1.92963 -0.266321,-3.63654 -0.977231,-5.25357 -0.08797,-0.2001 0.606828,-0.59391 2.535423,-1.4371 5.258037,-2.29884 12.701011,-4.69056 17.847456,-5.73511 3.56726,-0.72402 6.79182,-0.96925 8.59538,-0.65367 2.28327,0.39951 3.33266,1.52917 3.04108,3.2737 -0.13419,0.80286 -0.32239,1.27999 -0.95898,2.43122 -0.77963,1.40991 -1.37799,2.21947 -2.14627,2.90383 -0.36403,0.32427 -0.63977,0.60828 -0.61274,0.63113 0.027,0.0229 0.35097,0.24402 0.71987,0.49148 0.72896,0.489 1.09075,0.96129 1.00057,1.30615 -0.06,0.22923 -0.72135,0.94927 -1.21477,1.32248 l -0.28712,0.21716 0.49959,0.98118 c 0.4421,0.86826 0.49854,1.05644 0.49046,1.6353 -0.007,0.48235 -0.0818,0.79646 -0.28596,1.19612 -0.32259,0.63158 -1.26287,1.76478 -1.84745,2.22649 l -0.4071,0.32154 z"
         id="path212" />
      <path
         style="display:inline;fill:none;fill-opacity:1;stroke:#000000;stroke-width:0.498898;stroke-linecap:square;stroke-dasharray:none;stroke-opacity:1"
         d="m 66.558548,232.49187 c 8.116508,4.98057 19.755173,2.11318 11.958795,-2.09383 5.229027,1.9106 10.225469,0.0898 4.590245,-5.03316 l -0.724775,-0.48319 c 4.57224,2.14841 12.508662,4.57652 12.361443,-4.54997 V 219.768 l 2.222136,-0.10805"
         id="path192"
         sodipodi:nodetypes="ccccccc" />
      <path
         style="fill:#000000;fill-opacity:1;stroke:#000000;stroke-width:0.0530003;stroke-linecap:square;stroke-dasharray:none;stroke-opacity:1"
         d="m 73.091432,234.55662 c -2.113691,-0.37188 -3.956822,-1.00626 -5.663829,-1.94941 l -0.818342,-0.45214 -0.07321,-0.73037 c -0.08753,-0.87318 -0.699069,-2.18086 -1.629526,-3.48448 l -0.597099,-0.83657 0.476996,0.0715 c 0.622055,0.0933 1.19628,-0.13703 1.357577,-0.54451 0.169175,-0.42739 -0.02736,-1.27575 -0.546151,-2.35758 -0.235192,-0.49044 -0.414576,-0.90377 -0.398631,-0.91851 0.01594,-0.0147 0.530951,0.14216 1.144458,0.34867 0.843325,0.28388 1.355185,0.38838 2.098041,0.42837 1.223303,0.0659 1.757643,-0.10937 2.335486,-0.76583 0.511778,-0.58142 0.749757,-1.25218 0.89004,-2.50867 0.06166,-0.55223 0.127821,-1.01977 0.147038,-1.03899 0.01922,-0.0192 0.295804,0.0473 0.61464,0.1478 1.181706,0.3725 1.527934,-0.0653 1.101578,-1.39306 -0.06808,-0.212 -0.04664,-0.21558 0.800383,-0.1337 2.123256,0.20526 3.166145,-0.36441 3.167057,-1.72997 4.77e-4,-0.71298 -0.226719,-1.40754 -0.896345,-2.74021 -0.39505,-0.78621 -0.459973,-0.9834 -0.306791,-0.93179 0.106867,0.036 0.759679,0.26103 1.450695,0.50006 2.085732,0.72149 3.724298,0.68921 4.451008,-0.0877 0.544976,-0.58261 0.66365,-0.95436 0.651933,-2.04218 -0.0166,-1.54074 -0.573087,-3.33303 -1.905773,-6.13793 -0.368588,-0.77576 -0.675477,-1.44293 -0.681977,-1.48259 -0.0065,-0.0397 0.367877,-0.1726 0.831949,-0.2954 2.777046,-0.73487 4.048473,-2.27491 3.483261,-4.21917 -0.09476,-0.32597 -0.172296,-0.61436 -0.172296,-0.64087 0,-0.0265 0.288034,-0.0783 0.640074,-0.11509 0.74525,-0.0779 1.161395,-0.26782 1.486289,-0.67833 0.206368,-0.26075 0.227829,-0.39107 0.18842,-1.14415 -0.03547,-0.67785 -0.121671,-1.02802 -0.425864,-1.72997 l -0.381392,-0.8801 0.794433,-0.50096 c 3.790954,-2.3905 4.931167,-3.27973 5.8418,-4.55586 0.638103,-0.89422 0.914432,-1.69829 0.912334,-2.65474 -0.0019,-0.84731 -0.306643,-1.67531 -0.881139,-2.39376 -0.34997,-0.43767 -0.375215,-0.51085 -0.176233,-0.51085 0.07554,0 0.71846,-0.28652 1.428717,-0.63672 4.030771,-1.98742 6.791039,-5.49688 7.388159,-9.39347 l 0.12886,-0.84088 0.53118,-0.18668 c 0.36181,-0.12716 0.86988,-0.18916 1.59352,-0.19448 1.50143,-0.011 3.1533,0.27367 7.64891,1.31833 1.11015,0.25797 3.69166,0.78413 5.73668,1.16924 4.09637,0.77142 5.50092,1.07529 7.17086,1.55136 3.66677,1.04535 6.09825,2.36655 7.60597,4.13288 l 0.48897,0.57285 -0.0382,0.75694 c -0.031,0.61477 -0.11375,0.90975 -0.44033,1.57055 -0.69054,1.39721 -2.47497,3.07481 -4.19032,3.93946 -0.30675,0.15462 -0.55773,0.29968 -0.55773,0.32236 0,0.0227 0.20857,0.16346 0.46348,0.31286 0.59924,0.35117 1.13004,0.95948 1.13004,1.29504 0,0.37461 -0.7478,1.1455 -1.60549,1.65504 l -0.71512,0.42485 0.4316,0.80016 c 0.562,1.04191 0.66528,1.98043 0.3008,2.73335 -0.77598,1.60296 -3.58543,2.83937 -8.10801,3.56823 -2.59466,0.41816 -4.10522,0.55067 -5.41569,0.47508 l -1.24826,-0.072 v 0.31425 0.31425 l 1.20844,0.069 c 3.47362,0.19839 5.55754,1.11877 5.52734,2.44118 -0.0327,1.43366 -2.37794,3.53989 -4.74699,4.26329 l -0.75225,0.2297 0.49641,0.35649 c 0.92172,0.66194 1.04626,1.15078 0.44252,1.73712 -0.9522,0.92476 -3.57442,1.88116 -7.32786,2.67266 -0.70115,0.14786 -1.38238,0.29333 -1.51384,0.32329 l -0.23902,0.0545 0.3187,0.59723 c 0.42204,0.79089 0.41449,1.1424 -0.0336,1.565 -1.17618,1.10928 -5.41407,1.1896 -11.318037,0.2145 -0.89712,-0.14817 -1.649029,-0.25149 -1.670908,-0.22961 -0.02188,0.0219 -0.05276,0.15001 -0.06863,0.28474 -0.02608,0.22143 0.129388,0.31287 1.617791,0.95161 2.008939,0.86212 2.975045,1.39353 3.514844,1.93333 0.716262,0.71626 0.663228,1.22458 -0.213305,2.04448 l -0.500494,0.46815 -1.241171,0.0776 -1.24117,0.0776 -0.0018,1.23778 c -0.0051,3.40974 -1.314163,5.35464 -3.875728,5.75816 -1.680713,0.26476 -4.30545,-0.29032 -7.096123,-1.50071 -0.528216,-0.2291 -0.969769,-0.40467 -0.981228,-0.39017 -0.01146,0.0145 -0.07545,0.13141 -0.142197,0.25979 -0.109304,0.21023 -0.07643,0.26439 0.330874,0.54513 0.829593,0.57182 1.882145,1.79706 2.356083,2.74263 0.667848,1.33246 0.145064,2.22329 -1.510698,2.57424 -1.060105,0.2247 -2.650024,0.0694 -4.173496,-0.40779 -0.634808,-0.19882 -0.690622,-0.20124 -0.814314,-0.0353 -0.214995,0.28837 -0.160191,0.38892 0.363358,0.66666 0.601403,0.31905 1.581779,1.19695 1.793178,1.60575 0.24586,0.47544 0.187044,0.73497 -0.263743,1.16379 -0.444431,0.42278 -1.258951,0.74489 -2.390361,0.94528 -1.017336,0.1802 -3.566245,0.12247 -4.892007,-0.11078 z"
         id="path211" />
      <path
         style="fill:#000000;fill-opacity:1;stroke:#000000;stroke-width:0.176857;stroke-linecap:square;stroke-dasharray:none;stroke-opacity:1"
         d=""
         id="path213" />
      <path
         style="fill:#000000;fill-opacity:1;stroke:#000000;stroke-width:0.498898;stroke-linecap:square;stroke-dasharray:none;stroke-opacity:1"
         d="m 56.309062,250.21211 c -1.579674,0.41731 -2.970201,0.49917 -4.575017,0.34632"
         id="path214"
         sodipodi:nodetypes="cc" />
      <path
         style="fill:none;fill-opacity:1;stroke:#000000;stroke-width:0.498898;stroke-linecap:square;stroke-dasharray:none;stroke-opacity:1"
         d="m 67.176777,250.9333 c 2.508832,0.33427 3.816848,-0.90791 5.152235,-1.92034"
         id="path215"
         sodipodi:nodetypes="cc" />
      <path
         style="fill:none;fill-opacity:1;stroke:#000000;stroke-width:0.498898;stroke-linecap:square;stroke-dasharray:none;stroke-opacity:1"
         d="m 98.235142,219.75549 2.610838,-0.21227"
         id="path216"
         sodipodi:nodetypes="cc" />
      <path
         style="fill:none;fill-opacity:1;stroke:#000000;stroke-width:0.498898;stroke-linecap:square;stroke-dasharray:none;stroke-opacity:1"
         d="m 89.063955,235.55286 -0.598344,-1.47824"
         id="path217"
         sodipodi:nodetypes="cc" />
      <path
         style="fill:#000000;fill-opacity:1;stroke:#000000;stroke-width:0.0196702;stroke-linecap:square;stroke-dasharray:none;stroke-opacity:1"
         d="m 99.02149,219.17325 c 0.657046,-0.62552 1.7993,-1.45249 2.7778,-2.01108 0.65601,-0.3745 1.93363,-0.98446 2.68287,-1.28087 1.64423,-0.65046 3.72609,-1.20562 4.8867,-1.30312 l 0.27827,-0.0234 -0.21685,0.15887 c -0.4112,0.30124 -4.10536,2.22903 -4.91962,2.56728 -0.62908,0.26132 -1.69627,0.76713 -3.11082,1.47441 l -1.13639,0.5682 -0.611124,0.0456 c -0.336117,0.0251 -0.682091,0.0546 -0.768831,0.0656 l -0.157709,0.02 z"
         id="path219" />
      <path
         style="fill:#000000;fill-opacity:1;stroke:#000000;stroke-width:0.0196702;stroke-linecap:square;stroke-dasharray:none;stroke-opacity:1"
         d="m 94.665841,247.39622 c -1.139882,-0.48742 -2.277692,-1.54578 -3.317013,-3.08538 -0.592022,-0.877 -1.003093,-1.59651 -2.016029,-3.52874 -0.790435,-1.5078 -0.80692,-1.53732 -0.858093,-1.53665 -0.02168,2.8e-4 -0.128139,0.0235 -0.236564,0.0515 l -0.197136,0.051 -0.01257,0.4312 c -0.02675,0.91799 0.08496,2.23685 0.306951,3.62395 0.06255,0.3908 0.132297,0.87022 0.155006,1.06538 0.05868,0.50434 0.131009,1.73777 0.115597,1.97137 l -0.01301,0.19713 -0.221878,-0.4337 c -0.683639,-1.33629 -0.996945,-2.68687 -1.104309,-4.7604 -0.04423,-0.85426 -0.02505,-1.91061 0.08182,-4.505 l 0.02923,-0.70969 0.486807,-0.86045 0.486806,-0.86046 0.18723,0.4859 c 0.102977,0.26724 0.251403,0.70767 0.329837,0.97874 0.209084,0.72258 0.568756,1.59395 1.090374,2.64162 0.693114,1.39212 1.17132,2.22804 2.853243,4.98755 1.058058,1.73594 1.480257,2.46265 1.798886,3.09634 0.209486,0.41664 0.36544,0.7872 0.340018,0.80791 -0.0057,0.005 -0.133997,-0.0445 -0.285209,-0.10918 z"
         id="path220" />
      <path
         style="fill:#000000;fill-opacity:1;stroke:#000000;stroke-width:0.0243897;stroke-linecap:square;stroke-dasharray:none;stroke-opacity:1"
         d="m 81.366826,274.83728 c -0.414987,-0.22334 -1.209062,-0.86298 -1.45899,-1.17524 -0.121981,-0.15241 -0.440181,-0.63639 -0.707112,-1.07552 -0.57667,-0.94868 -0.835886,-1.32277 -1.169588,-1.68789 -0.316355,-0.34615 -0.825658,-0.70416 -1.201856,-0.84485 l -0.293708,-0.10984 -0.233585,0.13571 c -0.442606,0.25714 -0.94091,0.61076 -2.418317,1.71615 -1.580901,1.18283 -2.214304,1.622 -2.606207,1.807 -0.358873,0.16941 -0.364929,0.16508 -0.287222,-0.20563 0.231146,-1.10271 1.004928,-2.20815 2.45151,-3.50227 0.342254,-0.30619 1.040228,-0.90744 1.551052,-1.33612 0.510825,-0.42868 1.080168,-0.92337 1.265205,-1.0993 l 0.336432,-0.31988 -0.41695,-1.17118 c -0.787821,-2.21292 -1.464457,-4.58089 -2.066847,-7.23318 l -0.133239,-0.58665 -0.570642,-0.61109 c -0.478162,-0.51205 -5.354159,-5.77883 -5.702741,-6.15978 l -0.111833,-0.12222 0.498241,-0.008 c 0.85693,-0.0134 1.561372,-0.18994 2.334148,-0.58506 l 0.41818,-0.21381 h 3.048734 c 1.676803,0 3.032245,0.0165 3.012092,0.0367 -0.02015,0.0202 -0.986284,0.0477 -2.14696,0.0611 -2.078967,0.0241 -2.113711,0.0261 -2.338578,0.13688 -0.125542,0.0619 -0.252428,0.14157 -0.281969,0.17716 -0.04149,0.05 0.137881,0.31914 0.788472,1.18307 0.463201,0.61509 1.184066,1.57304 1.601922,2.12877 0.845176,1.12404 1.316696,1.84968 1.53535,2.36279 0.136664,0.32071 0.14816,0.3975 0.182995,1.22218 0.09193,2.17635 0.500461,3.83383 1.899706,7.7074 l 0.453087,1.25429 0.397561,0.22578 c 0.648439,0.36825 1.843401,0.94281 3.868548,1.86006 1.04863,0.47495 2.368583,1.09145 2.933229,1.36998 1.316702,0.64952 2.180745,1.20921 2.056775,1.3323 -0.08339,0.0828 -0.80127,0.025 -1.323468,-0.10653 -0.739157,-0.18621 -1.282147,-0.39427 -2.573586,-0.98612 -1.241637,-0.56903 -1.744817,-0.76549 -2.315128,-0.90388 -0.450982,-0.10943 -1.315852,-0.17262 -1.658779,-0.1212 l -0.235129,0.0353 0.03285,0.30167 c 0.04175,0.38345 0.328713,1.23341 0.712539,2.11049 0.942976,2.1548 1.187603,2.78884 1.163059,3.01448 l -0.01454,0.13365 z"
         id="path223" />
      <path
         style="fill:#000000;fill-opacity:1;stroke:#000000;stroke-width:0.0321215;stroke-linecap:square;stroke-dasharray:none;stroke-opacity:1"
         d="m 52.317397,273.22957 c -0.205547,-0.54063 -0.211557,-0.65825 -0.145604,-2.84986 0.03616,-1.20145 0.05302,-2.19719 0.03748,-2.21275 -0.05108,-0.0512 -0.94863,0.26028 -1.477163,0.51254 -0.602567,0.2876 -1.21445,0.7147 -2.230739,1.5571 -0.9489,0.78654 -1.099169,0.89446 -1.591444,1.14293 -0.373069,0.18831 -0.914243,0.38659 -1.060019,0.38839 -0.09129,10e-4 0.01755,-0.51851 0.185737,-0.88676 0.369735,-0.80954 0.936515,-1.34552 2.671523,-2.52634 0.584293,-0.39767 1.127541,-0.78238 1.207217,-0.85493 0.166825,-0.15189 0.191068,-0.44036 0.04895,-0.58247 -0.229346,-0.22935 -0.532201,-0.21042 -3.86197,0.2414 -1.52839,0.2074 -2.10459,0.26328 -2.237375,0.21699 -0.232798,-0.0812 -0.225676,-0.1422 0.03041,-0.2606 0.332867,-0.15391 0.32001,-0.1512 4.33764,-0.91441 2.106689,-0.4002 3.840078,-0.73809 3.851976,-0.75087 0.125517,-0.13477 4.861775,-9.51466 4.842791,-9.59087 -0.02525,-0.10137 -3.311346,-4.62922 -3.359666,-4.62922 -0.01362,0 -0.01895,0.34043 -0.01184,0.75652 0.01006,0.58848 -0.0097,0.7974 -0.0891,0.94055 l -0.102029,0.18403 -0.107222,-0.22595 c -0.07261,-0.15302 -0.107221,-0.39426 -0.107221,-0.7474 0,-0.28679 -0.01055,-0.52144 -0.02344,-0.52144 -0.01289,0 -0.440245,0.2013 -0.949677,0.44734 -0.936167,0.45214 -1.512644,0.6472 -1.912707,0.6472 -0.217893,0 -0.218767,-0.001 -0.175298,-0.24145 0.09084,-0.50204 0.440839,-0.86093 1.322727,-1.35633 l 0.418501,-0.23509 1.030159,0.018 c 1.061277,0.0186 2.116463,-0.0793 2.957876,-0.27446 0.244663,-0.0567 0.461664,-0.0807 0.482224,-0.0532 0.248996,0.33286 0.914506,1.40444 1.550524,2.4966 0.949397,1.63028 1.364064,2.2767 1.910103,2.97761 l 0.413662,0.531 -0.438335,0.46697 c -1.511738,1.6105 -3.049544,3.83697 -4.581233,6.6328 -1.115498,2.03614 -1.080466,1.94323 -1.122328,2.97683 -0.03537,0.87327 -0.173235,1.76178 -0.439575,2.83293 -0.656759,2.64133 -1.039987,3.89529 -1.190457,3.89529 -0.0157,0 -0.05397,-0.0669 -0.08506,-0.14867 z"
         id="path224" />
      <path
         style="fill:#000000;fill-opacity:1;stroke:#000000;stroke-width:0.0651031;stroke-linecap:square;stroke-dasharray:none;stroke-opacity:1"
         d=""
         id="path225" />
      <path
         style="fill:#000000;fill-opacity:1;stroke:#000000;stroke-width:0.0373627;stroke-linecap:square;stroke-dasharray:none;stroke-opacity:1"
         d="m 81.181207,275.28312 c -0.538597,-0.28262 -1.391481,-0.97384 -1.682837,-1.36385 -0.156973,-0.21012 -0.563207,-0.83231 -0.902742,-1.38263 -0.658975,-1.06809 -1.216998,-1.69303 -1.710392,-1.91552 l -0.301578,-0.136 -0.330714,0.19381 c -0.181892,0.1066 -1.068383,0.74437 -1.969979,1.41727 -2.040589,1.52299 -2.239755,1.65909 -2.836481,1.93833 -0.533242,0.24953 -0.719114,0.23819 -0.911645,-0.0557 -0.100185,-0.1529 -0.107128,-0.2489 -0.04157,-0.57472 0.305192,-1.51677 1.206288,-2.67674 3.789208,-4.87779 0.777759,-0.66278 1.49301,-1.27245 1.589446,-1.35482 l 0.175339,-0.14979 -0.330796,-0.90422 c -0.554866,-1.51672 -1.072813,-3.25856 -1.654424,-5.5638 l -0.554876,-2.19926 -0.776002,-0.8338 c -0.426802,-0.45858 -1.925219,-2.07443 -3.329817,-3.59077 l -2.553816,-2.75698 -0.921327,-0.0183 c -1.031853,-0.0205 -1.584186,-0.14165 -2.433548,-0.53364 -0.983819,-0.45405 -1.748052,-1.032 -3.328852,-2.51747 l -0.92549,-0.86968 -0.599123,0.0838 -0.599124,0.0838 -0.04711,0.5794 c -0.06246,0.76815 -0.309446,1.26759 -0.894918,1.80963 l -0.449535,0.41619 0.36636,0.54409 c 0.201498,0.29925 0.780605,1.2518 1.286905,2.11679 1.01323,1.73104 1.669119,2.71556 2.209578,3.31668 l 0.3546,0.3944 -0.629357,0.65329 c -1.685098,1.74917 -3.403376,4.28687 -5.162469,7.62439 -0.501798,0.95205 -0.516456,0.99535 -0.516456,1.52564 0,1.07927 -0.28986,2.55949 -1.072248,5.47563 -0.391106,1.45774 -0.549994,1.80419 -0.917091,1.99965 -0.239188,0.12735 -0.492295,-0.0409 -0.706716,-0.46971 l -0.187226,-0.37445 0.01779,-2.07821 c 0.01481,-1.7299 3.96e-4,-2.07821 -0.086,-2.07821 -0.243371,0 -1.478955,0.70445 -2.066167,1.178 -0.350113,0.28234 -0.921463,0.74425 -1.269668,1.02647 -0.789539,0.63992 -1.734203,1.10836 -2.320681,1.15078 -0.549832,0.0398 -0.632916,-0.0523 -0.589466,-0.65295 0.02288,-0.31633 0.11333,-0.60788 0.315484,-1.01691 0.390052,-0.78922 1.077705,-1.45412 2.517585,-2.43429 0.984891,-0.67045 1.125808,-0.78978 0.956087,-0.8096 -0.109483,-0.0128 -1.220621,0.11562 -2.469197,0.28534 -1.248575,0.16972 -2.409608,0.30936 -2.580072,0.31032 -0.500937,0.003 -0.925757,-0.28932 -0.925757,-0.63663 0,-0.20853 0.375356,-0.55858 0.72767,-0.67863 0.193139,-0.0658 2.03674,-0.44128 4.096892,-0.83439 2.060151,-0.39311 3.751113,-0.72141 3.757692,-0.72955 0.03972,-0.0492 4.600753,-8.97384 4.616537,-9.03327 0.01065,-0.0401 -0.49853,-0.78486 -1.131515,-1.65503 l -1.150882,-1.58212 -0.207774,0.41191 c -0.114276,0.22656 -0.256053,0.48085 -0.315059,0.56509 -0.105231,0.15024 -0.112397,0.14783 -0.374294,-0.12557 -0.313221,-0.32697 -0.508185,-0.68628 -0.508185,-0.93654 0,-0.0982 -0.02087,-0.19934 -0.04637,-0.22484 -0.02551,-0.0255 -0.269835,0.0661 -0.542955,0.20354 -0.711943,0.35829 -1.446259,0.56677 -1.996329,0.56677 -0.461585,0 -0.474102,-0.005 -0.520916,-0.21839 -0.129179,-0.58815 0.249517,-1.38777 0.869485,-1.83594 0.231836,-0.16759 0.530766,-0.36445 0.664287,-0.43745 l 0.242767,-0.13274 -0.514506,-0.46601 c -1.353037,-1.2255 -3.471983,-3.2733 -4.970488,-4.80358 -1.14271,-1.16695 -1.844237,-1.70444 -3.337435,-2.55705 -0.631821,-0.36076 -1.411203,-0.85246 -1.731959,-1.09266 -1.067798,-0.79963 -2.605309,-2.43432 -4.075343,-4.33294 -0.728776,-0.94125 -1.729645,-3.30194 -1.837521,-4.33405 -0.04073,-0.38966 -0.06852,-0.45796 -0.168753,-0.41473 -0.393969,0.16987 -0.915332,0.26111 -1.308459,0.22898 -1.008289,-0.0824 -2.083491,-1.27663 -2.599353,-2.88705 -0.637373,-1.98974 -0.588132,-4.63359 0.154262,-8.2827 0.291662,-1.43361 0.48821,-2.17267 1.100695,-4.13881 0.272856,-0.87589 0.477723,-1.61092 0.45526,-1.63338 -0.100131,-0.10013 -2.358001,0.44936 -3.570897,0.86904 -0.723972,0.2505 -1.375288,0.47437 -1.44737,0.4975 -0.105693,0.0339 -0.131058,-0.003 -0.131058,-0.19037 0,-0.26842 0.03121,-0.28526 1.422917,-0.76812 1.102087,-0.38237 2.031802,-0.62396 3.112829,-0.80888 0.70428,-0.12048 0.961099,-0.20254 1.410861,-0.45081 0.494455,-0.27295 0.60174,-0.30337 1.064866,-0.30192 l 0.515013,0.002 -0.786349,0.41345 c -0.432492,0.2274 -0.824476,0.45416 -0.871075,0.5039 -0.164358,0.17547 -0.936339,2.55212 -1.521026,4.6827 -0.310974,1.13318 -0.639734,2.82201 -0.788034,4.04811 -0.138626,1.14611 -0.160363,3.22631 -0.04236,4.05357 0.241066,1.68996 0.838639,2.90299 1.807272,3.66865 0.352077,0.27831 0.414893,0.30054 0.849092,0.30054 0.571032,0 0.884732,-0.0973 1.277588,-0.39626 0.164759,-0.12538 0.339106,-0.258 0.387437,-0.29471 0.06587,-0.05 0.08674,0.11718 0.08333,0.66784 -0.0057,0.92016 0.104588,1.34342 0.744095,2.85575 0.534338,1.26361 0.730258,1.56547 2.073524,3.19466 1.006667,1.22095 2.344451,2.52677 3.155649,3.08025 0.368805,0.25164 1.099104,0.69946 1.622886,0.99515 1.471311,0.83062 2.03352,1.29426 4.178254,3.44569 1.841945,1.8477 4.345082,4.21764 4.631567,4.38512 0.215744,0.12612 2.588708,0.0814 3.41856,-0.0644 0.924629,-0.16247 1.244726,-0.31004 1.738975,-0.8017 0.568952,-0.56598 0.657518,-0.78943 0.657518,-1.65885 v -0.73034 l 0.224672,-0.0385 c 0.123569,-0.0212 0.544827,-0.0844 0.93613,-0.14042 l 0.711459,-0.10191 0.93776,0.90819 c 1.668986,1.61638 2.728203,2.37812 3.875523,2.78709 0.518436,0.1848 0.699935,0.20897 1.739628,0.23161 2.976244,0.0648 3.229631,0.0368 4.240973,-0.46922 0.611451,-0.30593 2.098635,-1.3965 2.405185,-1.76374 0.113473,-0.13594 0.387984,-0.45045 0.610023,-0.69892 0.433312,-0.48488 0.677914,-0.93259 0.680558,-1.24567 9.05e-4,-0.10714 -0.08261,-0.35325 -0.185582,-0.54692 -0.102974,-0.19367 -0.187226,-0.36284 -0.187226,-0.37593 0,-0.0131 0.24433,-0.0472 0.542956,-0.0758 2.299518,-0.22033 4.931252,-1.42408 7.395428,-3.38267 0.912401,-0.72519 3.064224,-2.90921 3.902972,-3.96136 1.334207,-1.67368 2.08665,-2.88232 3.286582,-5.27921 0.957418,-1.91246 1.517416,-3.56342 1.725717,-5.08769 0.09219,-0.67463 0.09436,-0.67944 0.305453,-0.67944 0.20983,0 0.212034,0.005 0.168962,0.35573 -0.214251,1.74641 -1.011516,4.137 -1.955145,5.86248 l -0.26961,0.49299 0.255669,0.66976 c 0.238764,0.62548 0.302705,0.71699 0.967126,1.38408 1.483308,1.48928 4.674128,3.89965 8.088165,6.10987 5.979545,3.87111 10.798335,5.94845 12.321875,5.31188 l 0.25971,-0.10852 v 0.25293 c 0,0.2458 -0.0117,0.25555 -0.41629,0.34608 -1.88229,0.42124 -6.80124,-1.79364 -12.951645,-5.83179 -2.847504,-1.86958 -4.976924,-3.47039 -7.394784,-5.55908 -0.288313,-0.24906 -0.300587,-0.25279 -0.246442,-0.0749 0.345734,1.13595 1.399804,3.12962 3.484374,6.59036 2.216569,3.67988 2.611078,4.46383 2.512031,4.99179 l -0.04478,0.23871 -0.552423,-0.18574 c -2.041564,-0.68641 -3.648466,-2.51299 -5.739207,-6.5238 -0.305951,-0.58692 -0.577051,-1.06716 -0.602443,-1.06718 -0.101157,-1.2e-4 0.09586,1.96235 0.349609,3.48235 0.06505,0.38968 0.130421,1.43222 0.154955,2.47138 l 0.04244,1.79737 -0.412916,-0.55876 c -0.563831,-0.76298 -0.968098,-1.54564 -1.279484,-2.47707 -0.526583,-1.57515 -0.676918,-3.04649 -0.615701,-6.02591 0.04262,-2.07433 0.0388,-2.16348 -0.08508,-1.98596 -0.07133,0.10222 -0.396451,0.52348 -0.722481,0.93613 -2.438229,3.086 -4.996341,5.29034 -7.684353,6.62163 -1.170447,0.57969 -2.093243,0.90271 -3.258622,1.14065 l -0.82643,0.16874 0.02966,0.46577 c 0.03732,0.58608 -0.144982,0.95037 -0.890268,1.77901 -0.285775,0.31774 -0.519592,0.60429 -0.519592,0.63678 0,0.0325 0.884643,0.28 1.965873,0.55004 1.08123,0.27003 2.165969,0.56719 2.41053,0.66034 0.493387,0.18792 0.81226,0.45499 0.746831,0.62549 -0.09533,0.24843 -0.488193,0.29418 -2.820354,0.32843 -1.266584,0.0186 -2.30288,0.0516 -2.30288,0.0734 0,0.0217 0.665588,0.92364 1.479085,2.00422 2.231363,2.96394 2.37962,3.25913 2.444776,4.86775 0.07868,1.94238 0.561163,3.84373 1.898915,7.48311 l 0.355683,0.96764 0.748904,0.39659 c 0.411897,0.21812 1.844176,0.89426 3.182842,1.50253 3.680687,1.67245 4.846434,2.29206 5.278575,2.80563 0.326673,0.38823 0.187933,0.72933 -0.358927,0.88245 -0.66435,0.186 -2.017547,-0.19268 -4.133298,-1.15667 -0.659036,-0.30027 -1.417301,-0.61833 -1.685035,-0.7068 -0.522156,-0.17255 -1.626676,-0.35022 -1.702954,-0.27394 -0.07973,0.0797 0.197505,0.85584 0.805045,2.25375 0.713598,1.64195 0.937964,2.23079 1.008034,2.64552 0.107869,0.63848 -0.316344,0.86701 -0.971364,0.52329 z m 0.561678,-0.3934 c 0,-0.25687 -0.303731,-1.06992 -0.952872,-2.55074 -0.584497,-1.33334 -0.873559,-2.13081 -0.94332,-2.60244 l -0.04154,-0.28084 h 0.657326 c 0.854963,0 1.572768,0.18668 2.768241,0.71993 2.490504,1.1109 3.152172,1.34078 4.091502,1.42148 1.575846,0.13539 0.152692,-0.78375 -4.418534,-2.85372 -2.231723,-1.01057 -3.903665,-1.83434 -4.147499,-2.04348 -0.147327,-0.12636 -1.102734,-2.7112 -1.569573,-4.24646 -0.539737,-1.77499 -0.810423,-3.21382 -0.885618,-4.7075 -0.04908,-0.97487 -0.05266,-0.99028 -0.379556,-1.63048 -0.208062,-0.40748 -0.950753,-1.47283 -2.009824,-2.88299 -0.923897,-1.23017 -1.679814,-2.2613 -1.679814,-2.29141 0,-0.0301 0.09114,-0.11449 0.202524,-0.18752 0.180254,-0.11818 0.452022,-0.13557 2.471384,-0.15809 1.247873,-0.0139 2.26886,-0.0506 2.26886,-0.0814 0,-0.0766 -1.366023,-0.45459 -3.248114,-0.89887 l -1.56308,-0.36898 -0.683633,0.51171 c -1.31166,0.98179 -2.194778,1.34281 -3.466514,1.4171 l -0.768823,0.0449 3.236215,3.49278 3.236216,3.49277 0.327338,1.3751 c 0.5868,2.46505 1.175175,4.47957 1.909766,6.53878 l 0.345967,0.96981 -0.205625,0.21775 c -0.113093,0.11975 -0.829087,0.74895 -1.591097,1.3982 -2.123081,1.80893 -2.975245,2.72818 -3.451077,3.72275 -0.224981,0.47025 -0.427452,1.26247 -0.343987,1.34594 0.136244,0.13624 1.080713,-0.4619 2.95312,-1.87025 1.971441,-1.48284 2.587582,-1.87792 2.832724,-1.81639 0.568579,0.14271 1.408934,0.89922 1.943911,1.74998 1.035581,1.64685 1.30777,2.02566 1.690441,2.35258 0.398636,0.34057 1.230281,0.88279 1.353993,0.88279 0.03332,0 0.06057,-0.0822 0.06057,-0.18276 z m -29.144133,-1.63333 c 0.157361,-0.25494 1.027346,-3.45352 1.288882,-4.73869 0.09065,-0.44547 0.164063,-1.15516 0.181851,-1.75805 l 0.02983,-1.01102 -0.09862,0.98356 c -0.05424,0.54096 -0.138073,1.21497 -0.186292,1.49781 -0.187692,1.10095 -1.093939,4.47177 -1.314511,4.88936 l -0.102045,0.1932 -0.09961,-0.22467 c -0.07789,-0.17568 -0.09428,-0.74532 -0.07517,-2.612 l 0.02445,-2.38732 -0.210464,0.0528 c -0.439356,0.11027 -1.354351,0.4984 -1.80662,0.76635 -0.258712,0.15328 -1.016978,0.71186 -1.685034,1.24128 -1.136552,0.9007 -1.926863,1.38572 -2.479409,1.52163 -0.216167,0.0532 -0.216261,0.053 -0.162373,-0.23422 0.180445,-0.96186 0.926167,-1.74109 3.074722,-3.21288 0.411897,-0.28215 0.82473,-0.58118 0.917407,-0.6645 0.228331,-0.20529 0.230956,-0.61093 0.0047,-0.732 -0.227851,-0.12194 -1.227274,-0.0535 -3.333184,0.22838 -1.880637,0.2517 -2.713543,0.31033 -2.713126,0.19101 4.91e-4,-0.14038 0.555816,-0.26819 4.262925,-0.98107 2.038891,-0.39208 3.77908,-0.73042 3.867086,-0.75186 0.124606,-0.0303 0.625464,-0.95356 2.26367,-4.17251 1.157013,-2.27345 2.244247,-4.44133 2.416075,-4.81752 l 0.312415,-0.68398 -0.437419,-0.62477 c -0.873868,-1.24817 -2.674162,-3.69983 -2.849733,-3.8808 l -0.179985,-0.18553 -0.0053,0.78465 c -0.0029,0.43155 -0.0313,0.8513 -0.06313,0.93276 -0.05656,0.14475 -0.05983,0.14444 -0.144518,-0.0138 -0.04766,-0.0891 -0.08665,-0.36358 -0.08665,-0.61005 0,-0.72885 0.01985,-0.72216 -0.885576,-0.29836 -0.862205,0.40357 -1.779912,0.73665 -2.029632,0.73665 -0.106626,0 -0.155299,-0.0481 -0.155299,-0.1535 0,-0.39053 0.473256,-0.90809 1.222143,-1.33656 l 0.430351,-0.24622 1.326852,-0.0219 c 1.141702,-0.0188 2.303451,-0.13961 2.98266,-0.31008 0.138395,-0.0347 0.23877,0.0834 0.718186,0.84543 0.306517,0.48719 0.85517,1.39131 1.219226,2.00916 0.725079,1.23054 1.235272,2.01506 1.742156,2.67889 l 0.329997,0.43217 -0.483436,0.52216 c -1.435393,1.55035 -2.887181,3.64506 -4.377798,6.31648 -0.779927,1.39775 -1.180015,2.20609 -1.121076,2.26502 0.0207,0.0207 0.292244,-0.44872 0.60342,-1.04317 1.60229,-3.06091 3.183044,-5.42725 4.958707,-7.42301 0.35967,-0.40426 0.548362,-0.67375 0.513536,-0.73345 -0.03028,-0.0519 -0.178805,-0.24602 -0.330053,-0.43137 -0.440003,-0.53922 -1.116895,-1.58877 -1.907832,-2.95817 -0.404435,-0.70023 -0.939986,-1.58682 -1.190111,-1.9702 -0.377874,-0.57918 -0.480415,-0.68978 -0.606403,-0.65405 -0.721217,0.20457 -1.965687,0.34009 -3.122897,0.34009 h -1.271351 l -0.5373,0.30956 c -0.295515,0.17025 -0.634225,0.39773 -0.752691,0.50551 -0.25714,0.23393 -0.492141,0.71285 -0.494422,1.00761 -0.0016,0.20797 0.0052,0.21147 0.316639,0.16343 0.611789,-0.0944 1.136537,-0.27838 1.933306,-0.67797 l 0.802889,-0.40267 0.02747,0.54398 c 0.01888,0.37383 0.07248,0.61267 0.171377,0.7636 l 0.143907,0.21963 0.138804,-0.29893 c 0.108566,-0.23381 0.133089,-0.4319 0.112571,-0.90931 -0.02501,-0.58195 -0.02041,-0.60288 0.09868,-0.44935 0.148452,0.19139 2.732286,3.72311 2.980528,4.07395 l 0.172136,0.24327 -2.407494,4.69949 c -1.32412,2.58472 -2.432967,4.72598 -2.464104,4.75835 -0.03113,0.0324 -1.814452,0.393 -3.962925,0.80142 -2.148472,0.40841 -4.024393,0.79861 -4.168712,0.86709 -0.304703,0.14459 -0.336845,0.30141 -0.08527,0.41604 0.136799,0.0623 0.695252,0.01 2.452661,-0.2306 2.797483,-0.38271 3.421392,-0.43172 3.61588,-0.28407 0.280145,0.21269 0.106733,0.44935 -0.75947,1.03651 -2.080843,1.41049 -2.719608,1.98797 -3.099079,2.80175 -0.115242,0.24714 -0.232824,0.59782 -0.261294,0.77928 l -0.05176,0.32993 0.219319,-0.0439 c 0.792997,-0.1586 1.532504,-0.58953 2.724276,-1.5875 0.940243,-0.78735 1.433611,-1.12928 2.134376,-1.47925 0.558407,-0.27887 1.297673,-0.5453 1.354731,-0.48824 0.01895,0.019 0.0058,0.99127 -0.02926,2.16073 -0.05274,1.76015 -0.04529,2.19076 0.04323,2.50074 0.0934,0.32702 0.211189,0.56167 0.28195,0.56167 0.01219,0 0.08977,-0.10952 0.172401,-0.24339 z m 42.399736,-25.80646 c 0,-0.24988 -0.703438,-1.526 -2.301722,-4.17559 -2.353612,-3.90175 -3.318649,-5.77477 -3.763332,-7.30413 -0.222205,-0.76422 -0.536647,-1.56505 -0.599301,-1.52633 -0.02869,0.0177 -0.27662,0.43727 -0.550957,0.93231 l -0.498795,0.90007 -0.04747,2.67883 c -0.0505,2.84955 -0.0025,3.70003 0.284208,5.03787 0.21553,1.00565 0.92351,2.77095 1.111299,2.77095 0.13413,0 -0.05768,-2.28018 -0.337045,-4.00664 -0.05998,-0.37071 -0.131021,-1.19637 -0.157856,-1.83481 -0.02684,-0.63845 -0.077,-1.21136 -0.111482,-1.27314 -0.153584,-0.27521 0.0056,1.91036 0.274688,3.77095 0.100387,0.69417 0.199473,1.65464 0.220189,2.13438 l 0.03767,0.87225 -0.295504,-0.60156 c -0.825484,-1.68045 -1.095928,-4.01789 -0.918196,-7.93595 l 0.07474,-1.64759 0.423128,-0.74642 c 0.462663,-0.81617 0.472986,-0.8313 0.52887,-0.77542 0.02111,0.0211 0.2252,0.59121 0.453541,1.2669 0.604747,1.78952 1.580145,3.69936 3.629909,7.10742 1.600883,2.66172 2.393641,4.07536 2.393641,4.26833 0,0.13518 -0.857919,-0.34943 -1.446145,-0.81688 -1.275275,-1.01341 -2.246646,-2.41009 -4.057025,-5.83335 l -0.804195,-1.52066 -0.235109,0.0503 c -0.26003,0.0557 -0.317036,0.0882 -0.257976,0.14726 0.02175,0.0217 0.125201,0.007 0.229898,-0.0328 0.186667,-0.071 0.203803,-0.0467 0.883709,1.25232 1.551575,2.96439 2.343706,4.20954 3.352184,5.26927 0.719122,0.75568 1.158764,1.09802 1.87041,1.45648 0.582222,0.29327 0.61403,0.29925 0.61403,0.1154 z"
         id="path226" />
      <path
         style="fill:#000000;fill-opacity:1;stroke:#000000;stroke-width:0.0373627;stroke-linecap:square;stroke-dasharray:none;stroke-opacity:1"
         d="m 81.080347,275.22541 c -0.220233,-0.12246 -0.631211,-0.40912 -0.913285,-0.63703 -0.510792,-0.4127 -0.634968,-0.57861 -1.861956,-2.48769 -0.426777,-0.66403 -1.041128,-1.29592 -1.449065,-1.49046 -0.338861,-0.16159 -0.345072,-0.15812 -2.208159,1.23104 -2.081251,1.55184 -2.619247,1.92084 -3.189987,2.18792 -0.544918,0.255 -0.729605,0.24493 -0.923056,-0.0503 -0.100185,-0.1529 -0.107128,-0.2489 -0.04157,-0.57472 0.27919,-1.38754 1.220025,-2.68057 3.156671,-4.33834 0.43512,-0.37246 1.14759,-0.98471 1.583265,-1.36055 l 0.792138,-0.68334 -0.478933,-1.38555 c -0.609002,-1.76186 -1.039304,-3.24455 -1.596613,-5.50146 l -0.443073,-1.79429 -0.401911,-0.41498 c -0.333322,-0.34415 -6.189011,-6.66733 -6.226544,-6.72363 -0.0066,-0.01 -0.447596,-0.0311 -0.980098,-0.0473 -1.13807,-0.0345 -1.611368,-0.1471 -2.540884,-0.60418 -0.913635,-0.44928 -1.678154,-1.02669 -3.002994,-2.26805 l -1.116806,-1.04643 -0.59871,0.0827 -0.59871,0.0827 -0.04711,0.5794 c -0.06245,0.76806 -0.30946,1.2676 -0.8947,1.80943 l -0.449317,0.41599 0.438827,0.65662 c 0.241356,0.36115 0.803559,1.28009 1.249341,2.0421 0.992884,1.69722 1.490994,2.45317 2.073784,3.14727 l 0.447747,0.53326 -0.596746,0.62158 c -1.630474,1.69835 -3.309829,4.16207 -5.059162,7.42214 -0.641916,1.19628 -0.645066,1.20483 -0.645066,1.75032 0,1.07851 -0.327594,2.74094 -1.110765,5.63673 -0.328825,1.21584 -0.540881,1.66776 -0.860009,1.83279 -0.189614,0.0981 -0.232733,0.0966 -0.400986,-0.0137 -0.103688,-0.0679 -0.261199,-0.28076 -0.350022,-0.47294 -0.154681,-0.33466 -0.160748,-0.43714 -0.143708,-2.42762 0.01472,-1.71967 6.8e-5,-2.07821 -0.08494,-2.07821 -0.0565,0 -0.367816,0.13362 -0.691805,0.29693 -0.587671,0.29622 -1.294008,0.80536 -2.498779,1.80116 -1.112585,0.91961 -2.577932,1.51266 -2.958057,1.19718 -0.164241,-0.13631 -0.141438,-0.73962 0.04731,-1.2517 0.355339,-0.96405 1.047031,-1.68465 2.678425,-2.79035 1.024305,-0.69424 1.166294,-0.82592 0.890595,-0.82592 -0.101126,0 -1.175249,0.13571 -2.386941,0.30159 -1.211691,0.16587 -2.358639,0.30387 -2.548772,0.30667 -0.541667,0.008 -0.964885,-0.27637 -0.964885,-0.64827 0,-0.197 0.464909,-0.61038 0.789863,-0.70233 0.162826,-0.0461 1.980265,-0.40539 4.038753,-0.79849 2.058488,-0.3931 3.747079,-0.72117 3.752425,-0.72903 0.227897,-0.33522 4.598652,-9.03406 4.578172,-9.11165 -0.01658,-0.0628 -0.530701,-0.80154 -1.142502,-1.64167 l -1.112365,-1.5275 -0.131265,0.30908 c -0.0722,0.16999 -0.211235,0.42676 -0.308977,0.5706 l -0.177713,0.26153 -0.267068,-0.2788 c -0.318258,-0.33223 -0.508241,-0.687 -0.508241,-0.94909 0,-0.10502 -0.02777,-0.19094 -0.0617,-0.19094 -0.03394,0 -0.345668,0.12315 -0.692736,0.27366 -0.823335,0.35705 -1.275749,0.47327 -1.846575,0.47435 -0.436249,8.4e-4 -0.469714,-0.0114 -0.51387,-0.18729 -0.07941,-0.31638 0.03818,-0.81903 0.290813,-1.24314 0.188132,-0.31583 0.373563,-0.49106 0.853465,-0.80651 l 0.613113,-0.40302 -0.425537,-0.38333 c -1.060213,-0.95506 -2.9163,-2.73728 -4.448011,-4.27098 -1.850485,-1.85288 -2.385325,-2.28173 -3.96646,-3.18037 -0.594069,-0.33764 -1.348241,-0.81444 -1.675939,-1.05956 -1.091441,-0.81639 -2.623155,-2.4422 -4.090381,-4.34167 -0.381061,-0.49333 -0.604454,-0.89646 -0.992727,-1.7915 -0.552785,-1.27425 -0.867369,-2.26016 -0.867369,-2.71832 0,-0.25635 -0.01877,-0.29118 -0.131058,-0.24321 -0.286753,0.1225 -0.889519,0.25958 -1.139677,0.25918 -0.677237,-0.001 -1.324997,-0.41161 -1.926511,-1.22101 -1.522554,-2.04874 -1.70571,-5.36131 -0.582568,-10.53636 0.275823,-1.2709 0.432847,-1.84152 1.057467,-3.84282 0.228992,-0.73369 0.402694,-1.34764 0.386004,-1.36433 -0.0507,-0.0507 -1.84636,0.33278 -2.64387,0.56462 -0.411897,0.11974 -1.115947,0.35393 -1.564555,0.52041 -0.448608,0.16649 -0.844591,0.30271 -0.879962,0.30271 -0.03537,0 -0.06431,-0.10283 -0.06431,-0.2285 0,-0.26766 0.03923,-0.28807 1.523678,-0.79286 1.161916,-0.39511 1.83332,-0.5697 2.969746,-0.77223 0.668704,-0.11918 0.990142,-0.22047 1.437836,-0.45309 0.508796,-0.26437 0.636483,-0.29946 1.085911,-0.29841 l 0.509315,0.001 -0.730621,0.39198 c -0.401841,0.2156 -0.794756,0.44801 -0.873144,0.51648 -0.08427,0.0736 -0.342455,0.73167 -0.631718,1.61014 -0.858522,2.60728 -1.34999,4.54246 -1.661131,6.54076 -0.163176,1.048 -0.23184,3.75964 -0.11596,4.57941 0.244109,1.72688 0.819782,2.92188 1.78739,3.71033 0.379905,0.30956 0.416387,0.32259 0.898685,0.32101 0.563457,-0.002 0.97827,-0.15405 1.424868,-0.52282 l 0.276083,-0.22798 0.04315,0.91918 c 0.04901,1.04401 0.115954,1.27809 0.824452,2.88291 0.486869,1.10281 0.739577,1.47992 2.033271,3.03426 0.97632,1.17302 2.192293,2.3744 2.947893,2.91252 0.325494,0.23181 1.046767,0.68246 1.602828,1.00145 1.659712,0.9521 2.064589,1.28019 4.1707,3.37978 1.861741,1.85597 4.390553,4.25372 4.758703,4.51207 0.383448,0.26909 3.628354,0.0861 4.441956,-0.25057 0.398588,-0.1649 1.122642,-0.90071 1.306199,-1.3274 0.141719,-0.32944 0.162852,-0.48726 0.135366,-1.01094 l -0.03257,-0.62056 0.229923,-0.0395 c 0.126457,-0.0217 0.550079,-0.0865 0.941382,-0.14398 l 0.711459,-0.10446 0.674013,0.65323 c 2.153718,2.08728 3.183433,2.79866 4.561057,3.15099 0.490534,0.12546 0.832398,0.14678 2.36036,0.14723 1.999617,5.9e-4 2.301347,-0.0459 3.192667,-0.49192 1.602045,-0.80167 3.703198,-2.9067 3.703198,-3.71002 0,-0.10443 -0.08558,-0.35083 -0.190184,-0.54756 -0.1046,-0.19673 -0.180427,-0.36584 -0.168503,-0.37581 0.01192,-0.01 0.350301,-0.0587 0.75195,-0.10824 3.406937,-0.4204 6.987828,-2.64302 10.262906,-6.37005 1.650488,-1.87826 2.53683,-3.19974 3.842614,-5.72912 1.207404,-2.33881 1.804672,-4.06736 2.011931,-5.82273 0.04887,-0.41389 0.05931,-0.43062 0.268694,-0.43062 0.216089,0 0.217497,0.003 0.174209,0.35573 -0.212209,1.72976 -0.901347,3.83185 -1.878505,5.73003 l -0.337804,0.6562 0.241489,0.59908 c 0.318785,0.79083 0.510546,1.0411 1.432842,1.87005 4.030859,3.62289 11.882842,8.62599 16.167862,10.30178 1.7463,0.68294 3.15314,0.93854 3.76107,0.68331 l 0.28084,-0.11791 v 0.24941 c 0,0.23261 -0.0224,0.25504 -0.33272,0.33318 -0.44037,0.11089 -0.72,0.10574 -1.48294,-0.0273 -2.01043,-0.35059 -5.6217,-2.05705 -9.642573,-4.55648 -3.309911,-2.05748 -6.890773,-4.64916 -8.94762,-6.4759 -0.328538,-0.29178 -0.607916,-0.51994 -0.620841,-0.50702 -0.04858,0.0486 0.449789,1.20534 0.957466,2.22234 0.644735,1.29157 1.040106,1.983 2.898175,5.06841 1.846429,3.06608 2.308494,4.02756 2.160155,4.49494 -0.04446,0.14009 -0.06604,0.1425 -0.393728,0.0439 -0.951046,-0.28623 -1.816325,-0.83665 -2.685642,-1.7084 -1.055217,-1.05818 -1.935527,-2.36666 -3.141164,-4.66899 -0.370707,-0.70791 -0.691518,-1.28793 -0.712914,-1.28892 -0.08642,-0.004 0.02365,1.24564 0.237311,2.69425 0.183775,1.24601 0.233542,1.86682 0.264152,3.29518 l 0.03772,1.75992 -0.417646,-0.56168 c -0.780911,-1.05022 -1.327756,-2.31442 -1.613636,-3.73041 -0.254945,-1.26277 -0.326753,-2.50511 -0.27569,-4.76965 l 0.04728,-2.09693 -0.168761,0.19576 c -0.09282,0.10767 -0.460286,0.56483 -0.816595,1.0159 -3.321323,4.20463 -7.241522,6.94057 -10.932519,7.6299 l -0.707229,0.13208 0.0298,0.46801 c 0.03725,0.58507 -0.139992,0.94272 -0.891398,1.79865 -0.285076,0.32473 -0.518319,0.60937 -0.518319,0.63255 0,0.0232 0.884643,0.26402 1.965873,0.53521 1.08123,0.2712 2.161308,0.56746 2.400173,0.65835 0.526801,0.20046 0.829143,0.44163 0.764577,0.60989 -0.108036,0.28154 -0.38099,0.31574 -2.790298,0.34965 -1.287179,0.0181 -2.340325,0.0477 -2.340325,0.0656 0,0.018 0.578781,0.79771 1.28618,1.73273 2.25176,2.97631 2.608121,3.62296 2.608121,4.73267 0,1.83956 0.538742,4.05166 1.911303,7.84791 l 0.359753,0.99501 0.605674,0.329 c 0.614663,0.33388 0.966489,0.49948 4.587049,2.15914 3.722046,1.70619 4.706976,2.42904 4.032551,2.95954 -0.575915,0.45302 -1.985702,0.14727 -4.419186,-0.95841 -0.659035,-0.29944 -1.426571,-0.62271 -1.705633,-0.71837 -0.541412,-0.1856 -1.677206,-0.381 -1.756089,-0.30212 -0.08141,0.0814 0.19158,0.82806 0.928439,2.53942 0.829257,1.92596 1.006164,2.51848 0.840485,2.81506 -0.160764,0.28777 -0.525076,0.29186 -1.029226,0.0115 z m 0.662538,-0.28911 c 0,-0.27698 -0.248857,-0.9559 -0.931995,-2.54263 -0.657789,-1.52786 -0.867686,-2.11148 -0.969086,-2.69457 l -0.04232,-0.2434 h 0.660162 c 1.058936,0 1.505252,0.14122 4.091634,1.29462 0.411898,0.18368 1.004661,0.41939 1.317253,0.52379 1.052416,0.35148 2.158323,0.44874 2.071217,0.18215 -0.110543,-0.33833 -1.659294,-1.17452 -4.886278,-2.63818 -2.247953,-1.0196 -4.053075,-1.90911 -4.296609,-2.11724 -0.227659,-0.19457 -1.498541,-3.82322 -1.916479,-5.47197 -0.35378,-1.39566 -0.563513,-2.85469 -0.565226,-3.93207 -0.0013,-0.79868 -0.385417,-1.44633 -2.573819,-4.33932 -0.769613,-1.01739 -1.417743,-1.89788 -1.440288,-1.95663 -0.02447,-0.0638 0.04298,-0.16187 0.16742,-0.24345 0.186632,-0.12236 0.447455,-0.14064 2.495979,-0.17495 1.982882,-0.0332 2.257645,-0.0515 2.062899,-0.13749 -0.321985,-0.14213 -1.891698,-0.56276 -3.355307,-0.89909 l -1.258374,-0.28918 -0.651331,0.48157 c -1.358511,1.00442 -2.215931,1.35856 -3.470928,1.43361 l -0.803024,0.048 3.234228,3.48727 3.234229,3.48727 0.364755,1.53039 c 0.484525,2.0329 1.043773,3.96634 1.687366,5.8336 l 0.528133,1.53227 -0.166771,0.18192 c -0.09172,0.10005 -0.840785,0.76153 -1.664579,1.46995 -2.671427,2.29729 -3.534552,3.38983 -3.75192,4.74917 -0.05778,0.36136 -0.01102,0.37701 0.441003,0.14759 0.445956,-0.22635 0.771402,-0.45329 2.674348,-1.86489 2.09987,-1.55768 2.408081,-1.75146 2.679289,-1.68448 0.659421,0.16284 1.476776,0.9799 2.261069,2.26025 0.923281,1.50725 1.298783,1.91465 2.324012,2.52141 0.400012,0.23675 0.449343,0.24385 0.449343,0.0647 z m -29.145736,-1.67991 c 0.159495,-0.26118 0.947525,-3.15234 1.25468,-4.60322 0.123577,-0.58373 0.197472,-1.2121 0.218269,-1.85608 l 0.03144,-0.97357 -0.104361,1.01102 c -0.136287,1.32033 -0.263313,1.96597 -0.751434,3.81941 -0.456361,1.73283 -0.729502,2.58372 -0.829396,2.58372 -0.197247,0 -0.24705,-0.71398 -0.202724,-2.90628 l 0.04513,-2.23226 -0.217297,0.0521 c -0.51674,0.12387 -1.596163,0.60981 -2.084472,0.93839 -0.291124,0.1959 -0.916875,0.66692 -1.390557,1.04673 -1.058035,0.84834 -1.615285,1.21565 -2.144988,1.41383 -0.555028,0.20767 -0.577,0.20219 -0.515639,-0.12859 0.157852,-0.85093 0.929981,-1.70493 2.586105,-2.86034 1.553938,-1.08411 1.57233,-1.10041 1.57233,-1.39335 0,-0.51208 -0.196574,-0.51727 -3.573226,-0.0944 -1.992955,0.24957 -2.582173,0.30088 -2.652082,0.23097 -0.170498,-0.1705 -0.0032,-0.2085 6.521192,-1.48107 1.455697,-0.28394 1.698781,-0.35105 1.811181,-0.50006 0.135777,-0.18001 3.810928,-7.40026 4.441983,-8.72679 l 0.363634,-0.76438 -0.848666,-1.18277 c -0.466766,-0.65052 -1.238578,-1.70512 -1.715139,-2.34356 l -0.866472,-1.1608 -0.01858,0.7489 c -0.01022,0.4119 -0.03824,0.83312 -0.06227,0.93604 -0.0423,0.1812 -0.04706,0.18253 -0.149924,0.0419 -0.0672,-0.0919 -0.106233,-0.33348 -0.106233,-0.65755 0,-0.35003 -0.03069,-0.52404 -0.09691,-0.54945 -0.0533,-0.0205 -0.432436,0.11995 -0.842518,0.31202 -0.847496,0.39693 -1.700207,0.70344 -1.956966,0.70344 -0.125588,0 -0.174109,-0.0428 -0.174109,-0.1535 0,-0.39033 0.473244,-0.90808 1.221139,-1.33598 l 0.429347,-0.24565 1.365301,-0.0269 c 1.174953,-0.0232 1.937099,-0.10232 2.909163,-0.30208 0.178811,-0.0367 0.234741,0.0203 0.643471,0.65622 0.2462,0.38305 0.86177,1.39191 1.36793,2.24191 0.506161,0.84999 1.171371,1.88657 1.478245,2.3035 l 0.557953,0.75806 -0.463473,0.50489 c -1.076518,1.1727 -2.313581,2.85301 -3.349011,4.54896 -1.059481,1.73535 -2.254439,3.96804 -2.169302,4.05318 0.01393,0.0139 0.306623,-0.50477 0.650418,-1.15268 1.595986,-3.00775 3.105211,-5.26921 4.825439,-7.23053 0.559121,-0.63749 0.632369,-0.75221 0.550635,-0.86238 -0.05185,-0.0699 -0.286984,-0.3845 -0.522517,-0.69914 -0.429718,-0.57403 -0.868583,-1.27567 -2.146855,-3.4323 -0.892167,-1.50522 -1.179577,-1.89876 -1.341348,-1.83668 -0.462607,0.17752 -1.930755,0.33887 -3.083381,0.33887 H 51.80646 l -0.496167,0.27578 c -0.907779,0.50455 -1.314896,0.98129 -1.319298,1.5449 -0.0016,0.20849 0.0018,0.21005 0.354085,0.15997 0.531429,-0.0755 1.150359,-0.29827 1.965254,-0.7072 l 0.730356,-0.36651 0.0355,0.55309 c 0.02314,0.36063 0.08332,0.62609 0.172946,0.76287 l 0.137451,0.20978 0.139333,-0.29893 c 0.11177,-0.2398 0.132856,-0.42257 0.106596,-0.92392 -0.01801,-0.34374 -0.0079,-0.59649 0.02244,-0.56167 0.149321,0.17132 3.168161,4.33165 3.193703,4.40131 0.02712,0.074 -4.696485,9.36687 -4.829247,9.50073 -0.03213,0.0324 -1.814332,0.39426 -3.960446,0.80413 -2.146115,0.40987 -4.022012,0.80244 -4.16866,0.87237 -0.316256,0.15081 -0.341668,0.29926 -0.06898,0.40294 0.148837,0.0566 0.817367,-0.009 2.706764,-0.26397 1.38001,-0.18652 2.658159,-0.33912 2.84033,-0.33912 0.405427,0 0.620936,0.10612 0.620936,0.30577 0,0.20803 -0.201623,0.37845 -1.488198,1.25789 -1.360368,0.92988 -1.980761,1.48719 -2.347198,2.10853 -0.254408,0.43139 -0.500573,1.22832 -0.408008,1.32089 0.07302,0.073 0.912273,-0.21282 1.360123,-0.46324 0.247139,-0.13819 0.78635,-0.52605 1.198247,-0.86191 1.575755,-1.28486 2.245077,-1.71763 3.168583,-2.04874 0.301081,-0.10795 0.578255,-0.19627 0.615944,-0.19627 0.04097,0 0.04954,0.91107 0.02131,2.2657 -0.04569,2.19273 -0.04215,2.27715 0.110027,2.62116 0.08648,0.19551 0.173235,0.35546 0.192786,0.35546 0.01955,0 0.102432,-0.10952 0.18418,-0.24339 z m 42.401339,-25.79274 c 0,-0.24023 -0.775218,-1.65075 -2.274802,-4.13905 -2.375604,-3.9419 -3.16003,-5.44312 -3.684195,-7.05077 -0.425364,-1.30462 -0.650939,-1.87734 -0.714057,-1.81293 -0.03149,0.0321 -0.282287,0.46118 -0.55732,0.95344 l -0.500059,0.89502 -0.01036,3.11162 c -0.01147,3.44494 0.03378,3.94099 0.492215,5.39578 0.240542,0.76333 0.781403,1.94715 0.889608,1.94715 0.03623,0 0.05042,-0.19378 0.03153,-0.43062 -0.01889,-0.23684 -0.05116,-0.73393 -0.07171,-1.10464 -0.02055,-0.3707 -0.123989,-1.24692 -0.229863,-1.94715 -0.105875,-0.70022 -0.212231,-1.74494 -0.236348,-2.3216 -0.02412,-0.57666 -0.07218,-1.09902 -0.106814,-1.1608 -0.04736,-0.0845 -0.06348,-0.066 -0.06506,0.0749 -0.0056,0.5003 0.171343,2.34724 0.337211,3.51985 0.101962,0.72082 0.2022,1.69814 0.222753,2.17182 l 0.03737,0.86124 -0.295504,-0.60156 c -0.361937,-0.7368 -0.631831,-1.64715 -0.791432,-2.66949 -0.161381,-1.03374 -0.216981,-3.32889 -0.12863,-5.30974 l 0.07208,-1.61598 0.428558,-0.74306 c 0.235707,-0.40869 0.442291,-0.75712 0.459075,-0.77428 0.06318,-0.0646 0.125285,0.0824 0.485974,1.15042 0.707917,2.09611 1.339448,3.33113 3.850799,7.53063 1.492224,2.49531 2.20921,3.78427 2.20921,3.97161 0,0.14481 -0.997869,-0.44062 -1.570879,-0.92159 -1.280228,-1.07461 -2.182546,-2.40736 -4.159983,-6.14441 -0.512566,-0.96868 -0.606932,-1.10451 -0.74209,-1.06822 -0.08517,0.0229 -0.196975,0.042 -0.248463,0.0426 -0.05149,5.7e-4 -0.09361,0.0324 -0.09361,0.0707 0,0.0414 0.08887,0.0442 0.219023,0.007 l 0.219023,-0.0628 0.615194,1.17268 c 2.310309,4.40389 3.439349,5.8695 5.270663,6.84187 0.604132,0.32077 0.640906,0.32998 0.640906,0.16054 z"
         id="path227" />
      <path
         style="fill:#000000;fill-opacity:1;stroke:#000000;stroke-width:0.00639245;stroke-linecap:square;stroke-dasharray:none;stroke-opacity:1"
         d="m 76.91991,250.47997 c -0.0048,-0.0125 -0.05761,-0.0199 -0.196737,-0.0274 -0.104599,-0.006 -1.475097,-0.0138 -3.045551,-0.0181 l -2.855372,-0.008 0.16704,-0.10618 c 0.237074,-0.15069 0.580102,-0.39809 0.991198,-0.71485 0.195215,-0.15042 0.36531,-0.27985 0.377989,-0.28762 0.01807,-0.0111 0.133913,0.0109 0.535579,0.10133 1.859887,0.41895 3.131627,0.74131 3.905496,0.98999 0.111371,0.0358 0.200743,0.0665 0.198604,0.0682 -0.01858,0.0151 -0.07273,0.0167 -0.07825,0.002 z"
         id="path228" />
      <path
         style="fill:#000000;fill-opacity:1;stroke:#000000;stroke-width:0.0102874;stroke-linecap:square;stroke-dasharray:none;stroke-opacity:1"
         d="m 57.334884,199.43851 c -0.870264,-0.16975 -1.600474,-0.27581 -2.402271,-0.34893 -1.624582,-0.14815 -2.698627,-0.2818 -3.410477,-0.42437 -0.199676,-0.04 -0.669259,-0.15045 -1.043519,-0.24546 -0.772095,-0.19601 -1.48961,-0.35738 -2.196067,-0.49392 -0.479552,-0.0927 -1.288236,-0.23853 -1.322552,-0.23853 -0.0098,0 -0.01777,-0.11014 -0.01777,-0.24475 v -0.24475 l 0.345391,0.0597 c 1.127329,0.19474 2.160502,0.41153 3.136391,0.65813 1.315332,0.33237 1.96748,0.44047 3.733639,0.61889 0.460254,0.0465 0.934257,0.086 1.05334,0.0878 l 0.216513,0.003 0.01611,-0.17527 c 0.04932,-0.53659 0.166053,-1.53602 0.375715,-3.21677 0.3256,-2.61018 0.415343,-3.44428 0.49425,-4.59368 0.0472,-0.68752 0.05532,-0.62594 -0.09735,-0.73812 -1.239876,-0.91106 -2.842832,-1.56567 -5.119002,-2.09051 -1.205242,-0.2779 -3.546196,-0.74335 -3.73864,-0.74335 h -0.05656 l -0.177704,1.14958 -0.177705,1.14959 -0.0022,-1.42796 c -0.0012,-0.78538 0.0013,-1.42796 0.0056,-1.42796 0.0043,0 0.269958,0.0423 0.590401,0.0939 0.560913,0.0904 2.611137,0.50184 3.483406,0.69903 2.309448,0.52209 3.852281,1.12053 5.161588,2.00211 0.260482,0.17538 0.284483,0.18734 0.294078,0.14654 0.03704,-0.15751 0.40539,-2.59332 0.422074,-2.79105 0.05327,-0.63127 0.103524,-1.83807 0.165144,-3.96531 0.02349,-0.81089 0.04778,-1.53235 0.05399,-1.60323 l 0.01128,-0.12888 h 0.237413 0.237413 l -0.01306,0.28353 c -0.0072,0.15595 -0.04006,1.20681 -0.07307,2.33526 -0.03301,1.12845 -0.06567,2.23035 -0.07258,2.44866 -0.0069,0.21832 -0.0067,0.39695 4.15e-4,0.39695 0.03231,0 0.227582,-0.1542 0.783373,-0.61859 0.928967,-0.7762 1.322345,-1.05795 1.835211,-1.31446 0.573931,-0.28704 1.081723,-0.41668 1.749531,-0.44665 0.187186,-0.008 0.241973,-0.005 0.234517,0.0142 -0.419033,1.08218 -0.89468,1.80812 -1.777634,2.71303 -0.343063,0.35159 -0.688019,0.67363 -1.371463,1.28036 -0.623171,0.55321 -0.883166,0.79318 -0.883732,0.81566 -2.85e-4,0.0113 0.374742,0.20583 0.833393,0.4322 0.458652,0.22638 0.833465,0.42124 0.83292,0.43303 -5.46e-4,0.0118 -0.0221,0.11401 -0.0479,0.22716 l -0.0469,0.20571 -0.225324,0.0248 c -0.269578,0.0297 -0.327934,0.0405 -0.977967,0.18269 -0.572378,0.12515 -0.843572,0.16776 -1.222899,0.19215 -0.245023,0.0158 -0.267883,0.0208 -0.317214,0.0701 -0.04677,0.0468 -0.0552,0.0776 -0.07012,0.25615 -0.116423,1.39358 -0.182227,1.99473 -0.463485,4.23425 -0.226007,1.79959 -0.371276,3.04884 -0.393354,3.38268 l -0.01302,0.19683 0.245112,0.0366 c 0.74003,0.11052 2.132194,0.38188 3.089858,0.60229 0.318028,0.0732 0.587512,0.13686 0.598853,0.14147 0.01134,0.005 -0.480454,0.008 -1.092878,0.007 l -1.113499,-9e-4 z m 0.367825,-9.41318 c 0.211525,-0.0314 1.032996,-0.20677 1.050473,-0.22425 0.005,-0.005 -0.344234,-0.18569 -0.775987,-0.40162 l -0.785004,-0.39261 0.303325,-0.29582 c 0.347131,-0.33855 0.633698,-0.6024 1.190001,-1.09568 1.223931,-1.08528 1.782577,-1.67767 2.251325,-2.38729 0.192125,-0.29085 0.375481,-0.62323 0.355065,-0.64364 -0.02019,-0.0202 -0.474472,0.10271 -0.680988,0.18424 -0.59732,0.23581 -1.019709,0.5238 -2.152226,1.46738 -0.317553,0.26457 -0.702242,0.5762 -0.854863,0.6925 l -0.277494,0.21145 -0.225048,1.44187 c -0.217686,1.39471 -0.223786,1.44284 -0.186464,1.47132 0.04736,0.0361 0.453729,0.0218 0.787885,-0.0279 z"
         id="path208" />
      <path
         style="fill:#000000;fill-opacity:1;stroke:#000000;stroke-width:0.0102874;stroke-linecap:square;stroke-dasharray:none;stroke-opacity:1"
         d="m 56.937942,190.04654 c -0.0085,-0.009 -0.01546,-0.0533 -0.01546,-0.0986 0,-0.0698 0.392,-2.64008 0.422485,-2.77017 0.0058,-0.0246 0.04506,-0.0661 0.08733,-0.0922 0.121188,-0.0749 0.609219,-0.46489 1.181224,-0.94393 0.822809,-0.68908 1.210319,-0.96697 1.670875,-1.19818 0.315511,-0.1584 0.675503,-0.28716 0.894827,-0.32005 l 0.09378,-0.0141 -0.10585,0.19305 c -0.349579,0.63757 -0.877101,1.2866 -1.617672,1.9903 -0.180306,0.17132 -0.638681,0.58849 -1.018611,0.92704 -0.37993,0.33855 -0.847115,0.76891 -1.03819,0.95635 l -0.347409,0.3408 0.687645,0.3386 c 0.378204,0.18622 0.728681,0.36192 0.778837,0.39043 l 0.09119,0.0519 -0.400498,0.0879 c -0.220273,0.0483 -0.493523,0.10206 -0.607222,0.11936 -0.247268,0.0376 -0.735515,0.0644 -0.757277,0.0415 z"
         id="path209" />
      <path
         style="fill:#000000;fill-opacity:1;stroke:#000000;stroke-width:0.0530003;stroke-linecap:square;stroke-dasharray:none;stroke-opacity:1"
         d="m 66.262351,214.49032 c -0.528366,-0.23982 -1.471049,-1.10082 -2.011792,-1.83745 l -0.378547,-0.51569 0.359393,-0.37741 c 0.197667,-0.20757 1.984787,-1.89327 3.971379,-3.74599 1.986592,-1.85272 3.677596,-3.44859 3.757787,-3.54636 0.08019,-0.0978 0.204696,-0.17777 0.276679,-0.17777 0.136982,0 1.280532,1.24114 1.566108,1.69976 0.09096,0.14607 0.194915,0.43474 0.231015,0.64148 0.05794,0.33178 -0.03998,0.56583 -0.834369,1.99448 -2.342306,4.21245 -4.153579,6.07979 -5.890626,6.07296 -0.355913,-0.001 -0.775458,-0.0847 -1.047027,-0.20801 z"
         id="path210" />
      <ellipse
         style="display:inline;fill:#000000;fill-opacity:1;stroke:#000000;stroke-width:0.498898;stroke-linecap:square;stroke-dasharray:none;stroke-opacity:1"
         id="ellipse228"
         cx="25.396656"
         cy="199.09766"
         rx="2.4225347"
         ry="2.2397017" />
    </g>
  </g>
</svg>
