<?xml version="1.0" encoding="UTF-8" standalone="no"?>
<!-- Created with Inkscape (http://www.inkscape.org/) -->

<svg
   width="72"
   height="72"
   viewBox="0 0 72 72"
   version="1.1"
   id="svg1"
   inkscape:version="1.3.2 (091e20e, 2023-11-25, custom)"
   sodipodi:docname="Gem1.svg"
   xmlns:inkscape="http://www.inkscape.org/namespaces/inkscape"
   xmlns:sodipodi="http://sodipodi.sourceforge.net/DTD/sodipodi-0.dtd"
   xmlns="http://www.w3.org/2000/svg"
   xmlns:svg="http://www.w3.org/2000/svg">
  <sodipodi:namedview
     id="namedview1"
     pagecolor="#ffffff"
     bordercolor="#000000"
     borderopacity="0.25"
     inkscape:showpageshadow="2"
     inkscape:pageopacity="0.0"
     inkscape:pagecheckerboard="0"
     inkscape:deskcolor="#d1d1d1"
     inkscape:document-units="px"
     showguides="true"
     inkscape:zoom="3.8527866"
     inkscape:cx="26.214792"
     inkscape:cy="17.909115"
     inkscape:window-width="1440"
     inkscape:window-height="872"
     inkscape:window-x="0"
     inkscape:window-y="28"
     inkscape:window-maximized="0"
     inkscape:current-layer="layer1">
    <sodipodi:guide
       position="20.034993,32.751639"
       orientation="1,0"
       id="guide1"
       inkscape:locked="false" />
    <sodipodi:guide
       position="51.992514,34.473893"
       orientation="1,0"
       id="guide2"
       inkscape:locked="false" />
    <sodipodi:guide
       position="17.739708,52.113449"
       orientation="0,-1"
       id="guide3"
       inkscape:locked="false" />
    <sodipodi:guide
       position="38.741945,20.007486"
       orientation="0,-1"
       id="guide4"
       inkscape:locked="false" />
  </sodipodi:namedview>
  <defs
     id="defs1" />
  <g
     inkscape:label="Layer 1"
     inkscape:groupmode="layer"
     id="layer1">
    <rect
       style="fill:#ffffff;fill-opacity:1;stroke:none;stroke-width:1.92905;stroke-linecap:square;stroke-opacity:0.58;paint-order:fill markers stroke"
       id="rect7"
       width="72"
       height="72"
       x="0"
       y="0"
       sodipodi:insensitive="true" />
    <path
       style="fill:none;stroke:#000000;stroke-width:0.869291;stroke-linecap:square;stroke-dasharray:none;stroke-opacity:0.58;paint-order:fill markers stroke"
       d="m 40.612335,41.762819 4.334389,0.0954 c 2.789153,0.01713 6.868309,-0.749017 7.646572,-2.415832 2.525249,-7.625404 3.894168,-8.88928 -3.34901,-13.934258 -1.513121,-1.057182 -11.646163,2.40416 -11.244012,4.356308 l -0.340975,6.61424 c 0.06571,2.581883 -0.03249,4.831004 2.953036,5.284147 z"
       id="path4"
       sodipodi:nodetypes="ccccccc" />
    <path
       style="fill:none;stroke:#000000;stroke-width:0.869291;stroke-linecap:square;stroke-opacity:0.58;paint-order:fill markers stroke"
       d="m 42.359302,18.935288 c 1.531051,-3.759621 -1.838376,-6.770359 0,-12.1088127 4.082138,-6.63609598 13.359672,-7.35598398 12.246414,2.752003 l -0.550401,8.3936087 c -0.507291,8.324212 -13.457976,6.841243 -11.696013,0.963201 z"
       id="path7"
       sodipodi:nodetypes="ccccc" />
    <path
       style="fill:none;stroke:#000000;stroke-width:0.869291;stroke-linecap:square;stroke-dasharray:none;stroke-opacity:0.58;paint-order:fill markers stroke"
       d="m 27.133287,21.005598 5.397034,-0.400317 c 4.114261,0.081 4.881233,0.937363 4.639145,3.469415 -1.119655,4.119134 -0.929447,9.111509 -3.651555,12.16234 -0.72538,1.657599 -14.657956,2.315792 -15.060276,-0.491864 0.834935,-8.605174 2.049369,-13.423491 8.675652,-14.739549 z"
       id="path6"
       sodipodi:nodetypes="ccccccc" />
    <path
       style="fill:none;stroke:#000000;stroke-width:0.869291;stroke-linecap:square;stroke-dasharray:none;stroke-opacity:0.58;paint-order:fill markers stroke"
       d="M 38.15942,4.2078953 C 42.984343,5.7280053 37.078201,18.994602 34.84876,18.768926 22.692526,19.182647 19.160984,13.006382 22.251317,8.9352293 28.299457,-0.27848468 32.904833,1.9009323 38.15942,4.2078953 Z"
       id="path5"
       sodipodi:nodetypes="cccc" />
    <path
       style="fill:none;stroke:#000000;stroke-width:0.869291;stroke-linecap:square;stroke-dasharray:none;stroke-opacity:0.58;paint-order:fill markers stroke"
       d="M 12.79038,40.226657 C 16.158179,41.529379 12.035687,52.898743 10.479535,52.70534 1.994471,53.059896 -0.47054873,47.766888 1.6865068,44.277942 5.9081143,36.381867 9.1226713,38.24961 12.79038,40.226657 Z"
       id="path5-7"
       sodipodi:nodetypes="cccc" />
    <path
       style="fill:none;stroke:#000000;stroke-width:0.869291;stroke-linecap:square;stroke-dasharray:none;stroke-opacity:0.58;paint-order:fill markers stroke"
       d="m 17.024333,41.944099 c -0.772908,0.444306 -2.109273,4.968968 0.757324,6.276369 1.643614,0.721701 2.967693,1.849251 5.30126,1.69462 2.591878,0.191291 13.185243,-3.037025 13.199058,-4.393458 0.210188,-4.977521 1.621957,-5.133644 -10.169766,-6.08808 -3.851995,-0.04753 -6.243362,1.190398 -9.087876,2.510549 z"
       id="path5-8"
       sodipodi:nodetypes="cccccc" />
    <path
       style="fill:none;stroke:#000000;stroke-width:0.869291;stroke-linecap:square;stroke-dasharray:none;stroke-opacity:0.58;paint-order:fill markers stroke"
       d="m 2.7486513,30.146061 c -1.0673077,2.214735 -2.57881753,3.965192 -0.0152,5.016878 4.147813,1.204112 9.3919487,2.879432 10.9627317,-1.549177 1.431254,-7.539717 10.543929,-12.105213 1.020593,-14.714959 -3.729527,-1.141419 -9.1157457,0.97707 -9.6130687,2.966145 -0.874076,3.1277 -1.042226,5.324961 -2.355059,8.281113 z"
       id="path3"
       sodipodi:nodetypes="cccccc" />
    <path
       style="fill:none;stroke:#000000;stroke-width:0.869291;stroke-linecap:square;stroke-opacity:0.58;paint-order:fill markers stroke"
       d="m 28.929665,51.644128 c 2.48319,0.0252 5.325319,-0.595698 6.192006,2.339202 0.98269,3.106896 -0.624105,6.077425 -0.1376,8.80641 2.395117,10.82234 -10.094104,8.890079 -12.246413,8.393609 -0.668536,-0.183946 -7.189444,-19.755441 6.192007,-19.539221 z"
       id="path3-4"
       sodipodi:nodetypes="ccccc" />
    <path
       style="fill:none;stroke:#000000;stroke-width:0.869291;stroke-linecap:square;stroke-opacity:0.58;paint-order:fill markers stroke"
       d="m 38.292796,63.784038 c 0.119589,3.345961 -0.633244,6.27484 3.318699,6.55664 6.063064,-0.193562 13.830434,-0.238611 12.876552,-6.689388 -3.20086,-10.453328 5.237875,-18.81379 -8.495869,-19.646698 -5.490712,0.09736 -10.914122,5.156183 -10.221594,7.964878 2.117501,3.081289 2.395153,7.186849 2.522212,11.814568 z"
       id="path3-5"
       sodipodi:nodetypes="cccccc" />
    <g
       id="g2"
       inkscape:label="Gem"
       transform="rotate(-45,35.756078,36.676467)">
      <path
         style="fill:#ff1e5a;fill-opacity:1;stroke:#c61c47;stroke-width:2;stroke-linecap:square;stroke-opacity:1;paint-order:fill markers stroke"
         d="m 24.227342,46.469772 0.0421,-19.719875 12.113671,-15.588991 11.44659,15.634862 0.02199,19.786265 -11.555078,14.852376 z"
         id="path1"
         sodipodi:nodetypes="ccccccc" />
      <path
         style="fill:#ff1e5a;fill-opacity:1;stroke:#fffff9;stroke-width:2;stroke-linecap:square;stroke-opacity:1;paint-order:fill markers stroke"
         d="m 37.257809,19.056173 6.152666,7.86174"
         id="path3-6"
         sodipodi:nodetypes="cc" />
    </g>
  </g>
</svg>
