<?xml version="1.0" encoding="UTF-8" standalone="no"?>
<!-- Created with Inkscape (http://www.inkscape.org/) -->

<svg
   width="72"
   height="72"
   viewBox="0 0 72 72"
   version="1.1"
   id="svg1"
   inkscape:version="1.3.2 (091e20e, 2023-11-25, custom)"
   sodipodi:docname="Corner1.svg"
   xmlns:inkscape="http://www.inkscape.org/namespaces/inkscape"
   xmlns:sodipodi="http://sodipodi.sourceforge.net/DTD/sodipodi-0.dtd"
   xmlns="http://www.w3.org/2000/svg"
   xmlns:svg="http://www.w3.org/2000/svg">
  <sodipodi:namedview
     id="namedview1"
     pagecolor="#ffffff"
     bordercolor="#000000"
     borderopacity="0.25"
     inkscape:showpageshadow="2"
     inkscape:pageopacity="0.0"
     inkscape:pagecheckerboard="0"
     inkscape:deskcolor="#d1d1d1"
     inkscape:document-units="px"
     showguides="true"
     inkscape:zoom="5.239627"
     inkscape:cx="53.820626"
     inkscape:cy="-6.6798649"
     inkscape:window-width="1440"
     inkscape:window-height="872"
     inkscape:window-x="0"
     inkscape:window-y="28"
     inkscape:window-maximized="0"
     inkscape:current-layer="layer1">
    <sodipodi:guide
       position="20.034993,32.751639"
       orientation="1,0"
       id="guide1"
       inkscape:locked="false" />
    <sodipodi:guide
       position="51.992514,34.473893"
       orientation="1,0"
       id="guide2"
       inkscape:locked="false" />
    <sodipodi:guide
       position="41.73002,52.010805"
       orientation="0,-1"
       id="guide3"
       inkscape:locked="false" />
    <sodipodi:guide
       position="38.741945,20.007486"
       orientation="0,-1"
       id="guide4"
       inkscape:locked="false" />
  </sodipodi:namedview>
  <defs
     id="defs1" />
  <g
     inkscape:label="Layer 1"
     inkscape:groupmode="layer"
     id="layer1">
    <rect
       style="fill:#ffffff;fill-opacity:1;stroke:none;stroke-width:1.92905;stroke-linecap:square;stroke-opacity:0.58;paint-order:fill markers stroke"
       id="rect7"
       width="72"
       height="72"
       x="0"
       y="0"
       sodipodi:insensitive="true" />
    <path
       style="fill:none;stroke:#000000;stroke-width:0.869291;stroke-linecap:square;stroke-opacity:0.58;paint-order:fill markers stroke"
       d="m 24.591227,40.692691 -0.132747,5.065944 c -0.02383,3.259903 1.042291,8.027535 3.36174,8.937154 10.611096,2.951458 12.369836,4.551422 19.390152,-3.914253 1.471117,-1.768505 -3.345497,-13.611793 -6.062001,-13.141768 l -9.204015,-0.398524 c -3.592807,0.0768 -6.722561,-0.03797 -7.353129,3.451447 z"
       id="path4"
       sodipodi:nodetypes="ccccccc" />
    <path
       style="fill:none;stroke:#000000;stroke-width:0.869291;stroke-linecap:square;stroke-opacity:0.58;paint-order:fill markers stroke"
       d="m 53.502012,41.960347 c 3.759621,1.531051 6.770359,-1.838376 12.108813,0 6.636096,4.082138 7.355984,13.359672 -2.752003,12.246414 L 54.465213,53.65636 C 46.141001,53.149069 47.62397,40.198384 53.502012,41.960347 Z"
       id="path7"
       sodipodi:nodetypes="ccccc" />
    <path
       style="fill:none;stroke:#000000;stroke-width:0.86929134;stroke-linecap:square;stroke-opacity:0.58;paint-order:fill markers stroke;stroke-dasharray:none"
       d="m 51.248171,25.633144 0.400317,5.397034 c -0.081,4.114261 -0.937363,4.881233 -3.469415,4.639145 L 34.434848,34.390595 c -1.657599,-0.72538 -0.733907,-17.030783 2.073749,-17.433103 2.917866,0.04582 6.270084,0.427357 9.268547,0.427357 7.571558,-0.28089 5.454594,4.613657 5.471002,8.248295 z"
       id="path6"
       sodipodi:nodetypes="cccccccc" />
    <path
       style="fill:none;stroke:#000000;stroke-width:0.86929134;stroke-linecap:square;stroke-opacity:0.58;paint-order:fill markers stroke;stroke-dasharray:none"
       d="m 68.229405,37.760465 c -1.52011,4.824923 -14.786707,-1.081219 -14.561031,-3.31066 -0.413721,-12.156234 5.762544,-15.687776 9.833697,-12.597443 9.213714,6.04814 7.034297,10.653516 4.727334,15.908103 z"
       id="path5"
       sodipodi:nodetypes="cccc" />
    <path
       style="fill:none;stroke:#000000;stroke-width:0.86929134;stroke-linecap:square;stroke-opacity:0.58;paint-order:fill markers stroke;stroke-dasharray:none"
       d="m 27.804332,15.604654 c -0.709373,-0.766156 -7.933382,-2.090848 -10.02076,0.750709 -1.152257,1.629256 -2.952487,2.941769 -2.705605,5.254952 -0.305413,2.569237 3.349649,14.120986 7.014531,13.083761 7.947037,0.208352 8.1963,1.607789 9.720139,-10.080931 0.07589,-3.818347 -1.900571,-6.188824 -4.008305,-9.008491 z"
       id="path5-8"
       sodipodi:nodetypes="cccccc" />
    <path
       style="fill:none;stroke:#000000;stroke-width:0.86929134;stroke-linecap:square;stroke-opacity:0.58;paint-order:fill markers stroke;stroke-dasharray:none"
       d="M 21.282144,60.463892 C 13.150189,54.569953 12.460203,48.858926 10.60913,39.118749 c 0.690632,-7.929824 8.866771,-6.229887 8.185242,0.191726 -0.416962,2.307017 12.167168,21.983768 2.487772,21.153417 z"
       id="path7-1"
       sodipodi:nodetypes="cccc" />
    <path
       style="fill:none;stroke:#000000;stroke-width:0.86929134;stroke-linecap:square;stroke-opacity:0.58;paint-order:fill markers stroke;stroke-dasharray:none"
       d="M 24.258671,1.7777237 C 19.66119,1.3390297 15.69282,0.35857988 15.04808,3.0633841 14.917468,7.3107119 14.471791,12.720299 23.382669,13.062966 37.930665,12.467038 50.871442,19.929702 50.88719,10.218018 51.112369,6.3837917 44.527491,1.8225321 40.629547,1.8661417 34.454138,1.847365 30.339226,2.2572315 24.258671,1.7777237 Z"
       id="path3"
       sodipodi:nodetypes="cccccc" />
    <g
       id="g2"
       inkscape:label="Gem"
       transform="matrix(0.7071163,-0.70710648,0.7071163,0.70710648,-15.461911,36.025654)">
      <path
         style="fill:#ff1e5a;fill-opacity:1;stroke:#c61c47;stroke-width:2;stroke-linecap:square;stroke-opacity:1;paint-order:fill markers stroke"
         d="m 24.227342,46.469772 0.0421,-19.719875 12.113671,-15.588991 11.44659,15.634862 0.02199,19.786265 -11.555078,14.852376 z"
         id="path1"
         sodipodi:nodetypes="ccccccc" />
      <path
         style="fill:#ff1e5a;fill-opacity:1;stroke:#fffff9;stroke-width:2;stroke-linecap:square;stroke-opacity:1;paint-order:fill markers stroke"
         d="m 37.257809,19.056173 6.152666,7.86174"
         id="path3-6"
         sodipodi:nodetypes="cc" />
    </g>
  </g>
</svg>
