<?xml version="1.0" encoding="UTF-8" standalone="no"?>
<!-- Created with Inkscape (http://www.inkscape.org/) -->

<svg
   width="72"
   height="72"
   viewBox="0 0 72 72"
   version="1.1"
   id="svg1"
   inkscape:version="1.3.2 (091e20e, 2023-11-25, custom)"
   sodipodi:docname="Gem7.svg"
   xmlns:inkscape="http://www.inkscape.org/namespaces/inkscape"
   xmlns:sodipodi="http://sodipodi.sourceforge.net/DTD/sodipodi-0.dtd"
   xmlns="http://www.w3.org/2000/svg"
   xmlns:svg="http://www.w3.org/2000/svg">
  <sodipodi:namedview
     id="namedview1"
     pagecolor="#ffffff"
     bordercolor="#000000"
     borderopacity="0.25"
     inkscape:showpageshadow="2"
     inkscape:pageopacity="0.0"
     inkscape:pagecheckerboard="0"
     inkscape:deskcolor="#d1d1d1"
     inkscape:document-units="px"
     showguides="true"
     inkscape:zoom="3.9568385"
     inkscape:cx="25.778156"
     inkscape:cy="29.821788"
     inkscape:window-width="1440"
     inkscape:window-height="872"
     inkscape:window-x="0"
     inkscape:window-y="28"
     inkscape:window-maximized="0"
     inkscape:current-layer="layer1">
    <sodipodi:guide
       position="12.889078,52.034565"
       orientation="0,-1"
       id="guide1"
       inkscape:locked="false" />
    <sodipodi:guide
       position="7.1402881,20.018702"
       orientation="0,-1"
       id="guide2"
       inkscape:locked="false" />
  </sodipodi:namedview>
  <defs
     id="defs1" />
  <g
     inkscape:label="Layer 1"
     inkscape:groupmode="layer"
     id="layer1">
    <rect
       style="fill:#ffffff;fill-opacity:1;stroke:none;stroke-width:1.92905;stroke-linecap:square;stroke-opacity:0.58;paint-order:fill markers stroke"
       id="rect7"
       width="72"
       height="72"
       x="0"
       y="0" />
    <path
       style="fill:none;stroke:#000000;stroke-width:0.869291;stroke-linecap:square;stroke-opacity:0.58;paint-order:fill markers stroke"
       d="m 54.509488,29.269122 c 6.561881,-1.367659 4.961858,5.834681 4.778927,11.549074 -0.437413,5.335853 -4.976546,7.595417 -7.964878,11.018081 -5.609071,6.146349 -9.885126,-4.813851 -15.266016,-14.204032 -1.867209,-3.015543 1.626067,-9.004088 5.309919,-8.230375 4.472967,0.573331 8.737029,0.577739 13.142048,-0.132748 z"
       id="path2"
       sodipodi:nodetypes="cccccc" />
    <path
       style="fill:none;stroke:#000000;stroke-width:0.869291;stroke-linecap:square;stroke-opacity:0.58;paint-order:fill markers stroke"
       d="M 52.252772,8.4276916 C 52.133183,5.081731 52.886016,2.1528516 48.934073,1.8710511 42.871009,2.0646141 35.103639,2.1096629 36.057521,8.5604396 39.258381,19.013769 30.819646,27.374231 44.55339,28.207139 50.044102,28.109779 55.467512,23.050956 54.774984,20.242261 53.802822,15.786566 52.554189,12.846183 52.252772,8.4276916 Z"
       id="path3"
       sodipodi:nodetypes="cccccc" />
    <path
       style="fill:none;stroke:#000000;stroke-width:0.869291;stroke-linecap:square;stroke-opacity:0.58;paint-order:fill markers stroke"
       d="M 31.013098,2.0037991 25.947154,1.8710511 C 22.687251,1.8472252 17.919619,2.9133426 17.01,5.2327918 14.058542,15.843888 12.458578,17.602628 20.924253,24.622944 c 1.768505,1.471117 14.408561,-3.788146 13.938536,-6.50465 L 34.464545,9.3569274 c -0.0768,-3.5928064 0.03797,-6.7225606 -3.451447,-7.3531283 z"
       id="path4"
       sodipodi:nodetypes="ccccccc" />
    <path
       style="fill:none;stroke:#000000;stroke-width:0.869291;stroke-linecap:square;stroke-opacity:0.58;paint-order:fill markers stroke"
       d="M 19.198529,48.915822 C 12.519415,53.263675 11.233336,37.835748 14.021358,35.508277 28.194869,21.719091 36.25079,21.919478 35.128285,28.074391 33.710767,40.952652 26.879919,44.616011 19.198529,48.915822 Z"
       id="path5"
       sodipodi:nodetypes="cccc" />
    <path
       style="fill:none;stroke:#000000;stroke-width:0.869291;stroke-linecap:square;stroke-opacity:0.58;paint-order:fill markers stroke"
       d="m 47.341098,71.350228 -7.035643,0.398244 c -5.363404,-0.08058 -6.363238,-0.932509 -6.047649,-3.451447 l 1.666967,-13.673041 c 0.809986,-4.634136 4.53399,-3.2013 6.106406,-2.389463 3.515221,2.002203 7.360406,6.893249 9.862806,4.449984 6.118101,-5.97352 6.568217,-2.577719 6.756804,0.0025 -0.05973,2.902754 -0.557106,6.237611 -0.557106,9.220544 0.366171,7.532344 -6.014424,5.426344 -10.752585,5.442667 z"
       id="path6"
       sodipodi:nodetypes="cccccscccc" />
    <path
       style="fill:none;stroke:#000000;stroke-width:0.869291;stroke-linecap:square;stroke-opacity:0.58;paint-order:fill markers stroke"
       d="m 31.809586,69.624504 c -0.147175,3.154903 -8.94675,3.051755 -10.774106,0.956082 -0.104219,-0.09062 -7.951096,-12.586116 2.410984,-22.195756 l 5.661497,-4.362785 c 6.964004,-6.041375 13.545116,3.592026 6.816812,6.884996 -3.764484,1.909407 -4.12978,11.680505 -4.115187,18.717463 z"
       id="path7"
       sodipodi:nodetypes="cccccc" />
    <g
       id="g2"
       inkscape:label="Gem"
       transform="rotate(-45,35.756078,36.676467)">
      <path
         style="fill:#ff1e5a;fill-opacity:1;stroke:#c61c47;stroke-width:2;stroke-linecap:square;stroke-opacity:1;paint-order:fill markers stroke"
         d="m 24.227342,46.469772 0.0421,-19.719875 12.113671,-15.588991 11.44659,15.634862 0.02199,19.786265 -11.555078,14.852376 z"
         id="path1"
         sodipodi:nodetypes="ccccccc" />
      <path
         style="fill:#ff1e5a;fill-opacity:1;stroke:#fffff9;stroke-width:2;stroke-linecap:square;stroke-opacity:1;paint-order:fill markers stroke"
         d="m 37.257809,19.056173 6.152666,7.86174"
         id="path3-6"
         sodipodi:nodetypes="cc" />
    </g>
  </g>
</svg>
