<?xml version="1.0" encoding="UTF-8" standalone="no"?>
<!-- Created with Inkscape (http://www.inkscape.org/) -->

<svg
   width="72"
   height="72"
   viewBox="0 0 72 72"
   version="1.1"
   id="svg1"
   inkscape:version="1.4.2 (ebf0e940, 2025-05-08)"
   sodipodi:docname="AppleSpider-Small.svg"
   xmlns:inkscape="http://www.inkscape.org/namespaces/inkscape"
   xmlns:sodipodi="http://sodipodi.sourceforge.net/DTD/sodipodi-0.dtd"
   xmlns="http://www.w3.org/2000/svg"
   xmlns:svg="http://www.w3.org/2000/svg">
  <sodipodi:namedview
     id="namedview1"
     pagecolor="#ffffff"
     bordercolor="#000000"
     borderopacity="0.25"
     inkscape:showpageshadow="2"
     inkscape:pageopacity="0.0"
     inkscape:pagecheckerboard="0"
     inkscape:deskcolor="#d1d1d1"
     inkscape:document-units="px"
     inkscape:zoom="1.8301324"
     inkscape:cx="59.558532"
     inkscape:cy="57.372898"
     inkscape:window-width="1160"
     inkscape:window-height="727"
     inkscape:window-x="0"
     inkscape:window-y="25"
     inkscape:window-maximized="0"
     inkscape:current-layer="layer1" />
  <defs
     id="defs1" />
  <g
     inkscape:label="Layer 1"
     inkscape:groupmode="layer"
     id="layer1">
    <rect
       style="fill:#f9f9f9;stroke-width:0.496151;stroke-linecap:round;stroke-linejoin:round"
       id="rect1"
       width="72"
       height="72"
       x="0"
       y="0" />
    <g
       id="g125"
       inkscape:label="Apple Spider"
       transform="matrix(0.34092563,-0.34092563,0.34092563,0.34092563,-109.46104,133.17663)">
      <path
         style="fill:none;fill-opacity:1;stroke:#000000;stroke-width:0.377961;stroke-linecap:square;stroke-dasharray:none;stroke-opacity:1"
         d="m 360.42823,64.806886 c -2.04852,0 -2.46313,-0.144035 -4.44501,-1.559651 -9.23571,-8.384482 -0.12919,-13.47805 0.58488,-19.495646 v -0.311931 c 2.43576,0.31879 3.71628,3.891751 4.36702,6.901459 0.93604,6.788979 0.40911,8.04583 1.3647,11.151509 l 0.11697,0.272939 0.54588,0.07798 c 2.83619,-3.821466 9.39967,-3.177444 10.48866,-3.04132 -4.7082,-5.82785 -2.3016,-11.281109 0.078,-15.323579 0.91383,-1.758248 3.00518,-2.710225 3.70417,-4.445007 2.91225,0.110523 3.52385,3.923322 3.47022,7.408346 -0.47959,3.009824 -0.5823,6.014307 -0.46787,9.04598 l 0.0299,0.998158 c 0.68884,-6.280758 6.16132,-11.006206 12.73605,-14.460726 3.31085,-1.575044 15.72669,-2.50515 23.81376,0.729674 5.1963,-6.789301 9.75847,-7.941393 12.80239,-0.331669 2.04408,6.871793 1.66263,18.705487 1.2603,24.941436 8.76895,0.649154 14.7924,7.855884 14.7924,17.114069 l 0.0143,1.937623 c -0.81886,-9.999751 -13.96946,-22.652659 -23.09844,-16.398352 15.87783,9.936934 19.23939,15.290563 22.81875,16.185399"
         id="path126"
         sodipodi:nodetypes="cccccccccccccccccccccc" />
      <path
         style="display:inline;fill:none;fill-opacity:1;stroke:#000000;stroke-width:0.498898;stroke-linecap:square;stroke-dasharray:none;stroke-opacity:1"
         d="m 540.25723,79.176067 c -0.15649,1.915471 -1.32896,3.381309 -2.85392,4.473475 3.22351,2.541017 10.36545,10.280532 6.54975,24.729638 C 542.42305,79.147357 522.80859,80.400342 519.3998,81.594766 l 14.2254,14.417121 10.13421,12.039433"
         id="path128"
         sodipodi:nodetypes="cccccc"
         transform="matrix(0.75759183,0,0,0.75759183,18.74754,13.767285)" />
      <path
         style="display:inline;fill:none;fill-opacity:1;stroke:#000000;stroke-width:0.498898;stroke-linecap:square;stroke-dasharray:none;stroke-opacity:1"
         d="m 477.20921,56.264382 c -0.20928,2.643748 0.0463,6.644114 0.78837,8.330598"
         id="path152"
         sodipodi:nodetypes="cc"
         transform="matrix(0.75759183,0,0,0.75759183,18.74754,13.767285)" />
      <path
         style="display:inline;fill:none;fill-opacity:1;stroke:#000000;stroke-width:0.498898;stroke-linecap:square;stroke-dasharray:none;stroke-opacity:1"
         d="m 477.2209,59.766927 c 0.0791,-0.860924 0.40885,-1.366713 1.01523,-1.263905 6.13241,0.613796 9.06724,19.341767 17.40348,21.466689 5.86169,0.611632 9.47351,-2.846399 9.20515,-8.665782 4.75216,1.962126 18.63652,0.601478 16.46858,-17.223693 -2.5933,-9.675596 -10.41449,-16.287865 -13.34027,-18.482208"
         id="path153"
         sodipodi:nodetypes="cccccc"
         transform="matrix(0.75759183,0,0,0.75759183,18.74754,13.767285)" />
      <path
         style="display:inline;fill:none;fill-opacity:1;stroke:#000000;stroke-width:0.498898;stroke-linecap:square;stroke-dasharray:none;stroke-opacity:1"
         d="m 516.26379,35.992604 c 9.51836,2.878234 8.52144,14.002313 17.62244,10.898867 2.38151,-5.424441 -0.47921,-10.128209 -4.71867,-12.687889"
         id="path154"
         sodipodi:nodetypes="ccc"
         transform="matrix(0.75759183,0,0,0.75759183,18.74754,13.767285)" />
      <path
         style="display:inline;fill:none;fill-opacity:1;stroke:#000000;stroke-width:0.498898;stroke-linecap:square;stroke-dasharray:none;stroke-opacity:1"
         d="m 460.70449,93.637406 c -1.12683,-6.169613 2.89615,-12.781824 9.46943,-12.301799 -1.80715,4.642364 -5.38267,10.316945 -6.80615,12.513171"
         id="path155"
         sodipodi:nodetypes="ccc"
         transform="matrix(0.75759183,0,0,0.75759183,18.74754,13.767285)" />
      <path
         style="display:inline;fill:none;fill-opacity:1;stroke:#000000;stroke-width:0.498898;stroke-linecap:square;stroke-dasharray:none;stroke-opacity:1"
         d="m 448.44497,81.758349 c 1.31402,3.338756 3.06001,6.463745 5.242,9.30033"
         id="path156"
         sodipodi:nodetypes="cc"
         transform="matrix(0.75759183,0,0,0.75759183,18.74754,13.767285)" />
      <path
         style="display:inline;fill:none;fill-opacity:1;stroke:#000000;stroke-width:0.498898;stroke-linecap:square;stroke-dasharray:none;stroke-opacity:1"
         d="m 475.55681,65.909032 c -3.41932,-4.139178 -10.08788,-15.027083 -3.18678,-28.613661 0.77999,-1.401843 1.19383,-2.320113 0.85409,-3.814946"
         id="path157"
         sodipodi:nodetypes="ccc"
         transform="matrix(0.75759183,0,0,0.75759183,18.74754,13.767285)" />
      <path
         style="display:inline;fill:none;fill-opacity:1;stroke:#000000;stroke-width:0.498898;stroke-linecap:square;stroke-dasharray:none;stroke-opacity:1"
         d="m 469.43174,48.912279 c 3.01782,-8.393281 3.91121,-8.995151 6.98104,-12.755698"
         id="path158"
         sodipodi:nodetypes="cc"
         transform="matrix(0.75759183,0,0,0.75759183,18.74754,13.767285)" />
      <path
         style="display:inline;fill:none;fill-opacity:1;stroke:#000000;stroke-width:0.498898;stroke-linecap:square;stroke-dasharray:none;stroke-opacity:1"
         d="m 468.55513,38.94349 c -0.36749,2.09508 0.27101,3.669956 1.14186,5.503102"
         id="path159"
         sodipodi:nodetypes="cc"
         transform="matrix(0.75759183,0,0,0.75759183,18.74754,13.767285)" />
      <path
         style="display:inline;fill:none;fill-opacity:1;stroke:#000000;stroke-width:0.498898;stroke-linecap:square;stroke-dasharray:none;stroke-opacity:1"
         d="m 465.02301,47.370536 c 2.25313,4.036484 2.59676,4.440694 4.58394,6.351568"
         id="path160"
         sodipodi:nodetypes="cc"
         transform="matrix(0.75759183,0,0,0.75759183,18.74754,13.767285)" />
      <path
         style="display:inline;fill:none;fill-opacity:1;stroke:#000000;stroke-width:0.498898;stroke-linecap:square;stroke-dasharray:none;stroke-opacity:1"
         d="m 470.85649,57.539551 c -0.0667,-4.637111 3.54719,-9.180461 6.55617,-12.476003"
         id="path161"
         sodipodi:nodetypes="cc"
         transform="matrix(0.75759183,0,0,0.75759183,18.74754,13.767285)" />
      <path
         style="display:inline;fill:none;fill-opacity:1;stroke:#000000;stroke-width:0.498898;stroke-linecap:square;stroke-dasharray:none;stroke-opacity:1"
         d="m 475.01682,65.23076 c -0.10391,-3.305212 0.36777,-6.626622 2.08427,-9.462586"
         id="path162"
         sodipodi:nodetypes="cc"
         transform="matrix(0.75759183,0,0,0.75759183,18.74754,13.767285)" />
      <path
         style="display:inline;fill:none;fill-opacity:1;stroke:#000000;stroke-width:0.498898;stroke-linecap:square;stroke-dasharray:none;stroke-opacity:1"
         d="m 472.25494,61.123613 c -2.19032,-0.464483 -3.89552,-2.413371 -5.52563,-3.871886"
         id="path163"
         sodipodi:nodetypes="cc"
         transform="matrix(0.75759183,0,0,0.75759183,18.74754,13.767285)" />
      <path
         style="display:inline;fill:none;fill-opacity:1;stroke:#000000;stroke-width:0.498898;stroke-linecap:square;stroke-dasharray:none;stroke-opacity:1"
         d="M 451.47328,67.131668 C 440.55416,62.487437 445.79567,50.081986 446.34872,41.110317 L 446.23484,39.62989"
         id="path164"
         sodipodi:nodetypes="ccc"
         transform="matrix(0.75759183,0,0,0.75759183,18.74754,13.767285)" />
      <path
         style="display:inline;fill:none;fill-opacity:1;stroke:#000000;stroke-width:0.498898;stroke-linecap:square;stroke-dasharray:none;stroke-opacity:1"
         d="m 444.77633,57.37187 c 1.453,-4.517941 1.42352,-10.368819 5.38734,-13.813154"
         id="path165"
         sodipodi:nodetypes="cc"
         transform="matrix(0.75759183,0,0,0.75759183,18.74754,13.767285)" />
      <path
         style="display:inline;fill:none;fill-opacity:1;stroke:#000000;stroke-width:0.498898;stroke-linecap:square;stroke-dasharray:none;stroke-opacity:1"
         d="M 447.48465,64.190855 C 447.54165,61.680433 448.455,55.555009 452,52.617714"
         id="path166"
         sodipodi:nodetypes="cc"
         transform="matrix(0.75759183,0,0,0.75759183,18.74754,13.767285)" />
      <path
         style="display:inline;fill:none;fill-opacity:1;stroke:#000000;stroke-width:0.498898;stroke-linecap:square;stroke-dasharray:none;stroke-opacity:1"
         d="m 451.41634,66.932433 c -0.12623,-1.830515 0.29364,-4.203631 1.36383,-5.719717"
         id="path167"
         sodipodi:nodetypes="cc"
         transform="matrix(0.75759183,0,0,0.75759183,18.74754,13.767285)" />
      <path
         style="display:inline;fill:none;fill-opacity:1;stroke:#000000;stroke-width:0.498898;stroke-linecap:square;stroke-dasharray:none;stroke-opacity:1"
         d="m 448.44413,65.591438 c -0.74663,0.379933 -1.45412,0.346298 -2.26623,0.3445"
         id="path168"
         sodipodi:nodetypes="cc"
         transform="matrix(0.75759183,0,0,0.75759183,18.74754,13.767285)" />
      <path
         style="display:inline;fill:none;fill-opacity:1;stroke:#000000;stroke-width:0.498898;stroke-linecap:square;stroke-dasharray:none;stroke-opacity:1"
         d="m 445.09044,60.475473 c -2.32363,-1.463025 -3.23238,-2.450541 -5.11045,-6.54815"
         id="path169"
         sodipodi:nodetypes="cc"
         transform="matrix(0.75759183,0,0,0.75759183,18.74754,13.767285)" />
      <path
         style="display:inline;fill:none;fill-opacity:1;stroke:#000000;stroke-width:0.498898;stroke-linecap:square;stroke-dasharray:none;stroke-opacity:1"
         d="m 444.85419,50.861394 c -0.58423,-1.335171 -1.31961,-3.435459 -1.37233,-4.860006"
         id="path170"
         sodipodi:nodetypes="cc"
         transform="matrix(0.75759183,0,0,0.75759183,18.74754,13.767285)" />
      <path
         style="display:inline;fill:#000000;fill-opacity:1;stroke:#000000;stroke-width:0.498898;stroke-linecap:square;stroke-dasharray:none;stroke-opacity:1"
         d="m 511.98264,96.168705 c -0.57773,0.838639 -0.19361,1.78415 1.07997,2.828491 0.93226,-1.400284 1.04435,-3.027155 -1.05425,-2.931345"
         id="path139"
         sodipodi:nodetypes="ccc"
         transform="matrix(0.75759183,0,0,0.75759183,18.74754,13.767285)" />
      <path
         style="display:inline;fill:#000000;fill-opacity:1;stroke:#000000;stroke-width:0.498898;stroke-linecap:square;stroke-dasharray:none;stroke-opacity:1"
         d="m 515.29972,99.614322 c 0.0719,-1.022178 -0.0171,-1.079232 -0.95142,-0.977119 -0.49628,1.529047 -0.18439,1.216168 0.95142,0.977119 z"
         id="path140"
         sodipodi:nodetypes="ccc"
         transform="matrix(0.75759183,0,0,0.75759183,18.74754,13.767285)" />
      <path
         style="display:inline;fill:#000000;fill-opacity:1;stroke:#000000;stroke-width:0.498898;stroke-linecap:square;stroke-dasharray:none;stroke-opacity:1"
         d="m 515.5054,103.5485 c -2.89963,-0.79787 -2.31047,-2.10751 -2.21136,-3.34273 1.69532,0.36168 2.26318,1.64618 2.21136,3.34273 z"
         id="path141"
         sodipodi:nodetypes="ccc"
         transform="matrix(0.75759183,0,0,0.75759183,18.74754,13.767285)" />
      <path
         style="display:inline;fill:#000000;fill-opacity:1;stroke:#000000;stroke-width:0.498898;stroke-linecap:square;stroke-dasharray:none;stroke-opacity:1"
         d="m 533.37276,93.411214 c -2.28705,-0.628406 -3.08915,-2.104607 -2.6282,-3.799329 1.70093,0.39615 2.56449,1.514076 2.6282,3.799329 z"
         id="path142"
         sodipodi:nodetypes="ccc"
         transform="matrix(0.75759183,0,0,0.75759183,18.74754,13.767285)" />
      <path
         style="display:inline;fill:#000000;fill-opacity:1;stroke:#000000;stroke-width:0.498898;stroke-linecap:square;stroke-dasharray:none;stroke-opacity:1"
         d="m 534.30566,91.802769 c 1.26561,-0.815697 1.778,-1.696477 1.90635,1.014016 -0.50369,1.480311 -2.4324,-0.673581 -1.90635,-1.014016 z"
         id="path143"
         sodipodi:nodetypes="ccc"
         transform="matrix(0.75759183,0,0,0.75759183,18.74754,13.767285)" />
      <path
         style="display:inline;fill:#000000;fill-opacity:1;stroke:#000000;stroke-width:0.498898;stroke-linecap:square;stroke-dasharray:none;stroke-opacity:1"
         d="m 534.99927,94.191076 c 2.22093,0.93602 2.58588,0.664775 1.74256,2.068156 -0.39134,0.637546 -1.62955,0.381235 -1.90949,-0.34811 -0.13147,-0.605687 -0.63726,-1.939742 0.16693,-1.720046 z"
         id="path144"
         sodipodi:nodetypes="cccc"
         transform="matrix(0.75759183,0,0,0.75759183,18.74754,13.767285)" />
      <path
         style="display:inline;fill:#000000;fill-opacity:1;stroke:#000000;stroke-width:0.498898;stroke-linecap:square;stroke-dasharray:none;stroke-opacity:1"
         d="m 547.6186,82.262123 c -1.80537,0.163551 -2.71582,-0.888194 -2.38663,-2.040194 1.40107,-0.104735 3.87929,0.634528 2.38663,2.040194 z"
         id="path145"
         sodipodi:nodetypes="ccc"
         transform="matrix(0.75759183,0,0,0.75759183,18.74754,13.767285)" />
      <path
         style="display:inline;fill:#000000;fill-opacity:1;stroke:#000000;stroke-width:0.498898;stroke-linecap:square;stroke-dasharray:none;stroke-opacity:1"
         d="m 549.23536,81.684709 c -0.39979,-0.700848 -0.26794,-1.213798 0.23097,-1.732239 0.82871,-0.432128 1.37284,-0.04765 1.57826,1.308803 -0.57622,1.056381 -1.47844,0.801483 -1.80923,0.423436 z"
         id="path146"
         sodipodi:nodetypes="cccc"
         transform="matrix(0.75759183,0,0,0.75759183,18.74754,13.767285)" />
      <path
         style="display:inline;fill:#000000;fill-opacity:1;stroke:#000000;stroke-width:0.498898;stroke-linecap:square;stroke-dasharray:none;stroke-opacity:1"
         d="m 549.5559,83.47826 c -1.08528,0.514704 2.57022,3.447957 3.53713,1.900696 0.81313,-2.750772 -3.11121,-2.107379 -3.53713,-1.900696 z"
         id="path147"
         sodipodi:nodetypes="ccc"
         transform="matrix(0.75759183,0,0,0.75759183,18.74754,13.767285)" />
      <path
         style="display:inline;fill:none;fill-opacity:1;stroke:#000000;stroke-width:0.498898;stroke-linecap:square;stroke-dasharray:none;stroke-opacity:1"
         d="m 537.19113,83.51194 c -1.13908,-0.71472 -12.79165,-7.803662 -17.94471,-2.0322"
         id="path129"
         sodipodi:nodetypes="cc"
         transform="matrix(0.75759183,0,0,0.75759183,18.74754,13.767285)" />
      <path
         style="display:inline;fill:none;fill-opacity:1;stroke:#000000;stroke-width:0.498898;stroke-linecap:square;stroke-dasharray:none;stroke-opacity:1"
         d="m 511.78679,101.3603 c -2.82139,0.99298 -6.19908,0.65951 -7.56414,0.77525"
         id="path132"
         sodipodi:nodetypes="cc"
         transform="matrix(0.75759183,0,0,0.75759183,18.74754,13.767285)" />
      <path
         style="display:inline;fill:none;fill-opacity:1;stroke:#000000;stroke-width:0.498898;stroke-linecap:square;stroke-dasharray:none;stroke-opacity:1"
         d="m 485.9047,86.057286 -0.22329,1.466149 5.11652,11.628445 7.92237,22.05184 c -0.032,1.90838 3.69826,-3.62487 4.69338,-6.50218 5.84412,-16.897789 -11.08737,-34.094305 -17.4997,-28.806048 l -0.0775,0.852753 c 6.07999,-2.441067 22.48699,16.803165 13.09452,34.642035"
         id="path133"
         sodipodi:nodetypes="ccccsccc"
         inkscape:label="path133"
         transform="matrix(0.75759183,0,0,0.75759183,18.74754,13.767285)" />
      <path
         style="display:inline;fill:none;fill-opacity:1;stroke:#000000;stroke-width:0.498898;stroke-linecap:square;stroke-dasharray:none;stroke-opacity:1"
         d="m 467.24327,93.237464 c -5.81723,7.174896 -7.37819,26.672226 -2.83327,25.679416 l 0.63422,-0.73993 c 6.19051,-11.39275 -1.83994,-0.39057 15.72533,-26.237675"
         id="path135"
         sodipodi:nodetypes="cccc"
         transform="matrix(0.75759183,0,0,0.75759183,18.74754,13.767285)" />
      <path
         style="display:inline;fill:#000000;fill-opacity:1;stroke:#000000;stroke-width:0.498898;stroke-linecap:square;stroke-dasharray:none;stroke-opacity:1"
         d="m 494.10238,102.28206 c -1.49867,-0.97833 -2.23409,-1.71779 -1.74321,-3.335288 1.95518,0.05508 2.44957,3.023748 1.74321,3.335288 z"
         id="path136"
         sodipodi:nodetypes="ccc"
         transform="matrix(0.75759183,0,0,0.75759183,18.74754,13.767285)" />
      <path
         style="display:inline;fill:#000000;fill-opacity:1;stroke:#000000;stroke-width:0.498898;stroke-linecap:square;stroke-dasharray:none;stroke-opacity:1"
         d="m 495.80729,103.43639 c -0.51676,-1.30707 -1.43573,-2.72696 0.32019,-3.886721 1.72953,0.718431 1.01403,3.663431 -0.32019,3.886721 z"
         id="path137"
         sodipodi:nodetypes="ccc"
         transform="matrix(0.75759183,0,0,0.75759183,18.74754,13.767285)" />
      <path
         style="display:inline;fill:#000000;fill-opacity:1;stroke:#000000;stroke-width:0.498898;stroke-linecap:square;stroke-dasharray:none;stroke-opacity:1"
         d="m 496.60162,107.40505 c 0.21528,-2.02983 -1.28404,-3.47222 -2.35698,-3.30865 -0.66023,1.65363 1.39703,4.07663 2.35698,3.30865 z"
         id="path138"
         sodipodi:nodetypes="ccc"
         transform="matrix(0.75759183,0,0,0.75759183,18.74754,13.767285)" />
      <path
         style="fill:none;fill-opacity:1;stroke:#000000;stroke-width:0.377961;stroke-linecap:square;stroke-dasharray:none;stroke-opacity:1"
         d="m 373.4286,58.741999 c 2.04943,2.372695 4.39568,4.231759 7.00801,5.952828"
         id="path151"
         sodipodi:nodetypes="cc" />
      <ellipse
         style="fill:#040000;fill-opacity:1;stroke:#000000;stroke-width:0.377961;stroke-linecap:square;stroke-dasharray:none;stroke-opacity:1"
         id="path149"
         cx="373.90317"
         cy="71.569847"
         rx="2.3167362"
         ry="2.2781239" />
      <ellipse
         style="fill:#000000;fill-opacity:1;stroke:#000000;stroke-width:0.377961;stroke-linecap:square;stroke-dasharray:none;stroke-opacity:1"
         id="path148"
         cx="358.84439"
         cy="71.762917"
         rx="2.8573079"
         ry="2.5484097" />
      <path
         style="fill:none;fill-opacity:1;stroke:#000000;stroke-width:0.377961;stroke-linecap:square;stroke-dasharray:none;stroke-opacity:1"
         d="m 422.49598,69.898166 c 1.40603,-2.728278 5.6438,-2.468307 8.331,-2.54066"
         id="path127"
         sodipodi:nodetypes="cc" />
      <path
         style="fill:none;fill-opacity:1;stroke:#000000;stroke-width:0.377961;stroke-linecap:square;stroke-dasharray:none;stroke-opacity:1"
         d="m 414.4757,86.586962 c 1.97082,-0.666364 3.7011,-1.779062 5.28857,-3.101956"
         id="path130"
         sodipodi:nodetypes="cc" />
      <path
         style="fill:none;fill-opacity:1;stroke:#000000;stroke-width:0.377961;stroke-linecap:square;stroke-dasharray:none;stroke-opacity:1"
         d="m 412.09675,104.51641 c 3.05783,-4.31691 4.30281,-13.981253 2.36904,-17.92941 -3.33121,-5.996163 -6.20455,-8.922574 -12.6643,-8.922574 -0.36436,0.602529 0.005,0.934489 0.0822,1.603597 l 5.71538,13.075474 1.52136,4.029548 2.59043,7.401215 0.32894,0.82236 c 0.84241,-1.05301 5.4982,-24.5016 -10.2795,-26.192073"
         id="path131"
         sodipodi:nodetypes="ccccccccc" />
      <path
         style="fill:none;fill-opacity:1;stroke:#000000;stroke-width:0.377961;stroke-linecap:square;stroke-dasharray:none;stroke-opacity:1"
         d="m 390.38483,88.857461 c -4.35849,-2.020237 -7.8157,-4.657481 -9.07742,-9.507126 -3.03844,3.220119 -7.01777,4.937424 -11.38707,5.478683 -0.4297,0.563572 -0.85941,1.624452 -1.28911,1.665089 -0.49914,-0.720687 -0.68009,-1.229246 -0.75197,-1.665089 -2.02719,-0.003 -3.94238,-1.051958 -5.56832,-2.218619 -0.19377,0.401986 -0.0155,1.02883 0.0382,1.415616 0.0702,0.505172 0.14249,0.999318 0.0213,1.29758 -0.45263,1.113941 -6.63178,-5.834537 -3.89089,-9.571999 -0.75308,-3.888047 0.19172,-7.422858 2.19079,-10.883843"
         id="path134"
         sodipodi:nodetypes="ccccccsscc" />
      <path
         style="fill:#000000;fill-opacity:1;stroke:#000000;stroke-width:0.069615;stroke-linecap:square;stroke-dasharray:none;stroke-opacity:1"
         d="m 500.10006,119.71132 c 0.0628,-0.14689 0.35515,-0.95904 0.64957,-1.80477 1.45684,-4.18487 1.70943,-8.66147 0.75476,-13.37644 -1.46829,-7.251645 -6.43882,-14.766065 -11.55245,-17.464934 -1.03539,-0.546461 -2.71522,-0.962488 -3.33589,-0.826167 -0.6895,0.151441 -0.44791,-0.206021 0.40528,-0.599643 3.76155,-1.735411 10.3399,2.913032 14.17111,10.013702 0.809,1.499382 1.75767,3.868672 2.23486,5.581512 0.58195,2.08889 0.82193,3.89818 0.82359,6.20942 0.003,4.25265 -0.89633,7.40482 -3.15387,11.05348 -0.75052,1.213 -1.26415,1.83837 -0.99696,1.21384 z"
         id="path171"
         transform="matrix(0.75759183,0,0,0.75759183,18.74754,13.767285)" />
      <path
         style="fill:#000000;fill-opacity:1;stroke:#000000;stroke-width:0.069615;stroke-linecap:square;stroke-dasharray:none;stroke-opacity:1"
         d="m 520.33083,116.85565 c 0.59253,-3.18266 0.82002,-6.36275 0.73247,-10.23906 -0.079,-3.49897 -0.26836,-5.18385 -0.86465,-7.694619 -1.85628,-7.816206 -6.3432,-12.488912 -13.15056,-13.695086 -0.91951,-0.162924 -1.29383,-0.286775 -1.29383,-0.428084 0,-0.164656 0.22187,-0.182382 1.29073,-0.103119 4.75355,0.352508 8.02091,1.963814 10.86258,5.356895 1.77875,2.123917 4.05474,5.791277 4.58708,7.391297 0.55444,1.666426 0.73504,3.463146 0.65452,6.511686 -0.103,3.89995 -0.62629,7.06328 -1.70969,10.33532 -0.5025,1.51765 -1.22479,3.1886 -1.10865,2.56477 z"
         id="path172"
         transform="matrix(0.75759183,0,0,0.75759183,18.74754,13.767285)" />
      <path
         style="fill:#000000;fill-opacity:1;stroke:#000000;stroke-width:0.069615;stroke-linecap:square;stroke-dasharray:none;stroke-opacity:1"
         d="m 544.08843,105.56024 c -0.0467,-0.19186 -0.15667,-0.97676 -0.24431,-1.74422 -0.22085,-1.93402 -0.72981,-4.432173 -1.32256,-6.491536 -1.28911,-4.478711 -3.13441,-7.874639 -5.78994,-10.655275 -2.66237,-2.787802 -5.35252,-4.359452 -9.13971,-5.339627 -1.43995,-0.372676 -1.70892,-0.397271 -4.34716,-0.397497 -1.54674,-1.32e-4 -2.78244,-0.04853 -2.746,-0.107547 0.0364,-0.05902 0.37472,-0.263615 0.75172,-0.45466 2.8082,-1.423018 7.09749,-0.876984 12.26901,1.561864 2.77367,1.308041 3.71509,1.929335 5.23925,3.457669 2.78683,2.794446 4.6281,6.270167 5.53717,10.452346 0.2691,1.238002 0.30687,1.819419 0.30044,4.625363 -0.005,2.221 -0.0714,3.55314 -0.21516,4.32567 -0.15458,0.83044 -0.22955,1.02697 -0.29275,0.76745 z"
         id="path173"
         transform="matrix(0.75759183,0,0,0.75759183,18.74754,13.767285)" />
      <path
         style="fill:#000000;fill-opacity:1;stroke:#000000;stroke-width:0.069615;stroke-linecap:square;stroke-dasharray:none;stroke-opacity:1"
         d="m 498.66575,121.57917 c -0.0921,-0.0921 -0.16745,-0.24124 -0.16745,-0.33143 0,-0.16589 -7.75405,-21.820434 -7.8383,-21.889824 -0.0251,-0.02064 -0.76768,-0.399647 -1.65026,-0.842228 -3.01066,-1.50974 -5.69013,-3.507221 -7.22512,-5.386144 -0.43356,-0.530705 -0.83025,-0.964917 -0.88155,-0.964917 -0.11038,0 -7.09374,10.322073 -9.31688,13.771243 -2.10792,3.27042 -2.8391,4.57655 -3.44825,6.15974 -0.65978,1.71477 -2.87039,6.1113 -3.32661,6.61606 -0.83713,0.92618 -2.04403,0.19652 -2.64484,-1.599 -0.75652,-2.26085 -0.70083,-7.27378 0.13003,-11.70532 0.8028,-4.28184 2.42822,-8.797275 4.01483,-11.153257 0.27722,-0.411654 0.48732,-0.765183 0.46689,-0.785619 -0.0204,-0.02044 -0.72002,0.08599 -1.55463,0.236492 -0.8346,0.150509 -1.53863,0.273651 -1.56451,0.273651 -0.0259,0 -0.32641,0.435845 -0.66786,0.968544 -0.80725,1.259382 -1.07018,1.407527 -1.47904,0.833335 -0.16859,-0.236757 -0.41755,-0.722967 -0.55325,-1.080467 l -0.24674,-0.649997 -1.00265,-0.167878 c -1.7172,-0.287516 -3.37078,-0.959162 -5.13345,-2.085083 -1.12145,-0.716341 -1.12245,-0.715067 -0.84959,1.077817 0.26889,1.766825 -0.0259,2.209228 -1.06595,1.599714 -1.121,-0.656948 -2.95929,-2.954689 -3.98241,-4.977751 -1.45461,-2.876241 -1.70578,-5.237906 -0.75635,-7.111516 0.29999,-0.592003 0.31974,-0.738136 0.19924,-1.473936 -0.0736,-0.449229 -0.13413,-0.823859 -0.13457,-0.832509 -4.5e-4,-0.0087 -0.41245,-0.218379 -0.91557,-0.466062 -2.2875,-1.126132 -2.7734,-3.692456 -1.02935,-5.436511 0.53959,-0.539588 1.02906,-0.799368 1.95044,-1.035167 l 0.70957,-0.18159 0.40715,-1.163317 c 0.22393,-0.639823 0.74079,-1.840214 1.14858,-2.667536 l 0.74142,-1.504219 -1.05303,-0.0883 c -0.57916,-0.04857 -1.38153,-0.186542 -1.78303,-0.306614 -1.1718,-0.350434 -3.032,-1.660133 -4.43769,-3.124429 -3.70374,-3.858125 -4.84904,-7.317281 -3.77424,-11.399334 0.35418,-1.345135 1.19141,-3.160744 2.6385,-5.721761 2.20588,-3.903923 2.88271,-5.47585 3.09732,-7.19349 0.10625,-0.850435 0.15921,-0.886676 0.9178,-0.628112 2.14316,0.730482 4.0536,3.885853 5.0815,8.392821 0.28439,1.246976 0.69602,4.888948 0.97372,8.615293 0.25074,3.364661 0.39792,4.555175 0.71382,5.77429 0.25902,0.999598 0.42323,1.335694 0.65219,1.334872 0.0932,-3.35e-4 0.62765,-0.435381 1.18759,-0.966771 2.30534,-2.187795 6.37898,-3.378141 10.92041,-3.191027 0.83979,0.0346 1.5269,0.03527 1.5269,0.0015 0,-0.03379 -0.28447,-0.489334 -0.63214,-1.012318 -0.89622,-1.348101 -1.79931,-3.342154 -2.17737,-4.807693 -0.26738,-1.036518 -0.32223,-1.597005 -0.3141,-3.209367 0.0167,-3.314675 0.78447,-5.82228 3.03272,-9.905548 0.92185,-1.674264 1.14786,-1.966734 2.96615,-3.838247 1.08255,-1.114236 2.1042,-2.292317 2.27033,-2.617957 0.33861,-0.663733 0.38224,-0.675847 1.3738,-0.381387 2.09879,0.623275 3.33463,3.057267 3.69207,7.271541 0.13141,1.549479 0.11927,2.10721 -0.079,3.627979 -0.12885,0.988364 -0.29362,2.581926 -0.36616,3.541248 -0.14847,1.963492 -0.18464,6.372121 -0.0512,6.238666 0.0479,-0.04787 0.24038,-0.544977 0.42779,-1.104674 1.86406,-5.566883 7.30905,-11.02503 15.25292,-15.289767 2.8064,-1.506639 6.69348,-2.197449 13.25608,-2.355867 6.47348,-0.156266 12.33385,0.568113 17.13738,2.118289 1.79426,0.579036 1.9227,0.601778 2.12797,0.376783 0.12014,-0.131697 0.77946,-0.89432 1.46514,-1.694719 2.08116,-2.429342 4.08467,-4.031308 6.09161,-4.870719 0.73473,-0.307302 1.09008,-0.366878 2.20174,-0.369131 1.1405,-0.0023 1.43277,0.04791 2.09306,0.35967 1.62593,0.767689 3.04277,2.366267 4.24744,4.792263 1.14054,2.296849 1.75145,4.90099 2.30489,9.825108 0.49845,4.434945 0.60757,7.589121 0.5124,14.811563 -0.0491,3.722167 -0.1283,7.472879 -0.17611,8.334915 -0.0703,1.267267 -0.0501,1.577536 0.10533,1.620598 0.10573,0.02929 0.82016,0.152782 1.58762,0.27442 6.07191,0.962375 11.37034,4.647666 14.5026,10.087187 2.15672,3.745409 3.14891,7.735456 3.14891,12.66325 v 2.219635 l -0.50271,-0.08158 c -1.29082,-0.209471 -3.10233,-1.346126 -6.26486,-3.930964 -4.6246,-3.779832 -7.60429,-6.141135 -10.04672,-7.961691 -2.67989,-1.99756 -6.21903,-4.519032 -6.35082,-4.524664 -0.0394,-0.0017 -0.14917,0.323358 -0.24394,0.722316 -0.22789,0.959335 -0.91478,2.071456 -1.79402,2.904589 l -0.7142,0.676763 1.42063,1.446685 c 5.11467,5.208472 7.08851,12.6288 5.52327,20.763879 -0.37994,1.97464 -0.55076,2.5303 -0.76253,2.4804 -0.10185,-0.024 -2.54153,-2.83786 -5.42152,-6.25305 -3.11353,-3.692125 -6.00237,-6.969517 -7.1259,-8.084333 l -1.88954,-1.874904 -0.80928,0.635025 c -1.3731,1.077458 -3.23913,2.229781 -4.61221,2.848173 -0.72172,0.32504 -1.33882,0.617581 -1.37133,0.650092 -0.0325,0.03251 0.069,0.430465 0.22561,0.884345 0.5534,1.603942 0.74714,3.173822 0.74762,6.057902 4.9e-4,2.98667 -0.13749,4.34329 -0.75432,7.41631 -0.68853,3.4303 -1.89029,6.67577 -3.23939,8.7483 l -0.57623,0.88523 -0.27035,-0.67593 c -0.14869,-0.37175 -1.04226,-2.87364 -1.98571,-5.55974 -2.69406,-7.6703 -4.54646,-12.48862 -4.80124,-12.48862 -0.0573,0 -0.60082,0.12936 -1.20788,0.28747 -0.75737,0.19726 -1.97004,0.33697 -3.86433,0.44521 -2.15592,0.12318 -2.74539,0.19735 -2.69118,0.3386 0.0382,0.0995 0.17311,0.91951 0.29987,1.82228 0.439,3.12656 0.12104,6.82011 -0.84671,9.83563 -0.66671,2.07752 -2.63338,5.48128 -3.95265,6.84097 -0.67541,0.69609 -0.84011,0.76932 -1.11407,0.49536 z m 0.80683,-1.68143 c 2.23634,-4.9889 2.69203,-10.86122 1.27625,-16.4466 -1.2892,-5.086022 -4.02837,-9.897525 -7.59486,-13.340785 -2.1066,-2.03381 -4.06403,-3.169535 -5.77139,-3.348635 -1.07803,-0.113084 -1.44267,0.01744 -1.44267,0.516407 0,0.227693 1.12011,2.95817 2.51438,6.129281 2.25679,5.13282 2.90157,6.795152 6.29384,16.226592 2.0787,5.77936 3.84181,10.68061 3.91801,10.89166 0.0762,0.21105 0.18678,0.38373 0.24574,0.38373 0.059,0 0.31128,-0.45525 0.5607,-1.01165 z m 0.68332,0.27907 c 1.40498,-1.87025 2.62583,-4.12796 3.22707,-5.96782 1.18034,-3.61197 1.35063,-7.90475 0.46997,-11.84714 -1.05952,-4.743057 -3.44693,-9.186827 -6.81519,-12.685333 -1.48088,-1.538135 -2.85783,-2.605916 -4.43741,-3.441067 -1.49076,-0.788191 -2.5711,-1.093038 -3.88549,-1.096399 -0.87995,-0.0022 -1.19739,0.06335 -1.84887,0.382096 -0.57247,0.28008 -0.78653,0.462199 -0.78653,0.669152 0,0.246303 0.0618,0.272746 0.46205,0.197661 2.28189,-0.428085 6.40821,2.361347 9.41623,6.365453 6.18831,8.237537 7.70415,18.831457 3.8791,27.110277 -0.26573,0.57513 -0.42647,1.0457 -0.3572,1.0457 0.0693,0 0.37358,-0.32966 0.67627,-0.73258 z m 19.41119,-2.22367 c 1.50876,-6.42649 1.4178,-14.65331 -0.2247,-20.321215 -1.97661,-6.820875 -6.49049,-11.054822 -12.7977,-12.00405 l -0.81426,-0.122545 0.0894,0.476619 c 0.0492,0.262141 1.75745,4.287858 3.79616,8.94604 3.9568,9.040751 4.94192,11.513941 7.51426,18.864971 0.89966,2.57099 1.69686,4.84719 1.77156,5.05825 0.0747,0.21105 0.18724,0.38372 0.25008,0.38372 0.0629,0 0.24968,-0.5768 0.41519,-1.28179 z m -54.92978,0.44658 c 0.48046,-0.57099 2.20621,-4.00283 2.96913,-5.90443 1.15334,-2.87474 1.84993,-4.01486 8.61132,-14.094181 l 4.47486,-6.670751 -0.24101,-0.375901 c -0.50327,-0.784913 -1.32475,-2.505273 -1.62871,-3.410844 -0.17388,-0.518034 -0.35279,-0.94188 -0.39758,-0.94188 -0.0448,0 -0.39737,0.308892 -0.78351,0.686427 -2.03025,1.984991 -5.68971,4.119576 -8.66008,5.051471 -1.48672,0.46643 -1.50925,0.479991 -2.08401,1.25419 -2.08553,2.809208 -3.96844,8.532319 -4.70057,14.287409 -0.26596,2.09063 -0.22848,6.74117 0.0638,7.92173 0.2898,1.17038 0.67388,1.93988 1.15852,2.32109 0.50588,0.39793 0.80396,0.3675 1.2178,-0.12433 z m 55.92376,-1.3625 c 1.00848,-2.24688 1.96582,-5.66927 2.42978,-8.68622 0.3114,-2.02496 0.42743,-6.45748 0.21352,-8.15693 -0.32027,-2.544427 -0.76119,-3.696193 -2.48285,-6.485596 -1.79743,-2.912155 -3.98488,-5.441546 -5.75777,-6.657799 -2.20507,-1.512741 -5.01185,-2.3644 -8.09319,-2.455705 -1.10531,-0.03275 -1.18887,-0.01554 -1.22725,0.252817 -0.0367,0.256681 0.0694,0.305245 0.97676,0.447042 5.25592,0.821363 9.32181,3.863194 11.70054,8.753556 1.72174,3.539696 2.4755,7.167085 2.60202,12.521955 0.0879,3.72004 -0.0697,6.17895 -0.59639,9.30566 -0.38567,2.2895 -0.36231,2.10309 -0.26353,2.10309 0.0416,0 0.26584,-0.42384 0.49836,-0.94187 z m 22.94267,-11.94672 c -0.88399,-8.064105 -3.26369,-14.061034 -7.20242,-18.15036 -2.78073,-2.887048 -5.82855,-4.538781 -9.83078,-5.327669 -1.92133,-0.37872 -6.62297,-0.316496 -6.62297,0.08765 0,0.06615 3.13389,3.296287 6.9642,7.178078 6.61838,6.707335 7.20907,7.348948 11.89558,12.921001 3.14084,3.73432 4.94891,5.77965 4.97963,5.6331 0.0265,-0.12656 -0.0559,-1.18037 -0.18324,-2.3418 z m 0.96723,0.0511 c 0.31733,-1.79756 0.43505,-5.698345 0.22612,-7.493293 -0.58746,-5.04712 -2.94946,-9.882022 -6.32755,-12.952214 -1.91944,-1.744491 -6.23072,-3.842836 -9.78265,-4.761318 -1.88948,-0.488595 -4.6164,-0.608751 -5.94857,-0.262112 -0.98556,0.25645 -1.92331,0.721947 -2.58145,1.281421 -0.40457,0.34392 -0.40691,0.352561 -0.0698,0.257599 0.19187,-0.05404 1.33485,-0.130849 2.53998,-0.170683 4.27472,-0.141294 7.72412,0.851163 11.20097,3.222732 5.41702,3.694962 9.01476,10.983679 10.08051,20.422268 0.13203,1.16922 0.28242,2.04831 0.33422,1.95353 0.0518,-0.0948 0.19948,-0.76885 0.32819,-1.49793 z m -35.67626,-3.355 c 0.74524,-0.0801 1.69201,-0.24096 2.10392,-0.35749 0.41191,-0.11653 0.84274,-0.17587 0.95741,-0.13187 0.13199,0.0507 0.18241,0.0154 0.13741,-0.096 -0.0391,-0.0968 -1.50963,-3.472579 -3.26785,-7.501729 -1.75823,-4.02915 -3.27448,-7.643827 -3.36945,-8.032614 -0.12221,-0.500344 -0.13106,-0.81632 -0.0303,-1.081417 0.13769,-0.362133 0.17831,-0.374502 1.22727,-0.373707 1.55145,0.0012 3.59347,0.340707 5.14673,0.855758 3.78145,1.253907 6.81955,4.164408 9.95718,9.538975 0.40323,0.690711 0.74382,1.268249 0.75687,1.283419 0.0798,0.09276 2.48367,-1.01381 3.39296,-1.561885 1.30158,-0.784531 3.38284,-2.321284 3.38684,-2.500766 0.002,-0.07041 -2.29315,-2.431856 -5.09938,-5.247664 l -5.10224,-5.119648 0.67192,-0.59752 c 1.75903,-1.564253 4.33519,-2.115544 7.44979,-1.594234 2.51567,0.421065 6.81945,2.086752 9.32616,3.609499 0.44909,0.27281 0.89334,0.496017 0.98722,0.496017 0.31599,0 1.78022,-1.64144 2.13542,-2.393858 0.19363,-0.410157 0.39157,-1.028303 0.43986,-1.373659 l 0.0878,-0.627919 -1.15606,-0.759302 c -0.63584,-0.417616 -2.22188,-1.441948 -3.52453,-2.276296 -1.30265,-0.834347 -2.44414,-1.579805 -2.53664,-1.656571 -0.41081,-0.340948 1.04842,-1.913021 2.37651,-2.560276 1.45944,-0.711267 4.51549,-1.187095 7.63657,-1.189016 l 0.92186,-5.68e-4 0.0888,-1.220955 c 0.39324,-5.40712 0.43494,-14.456501 0.09,-19.535478 -0.30396,-4.475843 -0.92639,-8.758523 -1.62511,-11.181722 -0.63992,-2.219277 -2.09924,-4.729053 -3.52403,-6.060734 -1.91095,-1.786063 -4.36225,-1.906092 -6.95826,-0.340712 -0.87557,0.527967 -2.29103,1.642769 -2.36164,1.86001 -0.0267,0.08197 0.29949,0.388681 0.72474,0.681568 0.42526,0.292887 1.27131,1.058739 1.88011,1.701893 1.96554,2.076462 2.9176,4.528679 2.75021,7.083726 -0.0777,1.185796 -0.40234,2.562098 -0.76357,3.23707 -0.29902,0.558723 -2.67739,1.008683 -4.02189,0.760896 -1.95836,-0.360917 -3.14274,-1.335928 -5.65908,-4.658715 -3.54323,-4.67877 -5.89641,-6.391366 -9.44211,-6.871762 -1.82096,-0.246715 -6.71032,-0.43064 -6.51094,-0.244924 0.0767,0.07149 0.67327,0.575318 1.3256,1.119625 1.56421,1.305165 4.72578,4.553767 5.87989,6.041757 2.36077,3.043726 4.33341,6.608727 5.36617,9.697867 0.50317,1.505063 0.51448,1.586569 0.58126,4.190855 0.0765,2.982984 -0.10619,4.607672 -0.7464,6.638133 -1.57107,4.982688 -5.38592,8.040562 -10.77013,8.633026 -1.39905,0.15395 -3.53324,0.01123 -4.32319,-0.289112 -0.64406,-0.244872 -0.6907,-0.184979 -0.79601,1.022275 -0.40404,4.631871 -3.38894,7.363512 -8.04621,7.363512 -1.55448,0 -2.28696,-0.221473 -3.59605,-1.087296 -2.42974,-1.607017 -4.17608,-4.102812 -7.8109,-11.163003 -1.13428,-2.203212 -2.42758,-4.594954 -2.87399,-5.314986 -1.83786,-2.964327 -4.29988,-4.705304 -5.04528,-3.56768 -0.19591,0.299002 -0.21912,0.583148 -0.14532,1.779105 0.0483,0.782798 0.18905,1.862814 0.31276,2.400034 0.12372,0.53722 0.25778,1.118045 0.29791,1.290723 0.15206,0.654171 -0.23962,0.283548 -0.44239,-0.418613 -0.41687,-1.44356 -0.52284,-2.306806 -0.61238,-4.988471 l -0.0909,-2.720985 -0.4473,0.999023 c -0.80598,1.800101 -1.29692,4.331781 -1.29692,6.687955 0,1.351098 0.0956,1.511402 1.44786,2.42842 0.50835,0.344732 0.92428,0.712996 0.92428,0.818365 0,0.21406 -0.1172,0.149351 -1.67445,-0.924509 -1.93317,-1.333089 -3.90601,-2.971358 -5.83609,-4.84636 l -2.01091,-1.953528 -2.32081,-0.04338 c -4.872,-0.09106 -8.32156,0.969945 -10.55353,3.246027 -0.73889,0.753494 -0.8864,0.845003 -1.25584,0.779091 -0.37146,-0.06627 -0.44761,-0.168982 -0.67608,-0.911911 -0.14161,-0.460474 -0.29048,-0.931414 -0.33084,-1.046532 -0.1128,-0.321804 -0.85235,1.350038 -1.08687,2.457009 -0.11205,0.528915 -0.20483,1.458803 -0.20616,2.066416 -0.002,1.062922 -0.0316,1.161893 -0.77428,2.613732 -0.71128,1.390535 -1.73982,3.840547 -1.73982,4.14429 0,0.07092 0.26716,0.169016 0.59368,0.217983 1.2671,0.190012 2.5522,1.235098 2.97475,2.419168 0.77085,2.160052 -1.08747,4.471963 -3.63567,4.523112 l -0.66463,0.01334 0.091,0.77414 c 0.1668,1.419135 2.01522,5.228395 3.94691,8.133852 1.12049,1.685336 1.42478,1.991676 2.80346,2.822296 1.6752,1.00927 3.75411,1.769127 4.83866,1.768567 l 0.42418,-2.19e-4 v -2.12773 c 0,-2.443878 0.21253,-3.365913 1.2302,-5.337096 0.7303,-1.414554 2.53592,-3.283089 3.81912,-3.952194 1.11857,-0.583263 2.77348,-1.001394 3.96341,-1.001394 h 0.94466 l -0.35312,0.872111 c -0.90166,2.226856 -3.21873,6.545614 -5.39019,10.046712 -0.67319,1.085393 -0.86834,1.50003 -0.70599,1.50003 0.1234,0 0.98942,-0.154907 1.92449,-0.344237 4.38422,-0.887705 8.54656,-2.972493 11.54547,-5.782777 l 1.21029,-1.134168 0.22218,0.764256 c 1.11722,3.843089 3.47247,6.893764 7.27065,9.417393 1.4734,0.978977 4.24966,2.471614 4.24966,2.284804 0,-0.06018 -1.09971,-2.603463 -2.44379,-5.651743 l -2.4438,-5.542329 0.0907,-0.808001 c 0.10896,-0.970984 0.18394,-1.076763 1.09041,-1.538364 4.1295,-2.102868 11.49595,3.189925 15.34469,11.025154 0.81154,1.652132 1.60424,3.725857 1.89206,4.9497 l 0.17229,0.73257 h 1.66603 c 0.91632,0 2.27578,-0.0655 3.02103,-0.14563 z m -46.2211,-6.761838 c 0.27014,-0.422298 0.52998,-0.87754 0.57743,-1.011648 0.0474,-0.134109 0.53863,-0.965941 1.09149,-1.848517 2.12251,-3.388269 4.94851,-8.632616 5.4921,-10.191964 l 0.14394,-0.412899 -0.86486,0.0017 c -2.58871,0.005 -5.33385,1.741946 -6.83366,4.324011 -1.34893,2.322318 -1.86935,5.980227 -1.15143,8.093185 0.26946,0.79307 0.80104,1.813989 0.94452,1.813989 0.0601,0 0.33032,-0.345516 0.60047,-0.767814 z m 100.67017,0.0095 c 0,-1.296221 -1.08268,-4.661637 -2.29233,-7.125544 -3.75786,-7.654238 -10.87524,-13.79226 -17.82375,-15.371188 -1.55838,-0.354114 -4.60235,-0.319219 -6.04723,0.06932 -1.1458,0.308116 -3.44766,1.374731 -3.52025,1.631184 -0.0223,0.07895 0.16404,0.261685 0.4142,0.406074 0.87771,0.50661 6.57453,4.287547 8.66677,5.752069 3.19388,2.23565 7.63399,5.605482 10.90472,8.27617 4.99923,4.082074 5.47332,4.457892 6.61972,5.24759 1.14774,0.790617 2.4045,1.431869 2.83396,1.446005 0.1679,0.0055 0.24419,-0.0981 0.24419,-0.331682 z M 453.35741,93.106506 c -0.0616,-0.709898 -0.1181,-1.541891 -0.12555,-1.848874 -0.0106,-0.439549 -0.17661,-0.789311 -0.78099,-1.646014 -1.08256,-1.534524 -2.67017,-4.343453 -3.37507,-5.971461 -0.32928,-0.760488 -0.63965,-1.382704 -0.68972,-1.382704 -0.20148,0 -0.57875,1.242231 -0.64558,2.125732 -0.17477,2.310213 1.07811,5.411653 3.26686,8.086962 0.83841,1.024778 1.89281,1.927083 2.25193,1.927083 0.18009,0 0.19412,-0.184588 0.0981,-1.290724 z m 109.88232,-2.003817 c -0.52963,-5.813744 -2.68992,-10.693556 -6.35311,-14.35082 -2.79685,-2.792323 -6.20301,-4.611867 -10.24782,-5.474304 -1.58135,-0.337175 -7.17768,-0.341219 -8.79088,-0.0064 -2.01468,0.418208 -3.56775,1.198461 -4.29456,2.157568 l -0.34145,0.450581 1.23659,-0.625263 c 3.68958,-1.865578 8.09341,-1.7755 12.64695,0.258689 1.24122,0.554485 3.31276,1.813847 4.69106,2.851864 5.40026,4.06698 9.49279,9.931091 11.40584,16.343213 0.16278,0.545587 0.18249,-0.12213 0.0474,-1.605176 z M 499.47507,79.526283 c 3.31174,-0.994655 5.15219,-3.621468 5.16047,-7.365356 0.002,-0.986853 0.0268,-1.086842 0.24661,-1.00118 1.72148,0.670889 5.0892,0.780139 7.22108,0.234254 3.47748,-0.890442 6.14606,-3.002804 7.66764,-6.069472 1.73206,-3.490866 2.10667,-9.114181 0.85612,-12.851388 -1.48932,-4.450761 -4.27739,-8.739917 -8.31056,-12.78493 -1.1917,-1.195199 -2.70046,-2.598613 -3.3528,-3.118698 l -1.18607,-0.945609 -2.79075,0.07591 c -4.01376,0.109183 -7.78655,0.640912 -10.00823,1.41054 -1.6566,0.573872 -5.65285,2.987926 -8.41075,5.080759 -1.83346,1.39133 -4.79791,4.37649 -5.90921,5.950511 -1.10371,1.563269 -2.27216,3.937664 -2.73739,5.562644 -0.35811,1.250824 -0.6294,3.098183 -0.63151,4.300237 l -10e-4,0.654528 0.37188,-0.192935 c 0.74207,-0.38499 2.12554,0.201292 3.33941,1.415165 1.16298,1.162982 2.31152,3.020891 4.60386,7.447318 1.13225,2.186339 2.41553,4.59511 2.85173,5.352826 2.30005,3.995352 4.79132,6.481006 7.07825,7.062281 0.72924,0.185352 3.02131,0.05892 3.94136,-0.217409 z M 450.28508,66.728069 c -0.4621,-0.249138 -1.02918,-0.587557 -1.26018,-0.752042 -0.32455,-0.231104 -0.47881,-0.26615 -0.67882,-0.15422 -0.14235,0.07966 -0.57994,0.186979 -0.97242,0.238477 l -0.7136,0.09363 0.74723,0.386976 c 0.88176,0.456645 1.57495,0.611519 2.81098,0.628035 l 0.907,0.01212 z m 0.96537,-1.110483 c 0.12574,-1.514999 0.41369,-2.605924 1.00804,-3.819062 l 0.4867,-0.993426 -0.14463,-1.169408 c -0.0795,-0.643175 -0.20974,-2.142684 -0.28931,-3.332243 -0.0796,-1.189558 -0.18153,-2.466487 -0.22657,-2.837619 l -0.0819,-0.674788 -0.41611,0.395712 c -0.67915,0.64587 -1.86715,2.543113 -2.38845,3.814384 -0.86027,2.097879 -1.48981,4.940548 -1.49106,6.732837 l -5.7e-4,0.802488 0.85068,0.662657 c 0.78129,0.608611 2.31221,1.563763 2.51305,1.567908 0.0465,9.6e-4 0.12758,-0.516287 0.18013,-1.14944 z m -3.49711,0.02427 0.53513,-0.148594 -0.76446,-0.801457 c -0.90361,-0.947336 -1.68751,-2.13354 -2.12368,-3.213584 -0.25198,-0.623944 -0.45984,-0.880801 -1.04244,-1.288185 -1.57861,-1.103837 -2.48644,-2.199939 -3.6813,-4.444742 l -0.77987,-1.465146 -0.002,1.017531 c -0.006,2.855601 1.21423,5.554512 3.74059,8.273897 1.56791,1.687711 2.28876,2.220608 3.00252,2.219651 0.31928,-4.27e-4 0.82131,-0.06764 1.11563,-0.149371 z m 25.99885,-1.935079 c -0.41773,-0.627615 -0.90749,-1.422125 -1.08835,-1.765576 -0.21509,-0.408435 -0.44953,-0.653802 -0.67769,-0.709282 -0.96339,-0.234259 -2.60598,-1.286985 -3.96458,-2.540883 l -0.5459,-0.503833 0.33596,0.488382 c 0.56114,0.815709 3.88123,4.080177 5.29047,5.201826 0.72889,0.580144 1.34423,1.035835 1.36742,1.012645 0.0232,-0.02319 -0.29961,-0.555665 -0.71733,-1.183279 z m 1.39254,-2.868359 c 0.24369,-1.522703 0.84808,-3.408467 1.40874,-4.395436 0.35533,-0.625517 0.35686,-0.642607 0.39914,-4.465205 0.0233,-2.110507 0.10184,-4.402414 0.17444,-5.093125 0.0726,-0.690711 0.11322,-1.27603 0.0903,-1.300707 -0.0873,-0.09384 -2.49946,2.890552 -3.30097,4.084024 -1.61219,2.400623 -2.51148,4.53852 -2.78822,6.628486 -0.15679,1.184047 -0.15461,1.201492 0.2884,2.309361 0.56581,1.414981 1.73551,3.634274 2.61213,4.956034 l 0.67847,1.022993 0.10715,-1.175524 c 0.0589,-0.646538 0.20764,-1.803443 0.33045,-2.570901 z m -27.57804,0.911554 c 0.48438,-3.49823 1.80016,-6.608338 3.61954,-8.555505 l 0.81089,-0.867846 -0.25618,-2.08432 c -0.36197,-2.94504 -1.31025,-6.449955 -1.70987,-6.319796 -0.30832,0.100421 -1.48437,1.690819 -2.02793,2.742409 -0.71699,1.387105 -1.28766,3.213858 -1.97692,6.328183 -0.30953,1.398589 -0.6941,3.034088 -0.8546,3.63444 -0.31601,1.182022 -0.29708,1.8521 0.0953,3.373655 0.2586,1.002805 1.05894,2.740187 1.5724,3.413369 l 0.37035,0.485561 0.0967,-0.484319 c 0.0532,-0.266376 0.17034,-1.016 0.26031,-1.665831 z m 23.89555,-2.200216 c -0.61978,-1.338507 -1.32092,-3.384956 -1.58302,-4.620382 -0.14297,-0.673932 -0.29312,-0.920808 -1.03132,-1.695758 -1.28155,-1.345337 -1.76939,-2.001735 -2.84365,-3.826151 l -0.97251,-1.651635 -0.099,0.660216 c -0.0544,0.363117 -0.0653,1.454337 -0.0241,2.424931 0.0852,2.005429 0.37822,3.21774 1.20243,4.974085 0.43266,0.921961 0.71637,1.296259 1.62966,2.149979 0.60819,0.568521 1.41976,1.284102 1.80349,1.590179 0.69406,0.553609 2.29875,1.4031 2.42049,1.281359 0.0351,-0.03509 -0.19103,-0.614165 -0.50249,-1.286823 z m -26.60148,0.277014 c -0.36714,-1.213471 -0.48503,-5.164017 -0.22247,-7.455392 0.13474,-1.17593 0.12648,-1.242756 -0.28455,-2.302372 -0.45782,-1.180229 -0.97016,-2.991615 -0.97717,-3.454825 -0.003,-0.221749 -0.085,-0.159763 -0.35608,0.270471 -0.78336,1.243084 -2.40627,4.70385 -2.68265,5.720606 l -0.2948,1.084473 0.7679,1.532582 c 1.1902,2.375412 1.94394,3.365414 3.40721,4.475163 0.57063,0.432766 0.74505,0.46786 0.64261,0.129294 z m 0.67229,-6.24431 c 1.21965,-5.52132 2.07852,-7.618083 3.90302,-9.528532 l 0.57122,-0.598122 -0.52778,-1.025241 c -0.60489,-1.175062 -1.61072,-2.29342 -2.44579,-2.719444 l -0.57479,-0.293234 0.008,1.361242 c 0.009,1.463049 -0.0849,2.28439 -0.72946,6.37112 -0.2288,1.450755 -0.50826,3.334514 -0.62101,4.18613 -0.21499,1.623769 -0.43279,5.366114 -0.30532,5.246141 0.0408,-0.03837 0.36541,-1.3884 0.72143,-3.00006 z m 26.10023,-0.488382 c 0.75736,-1.810348 2.01378,-3.781459 3.76145,-5.901097 2.16232,-2.622537 1.99786,-2.346162 2.11033,-3.546358 0.20183,-2.153835 -0.15643,-5.656428 -0.71547,-6.994948 l -0.19436,-0.46534 -0.96997,1.176942 c -2.60694,3.163205 -3.8573,5.498684 -5.57183,10.40735 -0.51723,1.480839 -0.51876,1.491917 -0.42618,3.090848 0.0925,1.597396 0.36047,3.228848 0.78902,4.803633 l 0.22501,0.82681 0.30627,-1.245423 c 0.16846,-0.684982 0.47703,-1.65357 0.68573,-2.152417 z m -2.31045,-1.272532 c -0.18029,-1.458794 -0.0952,-5.014657 0.1506,-6.294138 0.14459,-0.752632 0.1294,-0.854043 -0.26129,-1.74422 -0.43534,-0.991922 -0.76857,-2.146303 -0.95757,-3.317269 l -0.11261,-0.697688 -0.85285,1.674452 c -0.8933,1.753888 -1.71088,3.822563 -1.99614,5.050764 l -0.16842,0.725098 0.78323,1.383284 c 0.43077,0.760805 1.04845,1.762937 1.37261,2.226957 0.65835,0.942376 2.03717,2.468714 2.13854,2.367342 0.0361,-0.03612 -0.007,-0.654678 -0.0961,-1.374582 z m -24.00172,-4.247507 c 0.73332,-4.620965 1.03643,-7.592986 0.73845,-7.24068 -0.0617,0.07291 -0.25811,0.6035 -0.43655,1.179093 -0.17844,0.575593 -0.69311,1.783372 -1.14372,2.683954 -0.45061,0.900583 -0.81885,1.77967 -0.81831,1.953527 0.002,0.724226 1.0304,4.284824 1.19094,4.12429 0.0266,-0.0266 0.23773,-1.241679 0.46919,-2.700184 z m 26.51508,-5.036017 c 0.96766,-2.004779 1.5575,-2.910708 3.31865,-5.097037 l 1.31265,-1.629558 -0.34719,-0.549989 c -0.57323,-0.908059 -1.76746,-1.706467 -2.54566,-1.701911 -0.0678,3.97e-4 -0.12505,0.424243 -0.12713,0.94188 -0.004,0.876366 -0.0735,1.087611 -1.01626,3.068561 -1.58824,3.337202 -2.52301,6.484669 -2.74565,9.244915 l -0.0844,1.046533 0.70833,-1.81399 c 0.38959,-0.997694 1.07659,-2.576926 1.52667,-3.509404 z m 60.9934,4.47551 0.96711,-0.219965 0.30206,-0.931221 c 0.37726,-1.163042 0.51222,-3.626168 0.26082,-4.759855 -0.34744,-1.566736 -1.2603,-3.197719 -2.56595,-4.584523 -0.69975,-0.743243 -2.44891,-2.121937 -2.69212,-2.121937 -0.1481,0 -1.74726,1.741137 -2.75543,3.00006 -0.36875,0.460474 -0.71561,0.886549 -0.77078,0.946833 -0.0552,0.06028 -0.60289,-0.0757 -1.21715,-0.302183 -1.15879,-0.427257 -4.53087,-1.311484 -5.62689,-1.475482 l -0.62791,-0.09396 0.76745,0.448411 c 1.93914,1.133003 3.46291,2.631337 5.70407,5.608845 1.83542,2.438465 2.49167,3.165253 3.40608,3.772205 1.37739,0.914262 2.94777,1.145113 4.84864,0.712768 z m -62.66572,-4.536313 c 0.49373,-1.751719 1.13482,-3.364418 2.10934,-5.30625 0.58589,-1.167434 0.74127,-1.625742 0.79887,-2.356325 l 0.0715,-0.906995 -0.53307,0.697689 c -0.29318,0.383728 -1.26683,1.419795 -2.16366,2.302371 -1.25186,1.231957 -1.65139,1.71407 -1.72011,2.075623 -0.12991,0.6835 -0.1039,1.806901 0.0586,2.52912 0.15637,0.695192 0.84597,2.540915 0.92122,2.465667 0.0263,-0.02626 0.23206,-0.701668 0.45734,-1.5009 z"
         id="path174"
         transform="matrix(0.75759183,0,0,0.75759183,18.74754,13.767285)" />
      <path
         style="fill:#000000;fill-opacity:1;stroke:#000000;stroke-width:0.069615;stroke-linecap:square;stroke-dasharray:none;stroke-opacity:1"
         d="m 562.68693,90.662356 c -0.47571,-1.477169 -2.10816,-4.693213 -3.23926,-6.381607 -3.04786,-4.549525 -7.14578,-8.320041 -11.34373,-10.43741 -2.83796,-1.431417 -4.57202,-1.906898 -7.33368,-2.010904 -2.34643,-0.08837 -3.74617,0.12478 -5.36424,0.816846 -1.49287,0.638513 -1.42669,0.621256 -1.14345,0.298154 0.34683,-0.395648 1.80159,-1.087695 2.85516,-1.358238 2.26003,-0.580342 7.39298,-0.6246 9.81822,-0.08466 5.8823,1.309605 10.76453,5.083657 13.58499,10.501438 1.30931,2.51503 2.30364,5.905474 2.53081,8.629523 0.0509,0.610781 0.0679,1.109504 0.0377,1.108272 -0.0302,-0.0012 -0.21134,-0.48787 -0.40249,-1.081417 z"
         id="path175"
         transform="matrix(0.75759183,0,0,0.75759183,18.74754,13.767285)" />
      <path
         style="fill:#000000;fill-opacity:1;stroke:#000000;stroke-width:0.069615;stroke-linecap:square;stroke-dasharray:none;stroke-opacity:1"
         d="m 529.54543,46.898773 c -1.50027,-0.474476 -2.45259,-1.348882 -4.6957,-4.311548 -1.9522,-2.578433 -3.69178,-4.406555 -4.98891,-5.242838 -0.49156,-0.316917 -0.82392,-0.576213 -0.73858,-0.576213 0.36105,0 3.9594,0.987015 5.04282,1.383226 0.64784,0.23692 1.24666,0.430764 1.3307,0.430764 0.084,0 0.37635,-0.298262 0.64956,-0.662804 0.2732,-0.364542 1.04397,-1.27633 1.71281,-2.026195 l 1.21607,-1.36339 0.84195,0.590596 c 1.3807,0.968503 2.81096,2.600806 3.52006,4.017312 0.34125,0.681676 0.69652,1.604752 0.78949,2.051282 0.24084,1.156677 0.0957,3.513155 -0.28367,4.605314 l -0.2998,0.863151 -0.95964,0.218266 c -1.13712,0.258631 -2.36381,0.267655 -3.13716,0.02308 z"
         id="path176"
         transform="matrix(0.75759183,0,0,0.75759183,18.74754,13.767285)" />
      <path
         style="fill:#000000;fill-opacity:1;stroke:#000000;stroke-width:0.069615;stroke-linecap:square;stroke-dasharray:none;stroke-opacity:1"
         d="m 495.63778,79.612807 c -2.24638,-0.560248 -4.52356,-2.766208 -6.77681,-6.56484 -0.478,-0.80583 -1.79076,-3.254716 -2.91725,-5.441969 -1.12649,-2.187253 -2.41341,-4.565939 -2.85982,-5.28597 -0.91177,-1.470617 -2.35109,-3.076769 -3.20438,-3.575798 -0.7776,-0.45476 -1.81592,-0.677999 -2.19927,-0.472838 -0.29281,0.156707 -0.29404,0.149782 -0.19841,-1.116962 0.12325,-1.632737 0.29804,-2.564109 0.7289,-3.884003 1.38032,-4.228508 4.8272,-8.401521 9.91163,-11.999647 1.69045,-1.196297 4.64371,-2.983145 5.97683,-3.616239 2.23675,-1.062227 7.28505,-1.857989 11.81054,-1.861691 l 1.76016,-0.0014 1.10036,0.855445 c 1.72618,1.341967 5.55926,5.282937 6.97174,7.16797 2.49291,3.326913 4.33816,6.917286 5.06719,9.85944 0.6039,2.437169 0.51911,6.143654 -0.20378,8.908376 -1.26466,4.836702 -4.70255,8.023361 -9.5755,8.875757 -1.75676,0.307296 -3.98255,0.196043 -5.45917,-0.272872 l -1.07232,-0.340522 v 1.218698 c 0,1.426633 -0.36927,3.037637 -0.93883,4.095757 -0.5696,1.058204 -1.79976,2.22473 -2.89965,2.749661 -1.42615,0.680638 -3.78778,1.011541 -5.02216,0.703686 z"
         id="path177"
         transform="matrix(0.75759183,0,0,0.75759183,18.74754,13.767285)" />
    </g>
  </g>
</svg>
