<?xml version="1.0" encoding="UTF-8" standalone="no"?>
<!-- Created with Inkscape (http://www.inkscape.org/) -->

<svg
   width="72"
   height="72"
   viewBox="0 0 72 72"
   version="1.1"
   id="svg1"
   inkscape:version="1.4.2 (ebf0e940, 2025-05-08)"
   sodipodi:docname="MoonBunny-Small.svg"
   xmlns:inkscape="http://www.inkscape.org/namespaces/inkscape"
   xmlns:sodipodi="http://sodipodi.sourceforge.net/DTD/sodipodi-0.dtd"
   xmlns="http://www.w3.org/2000/svg"
   xmlns:svg="http://www.w3.org/2000/svg">
  <sodipodi:namedview
     id="namedview1"
     pagecolor="#ffffff"
     bordercolor="#000000"
     borderopacity="0.25"
     inkscape:showpageshadow="2"
     inkscape:pageopacity="0.0"
     inkscape:pagecheckerboard="0"
     inkscape:deskcolor="#d1d1d1"
     inkscape:document-units="px"
     inkscape:zoom="4.1791953"
     inkscape:cx="9.5712206"
     inkscape:cy="39.242004"
     inkscape:window-width="1160"
     inkscape:window-height="727"
     inkscape:window-x="0"
     inkscape:window-y="25"
     inkscape:window-maximized="0"
     inkscape:current-layer="layer1" />
  <defs
     id="defs1" />
  <g
     inkscape:label="Layer 1"
     inkscape:groupmode="layer"
     id="layer1">
    <rect
       style="fill:#f9f9f9;stroke-width:0.502074;stroke-linecap:round;stroke-linejoin:round"
       id="rect1"
       width="72"
       height="72"
       x="0"
       y="0" />
    <g
       id="g326"
       inkscape:label="Moon Bunny"
       transform="matrix(0.26293517,-0.26293517,0.26293517,0.26293517,-138.64753,170.15307)">
      <path
         style="fill:none;fill-opacity:1;stroke:#000000;stroke-width:0.5;stroke-linecap:round;stroke-dasharray:none;stroke-opacity:1"
         d="m 614.05252,71.101308 c -3.85016,1.23204 -5.71526,-1.949736 -2.28307,-4.659329 -3.85405,-1.393244 -4.0754,-3.827737 -1.21143,-3.913834 l 0.74549,0.04659 c -14.41337,-13.903678 -7.08145,-50.980437 3.21494,-47.804676 9.15808,12.663549 13.30452,29.997898 11.64831,45.614797 4.74168,-1.247805 7.16296,0.02636 10.62326,2.283074 -0.85168,-18.390565 10.76352,-48.677239 18.91687,-50.926429 15.8818,13.693059 2.96363,43.96183 -3.68085,50.274123 6.32855,-3.047928 7.92422,0.944663 1.58418,4.705916 5.1948,-0.759993 6.20156,3.629847 4.31609,5.35822 2.18147,-0.708029 4.52232,0.16437 6.40036,1.304612 -1.26755,-17.251371 20.64607,-27.526014 32.53961,-15.136818 -16.10983,-6.872232 -26.4489,16.889344 -9.61573,24.08272 14.96066,4.000513 19.98552,-10.633995 15.236,-19.429388 4.99746,3.856781 11.16624,20.832072 -8.06063,31.7766 -4.67206,2.677893 -11.97756,3.177858 -15.00303,2.516039 -0.0709,4.556995 -2.63787,7.636675 -4.1468,12.300615 1.11134,1.23007 1.64874,2.1423 1.83556,3.78004 -1.60441,3.26274 -4.41716,8.19744 -13.15772,22.63834 -3.77652,2.51212 -6.34264,2.83623 -6.10371,-1.91033 -3.37416,1.47033 -3.61596,-1.89186 -3.4479,-4.28658 0.31739,-15.94211 0.18342,-16.64072 -1.91032,-17.42587 -2.96417,3.12996 -4.12929,8.68247 -5.73097,12.81314 -1.66428,5.47444 -2.32977,11.5546 -8.24701,13.8382 -1.83024,0.40949 -2.74248,-0.10215 -3.4013,-1.86373 -5.95728,5.72003 -7.18947,-8.7863 -8.06064,-11.83469 -1.1155,-3.19267 -1.71884,-6.55918 -3.77405,-9.27206 -2.16748,-2.3657 -2.55313,-5.20831 -2.70242,-8.247 -8.91397,5.95957 -8.86711,-4.82087 -6.19688,-7.26855 -6.2734,0.57758 -2.82364,-3.355534 0.88527,-4.240003 -1.86127,-2.613129 -1.38749,-5.459092 -1.25802,-8.479973 -0.214,-0.486783 -2.91057,-6.940438 0.0465,-16.633766 z"
         id="path326"
         sodipodi:nodetypes="cccccccccccccccccccccccccccccccccc" />
      <path
         style="fill:none;fill-opacity:1;stroke:#000000;stroke-width:0.5;stroke-linecap:round;stroke-dasharray:none;stroke-opacity:1"
         d="m 603.88701,46.611771 c 3.63838,10.395283 14.20562,-4.232638 9.47629,-13.476336 3.48008,1.155404 5.76287,-2.380527 7.74415,-6.09624"
         id="path327"
         sodipodi:nodetypes="ccc" />
      <path
         style="fill:none;fill-opacity:1;stroke:#000000;stroke-width:0.5;stroke-linecap:round;stroke-dasharray:none;stroke-opacity:1"
         d="m 613.9863,71.301002 c 2.76263,-6.188263 6.64826,-10.853706 11.99792,-10.853706"
         id="path328"
         sodipodi:nodetypes="cc" />
      <path
         style="fill:none;fill-opacity:1;stroke:#000000;stroke-width:0.5;stroke-linecap:round;stroke-dasharray:none;stroke-opacity:1"
         d="m 643.01669,30.893832 c 0.1438,6.037892 5.11327,6.756744 9.25181,5.296085 -1.51735,6.4589 -0.23137,13.796621 4.44609,18.667067"
         id="path329"
         sodipodi:nodetypes="ccc" />
      <path
         style="fill:none;fill-opacity:1;stroke:#000000;stroke-width:0.5;stroke-linecap:round;stroke-dasharray:none;stroke-opacity:1"
         d="m 657.92253,72.074246 c -3.62039,1.940059 -7.58136,2.108392 -11.57929,1.549984 1.28775,2.47324 1.52646,4.26042 -0.31911,6.336699 4.22615,-1.957148 2.81018,1.04393 1.27646,4.148486 l 1.88122,-0.300681 c 1.44848,0.191382 2.18102,0.837713 1.49227,2.899183 -1.85977,4.091463 -3.04946,5.289901 -7.61316,3.692604 l -0.96655,1.085386 c -1.41992,1.788043 -19.75029,11.867043 -26.69929,4.918031"
         id="path330"
         sodipodi:nodetypes="ccccccccc" />
      <path
         style="fill:none;fill-opacity:1;stroke:#000000;stroke-width:1;stroke-linecap:round;stroke-dasharray:none;stroke-opacity:1"
         d="m 614.63487,93.063623 c 0.17404,0.921375 0.93442,1.777601 1.90745,2.610199 1.51163,-0.115991 2.29116,-1.086105 3.31294,-1.773597"
         id="path331"
         sodipodi:nodetypes="ccc" />
      <path
         style="fill:#000000;fill-opacity:1;stroke:#000000;stroke-width:0.5;stroke-linecap:round;stroke-dasharray:none;stroke-opacity:1"
         d="m 623.35424,72.203831 c -10.31274,-5.087973 -7.23666,15.424233 -0.4203,5.265527 -1.21509,0.662149 -2.9789,2.113633 -3.54719,0.501962 -0.18964,-3.483125 2.95215,-4.879219 4.51768,-2.175165 0.61923,-1.211751 0.60175,-2.775979 -0.55019,-3.592324 z"
         id="path332"
         sodipodi:nodetypes="ccccc" />
      <path
         style="fill:none;fill-opacity:1;stroke:#000000;stroke-width:0.5;stroke-linecap:round;stroke-dasharray:none;stroke-opacity:1"
         d="m 649.38932,83.719623 c 0.28105,-4.590476 2.08219,-6.068078 7.68133,-11.194034"
         id="path333"
         sodipodi:nodetypes="cc" />
      <path
         style="fill:none;fill-opacity:1;stroke:#000000;stroke-width:0.5;stroke-linecap:round;stroke-dasharray:none;stroke-opacity:1"
         d="m 649.51855,89.091905 c 2.50813,6.986984 9.13207,8.24205 13.60203,4.862323 -0.053,7.993102 7.6367,14.288972 14.87328,9.053992"
         id="path334"
         sodipodi:nodetypes="ccc" />
      <path
         style="fill:none;fill-opacity:1;stroke:#000000;stroke-width:0.5;stroke-linecap:round;stroke-dasharray:none;stroke-opacity:1"
         d="m 664.5618,73.544883 c 16.20156,6.160939 15.83379,17.816067 14.86818,23.333926"
         id="path335"
         sodipodi:nodetypes="cc" />
      <ellipse
         style="fill:#000000;fill-opacity:1;stroke:#000000;stroke-width:0.5;stroke-linecap:round;stroke-dasharray:none;stroke-opacity:1"
         id="path336"
         cx="658.96497"
         cy="101.29868"
         rx="3.3477557"
         ry="2.4946594" />
      <path
         style="fill:none;fill-opacity:1;stroke:#000000;stroke-width:0.5;stroke-linecap:round;stroke-dasharray:none;stroke-opacity:1"
         d="m 657.89417,134.0791 c 2.10366,-6.64968 2.61481,-13.33125 3.1638,-20.23293 -1.06602,-1.26933 -2.02283,-3.02236 -3.36131,-4.23818 -2.16342,0.49743 -0.007,-0.37608 -5.08683,2.5613"
         id="path337"
         sodipodi:nodetypes="cccc" />
      <path
         style="fill:none;fill-opacity:1;stroke:#000000;stroke-width:0.5;stroke-linecap:round;stroke-dasharray:none;stroke-opacity:1"
         d="m 635.10864,137.03462 0.49873,-4.56527 0.0767,-4.21999 -0.26855,-4.48853 c -0.11895,-1.37642 -1.09818,-10.90774 -2.10999,-15.88252"
         id="path338"
         sodipodi:nodetypes="ccccc" />
      <path
         style="fill:none;fill-opacity:1;stroke:#000000;stroke-width:0.5;stroke-linecap:round;stroke-dasharray:none;stroke-opacity:1"
         d="m 623.21268,115.85793 c 5.0052,4.06084 7.91147,3.84154 11.63394,3.41436"
         id="path340"
         sodipodi:nodetypes="cc" />
      <ellipse
         style="fill:#000000;fill-opacity:1;stroke:#000000;stroke-width:0.5;stroke-linecap:round;stroke-dasharray:none;stroke-opacity:1"
         id="path341"
         cx="632.25818"
         cy="86.864212"
         rx="2.9050379"
         ry="3.1560905" />
      <ellipse
         style="fill:#000000;fill-opacity:1;stroke:#000000;stroke-width:0.5;stroke-linecap:round;stroke-dasharray:none;stroke-opacity:1"
         id="path342"
         cx="611.84839"
         cy="86.099823"
         rx="3.0843611"
         ry="3.1560905" />
      <path
         style="fill:#000000;fill-opacity:1;stroke:#000000;stroke-width:0.0467934;stroke-linecap:round;stroke-dasharray:none;stroke-opacity:1"
         d="m 606.81571,49.794282 c -0.769,-0.233919 -1.59369,-1.049545 -2.12205,-2.098714 -0.47698,-0.947156 -0.56252,-1.233676 -0.72196,-2.41804 -0.31744,-2.357959 -0.38184,-3.463541 -0.38058,-6.532624 10e-4,-3.150784 0.0605,-4.114796 0.42481,-6.921522 0.84979,-6.546253 2.98699,-12.269952 5.60578,-15.013007 1.41835,-1.485642 2.7058,-2.069884 4.16068,-1.888108 l 0.51848,0.06478 0.69025,0.999472 c 1.97157,2.85481 4.15331,6.798284 5.47931,9.903826 l 0.40541,0.949482 -0.5408,0.963551 c -1.42869,2.545504 -2.86929,4.254735 -4.09268,4.855847 -0.86156,0.423323 -1.73136,0.486647 -2.68902,0.195766 -0.37053,-0.112542 -0.69135,-0.186956 -0.71294,-0.165363 -0.0216,0.02159 0.15148,0.43477 0.3846,0.91817 1.51002,3.131111 1.32801,7.434969 -0.47817,11.306881 -0.79527,1.704835 -2.18437,3.504675 -3.2793,4.248961 -0.88705,0.602987 -1.92852,0.850662 -2.65182,0.630643 z"
         id="path343" />
      <path
         style="fill:#000000;fill-opacity:1;stroke:#000000;stroke-width:0.0467934;stroke-linecap:round;stroke-dasharray:none;stroke-opacity:1"
         d="m 656.21734,53.827824 c -2.00076,-2.380528 -3.38536,-5.479618 -3.95817,-8.859403 -0.44877,-2.647937 -0.35978,-5.838737 0.23334,-8.366637 0.10145,-0.432363 0.17141,-0.799157 0.15547,-0.8151 -0.0159,-0.01594 -0.34304,0.07073 -0.72688,0.192605 -1.65703,0.526135 -3.50027,0.672438 -4.75252,0.37722 -2.21531,-0.522256 -3.59075,-2.272251 -3.81066,-4.848355 -0.0567,-0.664144 -0.0508,-0.687355 0.54905,-2.168716 2.81699,-6.956645 5.8182,-12.207287 8.59688,-15.040364 0.97135,-0.990363 1.62815,-1.50066 2.49421,-1.937842 l 0.58285,-0.294225 0.518,0.447205 c 0.2849,0.245963 0.86263,0.840831 1.28386,1.32193 3.79313,4.332285 5.58125,9.672729 5.58458,16.67899 0.003,7.022367 -1.84923,14.649963 -5.44885,22.434716 -0.36376,0.786696 -0.68737,1.44642 -0.71914,1.466052 -0.0318,0.01963 -0.29367,-0.245001 -0.58202,-0.588076 z"
         id="path344" />
      <path
         style="fill:#000000;fill-opacity:1;stroke:#000000;stroke-width:0.0467934;stroke-linecap:round;stroke-dasharray:none;stroke-opacity:1"
         d="m 671.15719,104.49542 c -4.37557,-0.86783 -7.71825,-5.317354 -7.72053,-10.276986 -2.1e-4,-0.450386 -0.0213,-0.818884 -0.0469,-0.818884 -0.0256,0 -0.30808,0.192546 -0.62776,0.427881 -1.82589,1.344142 -4.25527,1.899862 -6.3783,1.459036 -1.8296,-0.379897 -3.55173,-1.471713 -4.79368,-3.039142 -0.54897,-0.692852 -1.7238,-2.814258 -1.7238,-3.112701 0,-0.06412 0.23275,-0.570538 0.51723,-1.125369 0.28447,-0.55483 0.58453,-1.240322 0.6668,-1.523316 0.19324,-0.664707 0.19364,-1.575217 8.6e-4,-1.948005 -0.19456,-0.376243 -0.64122,-0.74631 -0.9944,-0.823882 -0.15506,-0.03406 -0.30228,-0.09485 -0.32715,-0.135093 -0.0765,-0.123805 0.21984,-1.889897 0.42334,-2.522827 0.62604,-1.947128 1.81601,-3.419186 5.56249,-6.881149 1.11409,-1.02948 1.6531,-1.459078 2.1057,-1.678249 0.58808,-0.284776 0.64879,-0.294477 1.82494,-0.291591 1.12999,0.0028 1.28125,0.02516 2.12411,0.314322 0.49912,0.171235 1.32034,0.540374 1.82494,0.820309 0.50461,0.279935 1.22502,0.632948 1.60092,0.784473 4.44537,1.791931 8.19375,4.397807 10.49508,7.296203 3.08715,3.888097 4.3331,8.828827 3.61088,14.318768 -0.0711,0.540464 -0.15563,1.34063 -0.18785,1.778148 -0.11802,1.602971 -0.49606,3.213164 -1.10498,4.706504 -0.18263,0.44788 -0.30805,0.60053 -0.72295,0.87995 -0.71937,0.48445 -1.93501,1.03358 -2.78009,1.25581 -0.93876,0.24687 -2.47478,0.30915 -3.34889,0.13579 z"
         id="path345" />
      <path
         style="fill:#808080;fill-opacity:1;stroke:#000000;stroke-width:0.104538;stroke-linecap:round;stroke-dasharray:none;stroke-opacity:1"
         d="m 680.05215,93.927074 c 0.0966,-2.427845 0.0471,-3.484142 -0.2327,-4.965539 -1.17216,-6.206155 -5.37211,-11.196098 -12.20457,-14.500199 -0.93627,-0.452771 -1.98631,-0.922223 -2.33343,-1.043226 -0.62062,-0.21635 -0.63111,-0.244209 -0.63111,-1.676018 0,-7.120753 4.8254,-14.042061 11.8199,-16.953879 2.86136,-1.191187 4.50861,-1.526919 7.51957,-1.532587 2.95721,-0.0056 4.89768,0.379764 7.19435,1.428628 1.29199,0.590038 3.84401,2.192003 3.70826,2.327759 -0.0475,0.04747 -0.7265,-0.02518 -1.50896,-0.161442 -2.83405,-0.49353 -6.01122,0.09255 -8.58235,1.583147 -0.56121,0.325357 -1.69653,1.274392 -2.52293,2.108967 -1.18717,1.198901 -1.69859,1.92705 -2.43648,3.468989 -1.21345,2.535718 -1.49692,3.774086 -1.47569,6.446698 0.0144,1.811964 0.1168,2.485957 0.58645,3.859921 1.07401,3.142002 3.04657,5.486083 6.17296,7.335626 1.93298,1.143537 3.95712,1.63085 6.80925,1.639337 2.4645,0.0073 3.84503,-0.287163 5.89914,-1.258418 4.81878,-2.278495 7.59295,-8.680798 6.46213,-14.913496 -0.17652,-0.972932 -0.28636,-1.803552 -0.24409,-1.845823 0.12807,-0.128065 1.16477,1.754098 1.79094,3.251504 0.83912,2.006652 1.2504,4.27991 1.24621,6.888073 -0.009,5.75528 -2.25787,10.387753 -7.24716,14.930263 -1.66565,1.516494 -4.87623,3.676355 -6.80983,4.581195 -2.88421,1.349683 -6.59337,2.082237 -10.54969,2.08354 l -2.55287,8.4e-4 z"
         id="path346" />
      <path
         style="fill:#808080;fill-opacity:1;stroke:#000000;stroke-width:0.0484745;stroke-linecap:round;stroke-dasharray:none;stroke-opacity:1"
         d="m 618.71738,80.435983 c -0.56897,-0.211636 -0.95854,-0.54376 -1.3522,-1.152841 -0.64839,-1.00318 -0.92665,-2.249459 -0.83811,-3.753715 0.11503,-1.954236 0.96517,-3.405165 2.37837,-4.059154 1.05413,-0.487819 2.84876,-0.284322 4.37969,0.496623 0.86268,0.440064 1.37523,1.630741 1.17297,2.724884 -0.0545,0.29468 -0.19393,0.756337 -0.30989,1.025904 l -0.21085,0.490123 -0.30188,-0.459431 c -0.84177,-1.281109 -2.10991,-1.527533 -3.1112,-0.604572 -0.50662,0.466981 -0.81484,1.148531 -0.89172,1.971765 -0.072,0.770528 0.002,1.076345 0.30976,1.277882 0.34038,0.223025 0.93701,0.05619 1.96705,-0.550057 0.89128,-0.52458 0.91821,-0.533533 1.06669,-0.354628 0.0762,0.0918 -0.0292,0.297528 -0.41101,0.802099 -1.29105,1.706325 -2.78625,2.539918 -3.84767,2.145118 z"
         id="path347" />
    </g>
  </g>
</svg>
